<svg width="14" height="21" viewBox="0 0 14 21" fill="none" xmlns="http://www.w3.org/2000/svg">
<path fill-rule="evenodd" clip-rule="evenodd" d="M12.6748 19.9873C11.7412 20.9209 10.2275 20.9209 9.29395 19.9873L1.3252 12.0185C0.391603 11.085 0.391603 9.57129 1.3252 8.63769C2.2588 7.7041 3.77246 7.7041 4.70606 8.6377L12.6748 16.6064C13.6084 17.54 13.6084 19.0537 12.6748 19.9873Z" fill="#DBC087"/>
<path fill-rule="evenodd" clip-rule="evenodd" d="M1.3252 12.0498C0.391601 11.1162 0.391602 9.60254 1.3252 8.66895L9.29395 0.7002C10.2275 -0.233396 11.7412 -0.233396 12.6748 0.700201C13.6084 1.6338 13.6084 3.14746 12.6748 4.08106L4.70605 12.0498C3.77245 12.9834 2.25879 12.9834 1.3252 12.0498Z" fill="#DBC087"/>
</svg>
