<svg width="156" height="155" viewBox="0 0 156 155" fill="none" xmlns="http://www.w3.org/2000/svg">
<g clip-path="url(#clip0_410_5220)">
<path d="M154.88 77.14C154.88 81.44 154.52 85.66 153.84 89.77C147.78 126.12 115.98 153.84 77.6697 153.84C35.0197 153.84 0.449707 119.5 0.449707 77.14C0.449707 34.78 35.0197 0.429993 77.6697 0.429993C116.69 0.429993 148.95 29.18 154.15 66.53C154.63 70 154.88 73.54 154.88 77.14Z" fill="#00022B"/>
<path d="M77.6598 154.28C56.9198 154.28 37.4198 146.26 22.7498 131.69C8.07977 117.12 0.00976562 97.75 0.00976562 77.14C0.00976562 56.53 8.08977 37.16 22.7498 22.59C37.4198 8.02 56.9198 0 77.6598 0C96.5198 0 114.71 6.8 128.87 19.15C142.9 31.39 152.03 48.19 154.58 66.47C155.07 69.97 155.32 73.56 155.32 77.14C155.32 81.4 154.97 85.67 154.27 89.84C151.3 107.65 142.02 123.96 128.13 135.77C114.09 147.71 96.1698 154.28 77.6598 154.28ZM77.6598 0.87C57.1498 0.87 37.8698 8.8 23.3698 23.21C8.86977 37.61 0.889766 56.77 0.889766 77.14C0.889766 97.51 8.87976 116.66 23.3798 131.07C37.8798 145.48 57.1598 153.41 77.6698 153.41C95.9598 153.41 113.68 146.91 127.56 135.11C141.29 123.44 150.47 107.31 153.4 89.7C154.09 85.57 154.44 81.35 154.44 77.14C154.44 73.6 154.2 70.05 153.71 66.59C151.19 48.52 142.17 31.91 128.3 19.81C114.3 7.59 96.3098 0.87 77.6598 0.87Z" fill="url(#paint0_linear_410_5220)"/>
<path d="M77.66 148.86C58.37 148.86 40.24 141.4 26.61 127.85C12.97 114.3 5.45996 96.29 5.45996 77.13C5.45996 57.97 12.97 39.96 26.61 26.41C40.25 12.86 58.38 5.40002 77.66 5.40002C96.94 5.40002 115.08 12.86 128.71 26.41C142.35 39.96 149.86 57.97 149.86 77.13C149.86 96.29 142.35 114.3 128.71 127.85C115.08 141.4 96.95 148.86 77.66 148.86ZM77.66 6.29002C58.61 6.29002 40.7 13.66 27.23 27.04C13.76 40.42 6.33996 58.21 6.33996 77.14C6.33996 96.07 13.76 113.86 27.23 127.24C40.7 140.62 58.61 147.99 77.66 147.99C96.71 147.99 114.62 140.62 128.09 127.24C141.56 113.86 148.98 96.07 148.98 77.14C148.98 58.21 141.56 40.42 128.09 27.04C114.62 13.66 96.71 6.29002 77.66 6.29002Z" fill="url(#paint1_linear_410_5220)"/>
<path d="M76.4298 153.5L5.83984 83.11L6.45984 82.5L77.0499 152.89L76.4298 153.5Z" fill="url(#paint2_linear_410_5220)"/>
<path d="M77.0497 153.51L76.4297 152.88L148.87 82.49L149.48 83.12L77.0497 153.51Z" fill="url(#paint3_linear_410_5220)"/>
<path d="M78.3799 153.45C74.0499 153.45 69.7999 153.09 65.6599 152.41L70.5499 151.19L65.6499 146.48L72.2099 148.34L70.3399 141.82L75.0799 146.69L76.7299 140.12L78.3899 146.69L83.1299 141.82L81.2599 148.34L87.8199 146.48L82.9199 151.19L89.0599 152.71C85.5699 153.21 81.9999 153.45 78.3799 153.45Z" fill="#00022B"/>
<path d="M78.38 153.89C74.1 153.89 69.79 153.54 65.59 152.85L63.5 152.51L69.68 150.98L64.09 145.6L71.58 147.72L69.44 140.28L74.85 145.84L76.74 138.34L78.63 145.84L84.04 140.28L81.9 147.72L89.39 145.6L83.79 150.98L91.36 152.86L89.11 153.17C85.59 153.64 81.98 153.89 78.38 153.89ZM67.9 152.31C74.1 153.15 80.46 153.24 86.66 152.58L82.05 151.43L86.26 147.38L80.63 148.98L82.24 143.38L78.17 147.56L76.75 141.92L75.33 147.56L71.26 143.38L72.87 148.98L67.24 147.38L71.45 151.43L67.9 152.31Z" fill="url(#paint4_linear_410_5220)"/>
<path d="M148.86 71.78L78.27 1.38997L78.9 0.779968L149.48 71.16L148.86 71.78Z" fill="url(#paint5_linear_410_5220)"/>
<path d="M6.45984 71.78L5.83984 71.16L78.2798 0.769958L78.8898 1.39996L6.45984 71.78Z" fill="url(#paint6_linear_410_5220)"/>
<path d="M76.9498 0.820007C81.2798 0.820007 85.5298 1.18001 89.6698 1.86001L84.7798 3.08001L89.6798 7.79001L83.1198 5.93001L84.9898 12.45L80.2498 7.58001L78.5898 14.15L76.9298 7.57001L72.1898 12.44L74.0598 5.92001L67.4998 7.78001L72.3998 3.07001L66.2598 1.55001C69.7498 1.07001 73.3198 0.820007 76.9498 0.820007Z" fill="#00022B"/>
<path d="M78.58 15.94L76.69 8.43998L71.28 14L73.42 6.55998L65.93 8.68998L71.53 3.30998L63.96 1.42998L66.21 1.11998C73.93 0.0599848 82.01 0.159985 89.74 1.42998L91.83 1.76998L85.65 3.29998L91.24 8.67999L83.75 6.55998L85.89 14L80.48 8.43998L78.58 15.94ZM77.16 6.70998L78.58 12.35L80 6.70998L84.07 10.89L82.46 5.28998L88.09 6.88998L83.88 2.83998L87.41 1.95998C81.21 1.11998 74.85 1.02998 68.65 1.68998L73.26 2.83998L69.05 6.88998L74.68 5.28998L73.07 10.89L77.16 6.70998Z" fill="url(#paint7_linear_410_5220)"/>
<path d="M77.66 154.28C56.92 154.28 37.42 146.26 22.75 131.69C8.08 117.12 0 97.75 0 77.14C0 56.53 8.08 37.16 22.75 22.59C37.42 8.02 56.92 0 77.66 0C96.16 0 114.08 6.57 128.12 18.5C142 30.3 151.29 46.61 154.26 64.42C154.37 65.07 154.47 65.74 154.58 66.47C155.06 69.93 155.31 73.48 155.32 77.01V77.14C155.32 81.39 154.97 85.65 154.27 89.81V89.85C151.29 107.66 142 123.97 128.12 135.78C114.09 147.71 96.17 154.28 77.66 154.28ZM77.66 0.87C57.15 0.87 37.87 8.8 23.37 23.21C8.87 37.62 0.88 56.77 0.88 77.14C0.88 97.51 8.87 116.66 23.37 131.07C37.87 145.48 57.15 153.41 77.66 153.41C95.95 153.41 113.67 146.91 127.55 135.11C141.27 123.45 150.44 107.34 153.39 89.74V89.7C154.09 85.58 154.44 81.35 154.44 77.14V77.01C154.44 73.52 154.19 70.01 153.71 66.59C153.61 65.87 153.51 65.21 153.4 64.56C150.46 46.95 141.28 30.83 127.55 19.16C113.67 7.37 95.96 0.87 77.66 0.87Z" fill="url(#paint8_linear_410_5220)"/>
<path d="M149.17 82.81C152.323 82.81 154.88 80.2714 154.88 77.14C154.88 74.0085 152.323 71.47 149.17 71.47C146.016 71.47 143.46 74.0085 143.46 77.14C143.46 80.2714 146.016 82.81 149.17 82.81Z" fill="#00022B"/>
<path d="M149.17 83.24C145.78 83.24 143.02 80.5 143.02 77.14C143.02 73.78 145.78 71.04 149.17 71.04C152.56 71.04 155.32 73.78 155.32 77.14C155.32 80.5 152.56 83.24 149.17 83.24ZM149.17 71.91C146.27 71.91 143.9 74.26 143.9 77.14C143.9 80.02 146.26 82.37 149.17 82.37C152.08 82.37 154.44 80.02 154.44 77.14C154.44 74.25 152.08 71.91 149.17 71.91Z" fill="url(#paint9_linear_410_5220)"/>
<path d="M6.14994 82.81C9.30349 82.81 11.8599 80.2714 11.8599 77.14C11.8599 74.0085 9.30349 71.47 6.14994 71.47C2.9964 71.47 0.439941 74.0085 0.439941 77.14C0.439941 80.2714 2.9964 82.81 6.14994 82.81Z" fill="#00022B"/>
<path d="M6.15 83.24C2.76 83.24 0 80.5 0 77.14C0 73.78 2.76 71.04 6.15 71.04C9.54 71.04 12.3 73.78 12.3 77.14C12.3 80.5 9.54 83.24 6.15 83.24ZM6.15 71.91C3.25 71.91 0.88 74.26 0.88 77.14C0.88 80.02 3.24 82.37 6.15 82.37C9.06 82.37 11.42 80.02 11.42 77.14C11.42 74.26 9.06 71.91 6.15 71.91Z" fill="url(#paint10_linear_410_5220)"/>
<path d="M77.6602 138.9C43.3802 138.9 15.4902 111.19 15.4902 77.14C15.4902 43.09 43.3802 15.38 77.6602 15.38C111.94 15.38 139.83 43.09 139.83 77.14C139.83 111.19 111.94 138.9 77.6602 138.9ZM77.6602 16.25C43.8602 16.25 16.3702 43.56 16.3702 77.14C16.3702 110.72 43.8702 138.03 77.6602 138.03C111.45 138.03 138.95 110.72 138.95 77.14C138.95 43.56 111.46 16.25 77.6602 16.25Z" fill="url(#paint11_linear_410_5220)"/>
<path d="M28.48 35.64C28.48 33.59 30.15 31.93 32.21 31.93C34.27 31.93 35.94 33.59 35.94 35.64C35.94 37.69 34.27 39.35 32.21 39.35C30.15 39.35 28.48 37.69 28.48 35.64Z" fill="url(#paint12_linear_410_5220)"/>
<path d="M32.2101 39.93C29.8301 39.93 27.8901 38.01 27.8901 35.64C27.8901 33.27 29.8301 31.35 32.2101 31.35C34.5901 31.35 36.5301 33.27 36.5301 35.64C36.5301 38.01 34.5901 39.93 32.2101 39.93ZM32.2101 32.52C30.4801 32.52 29.0601 33.92 29.0601 35.65C29.0601 37.38 30.4701 38.78 32.2101 38.78C33.9501 38.78 35.3601 37.38 35.3601 35.65C35.3601 33.92 33.9501 32.52 32.2101 32.52Z" fill="#00022B"/>
<path d="M126.84 118.63C126.84 120.68 125.17 122.34 123.11 122.34C121.05 122.34 119.38 120.68 119.38 118.63C119.38 116.58 121.05 114.92 123.11 114.92C125.17 114.93 126.84 116.59 126.84 118.63Z" fill="url(#paint13_linear_410_5220)"/>
<path d="M123.11 122.92C120.73 122.92 118.79 121 118.79 118.63C118.79 116.26 120.73 114.34 123.11 114.34C125.49 114.34 127.43 116.26 127.43 118.63C127.43 121 125.49 122.92 123.11 122.92ZM123.11 115.51C121.38 115.51 119.96 116.91 119.96 118.64C119.96 120.37 121.37 121.77 123.11 121.77C124.85 121.77 126.26 120.37 126.26 118.64C126.26 116.91 124.85 115.51 123.11 115.51Z" fill="#00022B"/>
<path d="M121.11 38.0201C121 38.0201 120.89 37.9801 120.8 37.8901C120.63 37.7201 120.63 37.4401 120.8 37.2701L122.07 36.0001C122.24 35.8301 122.52 35.8301 122.69 36.0001C122.86 36.1701 122.86 36.4501 122.69 36.6201L121.42 37.8901C121.34 37.9801 121.23 38.0201 121.11 38.0201Z" fill="url(#paint14_linear_410_5220)"/>
<path d="M123.79 35.36C123.68 35.36 123.57 35.32 123.48 35.23C123.31 35.06 123.31 34.78 123.48 34.61L124.75 33.35C124.92 33.18 125.2 33.18 125.37 33.35C125.54 33.52 125.54 33.8 125.37 33.97L124.1 35.23C124.02 35.32 123.91 35.36 123.79 35.36Z" fill="url(#paint15_linear_410_5220)"/>
<path d="M122.37 35.38C122.26 35.38 122.15 35.34 122.06 35.25L120.81 34.01C120.64 33.84 120.64 33.56 120.81 33.39C120.98 33.22 121.26 33.22 121.43 33.39L122.68 34.63C122.85 34.8 122.85 35.08 122.68 35.25C122.59 35.34 122.48 35.38 122.37 35.38Z" fill="url(#paint16_linear_410_5220)"/>
<path d="M125.07 38.06C124.96 38.06 124.85 38.02 124.76 37.93L123.46 36.64C123.29 36.47 123.29 36.19 123.46 36.02C123.63 35.85 123.91 35.85 124.08 36.02L125.38 37.31C125.55 37.48 125.55 37.76 125.38 37.93C125.29 38.02 125.18 38.06 125.07 38.06Z" fill="url(#paint17_linear_410_5220)"/>
<path d="M127.64 36.08H124.47C124.23 36.08 124.03 35.88 124.03 35.64C124.03 35.4 124.23 35.2 124.47 35.2H127.64C127.88 35.2 128.08 35.4 128.08 35.64C128.08 35.88 127.88 36.08 127.64 36.08Z" fill="url(#paint18_linear_410_5220)"/>
<path d="M121.71 36.08H118.59C118.35 36.08 118.15 35.88 118.15 35.64C118.15 35.4 118.35 35.2 118.59 35.2H121.71C121.95 35.2 122.15 35.4 122.15 35.64C122.15 35.88 121.95 36.08 121.71 36.08Z" fill="url(#paint19_linear_410_5220)"/>
<path d="M123.11 40.58C122.87 40.58 122.67 40.38 122.67 40.14V36.99C122.67 36.75 122.87 36.55 123.11 36.55C123.35 36.55 123.55 36.75 123.55 36.99V40.14C123.55 40.38 123.36 40.58 123.11 40.58Z" fill="url(#paint20_linear_410_5220)"/>
<path d="M123.11 34.68C122.87 34.68 122.67 34.48 122.67 34.24V31.14C122.67 30.9 122.87 30.7 123.11 30.7C123.35 30.7 123.55 30.9 123.55 31.14V34.24C123.55 34.49 123.36 34.68 123.11 34.68Z" fill="url(#paint21_linear_410_5220)"/>
<path d="M124.81 35.31L123.4 33.91C123.23 33.74 122.95 33.74 122.78 33.91L121.37 35.31C121.2 35.48 121.2 35.76 121.37 35.93L122.78 37.33C122.87 37.42 122.98 37.46 123.09 37.46C123.2 37.46 123.31 37.42 123.4 37.33L124.81 35.93C124.98 35.76 124.98 35.48 124.81 35.31Z" fill="url(#paint22_linear_410_5220)"/>
<path d="M30.21 121.01C30.1 121.01 29.99 120.97 29.9 120.88C29.73 120.71 29.73 120.43 29.9 120.26L31.17 118.99C31.34 118.82 31.62 118.82 31.79 118.99C31.96 119.16 31.96 119.44 31.79 119.61L30.52 120.88C30.44 120.97 30.32 121.01 30.21 121.01Z" fill="url(#paint23_linear_410_5220)"/>
<path d="M32.8901 118.35C32.7801 118.35 32.6701 118.31 32.5801 118.22C32.4101 118.05 32.4101 117.77 32.5801 117.6L33.8501 116.34C34.0201 116.17 34.3001 116.17 34.4701 116.34C34.6401 116.51 34.6401 116.79 34.4701 116.96L33.2001 118.22C33.1201 118.31 33.0001 118.35 32.8901 118.35Z" fill="url(#paint24_linear_410_5220)"/>
<path d="M31.46 118.37C31.35 118.37 31.24 118.33 31.15 118.24L29.9 117C29.73 116.83 29.73 116.55 29.9 116.38C30.07 116.21 30.35 116.21 30.52 116.38L31.77 117.62C31.94 117.79 31.94 118.07 31.77 118.24C31.69 118.33 31.58 118.37 31.46 118.37Z" fill="url(#paint25_linear_410_5220)"/>
<path d="M34.1701 121.05C34.0601 121.05 33.9501 121.01 33.8601 120.92L32.5601 119.63C32.3901 119.46 32.3901 119.18 32.5601 119.01C32.7301 118.84 33.0101 118.84 33.1801 119.01L34.4801 120.3C34.6501 120.47 34.6501 120.75 34.4801 120.92C34.3901 121.01 34.2801 121.05 34.1701 121.05Z" fill="url(#paint26_linear_410_5220)"/>
<path d="M36.7399 119.07H33.5699C33.3299 119.07 33.1299 118.87 33.1299 118.63C33.1299 118.39 33.3299 118.19 33.5699 118.19H36.7399C36.9799 118.19 37.1799 118.39 37.1799 118.63C37.1799 118.87 36.9799 119.07 36.7399 119.07Z" fill="url(#paint27_linear_410_5220)"/>
<path d="M30.81 119.07H27.69C27.45 119.07 27.25 118.87 27.25 118.63C27.25 118.39 27.45 118.19 27.69 118.19H30.81C31.05 118.19 31.25 118.39 31.25 118.63C31.25 118.87 31.05 119.07 30.81 119.07Z" fill="url(#paint28_linear_410_5220)"/>
<path d="M32.21 123.57C31.97 123.57 31.77 123.37 31.77 123.13V119.98C31.77 119.74 31.97 119.54 32.21 119.54C32.45 119.54 32.65 119.74 32.65 119.98V123.13C32.65 123.37 32.45 123.57 32.21 123.57Z" fill="url(#paint29_linear_410_5220)"/>
<path d="M32.21 117.67C31.97 117.67 31.77 117.47 31.77 117.23V114.13C31.77 113.89 31.97 113.69 32.21 113.69C32.45 113.69 32.65 113.89 32.65 114.13V117.23C32.65 117.48 32.45 117.67 32.21 117.67Z" fill="url(#paint30_linear_410_5220)"/>
<path d="M33.9098 118.3L32.4998 116.9C32.4198 116.82 32.3098 116.77 32.1898 116.77C32.0698 116.77 31.9598 116.82 31.8798 116.9L30.4698 118.3C30.2998 118.47 30.2998 118.75 30.4698 118.92L31.8798 120.32C31.9698 120.41 32.0798 120.45 32.1898 120.45C32.2998 120.45 32.4098 120.41 32.4998 120.32L33.9098 118.92C33.9898 118.84 34.0398 118.73 34.0398 118.61C34.0298 118.5 33.9898 118.38 33.9098 118.3Z" fill="url(#paint31_linear_410_5220)"/>
<path d="M136.918 91.1236C144.643 58.3942 124.373 25.5996 91.6435 17.8748C58.9142 10.15 26.1196 30.4201 18.3948 63.1495C10.6699 95.8789 30.9401 128.673 63.6695 136.398C96.3988 144.123 129.193 123.853 136.918 91.1236Z" fill="#00022B"/>
<path d="M111.77 118.8C105.37 115.01 97.6301 113.49 90.0701 112.14C89.6101 112.06 89.1301 111.97 88.7601 111.71C88.1301 111.27 89.5701 96.51 88.7601 90.05L77.9701 90.94L67.1801 90.05C66.3701 96.51 67.8101 111.27 67.1801 111.71C66.8101 111.97 66.3301 112.05 65.8701 112.14C58.3101 113.48 50.5801 115 44.1701 118.8C41.9701 120.1 39.9701 121.74 38.3101 123.6C45.2001 129.44 53.3901 133.78 62.4001 136.11C66.9501 136.15 71.7201 136.2 76.5001 136.25V136.29C76.9901 136.29 77.4701 136.28 77.9601 136.27C78.4501 136.27 78.9301 136.28 79.4201 136.29V136.25C83.9801 136.2 88.5301 136.15 92.8801 136.11C102.05 133.75 110.38 129.29 117.34 123.29C115.74 121.56 113.83 120.03 111.75 118.79L111.77 118.8Z" fill="#00022B" stroke="url(#paint32_linear_410_5220)" stroke-miterlimit="10"/>
<path d="M89.5298 105.15C89.5298 105.15 89.5698 105.14 89.5798 105.13C89.5598 105.11 89.5398 105.12 89.5298 105.15Z" fill="#00022B" stroke="url(#paint33_linear_410_5220)" stroke-linecap="round" stroke-linejoin="round"/>
<path d="M77.66 138.03C93.29 138.03 107.53 132.14 118.31 122.46C108.21 110.19 89.54 109.55 89.58 109.7C89.63 109.88 89.34 105.53 89.53 105.15C82.42 108.09 73.23 108.38 65.96 105.95L66.33 109.7C66.33 109.7 52 111.51 42.77 117.48C40.6 118.88 38.78 120.71 37.27 122.68C48.02 132.22 62.16 138.03 77.67 138.03H77.66Z" fill="#00022B" stroke="url(#paint34_linear_410_5220)" stroke-linecap="round" stroke-linejoin="round"/>
<path d="M67.8498 105.97C68.1198 107.98 68.3898 109.99 68.6598 111.99C68.6998 112.26 68.8698 112.5 69.1698 112.5C69.4198 112.5 69.7198 112.26 69.6798 111.99C69.4098 109.98 69.1398 107.97 68.8698 105.97C68.8298 105.7 68.6598 105.46 68.3598 105.46C68.1098 105.46 67.8098 105.7 67.8498 105.97Z" fill="url(#paint35_linear_410_5220)"/>
<path d="M71.7698 106.23C71.8398 108.59 71.9098 110.94 71.9798 113.3C71.9998 113.96 73.0298 113.96 73.0098 113.3C72.9398 110.94 72.8698 108.59 72.7998 106.23C72.7798 105.57 71.7498 105.57 71.7698 106.23Z" fill="url(#paint36_linear_410_5220)"/>
<path d="M76.6002 106.62C77.0002 108.74 77.1402 110.89 77.0402 113.05C77.0102 113.71 78.0402 113.71 78.0702 113.05C78.1802 110.81 78.0102 108.56 77.6002 106.35C77.4802 105.7 76.4902 105.98 76.6102 106.62H76.6002Z" fill="url(#paint37_linear_410_5220)"/>
<path d="M81.91 106.22C82.07 108.23 82.1 110.24 82 112.26C81.97 112.92 82.99 112.92 83.03 112.26C83.13 110.25 83.1 108.23 82.94 106.22C82.89 105.57 81.86 105.56 81.91 106.22Z" fill="url(#paint38_linear_410_5220)"/>
<path d="M85.7499 105.44C86.0499 107.74 86.0199 110.08 85.6399 112.37C85.5299 113.02 86.5199 113.29 86.6299 112.64C87.0299 110.25 87.0899 107.83 86.7799 105.43C86.7399 105.15 86.5699 104.92 86.2699 104.92C86.0199 104.92 85.7199 105.16 85.7599 105.43L85.7499 105.44Z" fill="url(#paint39_linear_410_5220)"/>
<path d="M102.06 113.3C102.15 113.09 102.26 112.88 102.38 112.69C102.41 112.64 102.45 112.59 102.49 112.53C102.51 112.51 102.52 112.49 102.54 112.47C102.59 112.4 102.56 112.47 102.53 112.49C102.57 112.46 102.61 112.39 102.65 112.34C102.69 112.3 102.73 112.25 102.77 112.21C102.85 112.13 102.93 112.05 103.02 111.97C103.06 111.93 103.11 111.89 103.15 111.86C103.17 111.84 103.21 111.82 103.22 111.8C103.2 111.83 103.14 111.86 103.2 111.81C103.39 111.67 103.59 111.55 103.8 111.44C104.04 111.32 104.13 110.96 103.98 110.74C103.82 110.49 103.54 110.43 103.28 110.56C102.36 111.02 101.58 111.83 101.18 112.78C101.12 112.91 101.09 113.03 101.13 113.18C101.16 113.3 101.25 113.43 101.37 113.49C101.59 113.61 101.96 113.57 102.07 113.31L102.06 113.3Z" fill="url(#paint40_linear_410_5220)"/>
<path d="M104.04 114.03L105.89 112.74C106 112.66 106.09 112.57 106.13 112.43C106.16 112.31 106.15 112.14 106.08 112.03C105.94 111.81 105.61 111.68 105.38 111.85C104.76 112.28 104.15 112.71 103.53 113.14C103.42 113.22 103.33 113.31 103.29 113.45C103.26 113.57 103.27 113.74 103.34 113.85C103.48 114.07 103.81 114.2 104.04 114.03Z" fill="url(#paint41_linear_410_5220)"/>
<path d="M52.5801 111.89C53.9601 112.29 55.3401 112.7 56.7301 113.1C57.3701 113.29 57.6401 112.3 57.0001 112.11C55.6201 111.71 54.2401 111.3 52.8501 110.9C52.2101 110.71 51.9401 111.7 52.5801 111.89Z" fill="url(#paint42_linear_410_5220)"/>
<path d="M45.7502 113.78C46.8802 114.14 48.0102 114.5 49.1402 114.86C49.4002 114.94 49.7102 114.76 49.7702 114.5C49.8302 114.22 49.6902 113.96 49.4102 113.87C48.2802 113.51 47.1502 113.15 46.0202 112.79C45.7602 112.71 45.4502 112.89 45.3902 113.15C45.3302 113.43 45.4702 113.69 45.7502 113.78Z" fill="url(#paint43_linear_410_5220)"/>
<path d="M42.99 116.72C44.28 116.69 45.55 116.86 46.79 117.23C47.42 117.42 47.7 116.43 47.06 116.24C45.74 115.85 44.36 115.66 42.99 115.7C42.71 115.7 42.48 115.93 42.48 116.21C42.48 116.49 42.71 116.73 42.99 116.72Z" fill="url(#paint44_linear_410_5220)"/>
<path d="M94.9798 123.4L95.4898 125.5C95.5498 125.76 95.8598 125.94 96.1198 125.86C96.3898 125.77 96.5498 125.51 96.4798 125.23C96.3098 124.53 96.1398 123.83 95.9698 123.13C95.9098 122.87 95.5998 122.69 95.3398 122.77C95.0698 122.86 94.9098 123.12 94.9798 123.4Z" fill="url(#paint45_linear_410_5220)"/>
<path d="M97.7599 124.21C97.8699 124.91 97.9799 125.6 98.0899 126.3C98.1099 126.42 98.2299 126.55 98.3299 126.61C98.4399 126.67 98.5999 126.7 98.7299 126.66C99.0199 126.57 99.1299 126.31 99.0899 126.03C98.9799 125.33 98.8699 124.64 98.7599 123.94C98.7399 123.82 98.6199 123.69 98.5199 123.63C98.4099 123.57 98.2499 123.54 98.1199 123.58C97.8299 123.67 97.7199 123.93 97.7599 124.21Z" fill="url(#paint46_linear_410_5220)"/>
<path d="M89.9601 128.01C90.0101 128.09 90.0501 128.17 90.0901 128.25C90.1101 128.29 90.1301 128.33 90.1501 128.36C90.1601 128.38 90.1701 128.4 90.1801 128.43C90.2001 128.48 90.2001 128.47 90.1801 128.41C90.1901 128.49 90.2401 128.57 90.2701 128.65C90.3001 128.73 90.3201 128.81 90.3401 128.89C90.3601 128.97 90.3801 129.06 90.4001 129.14C90.4001 129.19 90.4201 129.24 90.4201 129.28C90.4401 129.39 90.4201 129.17 90.4201 129.28C90.4401 129.46 90.4501 129.64 90.4401 129.83C90.4401 130.1 90.6801 130.36 90.9501 130.34C91.2401 130.33 91.4501 130.11 91.4601 129.83C91.4901 129.01 91.2701 128.18 90.8501 127.48C90.7101 127.25 90.3801 127.14 90.1501 127.3C89.9201 127.45 89.8201 127.76 89.9701 128L89.9601 128.01Z" fill="url(#paint47_linear_410_5220)"/>
<path d="M58.46 126.17V128.79C58.46 129.06 58.7 129.32 58.97 129.3C59.25 129.29 59.48 129.07 59.48 128.79V126.17C59.48 125.9 59.24 125.64 58.97 125.66C58.69 125.67 58.46 125.89 58.46 126.17Z" fill="url(#paint48_linear_410_5220)"/>
<path d="M62.9002 126.05C63.0602 127.01 63.2302 127.98 63.3902 128.94C63.4402 129.21 63.7802 129.38 64.0202 129.3C64.3102 129.21 64.4302 128.95 64.3802 128.67C64.2202 127.71 64.0502 126.74 63.8902 125.78C63.8402 125.51 63.5002 125.34 63.2602 125.42C62.9702 125.51 62.8502 125.77 62.9002 126.05Z" fill="url(#paint49_linear_410_5220)"/>
<path d="M67.39 121.33C67.45 121.53 67.51 121.74 67.55 121.95C67.57 122.06 67.59 122.17 67.61 122.29C67.64 122.45 67.6 122.19 67.61 122.35C67.61 122.41 67.62 122.46 67.63 122.52C67.67 122.95 67.67 123.39 67.63 123.82C67.6 124.09 67.89 124.34 68.14 124.33C68.44 124.32 68.62 124.1 68.65 123.82C68.75 122.9 68.65 121.95 68.37 121.06C68.29 120.8 68.01 120.61 67.74 120.7C67.48 120.78 67.3 121.06 67.38 121.33H67.39Z" fill="url(#paint50_linear_410_5220)"/>
<path d="M109.94 123.35C109.81 122.7 108.82 122.98 108.95 123.62C109.29 125.32 109.64 127.02 110.01 128.71C110.32 128.52 110.62 128.32 110.93 128.12C110.59 126.53 110.25 124.94 109.94 123.35Z" fill="url(#paint51_linear_410_5220)"/>
<path d="M47.1001 124.3C46.9301 126.03 46.7501 127.76 46.5801 129.49C46.9001 129.68 47.2301 129.86 47.5501 130.05C47.7401 128.13 47.9401 126.22 48.1301 124.3C48.2001 123.64 47.1701 123.65 47.1001 124.3Z" fill="url(#paint52_linear_410_5220)"/>
<path d="M60.2198 77.13C59.6698 81.75 59.1398 86.6 60.8098 90.94C61.5298 92.82 62.6398 94.51 63.7798 96.16C64.4798 97.17 65.1998 98.18 66.0798 99.04C68.1898 101.11 71.0898 102.17 73.9898 102.55C76.8898 102.93 79.8398 102.68 82.7498 102.42C84.0698 102.31 85.4298 102.18 86.6198 101.58C87.9598 100.9 88.9398 99.69 89.8898 98.52C93.0398 94.59 96.2698 90.3 96.7398 85.25C96.8898 83.69 96.7598 82.12 96.6298 80.56C96.4398 78.38 96.2198 76.19 95.9798 74.01C95.8798 73.09 95.7598 68.71 95.3098 67.91C94.7598 66.95 93.7898 66.31 92.7898 65.86C89.8098 64.5 86.4198 64.43 83.1798 64.77C79.9298 65.11 76.7298 65.83 73.4698 65.97L60.2198 77.12V77.13Z" fill="url(#paint53_linear_410_5220)"/>
<path d="M61.9702 58.78C59.4902 65.91 60.1002 81.82 61.9702 89.08C61.9702 89.12 61.9902 89.16 62.0002 89.2C63.0102 93.1 64.6302 96.99 67.6802 100.02C70.7302 103.05 75.4202 105.11 80.0702 104.57C84.5602 104.05 88.3402 101.21 90.5302 97.83C92.7202 94.45 93.5702 90.57 94.1802 86.74C95.2502 80.08 94.9702 58.97 94.2202 58.91C84.5402 58.21 71.4002 56.53 61.9802 58.55V58.78H61.9702Z" fill="#00022B"/>
<path d="M93.7802 81.17C94.0202 79.65 96.0902 78.69 97.7602 79.14C99.4202 79.59 100.52 81.12 100.65 82.65C100.77 84.19 100.07 85.7 99.0702 86.96C97.4102 89.06 94.4902 90.7 91.6802 90.05C92.1302 86.89 92.7602 83.76 93.5902 80.66L93.7702 81.17H93.7802Z" fill="#00022B"/>
<path d="M62.2301 81.17C61.9901 79.65 59.9201 78.69 58.2501 79.14C56.5901 79.59 55.4901 81.12 55.3601 82.65C55.2401 84.19 55.9401 85.7 56.9401 86.96C58.6001 89.06 61.5201 90.7 64.3301 90.05C63.8801 86.89 63.2501 83.76 62.4201 80.66L62.2401 81.17H62.2301Z" fill="#00022B"/>
<path d="M94.7599 79.54C94.6099 74.3 93.6699 65.54 93.5299 60.31C91.2299 62.39 87.3599 62.41 85.0299 60.37C84.4599 59.87 83.8799 59.23 83.1199 59.28C82.4699 59.32 81.9899 59.86 81.5099 60.29C79.6399 61.99 76.7799 62.51 74.4299 61.57C73.3999 61.16 72.3999 60.49 71.2899 60.6C70.3999 60.69 69.6599 61.28 68.8599 61.66C66.7999 62.64 64.1399 62.17 62.5399 60.55C62.2099 65.79 61.8799 74.46 61.5399 79.7C60.9099 79.21 60.0799 78.97 59.2799 79.06C59.7299 73.79 59.7399 65.07 59.3199 59.8C59.1599 57.79 58.9299 55.74 59.3599 53.77C59.7899 51.8 61.0199 49.87 62.9199 49.2C64.8199 48.53 67.3199 49.59 67.6799 51.57C66.3099 47.62 68.0799 42.63 71.9299 41.01C75.7799 39.38 80.9899 42.19 81.1899 46.36C82.1999 43.72 85.5699 42.28 88.1699 43.38C90.7699 44.47 92.0999 47.89 90.9299 50.46C91.6399 49.53 92.3899 48.57 93.4199 48.01C94.4499 47.45 95.8499 47.39 96.7099 48.19C98.0499 49.44 97.2699 51.66 96.4199 53.28C97.8899 52.11 100.19 53.9 100.19 55.78C100.19 57.66 98.8299 59.23 97.5499 60.62C99.0099 61.21 98.4799 63.37 97.8399 64.8C96.3799 68.07 96.3699 74.93 96.4699 78.51C95.9099 76.64 96.2699 77.1 95.0999 79.19L94.7599 79.53V79.54Z" fill="url(#paint54_linear_410_5220)"/>
<path d="M94.6499 85.86C95.5199 84.94 96.3899 84.25 97.4699 83.61C97.6999 83.47 97.7999 83.14 97.6499 82.91C97.4999 82.68 97.1999 82.58 96.9499 82.73C95.8399 83.39 94.8099 84.2 93.9199 85.14C93.7399 85.33 93.7099 85.67 93.9199 85.87C94.1199 86.05 94.4499 86.08 94.6499 85.87V85.86Z" fill="white"/>
<path d="M95.5899 85.37C95.9499 85.8 96.3099 86.23 96.6599 86.66C96.7399 86.76 96.8999 86.81 97.0199 86.81C97.1499 86.81 97.2999 86.75 97.3799 86.66C97.4699 86.56 97.5399 86.43 97.5299 86.3C97.5299 86.16 97.4699 86.05 97.3799 85.94C97.0199 85.51 96.6599 85.08 96.3099 84.65C96.2299 84.55 96.0699 84.5 95.9499 84.5C95.8199 84.5 95.6699 84.56 95.5899 84.65C95.4999 84.75 95.4299 84.88 95.4399 85.01C95.4399 85.15 95.4999 85.26 95.5899 85.37Z" fill="white"/>
<path d="M57.6898 83.08C58.8698 83.76 59.7098 84.9 60.0498 86.22C60.1198 86.49 60.4198 86.65 60.6798 86.58C60.9498 86.51 61.1098 86.22 61.0398 85.95C60.6398 84.38 59.5998 83.01 58.2098 82.2C57.9698 82.06 57.6498 82.14 57.5098 82.38C57.3698 82.62 57.4498 82.94 57.6898 83.08Z" fill="white"/>
<path d="M58.8798 85.28C58.9198 85.19 58.9698 85.1 59.0398 85.01L58.9598 85.11C59.0298 85.02 59.1098 84.94 59.1998 84.87C59.1698 84.9 59.1298 84.92 59.0998 84.95C59.1898 84.88 59.2998 84.82 59.4098 84.77C59.3698 84.79 59.3298 84.8 59.2898 84.82C59.3898 84.78 59.4898 84.75 59.5998 84.73L59.4598 84.75C59.4598 84.75 59.4898 84.75 59.5098 84.75C59.5798 84.75 59.6498 84.74 59.7098 84.71C59.7698 84.69 59.8298 84.65 59.8798 84.6C59.9698 84.51 60.0398 84.37 60.0298 84.24C60.0298 84.11 59.9798 83.97 59.8798 83.88C59.7898 83.79 59.6498 83.72 59.5198 83.73C59.1998 83.76 58.8898 83.86 58.6298 84.05C58.3698 84.24 58.1498 84.47 58.0198 84.76C57.9798 84.82 57.9598 84.88 57.9598 84.95C57.9398 85.02 57.9498 85.09 57.9598 85.15C57.9898 85.27 58.0798 85.4 58.1998 85.46C58.3198 85.52 58.4598 85.55 58.5998 85.51C58.7198 85.47 58.8498 85.39 58.9098 85.27L58.8798 85.28Z" fill="white"/>
<path d="M79.1499 77.15L79.1099 81.86C79.1099 82.28 79.5399 82.46 79.8799 82.3C81.0199 81.79 82.4699 82.71 82.3999 83.97C82.3699 84.55 82.0499 85.14 81.5599 85.46C80.8399 85.94 79.8899 85.73 79.1099 85.53C78.4699 85.37 78.1999 86.36 78.8399 86.52C79.9499 86.8 81.2199 86.97 82.2099 86.25C82.9599 85.7 83.4299 84.79 83.4199 83.85C83.4199 81.8 81.1299 80.61 79.3599 81.4C79.6199 81.55 79.8699 81.7 80.1299 81.84L80.1699 77.13C80.1699 76.47 79.1499 76.47 79.1399 77.13L79.1499 77.15Z" fill="white"/>
<path d="M71.15 77.04C71.15 78.31 70.38 79.33 69.43 79.33C68.48 79.33 67.71 78.3 67.71 77.04C67.71 75.78 68.48 74.75 69.43 74.75C70.38 74.75 71.15 75.78 71.15 77.04Z" fill="white"/>
<path d="M88.6998 77.04C88.6998 78.31 87.9298 79.33 86.9798 79.33C86.0298 79.33 85.2598 78.3 85.2598 77.04C85.2598 75.78 86.0298 74.75 86.9798 74.75C87.9298 74.75 88.6998 75.78 88.6998 77.04Z" fill="white"/>
<path d="M73.24 88.99C74.8 90.18 76.76 90.8 78.71 90.75C79.37 90.73 79.37 89.71 78.71 89.72C76.92 89.76 75.18 89.19 73.75 88.1C73.53 87.93 73.18 88.07 73.05 88.28C72.9 88.54 73.01 88.81 73.23 88.98L73.24 88.99Z" fill="white"/>
<path d="M84.8201 71.73C84.9601 71.55 85.1201 71.41 85.2701 71.25C85.3701 71.15 85.1301 71.35 85.2401 71.27C85.2801 71.24 85.3201 71.21 85.3701 71.18C85.4701 71.12 85.5701 71.06 85.6701 71C85.6801 71 85.8001 70.92 85.8101 70.93C85.8001 70.93 85.6201 71 85.7801 70.94C85.8901 70.9 86.0001 70.87 86.1101 70.84C86.1601 70.83 86.2101 70.82 86.2601 70.81C86.2901 70.81 86.4601 70.77 86.3101 70.8C86.1601 70.82 86.3401 70.8 86.3701 70.8C86.4301 70.8 86.5001 70.8 86.5601 70.8C86.5901 70.8 86.8701 70.82 86.8701 70.81C86.8701 70.82 86.6501 70.77 86.8301 70.81C86.8801 70.81 86.9301 70.83 86.9801 70.84C87.0901 70.87 87.2101 70.9 87.3201 70.94C87.3401 70.94 87.5101 71 87.3801 70.96C87.2501 70.91 87.4101 70.97 87.4301 70.99C87.5301 71.04 87.6401 71.1 87.7401 71.16C87.7801 71.19 87.8301 71.22 87.8701 71.25C88.0001 71.33 87.8801 71.23 87.8501 71.23C87.9101 71.23 88.0701 71.43 88.1101 71.46C88.1901 71.54 88.2701 71.63 88.3401 71.72C88.6801 72.14 89.4401 72.1 89.7901 71.72C90.2001 71.27 90.1501 70.72 89.7901 70.27C89.0301 69.32 87.7801 68.75 86.5701 68.76C85.3601 68.77 84.1101 69.34 83.3601 70.3C83.1901 70.52 83.0601 70.73 83.0601 71.03C83.0601 71.28 83.1701 71.58 83.3601 71.76C83.7301 72.1 84.4601 72.21 84.8101 71.76L84.8201 71.73Z" fill="white"/>
<path d="M68.4001 71.04C68.5401 70.86 68.7001 70.72 68.8501 70.56C68.9501 70.46 68.7101 70.66 68.8201 70.58C68.8601 70.55 68.9001 70.52 68.9501 70.49C69.0501 70.43 69.1501 70.37 69.2501 70.31C69.2601 70.31 69.3801 70.23 69.3901 70.24C69.3801 70.24 69.2001 70.31 69.3601 70.25C69.4701 70.21 69.5801 70.17 69.6901 70.15C69.7401 70.14 69.7901 70.13 69.8401 70.12C69.8701 70.12 70.0401 70.08 69.8901 70.11C69.7401 70.13 69.9201 70.11 69.9501 70.11C70.0101 70.11 70.0801 70.11 70.1401 70.11C70.1701 70.11 70.4501 70.13 70.4501 70.12C70.4501 70.13 70.2301 70.08 70.4101 70.12C70.4601 70.12 70.5101 70.14 70.5601 70.15C70.6701 70.18 70.7901 70.21 70.9001 70.25C70.9201 70.25 71.0901 70.31 70.9601 70.27C70.8301 70.22 70.9901 70.28 71.0101 70.3C71.1101 70.35 71.2201 70.41 71.3201 70.47C71.3601 70.5 71.4101 70.53 71.4501 70.56C71.5801 70.64 71.4601 70.54 71.4301 70.54C71.4901 70.54 71.6501 70.74 71.6901 70.77C71.7701 70.85 71.8501 70.94 71.9201 71.03C72.2601 71.45 73.0201 71.41 73.3701 71.03C73.7801 70.58 73.7301 70.03 73.3701 69.58C72.6101 68.63 71.3601 68.06 70.1501 68.07C68.9401 68.07 67.6901 68.65 66.9401 69.61C66.7701 69.83 66.6401 70.04 66.6401 70.34C66.6401 70.59 66.7501 70.89 66.9401 71.07C67.3101 71.41 68.0401 71.52 68.3901 71.07L68.4001 71.04Z" fill="white"/>
<path d="M72.04 59.88C72.11 61.54 72.24 63.31 73.43 64.59C74.41 65.65 76 66.02 77.22 65.13C77.78 64.72 78.17 64.08 78.16 63.37C78.15 62.59 77.6 61.94 76.79 61.95C76.03 61.96 75.41 62.54 75.25 63.27C75.09 63.97 75.26 64.74 75.67 65.33C76.49 66.55 78.16 67.19 79.56 66.62C79.82 66.52 80 66.28 79.92 65.99C79.85 65.75 79.55 65.53 79.29 65.63C78.51 65.95 77.62 65.79 76.98 65.25C76.66 64.98 76.4 64.63 76.29 64.22C76.19 63.84 76.17 63.25 76.57 63.03C76.98 62.81 77.2 63.15 77.14 63.55C77.07 63.96 76.74 64.27 76.38 64.45C75.51 64.87 74.6 64.4 74.04 63.71C73.18 62.65 73.14 61.18 73.08 59.88C73.05 59.22 72.03 59.22 72.05 59.88H72.04Z" fill="url(#paint55_linear_410_5220)"/>
<path d="M93.7802 81.17C94.0202 79.65 96.0902 78.69 97.7602 79.14C99.4202 79.59 100.52 81.12 100.65 82.65C100.77 84.19 100.07 85.7 99.0702 86.96C97.4102 89.06 94.4902 90.7 91.6802 90.05" stroke="url(#paint56_linear_410_5220)" stroke-linecap="round" stroke-linejoin="round"/>
<path d="M62.2301 81.17C61.9901 79.65 59.9201 78.69 58.2501 79.14C56.5901 79.59 55.4901 81.12 55.3601 82.65C55.2401 84.19 55.9401 85.7 56.9401 86.96C58.6001 89.06 61.5201 90.7 64.3301 90.05" stroke="url(#paint57_linear_410_5220)" stroke-linecap="round" stroke-linejoin="round"/>
</g>
<defs>
<linearGradient id="paint0_linear_410_5220" x1="0.00976562" y1="77.14" x2="155.32" y2="77.14" gradientUnits="userSpaceOnUse">
<stop stop-color="#A18B62"/>
<stop offset="0.07" stop-color="#A89268"/>
<stop offset="0.51" stop-color="#D2BE88"/>
<stop offset="1" stop-color="#A18B62"/>
</linearGradient>
<linearGradient id="paint1_linear_410_5220" x1="149.892" y1="77.0814" x2="5.4933" y2="77.0885" gradientUnits="userSpaceOnUse">
<stop stop-color="#CCB479"/>
<stop offset="0.54"/>
<stop offset="1" stop-color="#BBA471"/>
</linearGradient>
<linearGradient id="paint2_linear_410_5220" x1="5.83984" y1="118" x2="77.0499" y2="118" gradientUnits="userSpaceOnUse">
<stop/>
<stop offset="0.04" stop-color="#221F18"/>
<stop offset="0.13" stop-color="#524934"/>
<stop offset="0.22" stop-color="#7E6F4C"/>
<stop offset="0.3" stop-color="#9F8C5F"/>
<stop offset="0.38" stop-color="#B8A26D"/>
<stop offset="0.45" stop-color="#C7AE76"/>
<stop offset="0.5" stop-color="#CCB479"/>
<stop offset="0.58" stop-color="#C8B077"/>
<stop offset="0.66" stop-color="#BDA672"/>
<stop offset="0.74" stop-color="#AA9768"/>
<stop offset="0.82" stop-color="#90805C"/>
<stop offset="0.9" stop-color="#70654C"/>
<stop offset="0.97" stop-color="#494439"/>
<stop offset="1" stop-color="#393631"/>
</linearGradient>
<linearGradient id="paint3_linear_410_5220" x1="76.4297" y1="118" x2="149.48" y2="118" gradientUnits="userSpaceOnUse">
<stop/>
<stop offset="0.04" stop-color="#221F18"/>
<stop offset="0.13" stop-color="#524934"/>
<stop offset="0.22" stop-color="#7E6F4C"/>
<stop offset="0.3" stop-color="#9F8C5F"/>
<stop offset="0.38" stop-color="#B8A26D"/>
<stop offset="0.45" stop-color="#C7AE76"/>
<stop offset="0.5" stop-color="#CCB479"/>
<stop offset="0.58" stop-color="#C8B077"/>
<stop offset="0.66" stop-color="#BDA672"/>
<stop offset="0.74" stop-color="#AA9768"/>
<stop offset="0.82" stop-color="#90805C"/>
<stop offset="0.9" stop-color="#70654C"/>
<stop offset="0.97" stop-color="#494439"/>
<stop offset="1" stop-color="#393631"/>
</linearGradient>
<linearGradient id="paint4_linear_410_5220" x1="68.54" y1="141.15" x2="85.81" y2="158.41" gradientUnits="userSpaceOnUse">
<stop stop-color="#A18B62"/>
<stop offset="0.07" stop-color="#A89268"/>
<stop offset="0.51" stop-color="#D2BE88"/>
<stop offset="1" stop-color="#A18B62"/>
</linearGradient>
<linearGradient id="paint5_linear_410_5220" x1="149.48" y1="36.28" x2="78.27" y2="36.28" gradientUnits="userSpaceOnUse">
<stop/>
<stop offset="0.04" stop-color="#221F18"/>
<stop offset="0.13" stop-color="#524934"/>
<stop offset="0.22" stop-color="#7E6F4C"/>
<stop offset="0.3" stop-color="#9F8C5F"/>
<stop offset="0.38" stop-color="#B8A26D"/>
<stop offset="0.45" stop-color="#C7AE76"/>
<stop offset="0.5" stop-color="#CCB479"/>
<stop offset="0.58" stop-color="#C8B077"/>
<stop offset="0.66" stop-color="#BDA672"/>
<stop offset="0.74" stop-color="#AA9768"/>
<stop offset="0.82" stop-color="#90805C"/>
<stop offset="0.9" stop-color="#70654C"/>
<stop offset="0.97" stop-color="#494439"/>
<stop offset="1" stop-color="#393631"/>
</linearGradient>
<linearGradient id="paint6_linear_410_5220" x1="78.8898" y1="36.27" x2="5.83984" y2="36.27" gradientUnits="userSpaceOnUse">
<stop/>
<stop offset="0.04" stop-color="#221F18"/>
<stop offset="0.13" stop-color="#524934"/>
<stop offset="0.22" stop-color="#7E6F4C"/>
<stop offset="0.3" stop-color="#9F8C5F"/>
<stop offset="0.38" stop-color="#B8A26D"/>
<stop offset="0.45" stop-color="#C7AE76"/>
<stop offset="0.5" stop-color="#CCB479"/>
<stop offset="0.58" stop-color="#C8B077"/>
<stop offset="0.66" stop-color="#BDA672"/>
<stop offset="0.74" stop-color="#AA9768"/>
<stop offset="0.82" stop-color="#90805C"/>
<stop offset="0.9" stop-color="#70654C"/>
<stop offset="0.97" stop-color="#494439"/>
<stop offset="1" stop-color="#393631"/>
</linearGradient>
<linearGradient id="paint7_linear_410_5220" x1="86.79" y1="13.13" x2="69.52" y2="-4.13002" gradientUnits="userSpaceOnUse">
<stop stop-color="#A18B62"/>
<stop offset="0.07" stop-color="#A89268"/>
<stop offset="0.51" stop-color="#D2BE88"/>
<stop offset="1" stop-color="#A18B62"/>
</linearGradient>
<linearGradient id="paint8_linear_410_5220" x1="0" y1="-466.78" x2="155.32" y2="-466.78" gradientUnits="userSpaceOnUse">
<stop stop-color="#A18B62"/>
<stop offset="0.07" stop-color="#A89268"/>
<stop offset="0.51" stop-color="#D2BE88"/>
<stop offset="1" stop-color="#A18B62"/>
</linearGradient>
<linearGradient id="paint9_linear_410_5220" x1="144.84" y1="81.46" x2="153.5" y2="72.81" gradientUnits="userSpaceOnUse">
<stop stop-color="#A18B62"/>
<stop offset="0.07" stop-color="#A89268"/>
<stop offset="0.51" stop-color="#D2BE88"/>
<stop offset="1" stop-color="#A18B62"/>
</linearGradient>
<linearGradient id="paint10_linear_410_5220" x1="1.82" y1="81.46" x2="10.48" y2="72.81" gradientUnits="userSpaceOnUse">
<stop stop-color="#A18B62"/>
<stop offset="0.07" stop-color="#A89268"/>
<stop offset="0.51" stop-color="#D2BE88"/>
<stop offset="1" stop-color="#A18B62"/>
</linearGradient>
<linearGradient id="paint11_linear_410_5220" x1="121.46" y1="120.93" x2="33.8702" y2="33.34" gradientUnits="userSpaceOnUse">
<stop stop-color="#CCB479"/>
<stop offset="0.54"/>
<stop offset="1" stop-color="#BBA471"/>
</linearGradient>
<linearGradient id="paint12_linear_410_5220" x1="32.21" y1="39.35" x2="32.21" y2="31.93" gradientUnits="userSpaceOnUse">
<stop stop-color="#A18B62"/>
<stop offset="0.07" stop-color="#A89268"/>
<stop offset="0.51" stop-color="#D2BE88"/>
<stop offset="1" stop-color="#A18B62"/>
</linearGradient>
<linearGradient id="paint13_linear_410_5220" x1="123.11" y1="114.92" x2="123.11" y2="122.34" gradientUnits="userSpaceOnUse">
<stop stop-color="#A18B62"/>
<stop offset="0.07" stop-color="#A89268"/>
<stop offset="0.51" stop-color="#D2BE88"/>
<stop offset="1" stop-color="#A18B62"/>
</linearGradient>
<linearGradient id="paint14_linear_410_5220" x1="121.09" y1="38.0626" x2="122.398" y2="35.8069" gradientUnits="userSpaceOnUse">
<stop stop-color="#A18B62"/>
<stop offset="0.07" stop-color="#A89268"/>
<stop offset="0.51" stop-color="#D2BE88"/>
<stop offset="1" stop-color="#A18B62"/>
</linearGradient>
<linearGradient id="paint15_linear_410_5220" x1="123.777" y1="35.4038" x2="125.071" y2="33.1482" gradientUnits="userSpaceOnUse">
<stop stop-color="#A18B62"/>
<stop offset="0.07" stop-color="#A89268"/>
<stop offset="0.51" stop-color="#D2BE88"/>
<stop offset="1" stop-color="#A18B62"/>
</linearGradient>
<linearGradient id="paint16_linear_410_5220" x1="121.408" y1="34.8876" x2="122.073" y2="33.7421" gradientUnits="userSpaceOnUse">
<stop stop-color="#A18B62"/>
<stop offset="0.07" stop-color="#A89268"/>
<stop offset="0.51" stop-color="#D2BE88"/>
<stop offset="1" stop-color="#A18B62"/>
</linearGradient>
<linearGradient id="paint17_linear_410_5220" x1="124.081" y1="37.5464" x2="124.753" y2="36.3938" gradientUnits="userSpaceOnUse">
<stop stop-color="#A18B62"/>
<stop offset="0.07" stop-color="#A89268"/>
<stop offset="0.51" stop-color="#D2BE88"/>
<stop offset="1" stop-color="#A18B62"/>
</linearGradient>
<linearGradient id="paint18_linear_410_5220" x1="126.27" y1="36.46" x2="125.84" y2="34.82" gradientUnits="userSpaceOnUse">
<stop stop-color="#A18B62"/>
<stop offset="0.07" stop-color="#A89268"/>
<stop offset="0.51" stop-color="#D2BE88"/>
<stop offset="1" stop-color="#A18B62"/>
</linearGradient>
<linearGradient id="paint19_linear_410_5220" x1="120.37" y1="36.45" x2="119.93" y2="34.83" gradientUnits="userSpaceOnUse">
<stop stop-color="#A18B62"/>
<stop offset="0.07" stop-color="#A89268"/>
<stop offset="0.51" stop-color="#D2BE88"/>
<stop offset="1" stop-color="#A18B62"/>
</linearGradient>
<linearGradient id="paint20_linear_410_5220" x1="123.62" y1="40.46" x2="122.6" y2="36.67" gradientUnits="userSpaceOnUse">
<stop stop-color="#A18B62"/>
<stop offset="0.07" stop-color="#A89268"/>
<stop offset="0.51" stop-color="#D2BE88"/>
<stop offset="1" stop-color="#A18B62"/>
</linearGradient>
<linearGradient id="paint21_linear_410_5220" x1="123.61" y1="34.56" x2="122.61" y2="30.82" gradientUnits="userSpaceOnUse">
<stop stop-color="#A18B62"/>
<stop offset="0.07" stop-color="#A89268"/>
<stop offset="0.51" stop-color="#D2BE88"/>
<stop offset="1" stop-color="#A18B62"/>
</linearGradient>
<linearGradient id="paint22_linear_410_5220" x1="123.7" y1="37.9" x2="122.48" y2="33.33" gradientUnits="userSpaceOnUse">
<stop stop-color="#A18B62"/>
<stop offset="0.07" stop-color="#A89268"/>
<stop offset="0.51" stop-color="#D2BE88"/>
<stop offset="1" stop-color="#A18B62"/>
</linearGradient>
<linearGradient id="paint23_linear_410_5220" x1="30.1914" y1="121.056" x2="31.4925" y2="118.793" gradientUnits="userSpaceOnUse">
<stop stop-color="#A18B62"/>
<stop offset="0.07" stop-color="#A89268"/>
<stop offset="0.51" stop-color="#D2BE88"/>
<stop offset="1" stop-color="#A18B62"/>
</linearGradient>
<linearGradient id="paint24_linear_410_5220" x1="32.8786" y1="118.397" x2="34.1726" y2="116.141" gradientUnits="userSpaceOnUse">
<stop stop-color="#A18B62"/>
<stop offset="0.07" stop-color="#A89268"/>
<stop offset="0.51" stop-color="#D2BE88"/>
<stop offset="1" stop-color="#A18B62"/>
</linearGradient>
<linearGradient id="paint25_linear_410_5220" x1="30.5025" y1="117.874" x2="31.1672" y2="116.728" gradientUnits="userSpaceOnUse">
<stop stop-color="#A18B62"/>
<stop offset="0.07" stop-color="#A89268"/>
<stop offset="0.51" stop-color="#D2BE88"/>
<stop offset="1" stop-color="#A18B62"/>
</linearGradient>
<linearGradient id="paint26_linear_410_5220" x1="33.1756" y1="120.547" x2="33.8473" y2="119.38" gradientUnits="userSpaceOnUse">
<stop stop-color="#A18B62"/>
<stop offset="0.07" stop-color="#A89268"/>
<stop offset="0.51" stop-color="#D2BE88"/>
<stop offset="1" stop-color="#A18B62"/>
</linearGradient>
<linearGradient id="paint27_linear_410_5220" x1="35.3699" y1="119.45" x2="34.9399" y2="117.81" gradientUnits="userSpaceOnUse">
<stop stop-color="#A18B62"/>
<stop offset="0.07" stop-color="#A89268"/>
<stop offset="0.51" stop-color="#D2BE88"/>
<stop offset="1" stop-color="#A18B62"/>
</linearGradient>
<linearGradient id="paint28_linear_410_5220" x1="29.47" y1="119.44" x2="29.03" y2="117.82" gradientUnits="userSpaceOnUse">
<stop stop-color="#A18B62"/>
<stop offset="0.07" stop-color="#A89268"/>
<stop offset="0.51" stop-color="#D2BE88"/>
<stop offset="1" stop-color="#A18B62"/>
</linearGradient>
<linearGradient id="paint29_linear_410_5220" x1="32.72" y1="123.44" x2="31.7" y2="119.66" gradientUnits="userSpaceOnUse">
<stop stop-color="#A18B62"/>
<stop offset="0.07" stop-color="#A89268"/>
<stop offset="0.51" stop-color="#D2BE88"/>
<stop offset="1" stop-color="#A18B62"/>
</linearGradient>
<linearGradient id="paint30_linear_410_5220" x1="32.71" y1="117.55" x2="31.71" y2="113.81" gradientUnits="userSpaceOnUse">
<stop stop-color="#A18B62"/>
<stop offset="0.07" stop-color="#A89268"/>
<stop offset="0.51" stop-color="#D2BE88"/>
<stop offset="1" stop-color="#A18B62"/>
</linearGradient>
<linearGradient id="paint31_linear_410_5220" x1="32.6498" y1="120.33" x2="31.7298" y2="116.88" gradientUnits="userSpaceOnUse">
<stop stop-color="#A18B62"/>
<stop offset="0.07" stop-color="#A89268"/>
<stop offset="0.51" stop-color="#D2BE88"/>
<stop offset="1" stop-color="#A18B62"/>
</linearGradient>
<linearGradient id="paint32_linear_410_5220" x1="37.6001" y1="113.15" x2="118.08" y2="113.15" gradientUnits="userSpaceOnUse">
<stop stop-color="#A18B62"/>
<stop offset="0.07" stop-color="#A89268"/>
<stop offset="0.51" stop-color="#D2BE88"/>
<stop offset="1" stop-color="#A18B62"/>
</linearGradient>
<linearGradient id="paint33_linear_410_5220" x1="89.0298" y1="105.14" x2="90.0798" y2="105.14" gradientUnits="userSpaceOnUse">
<stop stop-color="#A18B62"/>
<stop offset="0.07" stop-color="#A89268"/>
<stop offset="0.51" stop-color="#D2BE88"/>
<stop offset="1" stop-color="#A18B62"/>
</linearGradient>
<linearGradient id="paint34_linear_410_5220" x1="36.76" y1="121.59" x2="118.81" y2="121.59" gradientUnits="userSpaceOnUse">
<stop stop-color="#A18B62"/>
<stop offset="0.07" stop-color="#A89268"/>
<stop offset="0.51" stop-color="#D2BE88"/>
<stop offset="1" stop-color="#A18B62"/>
</linearGradient>
<linearGradient id="paint35_linear_410_5220" x1="67.8498" y1="108.98" x2="69.6898" y2="108.98" gradientUnits="userSpaceOnUse">
<stop stop-color="#A18B62"/>
<stop offset="0.07" stop-color="#A89268"/>
<stop offset="0.51" stop-color="#D2BE88"/>
<stop offset="1" stop-color="#A18B62"/>
</linearGradient>
<linearGradient id="paint36_linear_410_5220" x1="71.7698" y1="109.77" x2="73.0098" y2="109.77" gradientUnits="userSpaceOnUse">
<stop stop-color="#A18B62"/>
<stop offset="0.07" stop-color="#A89268"/>
<stop offset="0.51" stop-color="#D2BE88"/>
<stop offset="1" stop-color="#A18B62"/>
</linearGradient>
<linearGradient id="paint37_linear_410_5220" x1="76.5902" y1="109.76" x2="78.0902" y2="109.76" gradientUnits="userSpaceOnUse">
<stop stop-color="#A18B62"/>
<stop offset="0.07" stop-color="#A89268"/>
<stop offset="0.51" stop-color="#D2BE88"/>
<stop offset="1" stop-color="#A18B62"/>
</linearGradient>
<linearGradient id="paint38_linear_410_5220" x1="81.91" y1="109.24" x2="83.08" y2="109.24" gradientUnits="userSpaceOnUse">
<stop stop-color="#A18B62"/>
<stop offset="0.07" stop-color="#A89268"/>
<stop offset="0.51" stop-color="#D2BE88"/>
<stop offset="1" stop-color="#A18B62"/>
</linearGradient>
<linearGradient id="paint39_linear_410_5220" x1="85.6299" y1="108.97" x2="86.9699" y2="108.97" gradientUnits="userSpaceOnUse">
<stop stop-color="#A18B62"/>
<stop offset="0.07" stop-color="#A89268"/>
<stop offset="0.51" stop-color="#D2BE88"/>
<stop offset="1" stop-color="#A18B62"/>
</linearGradient>
<linearGradient id="paint40_linear_410_5220" x1="101.11" y1="112.02" x2="104.05" y2="112.02" gradientUnits="userSpaceOnUse">
<stop stop-color="#A18B62"/>
<stop offset="0.07" stop-color="#A89268"/>
<stop offset="0.51" stop-color="#D2BE88"/>
<stop offset="1" stop-color="#A18B62"/>
</linearGradient>
<linearGradient id="paint41_linear_410_5220" x1="103.27" y1="112.94" x2="106.14" y2="112.94" gradientUnits="userSpaceOnUse">
<stop stop-color="#A18B62"/>
<stop offset="0.07" stop-color="#A89268"/>
<stop offset="0.51" stop-color="#D2BE88"/>
<stop offset="1" stop-color="#A18B62"/>
</linearGradient>
<linearGradient id="paint42_linear_410_5220" x1="52.2201" y1="112" x2="57.3601" y2="112" gradientUnits="userSpaceOnUse">
<stop stop-color="#A18B62"/>
<stop offset="0.07" stop-color="#A89268"/>
<stop offset="0.51" stop-color="#D2BE88"/>
<stop offset="1" stop-color="#A18B62"/>
</linearGradient>
<linearGradient id="paint43_linear_410_5220" x1="45.3802" y1="113.83" x2="49.7902" y2="113.83" gradientUnits="userSpaceOnUse">
<stop stop-color="#A18B62"/>
<stop offset="0.07" stop-color="#A89268"/>
<stop offset="0.51" stop-color="#D2BE88"/>
<stop offset="1" stop-color="#A18B62"/>
</linearGradient>
<linearGradient id="paint44_linear_410_5220" x1="42.48" y1="116.47" x2="47.42" y2="116.47" gradientUnits="userSpaceOnUse">
<stop stop-color="#A18B62"/>
<stop offset="0.07" stop-color="#A89268"/>
<stop offset="0.51" stop-color="#D2BE88"/>
<stop offset="1" stop-color="#A18B62"/>
</linearGradient>
<linearGradient id="paint45_linear_410_5220" x1="94.9698" y1="124.32" x2="96.4998" y2="124.32" gradientUnits="userSpaceOnUse">
<stop stop-color="#A18B62"/>
<stop offset="0.07" stop-color="#A89268"/>
<stop offset="0.51" stop-color="#D2BE88"/>
<stop offset="1" stop-color="#A18B62"/>
</linearGradient>
<linearGradient id="paint46_linear_410_5220" x1="97.7499" y1="125.12" x2="99.0899" y2="125.12" gradientUnits="userSpaceOnUse">
<stop stop-color="#A18B62"/>
<stop offset="0.07" stop-color="#A89268"/>
<stop offset="0.51" stop-color="#D2BE88"/>
<stop offset="1" stop-color="#A18B62"/>
</linearGradient>
<linearGradient id="paint47_linear_410_5220" x1="89.8901" y1="128.79" x2="91.4701" y2="128.79" gradientUnits="userSpaceOnUse">
<stop stop-color="#A18B62"/>
<stop offset="0.07" stop-color="#A89268"/>
<stop offset="0.51" stop-color="#D2BE88"/>
<stop offset="1" stop-color="#A18B62"/>
</linearGradient>
<linearGradient id="paint48_linear_410_5220" x1="58.46" y1="127.48" x2="59.49" y2="127.48" gradientUnits="userSpaceOnUse">
<stop stop-color="#A18B62"/>
<stop offset="0.07" stop-color="#A89268"/>
<stop offset="0.51" stop-color="#D2BE88"/>
<stop offset="1" stop-color="#A18B62"/>
</linearGradient>
<linearGradient id="paint49_linear_410_5220" x1="62.8902" y1="127.36" x2="64.3902" y2="127.36" gradientUnits="userSpaceOnUse">
<stop stop-color="#A18B62"/>
<stop offset="0.07" stop-color="#A89268"/>
<stop offset="0.51" stop-color="#D2BE88"/>
<stop offset="1" stop-color="#A18B62"/>
</linearGradient>
<linearGradient id="paint50_linear_410_5220" x1="67.37" y1="122.5" x2="68.69" y2="122.5" gradientUnits="userSpaceOnUse">
<stop stop-color="#A18B62"/>
<stop offset="0.07" stop-color="#A89268"/>
<stop offset="0.51" stop-color="#D2BE88"/>
<stop offset="1" stop-color="#A18B62"/>
</linearGradient>
<linearGradient id="paint51_linear_410_5220" x1="108.94" y1="125.85" x2="110.94" y2="125.85" gradientUnits="userSpaceOnUse">
<stop stop-color="#A18B62"/>
<stop offset="0.07" stop-color="#A89268"/>
<stop offset="0.51" stop-color="#D2BE88"/>
<stop offset="1" stop-color="#A18B62"/>
</linearGradient>
<linearGradient id="paint52_linear_410_5220" x1="46.5801" y1="126.93" x2="48.1301" y2="126.93" gradientUnits="userSpaceOnUse">
<stop stop-color="#A18B62"/>
<stop offset="0.07" stop-color="#A89268"/>
<stop offset="0.51" stop-color="#D2BE88"/>
<stop offset="1" stop-color="#A18B62"/>
</linearGradient>
<linearGradient id="paint53_linear_410_5220" x1="59.6898" y1="83.68" x2="96.8198" y2="83.68" gradientUnits="userSpaceOnUse">
<stop stop-color="#A18B62"/>
<stop offset="0.07" stop-color="#A89268"/>
<stop offset="0.51" stop-color="#D2BE88"/>
<stop offset="1" stop-color="#A18B62"/>
</linearGradient>
<linearGradient id="paint54_linear_410_5220" x1="59.1199" y1="60.11" x2="100.19" y2="60.11" gradientUnits="userSpaceOnUse">
<stop stop-color="#A18B62"/>
<stop offset="0.07" stop-color="#A89268"/>
<stop offset="0.51" stop-color="#D2BE88"/>
<stop offset="1" stop-color="#A18B62"/>
</linearGradient>
<linearGradient id="paint55_linear_410_5220" x1="72.04" y1="63.11" x2="79.92" y2="63.11" gradientUnits="userSpaceOnUse">
<stop stop-color="#A18B62"/>
<stop offset="0.07" stop-color="#A89268"/>
<stop offset="0.51" stop-color="#D2BE88"/>
<stop offset="1" stop-color="#A18B62"/>
</linearGradient>
<linearGradient id="paint56_linear_410_5220" x1="91.1902" y1="84.61" x2="101.16" y2="84.61" gradientUnits="userSpaceOnUse">
<stop stop-color="#A18B62"/>
<stop offset="0.07" stop-color="#A89268"/>
<stop offset="0.51" stop-color="#D2BE88"/>
<stop offset="1" stop-color="#A18B62"/>
</linearGradient>
<linearGradient id="paint57_linear_410_5220" x1="54.8501" y1="84.61" x2="64.8201" y2="84.61" gradientUnits="userSpaceOnUse">
<stop stop-color="#A18B62"/>
<stop offset="0.07" stop-color="#A89268"/>
<stop offset="0.51" stop-color="#D2BE88"/>
<stop offset="1" stop-color="#A18B62"/>
</linearGradient>
<clipPath id="clip0_410_5220">
<rect width="155.32" height="154.28" fill="white"/>
</clipPath>
</defs>
</svg>
