<svg width="156" height="155" viewBox="0 0 156 155" fill="none" xmlns="http://www.w3.org/2000/svg">
<g clip-path="url(#clip0_410_5632)">
<path d="M154.88 77.42C154.88 81.72 154.52 85.94 153.84 90.05C147.78 126.4 115.98 154.12 77.6697 154.12C35.0197 154.12 0.449707 119.78 0.449707 77.42C0.449707 35.06 35.0197 0.710022 77.6697 0.710022C116.69 0.710022 148.95 29.46 154.15 66.81C154.63 70.28 154.88 73.82 154.88 77.42Z" fill="#00022B"/>
<path d="M77.6598 154.56C56.9198 154.56 37.4198 146.54 22.7498 131.97C8.07977 117.4 0.00976562 98.03 0.00976562 77.42C0.00976562 56.81 8.08977 37.44 22.7498 22.87C37.4198 8.30003 56.9198 0.280029 77.6598 0.280029C96.5198 0.280029 114.71 7.08003 128.87 19.43C142.9 31.67 152.03 48.47 154.58 66.75C155.07 70.25 155.32 73.84 155.32 77.42C155.32 81.68 154.97 85.95 154.27 90.12C151.3 107.93 142.02 124.24 128.13 136.05C114.09 147.99 96.1698 154.56 77.6598 154.56ZM77.6598 1.15003C57.1498 1.15003 37.8698 9.08003 23.3698 23.49C8.86977 37.89 0.889766 57.05 0.889766 77.42C0.889766 97.79 8.87976 116.94 23.3798 131.35C37.8798 145.76 57.1598 153.69 77.6698 153.69C95.9598 153.69 113.68 147.19 127.56 135.39C141.29 123.72 150.47 107.59 153.4 89.98C154.09 85.85 154.44 81.63 154.44 77.42C154.44 73.88 154.2 70.33 153.71 66.87C151.19 48.8 142.17 32.19 128.3 20.09C114.3 7.87003 96.3098 1.15003 77.6598 1.15003Z" fill="url(#paint0_linear_410_5632)"/>
<path d="M77.66 149.14C58.37 149.14 40.24 141.68 26.61 128.13C12.97 114.58 5.45996 96.5701 5.45996 77.41C5.45996 58.25 12.97 40.2401 26.61 26.6901C40.25 13.1401 58.38 5.68005 77.66 5.68005C96.94 5.68005 115.08 13.1401 128.71 26.6901C142.35 40.2401 149.86 58.25 149.86 77.41C149.86 96.5701 142.35 114.58 128.71 128.13C115.08 141.68 96.95 149.14 77.66 149.14ZM77.66 6.57005C58.61 6.57005 40.7 13.9401 27.23 27.3201C13.76 40.7001 6.33996 58.4901 6.33996 77.4201C6.33996 96.3501 13.76 114.14 27.23 127.52C40.7 140.9 58.61 148.27 77.66 148.27C96.71 148.27 114.62 140.9 128.09 127.52C141.56 114.14 148.98 96.3501 148.98 77.4201C148.98 58.4901 141.56 40.7001 128.09 27.3201C114.62 13.9401 96.71 6.57005 77.66 6.57005Z" fill="url(#paint1_linear_410_5632)"/>
<path d="M76.4298 153.78L5.83984 83.39L6.45984 82.78L77.0499 153.17L76.4298 153.78Z" fill="url(#paint2_linear_410_5632)"/>
<path d="M77.0497 153.79L76.4297 153.16L148.87 82.77L149.48 83.4L77.0497 153.79Z" fill="url(#paint3_linear_410_5632)"/>
<path d="M78.3799 153.73C74.0499 153.73 69.7999 153.37 65.6599 152.69L70.5499 151.47L65.6499 146.76L72.2099 148.62L70.3399 142.1L75.0799 146.97L76.7299 140.4L78.3899 146.97L83.1299 142.1L81.2599 148.62L87.8199 146.76L82.9199 151.47L89.0599 152.99C85.5699 153.49 81.9999 153.73 78.3799 153.73Z" fill="#00022B"/>
<path d="M78.38 154.17C74.1 154.17 69.79 153.82 65.59 153.13L63.5 152.79L69.68 151.26L64.09 145.88L71.58 148L69.44 140.56L74.85 146.12L76.74 138.62L78.63 146.12L84.04 140.56L81.9 148L89.39 145.88L83.79 151.26L91.36 153.14L89.11 153.45C85.59 153.92 81.98 154.17 78.38 154.17ZM67.9 152.59C74.1 153.43 80.46 153.52 86.66 152.86L82.05 151.71L86.26 147.66L80.63 149.26L82.24 143.66L78.17 147.84L76.75 142.2L75.33 147.84L71.26 143.66L72.87 149.26L67.24 147.66L71.45 151.71L67.9 152.59Z" fill="url(#paint4_linear_410_5632)"/>
<path d="M148.86 72.06L78.27 1.67L78.9 1.06L149.48 71.44L148.86 72.06Z" fill="url(#paint5_linear_410_5632)"/>
<path d="M6.45984 72.06L5.83984 71.44L78.2798 1.04999L78.8898 1.67999L6.45984 72.06Z" fill="url(#paint6_linear_410_5632)"/>
<path d="M76.9498 1.10004C81.2798 1.10004 85.5298 1.46004 89.6698 2.14004L84.7798 3.36004L89.6798 8.07004L83.1198 6.21004L84.9898 12.73L80.2498 7.86004L78.5898 14.43L76.9298 7.85004L72.1898 12.72L74.0598 6.20004L67.4998 8.06004L72.3998 3.35004L66.2598 1.83004C69.7498 1.35004 73.3198 1.10004 76.9498 1.10004Z" fill="#00022B"/>
<path d="M78.58 16.22L76.69 8.72001L71.28 14.28L73.42 6.84001L65.93 8.97001L71.53 3.59001L63.96 1.71001L66.21 1.40001C73.93 0.340014 82.01 0.440014 89.74 1.71001L91.83 2.05001L85.65 3.58001L91.24 8.96001L83.75 6.84001L85.89 14.28L80.48 8.72001L78.58 16.22ZM77.16 6.99001L78.58 12.63L80 6.99001L84.07 11.17L82.46 5.57001L88.09 7.17001L83.88 3.12001L87.41 2.24001C81.21 1.40001 74.85 1.31001 68.65 1.97001L73.26 3.12001L69.05 7.17001L74.68 5.57001L73.07 11.17L77.16 6.99001Z" fill="url(#paint7_linear_410_5632)"/>
<path d="M77.66 154.56C56.92 154.56 37.42 146.54 22.75 131.97C8.08 117.4 0 98.03 0 77.42C0 56.81 8.08 37.44 22.75 22.87C37.42 8.30003 56.92 0.280029 77.66 0.280029C96.16 0.280029 114.08 6.85003 128.12 18.78C142 30.58 151.29 46.89 154.26 64.7C154.37 65.35 154.47 66.02 154.58 66.75C155.06 70.21 155.31 73.76 155.32 77.29V77.42C155.32 81.67 154.97 85.93 154.27 90.09V90.13C151.29 107.94 142 124.25 128.12 136.06C114.09 147.99 96.17 154.56 77.66 154.56ZM77.66 1.15003C57.15 1.15003 37.87 9.08003 23.37 23.49C8.87 37.9 0.88 57.05 0.88 77.42C0.88 97.79 8.87 116.94 23.37 131.35C37.87 145.76 57.15 153.69 77.66 153.69C95.95 153.69 113.67 147.19 127.55 135.39C141.27 123.73 150.44 107.62 153.39 90.02V89.98C154.09 85.86 154.44 81.63 154.44 77.42V77.29C154.44 73.8 154.19 70.29 153.71 66.87C153.61 66.15 153.51 65.49 153.4 64.84C150.46 47.23 141.28 31.11 127.55 19.44C113.67 7.65003 95.96 1.15003 77.66 1.15003Z" fill="url(#paint8_linear_410_5632)"/>
<path d="M149.17 83.09C152.323 83.09 154.88 80.5515 154.88 77.42C154.88 74.2885 152.323 71.75 149.17 71.75C146.016 71.75 143.46 74.2885 143.46 77.42C143.46 80.5515 146.016 83.09 149.17 83.09Z" fill="#00022B"/>
<path d="M149.17 83.52C145.78 83.52 143.02 80.78 143.02 77.42C143.02 74.06 145.78 71.32 149.17 71.32C152.56 71.32 155.32 74.06 155.32 77.42C155.32 80.78 152.56 83.52 149.17 83.52ZM149.17 72.19C146.27 72.19 143.9 74.54 143.9 77.42C143.9 80.3 146.26 82.65 149.17 82.65C152.08 82.65 154.44 80.3 154.44 77.42C154.44 74.53 152.08 72.19 149.17 72.19Z" fill="url(#paint9_linear_410_5632)"/>
<path d="M6.14994 83.09C9.30349 83.09 11.8599 80.5515 11.8599 77.42C11.8599 74.2885 9.30349 71.75 6.14994 71.75C2.9964 71.75 0.439941 74.2885 0.439941 77.42C0.439941 80.5515 2.9964 83.09 6.14994 83.09Z" fill="#00022B"/>
<path d="M6.15 83.52C2.76 83.52 0 80.78 0 77.42C0 74.06 2.76 71.32 6.15 71.32C9.54 71.32 12.3 74.06 12.3 77.42C12.3 80.78 9.54 83.52 6.15 83.52ZM6.15 72.19C3.25 72.19 0.88 74.54 0.88 77.42C0.88 80.3 3.24 82.65 6.15 82.65C9.06 82.65 11.42 80.3 11.42 77.42C11.42 74.54 9.06 72.19 6.15 72.19Z" fill="url(#paint10_linear_410_5632)"/>
<path d="M77.6602 139.18C43.3802 139.18 15.4902 111.47 15.4902 77.42C15.4902 43.37 43.3802 15.66 77.6602 15.66C111.94 15.66 139.83 43.37 139.83 77.42C139.83 111.47 111.94 139.18 77.6602 139.18ZM77.6602 16.53C43.8602 16.53 16.3702 43.84 16.3702 77.42C16.3702 111 43.8702 138.31 77.6602 138.31C111.45 138.31 138.95 111 138.95 77.42C138.95 43.84 111.46 16.53 77.6602 16.53Z" fill="url(#paint11_linear_410_5632)"/>
<path d="M28.48 35.92C28.48 33.87 30.15 32.21 32.21 32.21C34.27 32.21 35.94 33.87 35.94 35.92C35.94 37.97 34.27 39.63 32.21 39.63C30.15 39.63 28.48 37.97 28.48 35.92Z" fill="url(#paint12_linear_410_5632)"/>
<path d="M32.2101 40.21C29.8301 40.21 27.8901 38.29 27.8901 35.92C27.8901 33.55 29.8301 31.63 32.2101 31.63C34.5901 31.63 36.5301 33.55 36.5301 35.92C36.5301 38.29 34.5901 40.21 32.2101 40.21ZM32.2101 32.8C30.4801 32.8 29.0601 34.2 29.0601 35.93C29.0601 37.66 30.4701 39.06 32.2101 39.06C33.9501 39.06 35.3601 37.66 35.3601 35.93C35.3601 34.2 33.9501 32.8 32.2101 32.8Z" fill="#00022B"/>
<path d="M126.84 118.91C126.84 120.96 125.17 122.62 123.11 122.62C121.05 122.62 119.38 120.96 119.38 118.91C119.38 116.86 121.05 115.2 123.11 115.2C125.17 115.21 126.84 116.87 126.84 118.91Z" fill="url(#paint13_linear_410_5632)"/>
<path d="M123.11 123.2C120.73 123.2 118.79 121.28 118.79 118.91C118.79 116.54 120.73 114.62 123.11 114.62C125.49 114.62 127.43 116.54 127.43 118.91C127.43 121.28 125.49 123.2 123.11 123.2ZM123.11 115.79C121.38 115.79 119.96 117.19 119.96 118.92C119.96 120.65 121.37 122.05 123.11 122.05C124.85 122.05 126.26 120.65 126.26 118.92C126.26 117.19 124.85 115.79 123.11 115.79Z" fill="#00022B"/>
<path d="M121.11 38.3001C121 38.3001 120.89 38.2601 120.8 38.1701C120.63 38.0001 120.63 37.7201 120.8 37.5501L122.07 36.2801C122.24 36.1101 122.52 36.1101 122.69 36.2801C122.86 36.4501 122.86 36.7301 122.69 36.9001L121.42 38.1701C121.34 38.2601 121.23 38.3001 121.11 38.3001Z" fill="url(#paint14_linear_410_5632)"/>
<path d="M123.79 35.6401C123.68 35.6401 123.57 35.6001 123.48 35.5101C123.31 35.3401 123.31 35.0601 123.48 34.8901L124.75 33.6301C124.92 33.4601 125.2 33.4601 125.37 33.6301C125.54 33.8001 125.54 34.0801 125.37 34.2501L124.1 35.5101C124.02 35.6001 123.91 35.6401 123.79 35.6401Z" fill="url(#paint15_linear_410_5632)"/>
<path d="M122.37 35.66C122.26 35.66 122.15 35.62 122.06 35.53L120.81 34.29C120.64 34.12 120.64 33.84 120.81 33.67C120.98 33.5 121.26 33.5 121.43 33.67L122.68 34.91C122.85 35.08 122.85 35.36 122.68 35.53C122.59 35.62 122.48 35.66 122.37 35.66Z" fill="url(#paint16_linear_410_5632)"/>
<path d="M125.07 38.34C124.96 38.34 124.85 38.3 124.76 38.21L123.46 36.92C123.29 36.75 123.29 36.47 123.46 36.3C123.63 36.13 123.91 36.13 124.08 36.3L125.38 37.59C125.55 37.76 125.55 38.04 125.38 38.21C125.29 38.3 125.18 38.34 125.07 38.34Z" fill="url(#paint17_linear_410_5632)"/>
<path d="M127.64 36.36H124.47C124.23 36.36 124.03 36.16 124.03 35.92C124.03 35.68 124.23 35.48 124.47 35.48H127.64C127.88 35.48 128.08 35.68 128.08 35.92C128.08 36.16 127.88 36.36 127.64 36.36Z" fill="url(#paint18_linear_410_5632)"/>
<path d="M121.71 36.36H118.59C118.35 36.36 118.15 36.16 118.15 35.92C118.15 35.68 118.35 35.48 118.59 35.48H121.71C121.95 35.48 122.15 35.68 122.15 35.92C122.15 36.16 121.95 36.36 121.71 36.36Z" fill="url(#paint19_linear_410_5632)"/>
<path d="M123.11 40.86C122.87 40.86 122.67 40.66 122.67 40.42V37.27C122.67 37.03 122.87 36.83 123.11 36.83C123.35 36.83 123.55 37.03 123.55 37.27V40.42C123.55 40.66 123.36 40.86 123.11 40.86Z" fill="url(#paint20_linear_410_5632)"/>
<path d="M123.11 34.96C122.87 34.96 122.67 34.76 122.67 34.52V31.42C122.67 31.18 122.87 30.98 123.11 30.98C123.35 30.98 123.55 31.18 123.55 31.42V34.52C123.55 34.77 123.36 34.96 123.11 34.96Z" fill="url(#paint21_linear_410_5632)"/>
<path d="M124.81 35.5901L123.4 34.1901C123.23 34.0201 122.95 34.0201 122.78 34.1901L121.37 35.5901C121.2 35.7601 121.2 36.0401 121.37 36.2101L122.78 37.6101C122.87 37.7001 122.98 37.7401 123.09 37.7401C123.2 37.7401 123.31 37.7001 123.4 37.6101L124.81 36.2101C124.98 36.0401 124.98 35.7601 124.81 35.5901Z" fill="url(#paint22_linear_410_5632)"/>
<path d="M30.21 121.29C30.1 121.29 29.99 121.25 29.9 121.16C29.73 120.99 29.73 120.71 29.9 120.54L31.17 119.27C31.34 119.1 31.62 119.1 31.79 119.27C31.96 119.44 31.96 119.72 31.79 119.89L30.52 121.16C30.44 121.25 30.32 121.29 30.21 121.29Z" fill="url(#paint23_linear_410_5632)"/>
<path d="M32.8901 118.63C32.7801 118.63 32.6701 118.59 32.5801 118.5C32.4101 118.33 32.4101 118.05 32.5801 117.88L33.8501 116.62C34.0201 116.45 34.3001 116.45 34.4701 116.62C34.6401 116.79 34.6401 117.07 34.4701 117.24L33.2001 118.5C33.1201 118.59 33.0001 118.63 32.8901 118.63Z" fill="url(#paint24_linear_410_5632)"/>
<path d="M31.46 118.65C31.35 118.65 31.24 118.61 31.15 118.52L29.9 117.28C29.73 117.11 29.73 116.83 29.9 116.66C30.07 116.49 30.35 116.49 30.52 116.66L31.77 117.9C31.94 118.07 31.94 118.35 31.77 118.52C31.69 118.61 31.58 118.65 31.46 118.65Z" fill="url(#paint25_linear_410_5632)"/>
<path d="M34.1701 121.33C34.0601 121.33 33.9501 121.29 33.8601 121.2L32.5601 119.91C32.3901 119.74 32.3901 119.46 32.5601 119.29C32.7301 119.12 33.0101 119.12 33.1801 119.29L34.4801 120.58C34.6501 120.75 34.6501 121.03 34.4801 121.2C34.3901 121.29 34.2801 121.33 34.1701 121.33Z" fill="url(#paint26_linear_410_5632)"/>
<path d="M36.7399 119.35H33.5699C33.3299 119.35 33.1299 119.15 33.1299 118.91C33.1299 118.67 33.3299 118.47 33.5699 118.47H36.7399C36.9799 118.47 37.1799 118.67 37.1799 118.91C37.1799 119.15 36.9799 119.35 36.7399 119.35Z" fill="url(#paint27_linear_410_5632)"/>
<path d="M30.81 119.35H27.69C27.45 119.35 27.25 119.15 27.25 118.91C27.25 118.67 27.45 118.47 27.69 118.47H30.81C31.05 118.47 31.25 118.67 31.25 118.91C31.25 119.15 31.05 119.35 30.81 119.35Z" fill="url(#paint28_linear_410_5632)"/>
<path d="M32.21 123.85C31.97 123.85 31.77 123.65 31.77 123.41V120.26C31.77 120.02 31.97 119.82 32.21 119.82C32.45 119.82 32.65 120.02 32.65 120.26V123.41C32.65 123.65 32.45 123.85 32.21 123.85Z" fill="url(#paint29_linear_410_5632)"/>
<path d="M32.21 117.95C31.97 117.95 31.77 117.75 31.77 117.51V114.41C31.77 114.17 31.97 113.97 32.21 113.97C32.45 113.97 32.65 114.17 32.65 114.41V117.51C32.65 117.76 32.45 117.95 32.21 117.95Z" fill="url(#paint30_linear_410_5632)"/>
<path d="M33.9098 118.58L32.4998 117.18C32.4198 117.1 32.3098 117.05 32.1898 117.05C32.0698 117.05 31.9598 117.1 31.8798 117.18L30.4698 118.58C30.2998 118.75 30.2998 119.03 30.4698 119.2L31.8798 120.6C31.9698 120.69 32.0798 120.73 32.1898 120.73C32.2998 120.73 32.4098 120.69 32.4998 120.6L33.9098 119.2C33.9898 119.12 34.0398 119.01 34.0398 118.89C34.0298 118.78 33.9898 118.66 33.9098 118.58Z" fill="url(#paint31_linear_410_5632)"/>
<path d="M77.6602 138.42C111.35 138.42 138.66 111.109 138.66 77.42C138.66 43.7307 111.35 16.42 77.6602 16.42C43.9708 16.42 16.6602 43.7307 16.6602 77.42C16.6602 111.109 43.9708 138.42 77.6602 138.42Z" fill="#00022B"/>
<path d="M106.18 116.68C100.57 112.92 94.0703 111.4 86.7703 109.94C86.4603 109.88 86.1504 109.82 85.9104 109.68C85.7904 109.01 85.9004 106 86.0004 103.09C86.1804 98.1201 86.4004 91.9301 86.0004 88.2601C85.9704 87.9901 85.7104 87.7901 85.4604 87.8201L76.0004 88.7201L66.4404 87.8201C66.1804 87.8101 65.9304 87.9901 65.9004 88.2601C65.5004 91.9301 65.7204 98.1101 65.9004 103.08C66.0104 106 66.1103 109.01 65.9903 109.68C65.7503 109.82 65.4403 109.88 65.1404 109.94C57.8404 111.41 51.3404 112.93 45.7304 116.68C42.6504 118.74 40.2304 121.38 38.6104 124.27C38.8704 124.48 39.1304 124.69 39.3904 124.9C40.9304 122.09 43.2904 119.52 46.2904 117.51C51.7504 113.86 58.1403 112.36 65.3403 110.92C65.7603 110.84 66.2803 110.73 66.7104 110.4C67.1003 110.1 67.1404 109.57 66.9004 103.04C66.7304 98.3201 66.5203 92.4901 66.8503 88.8501L76.0104 89.7001L85.0704 88.8501C85.4004 92.5001 85.1903 98.3201 85.0203 103.04C84.7803 109.57 84.8303 110.09 85.2104 110.39C85.6404 110.72 86.1604 110.83 86.5804 110.91C93.7804 112.36 100.17 113.85 105.63 117.5C109.3 119.96 112.01 123.27 113.44 126.81C113.72 126.61 114 126.42 114.27 126.21C112.74 122.57 109.95 119.19 106.19 116.67L106.18 116.68Z" fill="url(#paint32_linear_410_5632)"/>
<path d="M100.86 133.84C94.0403 133.89 85.7403 133.97 77.2303 134.08C77.1703 134.08 77.1203 134.09 77.0703 134.11L75.9403 134.09H74.8303C74.7803 134.09 74.7203 134.07 74.6603 134.07C67.5503 133.98 60.5903 133.91 54.5103 133.86C55.3903 134.22 56.2803 134.56 57.1703 134.88C62.5203 134.93 68.4403 134.99 74.4503 135.07C74.5103 135.1 74.5703 135.11 74.6403 135.11L75.9203 135.09L77.2103 135.11C77.3003 135.12 77.3303 135.1 77.3903 135.07C84.7603 134.97 91.9803 134.9 98.2003 134.85C99.0903 134.53 99.9703 134.19 100.84 133.83L100.86 133.84Z" fill="url(#paint33_linear_410_5632)"/>
<path d="M57.7302 57.28C57.4202 57.41 57.2102 57.74 57.0802 58.19C56.5602 59.89 57.6802 61.63 59.0202 61.32C70.6202 58.67 82.5302 59.04 93.8802 62.39C94.9002 62.69 95.9102 61.76 96.1002 60.37L96.2402 59.31C96.4002 58.11 95.8802 56.97 95.0202 56.64C90.2902 54.82 74.9302 50.08 57.7402 57.28H57.7302Z" fill="#67452E"/>
<path d="M59.0203 85.48C60.1503 90 63.0803 93.94 66.7003 96.87C67.9803 97.91 69.3703 98.84 70.8903 99.48C75.5503 101.44 81.1803 100.39 85.2503 97.39C89.3303 94.39 91.9303 89.67 93.0103 84.72C93.0603 84.5 93.1003 84.24 92.9603 84.06C92.8103 83.87 92.5403 83.86 92.3003 83.86C83.6403 83.83 74.9803 83.8 66.3203 83.77L59.0103 85.49L59.0203 85.48Z" fill="url(#paint34_linear_410_5632)"/>
<path d="M61.7704 56.7201C59.5704 64.1401 60.1204 77.1501 61.7704 84.7101C61.7704 84.7501 61.7904 84.7901 61.8004 84.8301C62.7004 88.8901 64.1304 92.9401 66.8304 96.1001C69.5304 99.2601 73.6904 101.39 77.8104 100.83C81.7904 100.29 85.1304 97.3301 87.0804 93.8101C89.0204 90.2901 89.7704 86.2501 90.3104 82.2701C91.2504 75.3301 91.0104 56.9201 90.3404 56.8601C81.7604 56.1301 70.1204 54.3801 61.7704 56.4801V56.7201Z" fill="#00022B"/>
<path d="M89.9699 79.4C90.1799 77.87 92.0199 76.92 93.4999 77.37C94.9799 77.82 95.9499 79.35 96.0599 80.89C96.1699 82.43 95.5499 83.94 94.6599 85.21C93.1899 87.32 90.5999 88.96 88.1099 88.3C88.4999 85.14 89.0699 82 89.8099 78.9L89.9699 79.41V79.4Z" fill="#00022B"/>
<path d="M62.0001 79.4C61.7901 77.87 59.9501 76.92 58.4701 77.37C56.9901 77.82 56.0201 79.35 55.9101 80.89C55.8001 82.43 56.4201 83.94 57.3101 85.21C58.7801 87.32 61.3701 88.96 63.8601 88.3C63.4701 85.14 62.9001 82 62.1601 78.9L62.0001 79.41V79.4Z" fill="#00022B"/>
<path d="M73.9399 44C74.0499 42.06 75.5599 40.36 77.2399 40.3C78.9199 40.24 80.5199 41.83 80.7399 43.76C78.5799 43.58 76.3999 43.71 74.2599 44.13L73.9399 44.01V44Z" fill="white"/>
<path d="M57.8398 57.8001C59.0598 50.8801 67.0798 42.3701 76.6998 42.3701C90.5898 42.3701 95.5498 52.8601 95.3898 57.5501L57.8498 57.8101L57.8398 57.8001Z" fill="#00022B"/>
<path d="M57.54 58.0501L57.59 57.7601C58.89 50.3801 67.34 42.1201 76.69 42.1201C84.21 42.1201 88.73 45.1801 91.21 47.7401C94.38 51.0301 95.71 55.0401 95.63 57.5601V57.8001H95.38L57.54 58.0601V58.0501ZM76.69 42.6101C67.7 42.6101 59.57 50.4301 58.14 57.5401L95.14 57.2901C95.14 54.8701 93.83 51.1501 90.86 48.0801C88.45 45.5901 84.04 42.6101 76.7 42.6101H76.69Z" fill="white"/>
<path d="M60.68 58.72C61.92 52.75 64.68 46.82 69.9 43.35C71.27 42.44 72.77 41.73 74.36 41.29C74.68 41.2 74.54 40.7 74.22 40.79C68.21 42.48 63.95 47.56 61.75 53.2C61.07 54.94 60.56 56.75 60.18 58.58C60.11 58.9 60.61 59.04 60.68 58.72Z" fill="#00022B"/>
<path d="M60.46 59.1501C60.33 59.1501 60.2 59.1001 60.1 59.0101C59.96 58.8901 59.91 58.7101 59.94 58.5301C60.35 56.5501 60.87 54.7801 61.52 53.1101C64.04 46.6701 68.64 42.0901 74.16 40.5501C74.43 40.4701 74.7 40.6201 74.77 40.9001C74.85 41.1801 74.7 41.4501 74.43 41.5301C72.9 41.9601 71.42 42.6401 70.04 43.5601C64.32 47.3601 61.93 53.9301 60.93 58.7801C60.89 58.9601 60.78 59.0901 60.62 59.1401C60.57 59.1601 60.52 59.1601 60.46 59.1601V59.1501ZM65.2 47.4901C63.92 49.1801 62.83 51.1301 61.99 53.2901C61.35 54.9301 60.84 56.68 60.44 58.6301H60.45C61.15 55.2501 62.53 51.0501 65.2 47.4901ZM74.3 41.0401C72.54 41.5301 70.88 42.3401 69.35 43.4201C69.49 43.3201 69.63 43.2301 69.77 43.1301C71.2 42.1801 72.72 41.4801 74.3 41.0301V41.0401Z" fill="white"/>
<path d="M73.8401 41.25C71.7701 42.68 70.4001 44.86 69.3801 47.12C68.2701 49.58 67.5801 52.22 67.3301 54.91C67.1801 56.49 67.1901 58.07 67.3601 59.65C67.3901 59.98 67.9101 59.98 67.8701 59.65C67.3501 54.54 68.4301 49.06 71.2601 44.72C72.0201 43.55 72.9501 42.49 74.1101 41.69C74.3801 41.5 74.1201 41.06 73.8501 41.25H73.8401Z" fill="#00022B"/>
<path d="M67.6302 60.1401C67.5502 60.1401 67.4802 60.1201 67.4002 60.0901C67.2302 60.0101 67.1102 59.8601 67.1002 59.67C66.9402 58.07 66.9302 56.46 67.0702 54.88C67.3302 52.14 68.0302 49.4901 69.1502 47.0101C70.3902 44.2501 71.8802 42.3 73.6902 41.04C73.8402 40.94 74.0102 40.9201 74.1602 40.9901C74.3202 41.0701 74.4402 41.2401 74.4502 41.4301C74.4602 41.6101 74.3802 41.7901 74.2302 41.8901C73.2002 42.6101 72.2702 43.6001 71.4502 44.8501C68.7802 48.9501 67.5602 54.3301 68.1002 59.6101C68.1202 59.7801 68.0502 59.94 67.9202 60.04C67.8402 60.1 67.7302 60.13 67.6202 60.13L67.6302 60.1401ZM67.7802 53.2701C67.6902 53.8201 67.6202 54.3701 67.5702 54.9301C67.4302 56.4701 67.4302 58.0501 67.6002 59.6201C67.3902 57.5 67.4502 55.3501 67.7902 53.2701H67.7802ZM73.9702 41.45C72.4602 42.5 71.1802 44.0601 70.0802 46.2101C70.3702 45.6501 70.6902 45.1 71.0402 44.5801C71.8902 43.2801 72.8702 42.2401 73.9502 41.4801L73.9802 41.45H73.9702Z" fill="white"/>
<path d="M75.7198 40.3C73.8698 41.41 73.8098 44.02 73.6398 45.92C73.3898 48.72 73.3698 51.53 73.5598 54.33C73.6698 55.88 73.8497 57.42 74.0897 58.95C74.1397 59.28 74.6397 59.14 74.5897 58.81C74.0797 55.51 73.8698 52.16 73.9798 48.83C74.0298 47.21 74.1398 45.58 74.3698 43.97C74.5398 42.77 74.8698 41.41 75.9798 40.74C76.2598 40.57 76.0098 40.13 75.7198 40.3Z" fill="#00022B"/>
<path d="M74.31 59.39C74.25 59.39 74.19 59.38 74.14 59.36C73.99 59.3 73.88 59.17 73.86 58.99C73.61 57.42 73.44 55.86 73.33 54.35C73.13 51.54 73.16 48.7 73.41 45.9L73.45 45.42C73.6 43.52 73.79 41.17 75.61 40.08C75.77 39.99 75.94 39.98 76.1 40.07C76.26 40.16 76.37 40.34 76.37 40.53C76.37 40.71 76.28 40.86 76.12 40.96C75.1 41.57 74.79 42.84 74.63 44.01C74.43 45.42 74.31 46.95 74.25 48.84C74.14 52.15 74.34 55.49 74.86 58.78C74.89 58.97 74.82 59.15 74.67 59.27C74.57 59.35 74.45 59.39 74.33 59.39H74.31ZM75.85 40.52C74.26 41.47 74.08 43.69 73.94 45.47L73.9 45.95C73.65 48.72 73.63 51.54 73.82 54.32C73.93 55.82 74.1 57.36 74.34 58.92C73.82 55.54 73.62 52.17 73.73 48.83C73.79 46.92 73.92 45.37 74.12 43.94C74.3 42.66 74.65 41.25 75.85 40.53V40.52Z" fill="white"/>
<path d="M74.6998 40.8601C77.8998 44.4801 79.2198 49.2501 80.0398 53.9101C80.2798 55.2501 80.4798 56.6001 80.6698 57.9401C80.7198 58.2701 81.2098 58.1301 81.1698 57.8001C80.4798 53.0301 79.7298 48.0901 77.3898 43.8101C76.7398 42.6201 75.9598 41.5101 75.0698 40.4901C74.8498 40.2401 74.4898 40.6101 74.7098 40.8501L74.6998 40.8601Z" fill="#00022B"/>
<path d="M80.8799 58.3801C80.6499 58.3801 80.4599 58.2201 80.4299 57.9801C80.2499 56.7701 80.0499 55.3501 79.7999 53.9501C79.0299 49.6501 77.8099 44.7501 74.5199 41.0201C74.3099 40.7801 74.3799 40.4601 74.5699 40.2901C74.7799 40.1101 75.0699 40.1201 75.2599 40.3301C76.1599 41.3501 76.9499 42.4801 77.6199 43.6901C80.0299 48.1001 80.7799 53.2401 81.4299 57.7701C81.4799 58.1001 81.2299 58.3401 80.9699 58.3701C80.9399 58.3701 80.9199 58.3701 80.8899 58.3701L80.8799 58.3801ZM74.8699 40.6601V40.6901C78.2599 44.5101 79.5099 49.4901 80.2799 53.8601C80.5299 55.2701 80.7399 56.6801 80.9099 57.9001L81.1599 57.8001L80.9099 57.8401C80.2599 53.3501 79.5199 48.2601 77.1499 43.9301C76.4999 42.7501 75.7299 41.6501 74.8599 40.6601H74.8699Z" fill="white"/>
<path d="M76.3599 41.28C81.4299 43.59 85.4299 48.01 87.3299 53.23C87.8699 54.72 88.2399 56.26 88.4199 57.83C88.4599 58.15 88.9699 58.16 88.9299 57.83C88.2799 52.14 85.2399 46.83 80.7199 43.32C79.4499 42.33 78.0799 41.5 76.6099 40.83C76.3099 40.69 76.0499 41.14 76.3499 41.27L76.3599 41.28Z" fill="#00022B"/>
<path d="M88.7 58.3301C88.45 58.3301 88.2 58.1701 88.17 57.8601C88 56.3301 87.63 54.8001 87.09 53.3101C85.19 48.0801 81.24 43.7701 76.25 41.5001C76.09 41.4301 75.99 41.2901 75.97 41.1301C75.95 40.9501 76.04 40.7601 76.2 40.6501C76.35 40.5401 76.54 40.5201 76.72 40.6001C78.18 41.2701 79.58 42.1201 80.87 43.1201C85.49 46.7201 88.52 52.0701 89.17 57.8001C89.2 58.0701 89.03 58.2901 88.75 58.3201C88.73 58.3201 88.71 58.3201 88.69 58.3201L88.7 58.3301ZM76.46 41.0501C81.57 43.3801 85.61 47.7901 87.56 53.1401C88.11 54.6601 88.48 56.2301 88.66 57.8001L88.68 57.8601C88.04 52.2501 85.09 47.0301 80.57 43.5101C79.31 42.5301 77.94 41.7001 76.51 41.0501H76.46Z" fill="white"/>
<path d="M76.6097 41.14C78.3497 40.94 79.9897 41.59 81.4897 42.43C82.9097 43.23 84.2897 44.13 85.6197 45.07C86.9197 45.99 88.1697 47 89.2397 48.19C90.3597 49.44 91.1997 50.89 91.8197 52.44C92.5297 54.2 92.9797 56.05 93.4397 57.9C93.5197 58.22 94.0097 58.09 93.9397 57.76C93.1197 54.43 92.2397 51.02 90.0297 48.32C87.9197 45.74 84.9397 43.85 82.0897 42.19C80.4297 41.23 78.5797 40.41 76.6197 40.64C76.2997 40.68 76.2897 41.19 76.6197 41.15L76.6097 41.14Z" fill="#00022B"/>
<path d="M93.6698 58.32C93.6698 58.32 93.5698 58.32 93.5298 58.3C93.3598 58.25 93.2398 58.12 93.1998 57.95C92.7598 56.15 92.2998 54.29 91.5898 52.53C90.9398 50.92 90.0898 49.5201 89.0498 48.3601C88.1198 47.3201 86.9798 46.34 85.4698 45.28C83.9698 44.22 82.6198 43.36 81.3598 42.66C80.1098 41.96 78.4598 41.19 76.6398 41.4C76.3598 41.44 76.1498 41.26 76.1198 40.99C76.0898 40.73 76.2498 40.43 76.5798 40.39C78.7298 40.13 80.7098 41.1 82.1998 41.97C85.1198 43.67 88.1098 45.6 90.2098 48.16C92.5298 51 93.4398 54.71 94.1698 57.7C94.2098 57.88 94.1698 58.06 94.0298 58.18C93.9298 58.2801 93.7898 58.33 93.6598 58.33L93.6698 58.32ZM77.2698 40.85C78.9498 40.85 80.4598 41.56 81.6098 42.21C82.8898 42.92 84.2498 43.7901 85.7598 44.8601C87.2998 45.9401 88.4598 46.95 89.4198 48.0201C90.4998 49.22 91.3798 50.68 92.0498 52.34C92.7698 54.14 93.2298 56.01 93.6798 57.83C92.9298 54.72 92.0698 51.22 89.8198 48.47C87.6698 45.84 84.6298 43.96 81.9498 42.39C80.5298 41.56 78.6398 40.64 76.6398 40.88L76.5798 40.9L76.6098 41.15L76.5798 40.9C76.8098 40.87 77.0398 40.8601 77.2598 40.8601L77.2698 40.85Z" fill="white"/>
<path d="M69.7501 75.8801C69.7501 76.8501 68.9801 77.6301 68.0401 77.6301C67.1001 77.6301 66.3301 76.8501 66.3301 75.8801C66.3301 74.9101 67.1001 74.1301 68.0401 74.1301C68.9801 74.1301 69.7501 74.9101 69.7501 75.8801Z" fill="white"/>
<path d="M87.19 75.8801C87.19 76.8501 86.42 77.6301 85.48 77.6301C84.54 77.6301 83.77 76.8501 83.77 75.8801C83.77 74.9101 84.54 74.1301 85.48 74.1301C86.42 74.1301 87.19 74.9101 87.19 75.8801Z" fill="white"/>
<path d="M77.4401 72.47C78.7801 75.94 79.2501 79.67 78.8201 83.37C79.1101 83.25 79.4001 83.13 79.7001 83.01C79.0101 82.23 78.4701 81.34 78.1301 80.36C77.9101 79.74 76.9201 80.01 77.1401 80.63C77.5501 81.78 78.1601 82.82 78.9801 83.74C79.3101 84.11 79.8101 83.78 79.8601 83.38C80.3001 79.61 79.8201 75.75 78.4501 72.21C78.2101 71.6 77.2201 71.86 77.4601 72.48L77.4401 72.47Z" fill="white"/>
<path d="M65.9501 71.4201C66.4601 69.8201 68.0701 68.6601 69.7401 68.6401C70.4001 68.6401 70.4001 67.6001 69.7401 67.6101C67.5901 67.6301 65.6201 69.1101 64.9601 71.1501C64.8801 71.4101 65.0601 71.7101 65.3201 71.7801C65.6001 71.8601 65.8701 71.6901 65.9501 71.4201Z" fill="white"/>
<path d="M83.1401 68.4501C85.0501 68.6301 86.7601 69.8901 87.5801 71.6101C87.7001 71.8601 88.0601 71.9301 88.2801 71.7901C88.5401 71.6401 88.5801 71.3401 88.4601 71.0901C87.4701 69.0301 85.3901 67.6401 83.1301 67.4201C82.8501 67.3901 82.6201 67.6801 82.6201 67.9301C82.6201 68.2301 82.8601 68.4201 83.1301 68.4401L83.1401 68.4501Z" fill="white"/>
<path d="M58.9703 80.95C59.2603 81.12 59.5403 81.31 59.8103 81.51C59.7503 81.47 59.8103 81.51 59.8403 81.53C59.8703 81.55 59.9003 81.58 59.9303 81.61C60.0003 81.67 60.0703 81.72 60.1303 81.78C60.2603 81.89 60.3803 82 60.5003 82.12C60.7403 82.35 60.9603 82.59 61.1703 82.84C61.2003 82.87 61.2203 82.9 61.2503 82.93C61.2503 82.93 61.3503 83.06 61.2903 82.98C61.3403 83.04 61.3903 83.11 61.4303 83.17C61.5303 83.31 61.6303 83.46 61.7203 83.61C61.8603 83.84 62.1803 83.95 62.4203 83.79C62.6503 83.64 62.7603 83.33 62.6003 83.09C61.8203 81.85 60.7503 80.8 59.4803 80.05C59.2503 79.91 58.9103 79.99 58.7803 80.23C58.6503 80.48 58.7203 80.79 58.9603 80.93L58.9703 80.95Z" fill="white"/>
<path d="M59.6801 83.1201C59.6801 83.1201 59.7101 83.0801 59.7201 83.0601C59.6901 83.0901 59.6701 83.1301 59.6401 83.1601C59.7901 82.9701 59.9601 82.8001 60.1501 82.6601C60.1201 82.6901 60.0801 82.7101 60.0501 82.7401C60.2501 82.5901 60.4601 82.4601 60.6901 82.3701C60.6501 82.3901 60.6101 82.4001 60.5701 82.4201C60.6901 82.3701 60.8201 82.3301 60.9401 82.2901C61.2001 82.2201 61.3801 81.9201 61.3001 81.6601C61.2101 81.3901 60.9501 81.2301 60.6701 81.3001C60.3101 81.3901 59.9701 81.5501 59.6601 81.7601C59.3201 81.9901 59.0401 82.2701 58.7901 82.6001C58.7201 82.7001 58.7101 82.8801 58.7401 83.0001C58.7701 83.1201 58.8701 83.2501 58.9801 83.3101C59.1001 83.3701 59.2401 83.4001 59.3801 83.3601C59.5201 83.3201 59.6001 83.2401 59.6901 83.1201H59.6801Z" fill="white"/>
<path d="M91.1703 84.43C91.3203 84.19 91.4803 83.95 91.6603 83.71C91.6803 83.68 91.7103 83.65 91.7303 83.62C91.7603 83.57 91.6903 83.67 91.7503 83.6C91.8003 83.54 91.8403 83.48 91.8903 83.42C91.9803 83.31 92.0803 83.2 92.1703 83.09C92.5603 82.65 92.9903 82.25 93.4403 81.89C93.6503 81.72 93.6303 81.34 93.4403 81.16C93.2203 80.95 92.9403 80.98 92.7103 81.16C91.7503 81.93 90.9303 82.86 90.2803 83.9C90.1403 84.13 90.2203 84.48 90.4603 84.6C90.7103 84.73 91.0103 84.66 91.1603 84.42L91.1703 84.43Z" fill="white"/>
<path d="M91.6602 83.51C92.1002 83.86 92.5402 84.21 92.9702 84.56C93.0802 84.65 93.1902 84.71 93.3302 84.71C93.4602 84.71 93.6102 84.65 93.6902 84.56C93.7802 84.46 93.8502 84.33 93.8402 84.2C93.8402 84.07 93.7902 83.92 93.6902 83.84C93.2502 83.49 92.8102 83.14 92.3802 82.79C92.2702 82.7 92.1602 82.64 92.0202 82.64C91.8902 82.64 91.7402 82.7 91.6602 82.79C91.5702 82.89 91.5002 83.02 91.5102 83.15C91.5102 83.28 91.5602 83.43 91.6602 83.51Z" fill="white"/>
<path d="M71.73 85.6401C72.71 87.4101 74.41 88.8301 76.46 89.0901C78.88 89.3901 80.88 87.8601 82.21 85.9901C82.45 85.6501 82.12 85.2301 81.77 85.2201C78.96 85.1201 76.16 85.0201 73.35 84.9201C72.96 84.9101 72.56 84.8901 72.17 84.8801C71.51 84.8601 71.51 85.88 72.17 85.91C74.98 86.01 77.78 86.1101 80.59 86.2101C80.98 86.2201 81.38 86.2401 81.77 86.2501L81.33 85.48C80.22 87.04 78.53 88.3601 76.51 88.0801C74.81 87.8401 73.43 86.6001 72.62 85.1401C72.3 84.5601 71.41 85.08 71.73 85.66V85.6401Z" fill="white"/>
<path d="M89.2499 88.94C88.8299 88.94 88.4099 88.89 87.9799 88.78C87.7099 88.71 87.5499 88.44 87.6199 88.17C87.6899 87.9 87.9599 87.74 88.2299 87.81C90.5499 88.42 92.9299 86.8 94.2399 84.91C94.8999 83.96 95.6599 82.51 95.5499 80.92C95.4499 79.47 94.5399 78.21 93.3399 77.84C92.7199 77.65 91.9599 77.77 91.3599 78.15C90.8499 78.48 90.5299 78.94 90.4499 79.46C90.4099 79.73 90.1499 79.92 89.8899 79.89C89.6199 79.85 89.4299 79.6 89.4599 79.33C89.5699 78.52 90.0499 77.8 90.8199 77.31C91.6699 76.77 92.7199 76.61 93.6299 76.88C95.2099 77.36 96.4099 78.99 96.5399 80.84C96.6699 82.72 95.8099 84.4 95.0499 85.48C93.7699 87.32 91.5799 88.93 89.2299 88.93L89.2499 88.94Z" fill="url(#paint35_linear_410_5632)"/>
<path d="M62.72 88.9401C60.38 88.9401 58.18 87.3201 56.9 85.4901C56.15 84.4101 55.28 82.7401 55.41 80.8501C55.54 79.0001 56.74 77.3701 58.32 76.8901C59.23 76.6101 60.28 76.7701 61.13 77.3201C61.89 77.8101 62.38 78.5301 62.49 79.34C62.53 79.61 62.34 79.8701 62.06 79.9001C61.79 79.9301 61.53 79.7501 61.5 79.4701C61.43 78.9501 61.11 78.49 60.59 78.16C59.99 77.78 59.23 77.6601 58.61 77.8501C57.41 78.2101 56.51 79.4801 56.4 80.9301C56.29 82.5201 57.05 83.9801 57.71 84.9201C59.02 86.8001 61.39 88.4201 63.72 87.8201C63.99 87.7401 64.26 87.9101 64.33 88.1801C64.4 88.4501 64.24 88.7201 63.97 88.7901C63.55 88.9001 63.12 88.9501 62.7 88.9501L62.72 88.9401Z" fill="url(#paint36_linear_410_5632)"/>
<path d="M68.0703 59.87L70.4503 62.66C70.9303 63.22 71.6003 63.61 72.3303 63.69C73.7403 63.83 74.3103 62.75 74.6403 61.74C74.8703 61.04 75.0103 60.31 75.1003 59.58C72.7603 59.56 70.4103 59.65 68.0703 59.87Z" fill="url(#paint37_linear_410_5632)"/>
<path d="M59.0204 61.32C58.9304 61.34 58.8404 61.33 58.7504 61.33L58.2704 75.39C58.2504 76.08 58.2404 76.83 58.6304 77.39C59.0304 77.96 60.0004 78.15 60.3804 77.58L60.2404 77.16C60.6104 77.42 61.1504 77.53 61.5604 77.3C62.3404 76.86 62.6004 75.87 62.7704 74.99C63.7004 70.14 64.2904 65.22 64.5404 60.29C62.6904 60.56 60.8504 60.89 59.0204 61.31V61.32Z" fill="url(#paint38_linear_410_5632)"/>
<path d="M78.2004 59.6801C79.4504 61.0001 80.8404 62.2401 82.5904 62.6301C84.2604 63.0101 86.2704 62.1701 86.9404 60.7301C84.0404 60.1901 81.1204 59.8401 78.1904 59.6801H78.2004Z" fill="url(#paint39_linear_410_5632)"/>
<path d="M93.8801 62.3901C91.7401 61.7601 89.5802 61.2301 87.4102 60.8101L90.5602 76.7501C90.7302 77.5901 91.5002 78.2201 92.3502 78.1301C92.3602 78.1301 92.3701 78.1301 92.3801 78.1301C93.2301 78.0501 93.9202 77.4001 93.9802 76.5501C94.3202 71.8501 94.5001 67.1301 94.5201 62.4101C94.3101 62.4501 94.0901 62.4501 93.8801 62.3901Z" fill="url(#paint40_linear_410_5632)"/>
<path d="M57.7302 57.28C57.4202 57.41 57.2102 57.74 57.0802 58.19C56.5602 59.89 57.6802 61.63 59.0202 61.32C70.6202 58.67 82.5302 59.04 93.8802 62.39C94.9002 62.69 95.9102 61.76 96.1002 60.37L96.2402 59.31C96.4002 58.11 95.8802 56.97 95.0202 56.64C90.2902 54.82 74.9302 50.08 57.7402 57.28H57.7302Z" fill="#00022B"/>
<path d="M94.27 62.7C94.12 62.7 93.97 62.68 93.82 62.63C82.58 59.31 70.57 58.94 59.09 61.56C58.49 61.69 57.89 61.49 57.43 61C56.76 60.28 56.54 59.15 56.85 58.11C57.02 57.55 57.29 57.19 57.64 57.04C75.03 49.75 90.71 54.71 95.11 56.4C96.08 56.77 96.66 58.01 96.49 59.34L96.35 60.4C96.24 61.26 95.81 62.01 95.21 62.41C94.92 62.6 94.6 62.7 94.27 62.7ZM74.42 59.34C81.02 59.34 87.61 60.28 93.96 62.15C94.29 62.25 94.63 62.19 94.94 61.99C95.42 61.68 95.77 61.06 95.86 60.34L96 59.28C96.14 58.2 95.68 57.16 94.93 56.87C90.58 55.2 75.05 50.29 57.84 57.51C57.58 57.62 57.42 57.98 57.33 58.26C57.03 59.25 57.35 60.18 57.8 60.66C58.14 61.02 58.56 61.17 58.98 61.07C64.06 59.91 69.25 59.33 74.43 59.33L74.42 59.34Z" fill="white"/>
<path d="M77.6602 138.42C91.3102 138.42 103.92 133.93 114.09 126.35C110.42 116.12 98.3002 112.3 95.3202 111.5C95.2202 111.35 95.1202 111.21 95.0302 111.06C94.8502 110.79 94.4002 111.04 94.5902 111.32C94.6002 111.34 94.6102 111.35 94.6202 111.37C93.9302 112.31 93.1802 113.16 92.3902 113.93C92.3102 113.81 92.2302 113.7 92.1402 113.58C91.9502 113.31 91.5102 113.57 91.7002 113.84C91.8102 113.99 91.9102 114.14 92.0202 114.29C91.2502 115 90.4302 115.63 89.5702 116.19C89.4302 115.88 89.2902 115.56 89.1502 115.25C89.0102 114.95 88.5702 115.21 88.7102 115.51C88.8502 115.83 89.0002 116.15 89.1402 116.47C88.3602 116.95 87.5602 117.36 86.7202 117.72C86.5902 117.37 86.4502 117.02 86.2802 116.68C86.1302 116.38 85.6902 116.64 85.8402 116.94C86.0002 117.25 86.1302 117.58 86.2602 117.91C85.3402 118.28 84.3802 118.58 83.4002 118.81C83.2002 118.33 82.9902 117.86 82.7602 117.39C82.6102 117.09 82.1702 117.35 82.3202 117.65C82.5302 118.07 82.6902 118.51 82.8702 118.94C81.5202 119.23 80.1202 119.4 78.6702 119.47C78.5702 119.02 78.4502 118.57 78.2902 118.13C78.1802 117.82 77.6802 117.95 77.7902 118.27C77.9302 118.67 78.0402 119.08 78.1402 119.49C77.4702 119.51 76.7902 119.52 76.1102 119.49V119.44C75.9402 119.44 75.7702 119.46 75.6002 119.47C75.4302 119.47 75.2602 119.45 75.0902 119.44V119.49C74.7802 119.5 74.4802 119.49 74.1802 119.5C74.2102 119.32 74.2202 119.14 74.2702 118.96C74.3502 118.64 73.8502 118.5 73.7702 118.82C73.7202 119.05 73.6902 119.27 73.6602 119.5C72.5402 119.49 71.4502 119.41 70.3902 119.27C70.5302 118.95 70.6702 118.64 70.8302 118.33C70.9902 118.04 70.5402 117.78 70.3902 118.07C70.1902 118.44 70.0202 118.81 69.8602 119.2C68.7602 119.03 67.7102 118.79 66.6902 118.47C66.9402 117.98 67.1902 117.48 67.4402 116.99C67.5902 116.7 67.1502 116.44 67.0002 116.73C66.7302 117.26 66.4602 117.78 66.1902 118.31C65.1902 117.97 64.2202 117.54 63.2902 117.04C63.4702 116.77 63.6402 116.5 63.8202 116.22C64.0002 115.94 63.5602 115.68 63.3802 115.96C63.2002 116.24 63.0202 116.51 62.8402 116.79C62.0802 116.35 61.3502 115.86 60.6502 115.3C61.0202 114.95 61.3802 114.59 61.7302 114.21C61.9502 113.97 61.5902 113.6 61.3702 113.85C61.0202 114.24 60.6402 114.61 60.2602 114.97C59.5702 114.39 58.9002 113.74 58.2702 113.03C58.9502 112.51 59.6202 112 60.3002 111.48C60.5602 111.28 60.3002 110.84 60.0402 111.04C59.3402 111.58 58.6302 112.11 57.9302 112.65C57.5702 112.23 57.2202 111.8 56.8802 111.33C56.8802 111.33 43.1902 113.97 37.9502 123.69C48.6202 132.86 62.5002 138.42 77.6702 138.42H77.6602Z" stroke="url(#paint41_linear_410_5632)" stroke-miterlimit="10"/>
<path d="M103.31 113.81L99.1303 112.76C98.7403 117.76 99.0303 128.02 99.3003 134.46C100.66 133.94 102 133.38 103.31 132.77C103.37 126.45 103.37 120.13 103.31 113.81ZM50.4503 112.78C50.3903 119.19 50.3903 125.61 50.4503 132.02C51.8503 132.72 53.2803 133.36 54.7303 133.95C54.9203 130.22 55.1203 118.08 54.6203 111.73L50.4403 112.78H50.4503Z" fill="url(#paint42_linear_410_5632)"/>
</g>
<defs>
<linearGradient id="paint0_linear_410_5632" x1="0.00976562" y1="77.42" x2="155.32" y2="77.42" gradientUnits="userSpaceOnUse">
<stop stop-color="#A18B62"/>
<stop offset="0.07" stop-color="#A89268"/>
<stop offset="0.51" stop-color="#D2BE88"/>
<stop offset="1" stop-color="#A18B62"/>
</linearGradient>
<linearGradient id="paint1_linear_410_5632" x1="149.905" y1="77.3694" x2="5.4995" y2="77.3694" gradientUnits="userSpaceOnUse">
<stop stop-color="#CCB479"/>
<stop offset="0.54"/>
<stop offset="1" stop-color="#BBA471"/>
</linearGradient>
<linearGradient id="paint2_linear_410_5632" x1="5.83984" y1="118.28" x2="77.0499" y2="118.28" gradientUnits="userSpaceOnUse">
<stop/>
<stop offset="0.04" stop-color="#221F18"/>
<stop offset="0.13" stop-color="#524934"/>
<stop offset="0.22" stop-color="#7E6F4C"/>
<stop offset="0.3" stop-color="#9F8C5F"/>
<stop offset="0.38" stop-color="#B8A26D"/>
<stop offset="0.45" stop-color="#C7AE76"/>
<stop offset="0.5" stop-color="#CCB479"/>
<stop offset="0.58" stop-color="#C8B077"/>
<stop offset="0.66" stop-color="#BDA672"/>
<stop offset="0.74" stop-color="#AA9768"/>
<stop offset="0.82" stop-color="#90805C"/>
<stop offset="0.9" stop-color="#70654C"/>
<stop offset="0.97" stop-color="#494439"/>
<stop offset="1" stop-color="#393631"/>
</linearGradient>
<linearGradient id="paint3_linear_410_5632" x1="76.4297" y1="118.28" x2="149.48" y2="118.28" gradientUnits="userSpaceOnUse">
<stop/>
<stop offset="0.04" stop-color="#221F18"/>
<stop offset="0.13" stop-color="#524934"/>
<stop offset="0.22" stop-color="#7E6F4C"/>
<stop offset="0.3" stop-color="#9F8C5F"/>
<stop offset="0.38" stop-color="#B8A26D"/>
<stop offset="0.45" stop-color="#C7AE76"/>
<stop offset="0.5" stop-color="#CCB479"/>
<stop offset="0.58" stop-color="#C8B077"/>
<stop offset="0.66" stop-color="#BDA672"/>
<stop offset="0.74" stop-color="#AA9768"/>
<stop offset="0.82" stop-color="#90805C"/>
<stop offset="0.9" stop-color="#70654C"/>
<stop offset="0.97" stop-color="#494439"/>
<stop offset="1" stop-color="#393631"/>
</linearGradient>
<linearGradient id="paint4_linear_410_5632" x1="68.54" y1="141.43" x2="85.81" y2="158.7" gradientUnits="userSpaceOnUse">
<stop stop-color="#A18B62"/>
<stop offset="0.07" stop-color="#A89268"/>
<stop offset="0.51" stop-color="#D2BE88"/>
<stop offset="1" stop-color="#A18B62"/>
</linearGradient>
<linearGradient id="paint5_linear_410_5632" x1="149.48" y1="36.56" x2="78.27" y2="36.56" gradientUnits="userSpaceOnUse">
<stop/>
<stop offset="0.04" stop-color="#221F18"/>
<stop offset="0.13" stop-color="#524934"/>
<stop offset="0.22" stop-color="#7E6F4C"/>
<stop offset="0.3" stop-color="#9F8C5F"/>
<stop offset="0.38" stop-color="#B8A26D"/>
<stop offset="0.45" stop-color="#C7AE76"/>
<stop offset="0.5" stop-color="#CCB479"/>
<stop offset="0.58" stop-color="#C8B077"/>
<stop offset="0.66" stop-color="#BDA672"/>
<stop offset="0.74" stop-color="#AA9768"/>
<stop offset="0.82" stop-color="#90805C"/>
<stop offset="0.9" stop-color="#70654C"/>
<stop offset="0.97" stop-color="#494439"/>
<stop offset="1" stop-color="#393631"/>
</linearGradient>
<linearGradient id="paint6_linear_410_5632" x1="78.8898" y1="36.55" x2="5.83984" y2="36.55" gradientUnits="userSpaceOnUse">
<stop/>
<stop offset="0.04" stop-color="#221F18"/>
<stop offset="0.13" stop-color="#524934"/>
<stop offset="0.22" stop-color="#7E6F4C"/>
<stop offset="0.3" stop-color="#9F8C5F"/>
<stop offset="0.38" stop-color="#B8A26D"/>
<stop offset="0.45" stop-color="#C7AE76"/>
<stop offset="0.5" stop-color="#CCB479"/>
<stop offset="0.58" stop-color="#C8B077"/>
<stop offset="0.66" stop-color="#BDA672"/>
<stop offset="0.74" stop-color="#AA9768"/>
<stop offset="0.82" stop-color="#90805C"/>
<stop offset="0.9" stop-color="#70654C"/>
<stop offset="0.97" stop-color="#494439"/>
<stop offset="1" stop-color="#393631"/>
</linearGradient>
<linearGradient id="paint7_linear_410_5632" x1="86.79" y1="13.41" x2="69.52" y2="-3.84999" gradientUnits="userSpaceOnUse">
<stop stop-color="#A18B62"/>
<stop offset="0.07" stop-color="#A89268"/>
<stop offset="0.51" stop-color="#D2BE88"/>
<stop offset="1" stop-color="#A18B62"/>
</linearGradient>
<linearGradient id="paint8_linear_410_5632" x1="0" y1="-466.5" x2="155.32" y2="-466.5" gradientUnits="userSpaceOnUse">
<stop stop-color="#A18B62"/>
<stop offset="0.07" stop-color="#A89268"/>
<stop offset="0.51" stop-color="#D2BE88"/>
<stop offset="1" stop-color="#A18B62"/>
</linearGradient>
<linearGradient id="paint9_linear_410_5632" x1="144.84" y1="81.74" x2="153.5" y2="73.09" gradientUnits="userSpaceOnUse">
<stop stop-color="#A18B62"/>
<stop offset="0.07" stop-color="#A89268"/>
<stop offset="0.51" stop-color="#D2BE88"/>
<stop offset="1" stop-color="#A18B62"/>
</linearGradient>
<linearGradient id="paint10_linear_410_5632" x1="1.82" y1="81.74" x2="10.48" y2="73.09" gradientUnits="userSpaceOnUse">
<stop stop-color="#A18B62"/>
<stop offset="0.07" stop-color="#A89268"/>
<stop offset="0.51" stop-color="#D2BE88"/>
<stop offset="1" stop-color="#A18B62"/>
</linearGradient>
<linearGradient id="paint11_linear_410_5632" x1="121.46" y1="121.21" x2="33.8702" y2="33.62" gradientUnits="userSpaceOnUse">
<stop stop-color="#CCB479"/>
<stop offset="0.54"/>
<stop offset="1" stop-color="#BBA471"/>
</linearGradient>
<linearGradient id="paint12_linear_410_5632" x1="32.21" y1="39.63" x2="32.21" y2="32.21" gradientUnits="userSpaceOnUse">
<stop stop-color="#A18B62"/>
<stop offset="0.07" stop-color="#A89268"/>
<stop offset="0.51" stop-color="#D2BE88"/>
<stop offset="1" stop-color="#A18B62"/>
</linearGradient>
<linearGradient id="paint13_linear_410_5632" x1="123.11" y1="115.2" x2="123.11" y2="122.62" gradientUnits="userSpaceOnUse">
<stop stop-color="#A18B62"/>
<stop offset="0.07" stop-color="#A89268"/>
<stop offset="0.51" stop-color="#D2BE88"/>
<stop offset="1" stop-color="#A18B62"/>
</linearGradient>
<linearGradient id="paint14_linear_410_5632" x1="121.099" y1="38.3405" x2="122.393" y2="36.0849" gradientUnits="userSpaceOnUse">
<stop stop-color="#A18B62"/>
<stop offset="0.07" stop-color="#A89268"/>
<stop offset="0.51" stop-color="#D2BE88"/>
<stop offset="1" stop-color="#A18B62"/>
</linearGradient>
<linearGradient id="paint15_linear_410_5632" x1="123.772" y1="35.6818" x2="125.08" y2="33.4261" gradientUnits="userSpaceOnUse">
<stop stop-color="#A18B62"/>
<stop offset="0.07" stop-color="#A89268"/>
<stop offset="0.51" stop-color="#D2BE88"/>
<stop offset="1" stop-color="#A18B62"/>
</linearGradient>
<linearGradient id="paint16_linear_410_5632" x1="121.41" y1="35.1585" x2="122.075" y2="34.013" gradientUnits="userSpaceOnUse">
<stop stop-color="#A18B62"/>
<stop offset="0.07" stop-color="#A89268"/>
<stop offset="0.51" stop-color="#D2BE88"/>
<stop offset="1" stop-color="#A18B62"/>
</linearGradient>
<linearGradient id="paint17_linear_410_5632" x1="124.083" y1="37.8314" x2="124.755" y2="36.6647" gradientUnits="userSpaceOnUse">
<stop stop-color="#A18B62"/>
<stop offset="0.07" stop-color="#A89268"/>
<stop offset="0.51" stop-color="#D2BE88"/>
<stop offset="1" stop-color="#A18B62"/>
</linearGradient>
<linearGradient id="paint18_linear_410_5632" x1="126.27" y1="36.74" x2="125.84" y2="35.1" gradientUnits="userSpaceOnUse">
<stop stop-color="#A18B62"/>
<stop offset="0.07" stop-color="#A89268"/>
<stop offset="0.51" stop-color="#D2BE88"/>
<stop offset="1" stop-color="#A18B62"/>
</linearGradient>
<linearGradient id="paint19_linear_410_5632" x1="120.37" y1="36.73" x2="119.93" y2="35.11" gradientUnits="userSpaceOnUse">
<stop stop-color="#A18B62"/>
<stop offset="0.07" stop-color="#A89268"/>
<stop offset="0.51" stop-color="#D2BE88"/>
<stop offset="1" stop-color="#A18B62"/>
</linearGradient>
<linearGradient id="paint20_linear_410_5632" x1="123.62" y1="40.74" x2="122.6" y2="36.95" gradientUnits="userSpaceOnUse">
<stop stop-color="#A18B62"/>
<stop offset="0.07" stop-color="#A89268"/>
<stop offset="0.51" stop-color="#D2BE88"/>
<stop offset="1" stop-color="#A18B62"/>
</linearGradient>
<linearGradient id="paint21_linear_410_5632" x1="123.61" y1="34.84" x2="122.61" y2="31.1" gradientUnits="userSpaceOnUse">
<stop stop-color="#A18B62"/>
<stop offset="0.07" stop-color="#A89268"/>
<stop offset="0.51" stop-color="#D2BE88"/>
<stop offset="1" stop-color="#A18B62"/>
</linearGradient>
<linearGradient id="paint22_linear_410_5632" x1="123.7" y1="38.1801" x2="122.48" y2="33.6101" gradientUnits="userSpaceOnUse">
<stop stop-color="#A18B62"/>
<stop offset="0.07" stop-color="#A89268"/>
<stop offset="0.51" stop-color="#D2BE88"/>
<stop offset="1" stop-color="#A18B62"/>
</linearGradient>
<linearGradient id="paint23_linear_410_5632" x1="30.1935" y1="121.327" x2="31.4946" y2="119.078" gradientUnits="userSpaceOnUse">
<stop stop-color="#A18B62"/>
<stop offset="0.07" stop-color="#A89268"/>
<stop offset="0.51" stop-color="#D2BE88"/>
<stop offset="1" stop-color="#A18B62"/>
</linearGradient>
<linearGradient id="paint24_linear_410_5632" x1="32.8736" y1="118.675" x2="34.1747" y2="116.412" gradientUnits="userSpaceOnUse">
<stop stop-color="#A18B62"/>
<stop offset="0.07" stop-color="#A89268"/>
<stop offset="0.51" stop-color="#D2BE88"/>
<stop offset="1" stop-color="#A18B62"/>
</linearGradient>
<linearGradient id="paint25_linear_410_5632" x1="30.5046" y1="118.145" x2="31.1693" y2="116.999" gradientUnits="userSpaceOnUse">
<stop stop-color="#A18B62"/>
<stop offset="0.07" stop-color="#A89268"/>
<stop offset="0.51" stop-color="#D2BE88"/>
<stop offset="1" stop-color="#A18B62"/>
</linearGradient>
<linearGradient id="paint26_linear_410_5632" x1="33.1776" y1="120.817" x2="33.8564" y2="119.658" gradientUnits="userSpaceOnUse">
<stop stop-color="#A18B62"/>
<stop offset="0.07" stop-color="#A89268"/>
<stop offset="0.51" stop-color="#D2BE88"/>
<stop offset="1" stop-color="#A18B62"/>
</linearGradient>
<linearGradient id="paint27_linear_410_5632" x1="35.3699" y1="119.73" x2="34.9399" y2="118.09" gradientUnits="userSpaceOnUse">
<stop stop-color="#A18B62"/>
<stop offset="0.07" stop-color="#A89268"/>
<stop offset="0.51" stop-color="#D2BE88"/>
<stop offset="1" stop-color="#A18B62"/>
</linearGradient>
<linearGradient id="paint28_linear_410_5632" x1="29.47" y1="119.72" x2="29.03" y2="118.1" gradientUnits="userSpaceOnUse">
<stop stop-color="#A18B62"/>
<stop offset="0.07" stop-color="#A89268"/>
<stop offset="0.51" stop-color="#D2BE88"/>
<stop offset="1" stop-color="#A18B62"/>
</linearGradient>
<linearGradient id="paint29_linear_410_5632" x1="32.72" y1="123.72" x2="31.7" y2="119.94" gradientUnits="userSpaceOnUse">
<stop stop-color="#A18B62"/>
<stop offset="0.07" stop-color="#A89268"/>
<stop offset="0.51" stop-color="#D2BE88"/>
<stop offset="1" stop-color="#A18B62"/>
</linearGradient>
<linearGradient id="paint30_linear_410_5632" x1="32.71" y1="117.83" x2="31.71" y2="114.09" gradientUnits="userSpaceOnUse">
<stop stop-color="#A18B62"/>
<stop offset="0.07" stop-color="#A89268"/>
<stop offset="0.51" stop-color="#D2BE88"/>
<stop offset="1" stop-color="#A18B62"/>
</linearGradient>
<linearGradient id="paint31_linear_410_5632" x1="32.6498" y1="120.61" x2="31.7298" y2="117.16" gradientUnits="userSpaceOnUse">
<stop stop-color="#A18B62"/>
<stop offset="0.07" stop-color="#A89268"/>
<stop offset="0.51" stop-color="#D2BE88"/>
<stop offset="1" stop-color="#A18B62"/>
</linearGradient>
<linearGradient id="paint32_linear_410_5632" x1="38.6004" y1="107.31" x2="114.26" y2="107.31" gradientUnits="userSpaceOnUse">
<stop stop-color="#A18B62"/>
<stop offset="0.07" stop-color="#A89268"/>
<stop offset="0.51" stop-color="#D2BE88"/>
<stop offset="1" stop-color="#A18B62"/>
</linearGradient>
<linearGradient id="paint33_linear_410_5632" x1="54.5203" y1="134.48" x2="100.86" y2="134.48" gradientUnits="userSpaceOnUse">
<stop stop-color="#A18B62"/>
<stop offset="0.07" stop-color="#A89268"/>
<stop offset="0.51" stop-color="#D2BE88"/>
<stop offset="1" stop-color="#A18B62"/>
</linearGradient>
<linearGradient id="paint34_linear_410_5632" x1="59.0203" y1="92.12" x2="93.0603" y2="92.12" gradientUnits="userSpaceOnUse">
<stop stop-color="#A18B62"/>
<stop offset="0.07" stop-color="#A89268"/>
<stop offset="0.51" stop-color="#D2BE88"/>
<stop offset="1" stop-color="#A18B62"/>
</linearGradient>
<linearGradient id="paint35_linear_410_5632" x1="87.6099" y1="82.84" x2="96.5599" y2="82.84" gradientUnits="userSpaceOnUse">
<stop stop-color="#A18B62"/>
<stop offset="0.07" stop-color="#A89268"/>
<stop offset="0.51" stop-color="#D2BE88"/>
<stop offset="1" stop-color="#A18B62"/>
</linearGradient>
<linearGradient id="paint36_linear_410_5632" x1="55.4" y1="82.8401" x2="64.36" y2="82.8401" gradientUnits="userSpaceOnUse">
<stop stop-color="#A18B62"/>
<stop offset="0.07" stop-color="#A89268"/>
<stop offset="0.51" stop-color="#D2BE88"/>
<stop offset="1" stop-color="#A18B62"/>
</linearGradient>
<linearGradient id="paint37_linear_410_5632" x1="68.0703" y1="61.64" x2="75.1003" y2="61.64" gradientUnits="userSpaceOnUse">
<stop stop-color="#A18B62"/>
<stop offset="0.07" stop-color="#A89268"/>
<stop offset="0.51" stop-color="#D2BE88"/>
<stop offset="1" stop-color="#A18B62"/>
</linearGradient>
<linearGradient id="paint38_linear_410_5632" x1="58.2704" y1="69.12" x2="64.5504" y2="69.12" gradientUnits="userSpaceOnUse">
<stop stop-color="#A18B62"/>
<stop offset="0.07" stop-color="#A89268"/>
<stop offset="0.51" stop-color="#D2BE88"/>
<stop offset="1" stop-color="#A18B62"/>
</linearGradient>
<linearGradient id="paint39_linear_410_5632" x1="78.2004" y1="61.2001" x2="86.9404" y2="61.2001" gradientUnits="userSpaceOnUse">
<stop stop-color="#A18B62"/>
<stop offset="0.07" stop-color="#A89268"/>
<stop offset="0.51" stop-color="#D2BE88"/>
<stop offset="1" stop-color="#A18B62"/>
</linearGradient>
<linearGradient id="paint40_linear_410_5632" x1="87.4202" y1="69.4801" x2="94.5301" y2="69.4801" gradientUnits="userSpaceOnUse">
<stop stop-color="#A18B62"/>
<stop offset="0.07" stop-color="#A89268"/>
<stop offset="0.51" stop-color="#D2BE88"/>
<stop offset="1" stop-color="#A18B62"/>
</linearGradient>
<linearGradient id="paint41_linear_410_5632" x1="37.3102" y1="124.68" x2="114.68" y2="124.68" gradientUnits="userSpaceOnUse">
<stop stop-color="#A18B62"/>
<stop offset="0.07" stop-color="#A89268"/>
<stop offset="0.51" stop-color="#D2BE88"/>
<stop offset="1" stop-color="#A18B62"/>
</linearGradient>
<linearGradient id="paint42_linear_410_5632" x1="50.4103" y1="123.09" x2="103.36" y2="123.09" gradientUnits="userSpaceOnUse">
<stop stop-color="#A18B62"/>
<stop offset="0.07" stop-color="#A89268"/>
<stop offset="0.51" stop-color="#D2BE88"/>
<stop offset="1" stop-color="#A18B62"/>
</linearGradient>
<clipPath id="clip0_410_5632">
<rect width="155.32" height="154.28" fill="white" transform="translate(0 0.280029)"/>
</clipPath>
</defs>
</svg>
