<svg width="81" height="80" viewBox="0 0 81 80" fill="none" xmlns="http://www.w3.org/2000/svg">
<path d="M6.30846 39.0573C6.30846 37.3751 4.89771 36 3.15423 36C1.41075 36 0 37.3751 0 39.0573C0 40.7395 1.41075 42.1146 3.15423 42.1146C4.89771 42.1146 6.30846 40.7395 6.30846 39.0573Z" fill="#D7B676"/>
<path d="M80.3085 39.0573C80.3085 37.3751 78.8977 36 77.1542 36C75.4108 36 74 37.3751 74 39.0573C74 40.7395 75.4108 42.1146 77.1542 42.1146C78.8977 42.1146 80.3085 40.7395 80.3085 39.0573Z" fill="#D7B676"/>
<path d="M4.63524 16.0415C4.44541 16.6805 4.02777 17 3.39499 17L3.38234 16.9468C2.88877 16.9468 2.39521 16.7204 2.15475 16.3743C2.04085 16.2146 1.91429 15.935 2.07882 15.4025C2.96471 12.5403 5.23005 7.64135 10.5327 6.96241L11.1402 6.88254L11.5452 6.40329C14.2535 3.11511 17.9742 0.985121 22.024 0.399374C23.9223 0.133125 24.393 0 27 0V3H24.5C20.5462 3.01801 16.9744 4.52623 14.3674 7.18872C14.013 7.56147 13.7093 7.94753 13.4182 8.32028C12.8613 9.02584 12.4943 9.47847 12.0261 9.63822C11.773 9.71809 11.4566 9.74472 11.0769 9.78465C10.5201 9.8379 9.83667 9.89115 9.11531 10.1973C6.40702 11.3422 5.35661 13.6852 4.63524 16.0415Z" fill="#D7B676"/>
<path d="M75.3648 16.0415C75.5546 16.6805 75.9722 17 76.605 17L76.6177 16.9468C77.1112 16.9468 77.6048 16.7204 77.8453 16.3743C77.9592 16.2146 78.0857 15.935 77.9212 15.4025C77.0353 12.5403 74.7699 7.64135 69.4673 6.96241L68.8598 6.88254L68.4548 6.40329C65.7465 3.11511 62.0258 0.985121 57.976 0.399374C56.0777 0.133125 55.607 0 53 0V3H55.5C59.4538 3.01801 63.0256 4.52623 65.6326 7.18872C65.987 7.56147 66.2907 7.94753 66.5818 8.32028C67.1387 9.02584 67.5057 9.47847 67.9739 9.63822C68.227 9.71809 68.5434 9.74472 68.9231 9.78465C69.4799 9.8379 70.1633 9.89115 70.8847 10.1973C73.593 11.3422 74.6434 13.6852 75.3648 16.0415Z" fill="#D7B676"/>
<rect x="27" width="26" height="3" fill="#D7B676"/>
<path d="M4.63524 63.9585C4.44541 63.3195 4.02777 63 3.39499 63L3.38234 63.0532C2.88877 63.0532 2.39521 63.2796 2.15475 63.6257C2.04085 63.7854 1.91429 64.065 2.07882 64.5975C2.96471 67.4597 5.23005 72.3587 10.5327 73.0376L11.1402 73.1175L11.5452 73.5967C14.2535 76.8849 17.9742 79.0149 22.024 79.6006C23.9223 79.8669 24.393 80 27 80V77H24.5C20.5462 76.982 16.9744 75.4738 14.3674 72.8113C14.013 72.4385 13.7093 72.0525 13.4182 71.6797C12.8613 70.9742 12.4943 70.5215 12.0261 70.3618C11.773 70.2819 11.4566 70.2553 11.0769 70.2153C10.5201 70.1621 9.83667 70.1088 9.11531 69.8027C6.40702 68.6578 5.35661 66.3148 4.63524 63.9585Z" fill="#D7B676"/>
<path d="M75.3648 63.9585C75.5546 63.3195 75.9722 63 76.605 63L76.6177 63.0532C77.1112 63.0532 77.6048 63.2796 77.8453 63.6257C77.9592 63.7854 78.0857 64.065 77.9212 64.5975C77.0353 67.4597 74.7699 72.3587 69.4673 73.0376L68.8598 73.1175L68.4548 73.5967C65.7465 76.8849 62.0258 79.0149 57.976 79.6006C56.0777 79.8669 55.607 80 53 80V77H55.5C59.4538 76.982 63.0256 75.4738 65.6326 72.8113C65.987 72.4385 66.2907 72.0525 66.5818 71.6797C67.1387 70.9742 67.5057 70.5215 67.9739 70.3618C68.227 70.2819 68.5434 70.2553 68.9231 70.2153C69.4799 70.1621 70.1633 70.1088 70.8847 69.8027C73.593 68.6578 74.6434 66.3148 75.3648 63.9585Z" fill="#D7B676"/>
<rect width="26" height="3" transform="matrix(1 0 0 -1 27 80)" fill="#D7B676"/>
</svg>
