<svg width="141" height="141" viewBox="0 0 141 141" fill="none" xmlns="http://www.w3.org/2000/svg">
<path d="M71.2888 120.368C71.2888 119.908 70.914 119.533 70.4538 119.533C69.9913 119.533 69.6189 119.908 69.6189 120.368V139.7C69.6189 140.162 69.9937 140.535 70.4538 140.535C70.914 140.535 71.2888 140.16 71.2888 139.7V120.368Z" fill="#FFF0D7" fill-opacity="0.5"/>
<path d="M72.5965 115.584C73.0833 114.408 72.5252 113.06 71.35 112.573C70.1747 112.087 68.8274 112.645 68.3406 113.82C67.8538 114.996 68.4119 116.343 69.5871 116.83C70.7623 117.317 72.1097 116.759 72.5965 115.584Z" fill="#FFF0D7" fill-opacity="0.5"/>
<path d="M70.4538 21.1631C70.914 21.1631 71.2888 20.7882 71.2888 20.328V0.996567C71.2888 0.536296 70.914 0.161438 70.4538 0.161438C69.9913 0.161438 69.6189 0.536296 69.6189 0.996567V20.328C69.6189 20.7906 69.9913 21.1631 70.4538 21.1631Z" fill="#FFF0D7" fill-opacity="0.5"/>
<path d="M70.4539 28.2902C71.726 28.2902 72.7571 27.2588 72.7571 25.9865C72.7571 24.7142 71.726 23.6827 70.4539 23.6827C69.1819 23.6827 68.1508 24.7142 68.1508 25.9865C68.1508 27.2588 69.1819 28.2902 70.4539 28.2902Z" fill="#FFF0D7" fill-opacity="0.5"/>
<path d="M1.11839 71.1856H20.4453C20.9055 71.1856 21.2803 70.8107 21.2803 70.3505C21.2803 69.8878 20.9055 69.5153 20.4453 69.5153H1.11839C0.655854 69.5153 0.283447 69.8902 0.283447 70.3505C0.283447 70.8107 0.655854 71.1856 1.11839 71.1856Z" fill="#FFF0D7" fill-opacity="0.5"/>
<path d="M28.2413 71.2203C28.7281 70.0448 28.17 68.6972 26.9948 68.2103C25.8196 67.7234 24.4722 68.2815 23.9854 69.457C23.4986 70.6325 24.0567 71.9802 25.2319 72.4671C26.4072 72.954 27.7545 72.3958 28.2413 71.2203Z" fill="#FFF0D7" fill-opacity="0.5"/>
<path d="M139.79 69.513H120.463C120 69.513 119.628 69.8879 119.628 70.3481C119.628 70.8084 120.002 71.1833 120.463 71.1833H139.79C140.25 71.1833 140.624 70.8084 140.624 70.3481C140.624 69.8879 140.25 69.513 139.79 69.513Z" fill="#FFF0D7" fill-opacity="0.5"/>
<path d="M115.185 72.6126C116.44 72.4087 117.293 71.2254 117.089 69.9695C116.885 68.7136 115.702 67.8607 114.447 68.0645C113.191 68.2684 112.338 69.4517 112.542 70.7076C112.746 71.9635 113.929 72.8164 115.185 72.6126Z" fill="#FFF0D7" fill-opacity="0.5"/>
<path d="M70.7006 103.656C77.8948 103.656 84.719 101.329 90.4379 96.9252L92.5632 95.2882L89.8852 95.4281C89.5389 95.4471 89.1902 95.4543 88.8487 95.4543C75.2477 95.4543 64.1824 84.1918 64.1824 70.3457C64.1824 58.1035 72.833 47.8826 84.2352 45.6761V64.7204C84.2352 64.7252 84.2375 64.7299 84.2375 64.7347C83.9125 65.4298 83.5164 66.0847 83.0586 66.6896C82.0292 66.5473 81.014 66.2602 80.0486 65.8213C80.4874 66.7846 80.7744 67.7976 80.9167 68.8297C80.0865 69.456 79.1662 69.9709 78.1747 70.3457C79.1662 70.7158 80.0865 71.2307 80.9167 71.857C80.7744 72.882 80.4898 73.8903 80.0557 74.8488C81.014 74.4146 82.0245 74.1299 83.0492 73.9876C83.6754 74.8156 84.1901 75.7338 84.5625 76.7207C84.9349 75.7338 85.4496 74.8156 86.0758 73.9899C87.1076 74.1347 88.1228 74.4217 89.0882 74.863C88.6494 73.8998 88.3624 72.8843 88.2177 71.8547C89.0479 71.2283 89.9682 70.7158 90.9597 70.3457C89.9682 69.9732 89.0455 69.4584 88.2153 68.8321C88.3576 67.8047 88.6423 66.7917 89.0764 65.8308C88.1133 66.2673 87.1005 66.552 86.0735 66.6944C85.618 66.0918 85.2242 65.4417 84.8993 64.7513C84.8993 64.7418 84.9016 64.7323 84.9016 64.7228V45.5599C86.1873 45.3487 87.5037 45.2372 88.8463 45.2372C89.24 45.2372 89.5673 45.2443 89.8781 45.2609L92.5608 45.4033L90.4308 43.7662C84.7143 39.3676 77.8925 37.0425 70.7006 37.0425C52.645 37.0425 37.9553 51.9847 37.9553 70.3505C37.9553 88.7163 52.645 103.656 70.7006 103.656ZM70.7006 38.7127C76.6614 38.7127 82.3589 40.3996 87.3211 43.612C73.5066 44.4187 62.5101 56.1034 62.5101 70.3505C62.5101 84.5975 73.5066 96.2799 87.3234 97.0842C82.3612 100.299 76.6638 101.986 70.7006 101.986C53.5654 101.986 39.6252 87.7933 39.6252 70.3505C39.6252 52.9052 53.5677 38.7127 70.7006 38.7127Z" fill="#FFF0D7" fill-opacity="0.5"/>
<path d="M16.4627 48.8743L34.293 56.3383C34.3665 56.3691 34.4448 56.3857 34.5207 56.3929C32.8864 60.7299 31.9898 65.4346 31.9898 70.3481C31.9898 75.3755 32.9267 80.1846 34.6345 84.6047L16.8945 91.8789C16.4675 92.0544 16.2635 92.5408 16.4391 92.9678C16.5719 93.2905 16.8826 93.4874 17.2123 93.4874C17.3167 93.4874 17.4258 93.4661 17.5278 93.4257L35.2702 86.1516C37.0848 90.3177 39.5944 94.1043 42.6471 97.3546L29.3166 110.688C28.9892 111.016 28.9892 111.545 29.3166 111.87C29.4802 112.034 29.6937 112.114 29.9072 112.114C30.1207 112.114 30.3342 112.034 30.4978 111.87L43.8189 98.5457C46.9712 101.628 50.636 104.171 54.6707 106.024L47.4077 123.381C47.2298 123.806 47.429 124.297 47.856 124.475C47.9604 124.52 48.0695 124.539 48.1786 124.539C48.5059 124.539 48.8167 124.347 48.9495 124.027L56.2054 106.686C60.6149 108.482 65.4253 109.471 70.4587 109.471C75.3663 109.471 80.0628 108.529 84.3822 106.819L91.3986 123.939C91.5314 124.262 91.8421 124.458 92.1718 124.458C92.2762 124.458 92.3853 124.437 92.4896 124.397C92.9166 124.221 93.1206 123.735 92.9451 123.308L85.9216 106.171C90.1651 104.268 94.0077 101.609 97.2858 98.3606L110.419 111.497C110.583 111.661 110.797 111.742 111.01 111.742C111.224 111.742 111.437 111.661 111.601 111.497C111.928 111.17 111.928 110.641 111.601 110.316L98.4481 97.1601C101.411 93.9619 103.849 90.2608 105.628 86.1943L122.756 93.3641C122.861 93.4091 122.97 93.4281 123.079 93.4281C123.406 93.4281 123.717 93.2359 123.85 92.9156C124.028 92.491 123.826 91.9999 123.401 91.8219L106.266 84.6497C107.983 80.2178 108.928 75.3921 108.928 70.3481C108.928 65.6291 108.102 61.1 106.589 56.9077L124.141 49.7094C124.568 49.5339 124.772 49.0475 124.597 48.6204C124.421 48.1934 123.933 47.9893 123.508 48.1649L105.989 55.3489C104.222 51.0333 101.712 47.1068 98.6284 43.7306L111.976 30.3804C112.303 30.053 112.303 29.5239 111.976 29.1989C111.648 28.8715 111.119 28.8715 110.794 29.1989L97.4755 42.5207C94.2591 39.2916 90.4901 36.632 86.3272 34.7055L93.4337 17.7182C93.6116 17.2935 93.41 16.8024 92.9854 16.6244C92.5608 16.4465 92.0698 16.6482 91.8919 17.0729L84.7925 34.0388C80.3617 32.2239 75.5252 31.2203 70.461 31.2203C65.4727 31.2203 60.705 32.1906 56.3263 33.9558L49.2436 16.6719C49.0681 16.2448 48.5818 16.0408 48.1549 16.2164C47.7279 16.3919 47.5239 16.8783 47.6995 17.3054L54.7941 34.6154C50.6336 36.511 46.8645 39.1374 43.641 42.3308L30.1349 28.8216C29.8076 28.4942 29.281 28.4942 28.9537 28.8216C28.6263 29.149 28.6263 29.6781 28.9537 30.0032L42.4787 43.5313C39.4189 46.8339 36.9188 50.6727 35.1279 54.8958C35.0734 54.8555 35.0165 54.8175 34.95 54.7914L17.1198 47.3274C16.6952 47.1495 16.2042 47.3488 16.0263 47.7758C15.8366 48.2076 16.0382 48.6964 16.4627 48.8743ZM70.4515 32.8953C75.4398 32.8953 80.2004 33.9131 84.5435 35.7518C84.6289 35.8562 84.7356 35.944 84.8685 36.0009C84.9728 36.046 85.0819 36.065 85.191 36.065C85.2124 36.065 85.2314 36.0626 85.2527 36.0602C98.1943 41.8706 107.25 55.0524 107.25 70.3481C107.25 91.001 90.7439 107.803 70.4539 107.803C50.1663 107.803 33.6596 91.001 33.6596 70.3481C33.6596 49.6952 50.1639 32.8953 70.4515 32.8953Z" fill="#FFF0D7" fill-opacity="0.5"/>
</svg>
