<svg width="190" height="255" viewBox="0 0 190 255" fill="none" xmlns="http://www.w3.org/2000/svg">
<rect y="0.825195" width="190" height="253.463" rx="10" fill="#231F20"/>
<path d="M175.499 240.655V14.17H14.502V240.655H175.499ZM15.5801 15.1111H174.421V239.714H15.5801V15.1111Z" fill="url(#paint0_radial_222_1355)"/>
<path d="M19.8906 235.951H43.6442L19.8906 215.217V235.951ZM21.6816 233.724L26.2092 222.061L30.6257 225.916L21.6816 233.724ZM31.3868 226.581L35.8034 230.436L22.4428 234.388L31.3868 226.581ZM23.7 235.01L36.6541 231.179L41.0437 235.01H23.7ZM25.3584 221.319L20.9688 232.626V217.487L25.3584 221.319Z" fill="url(#paint1_radial_222_1355)"/>
<path d="M170.11 235.951V215.217L146.356 235.951H170.11ZM167.56 234.388L154.199 230.436L158.616 226.581L167.56 234.388ZM159.377 225.916L163.793 222.061L168.321 233.724L159.377 225.916ZM166.302 235.01H148.959L153.348 231.179L166.302 235.01ZM169.034 232.626L164.644 221.319L169.034 217.487V232.626Z" fill="url(#paint2_radial_222_1355)"/>
<path d="M170.11 39.5521V18.8181H146.356L170.11 39.5521ZM168.321 21.0458L163.793 32.708L159.377 28.8529L168.321 21.0458ZM158.616 28.1869L154.199 24.3319L167.56 20.3798L158.616 28.1869ZM153.348 23.5893L148.959 19.7577H166.302L153.348 23.5893ZM164.644 33.4505L169.034 22.1432V37.2822L164.644 33.4505Z" fill="url(#paint3_radial_222_1355)"/>
<path d="M180.349 125.774C179.312 125.774 178.47 126.508 178.47 127.413C178.47 128.319 179.312 129.053 180.349 129.053C181.386 129.053 182.228 128.319 182.228 127.413C182.228 126.507 181.388 125.774 180.349 125.774Z" fill="url(#paint4_radial_222_1355)"/>
<path d="M180.349 119.552C179.312 119.552 178.47 120.286 178.47 121.192C178.47 122.097 179.312 122.831 180.349 122.831C181.386 122.831 182.228 122.097 182.228 121.192C182.228 120.285 181.388 119.552 180.349 119.552Z" fill="url(#paint5_radial_222_1355)"/>
<path d="M180.349 113.33C179.312 113.33 178.47 114.064 178.47 114.97C178.47 115.875 179.312 116.609 180.349 116.609C181.386 116.609 182.228 115.875 182.228 114.97C182.228 114.064 181.388 113.33 180.349 113.33Z" fill="url(#paint6_radial_222_1355)"/>
<path d="M180.349 131.994C179.312 131.994 178.47 132.729 178.47 133.634C178.47 134.539 179.312 135.274 180.349 135.274C181.386 135.274 182.228 134.539 182.228 133.634C182.228 132.729 181.388 131.994 180.349 131.994Z" fill="url(#paint7_radial_222_1355)"/>
<path d="M180.349 138.216C179.312 138.216 178.47 138.951 178.47 139.856C178.47 140.761 179.312 141.496 180.349 141.496C181.386 141.496 182.228 140.761 182.228 139.856C182.228 138.949 181.388 138.216 180.349 138.216Z" fill="url(#paint8_radial_222_1355)"/>
<path d="M180.349 144.438C179.312 144.438 178.47 145.172 178.47 146.078C178.47 146.82 179.034 147.446 179.81 147.647V244.418H10.1908V147.647C10.9662 147.446 11.5304 146.819 11.5304 146.078C11.5304 145.172 10.6886 144.438 9.65167 144.438C8.6147 144.438 7.77295 145.172 7.77295 146.078C7.77295 146.82 8.3371 147.446 9.11259 147.647V245.359H180.888V147.647C181.661 147.446 182.227 146.819 182.227 146.078C182.227 145.171 181.387 144.438 180.349 144.438Z" fill="url(#paint9_radial_222_1355)"/>
<path d="M9.65167 129.052C10.6886 129.052 11.5304 128.317 11.5304 127.412C11.5304 126.507 10.6886 125.772 9.65167 125.772C8.6147 125.772 7.77295 126.507 7.77295 127.412C7.77474 128.317 8.6147 129.052 9.65167 129.052Z" fill="url(#paint10_radial_222_1355)"/>
<path d="M9.65167 122.83C10.6886 122.83 11.5304 122.095 11.5304 121.19C11.5304 120.285 10.6886 119.55 9.65167 119.55C8.6147 119.55 7.77295 120.285 7.77295 121.19C7.77474 122.097 8.6147 122.83 9.65167 122.83Z" fill="url(#paint11_radial_222_1355)"/>
<path d="M9.65167 116.609C10.6886 116.609 11.5304 115.875 11.5304 114.97C11.5304 114.064 10.6886 113.33 9.65167 113.33C8.6147 113.33 7.77295 114.064 7.77295 114.97C7.77474 115.875 8.6147 116.609 9.65167 116.609Z" fill="url(#paint12_radial_222_1355)"/>
<path d="M9.65167 110.388C10.6886 110.388 11.5304 109.653 11.5304 108.748C11.5304 108.005 10.9662 107.38 10.1908 107.178V10.4072H179.81V107.178C179.036 107.38 178.47 108.007 178.47 108.748C178.47 109.653 179.312 110.388 180.349 110.388C181.386 110.388 182.227 109.653 182.227 108.748C182.227 108.005 181.663 107.38 180.888 107.178V9.46606H9.11259V107.178C8.33889 107.38 7.77295 108.007 7.77295 108.748C7.77474 109.653 8.6147 110.388 9.65167 110.388Z" fill="url(#paint13_radial_222_1355)"/>
<path d="M9.65167 135.274C10.6886 135.274 11.5304 134.539 11.5304 133.634C11.5304 132.729 10.6886 131.994 9.65167 131.994C8.6147 131.994 7.77295 132.729 7.77295 133.634C7.77474 134.539 8.6147 135.274 9.65167 135.274Z" fill="url(#paint14_radial_222_1355)"/>
<path d="M9.65167 141.494C10.6886 141.494 11.5304 140.759 11.5304 139.854C11.5304 138.949 10.6886 138.214 9.65167 138.214C8.6147 138.214 7.77295 138.949 7.77295 139.854C7.77474 140.761 8.6147 141.494 9.65167 141.494Z" fill="url(#paint15_radial_222_1355)"/>
<path d="M19.8242 18.4664V38.4205L43.5778 18.4664H19.8242ZM22.3763 19.9694L35.7369 23.7728L31.3204 27.4829L22.3763 19.9694ZM30.5593 28.1238L26.1427 31.8339L21.6152 20.6103L30.5593 28.1238ZM23.6336 19.3721H40.9773L36.5877 23.0597L23.6336 19.3721ZM20.9024 21.6665L25.292 32.5485L20.9024 36.236V21.6665Z" fill="url(#paint16_radial_222_1355)"/>
<path d="M94.6449 185.738C94.3697 185.738 94.1455 185.962 94.1455 186.238V213.171C94.1455 213.447 94.3697 213.67 94.6449 213.67C94.9216 213.67 95.1444 213.446 95.1444 213.171V186.238C95.1458 185.962 94.9216 185.738 94.6449 185.738Z" fill="#FFF0D7" fill-opacity="0.1"/>
<path d="M136.109 227.224H108.943C108.667 227.224 108.444 227.448 108.444 227.724C108.444 228 108.668 228.223 108.943 228.223H136.109C136.385 228.223 136.609 227.999 136.609 227.724C136.609 227.448 136.386 227.224 136.109 227.224Z" fill="#FFF0D7" fill-opacity="0.1"/>
<path d="M80.3472 227.224H53.1811C52.9058 227.224 52.6816 227.448 52.6816 227.724C52.6816 228 52.9058 228.223 53.1811 228.223H80.3472C80.6224 228.223 80.8466 227.999 80.8466 227.724C80.8466 227.448 80.6238 227.224 80.3472 227.224Z" fill="#FFF0D7" fill-opacity="0.1"/>
<path d="M104.841 218.024C104.969 218.024 105.097 217.976 105.195 217.878L124.319 198.744C124.515 198.548 124.515 198.233 124.319 198.037C124.123 197.841 123.808 197.841 123.612 198.037L104.488 217.171C104.292 217.367 104.292 217.683 104.488 217.878C104.586 217.974 104.714 218.024 104.841 218.024Z" fill="#FFF0D7" fill-opacity="0.1"/>
<path d="M64.973 198.037C64.7772 198.233 64.7772 198.549 64.973 198.744L84.0958 217.876C84.1937 217.974 84.3214 218.023 84.4491 218.023C84.5768 218.023 84.7045 217.974 84.8024 217.876C84.9982 217.682 84.9982 217.365 84.8024 217.169L65.6796 198.037C65.4838 197.841 65.1674 197.841 64.973 198.037Z" fill="#FFF0D7" fill-opacity="0.1"/>
<path d="M111.081 189.091C110.827 188.983 110.534 189.101 110.426 189.355L99.8671 214.17C99.7593 214.424 99.877 214.718 100.131 214.826C100.195 214.853 100.262 214.866 100.327 214.866C100.521 214.866 100.706 214.752 100.787 214.562L111.345 189.747C111.453 189.493 111.335 189.2 111.081 189.091Z" fill="#FFF0D7" fill-opacity="0.1"/>
<path d="M81.648 221.645L56.6882 211.016C56.4342 210.908 56.1405 211.026 56.0326 211.28C55.9248 211.534 56.0426 211.828 56.2966 211.936L81.2564 222.565C81.3202 222.592 81.3869 222.605 81.4522 222.605C81.6466 222.605 81.831 222.491 81.9119 222.301C82.0197 222.047 81.9019 221.753 81.648 221.645Z" fill="#FFF0D7" fill-opacity="0.1"/>
<path d="M133.57 212.035C133.466 211.779 133.176 211.655 132.92 211.758L107.756 221.901C107.501 222.004 107.376 222.295 107.479 222.551C107.557 222.745 107.745 222.865 107.943 222.865C108.006 222.865 108.068 222.853 108.131 222.828L133.295 212.685C133.549 212.581 133.672 212.29 133.57 212.035Z" fill="#FFF0D7" fill-opacity="0.1"/>
<path d="M89.2221 214.755C89.2845 214.755 89.3469 214.743 89.4094 214.718C89.6647 214.614 89.7896 214.323 89.6861 214.068L79.6153 189.057C79.5117 188.801 79.2208 188.676 78.9655 188.78C78.7101 188.884 78.5852 189.175 78.6888 189.43L88.7596 214.441C88.8362 214.637 89.0235 214.755 89.2221 214.755Z" fill="#FFF0D7" fill-opacity="0.1"/>
<path d="M94.6954 215.76C87.8623 215.76 82.3247 221.303 82.3247 228.14H107.069C107.069 221.303 101.528 215.76 94.6954 215.76Z" fill="#FFF0D7" fill-opacity="0.1"/>
<path d="M100.977 230.466C100.69 231.229 100.086 231.832 99.3223 232.119C100.084 232.404 100.689 233.009 100.977 233.77C101.263 233.007 101.87 232.403 102.632 232.119C101.87 231.833 101.263 231.229 100.977 230.466Z" fill="#FFF0D7" fill-opacity="0.1"/>
<path d="M94.643 229.245C94.1436 230.57 93.0937 231.62 91.7671 232.119C93.0908 232.614 94.1436 233.666 94.643 234.99C95.1425 233.666 96.1966 232.614 97.5218 232.119C96.1966 231.622 95.1425 230.571 94.643 229.245Z" fill="#FFF0D7" fill-opacity="0.1"/>
<path d="M88.3111 230.466C88.0245 231.229 87.4201 231.832 86.6567 232.119C87.4186 232.404 88.023 233.009 88.3111 233.77C88.5977 233.007 89.2049 232.403 89.9668 232.119C89.2049 231.833 88.5991 231.229 88.3111 230.466Z" fill="#FFF0D7" fill-opacity="0.1"/>
<defs>
<radialGradient id="paint0_radial_222_1355" cx="0" cy="0" r="1" gradientUnits="userSpaceOnUse" gradientTransform="translate(12.3515 -10.9492) scale(372.226 324.907)">
<stop stop-color="#FFCA28"/>
<stop offset="0.5" stop-color="#FFFDE7"/>
<stop offset="1" stop-color="#EF6C00"/>
</radialGradient>
<radialGradient id="paint1_radial_222_1355" cx="0" cy="0" r="1" gradientUnits="userSpaceOnUse" gradientTransform="translate(12.3511 -10.9489) scale(372.224 324.906)">
<stop stop-color="#FFCA28"/>
<stop offset="0.5" stop-color="#FFFDE7"/>
<stop offset="1" stop-color="#EF6C00"/>
</radialGradient>
<radialGradient id="paint2_radial_222_1355" cx="0" cy="0" r="1" gradientUnits="userSpaceOnUse" gradientTransform="translate(12.3515 -10.9489) scale(372.223 324.905)">
<stop stop-color="#FFCA28"/>
<stop offset="0.5" stop-color="#FFFDE7"/>
<stop offset="1" stop-color="#EF6C00"/>
</radialGradient>
<radialGradient id="paint3_radial_222_1355" cx="0" cy="0" r="1" gradientUnits="userSpaceOnUse" gradientTransform="translate(12.3515 -11.0049) scale(372.224 324.906)">
<stop stop-color="#FFCA28"/>
<stop offset="0.5" stop-color="#FFFDE7"/>
<stop offset="1" stop-color="#EF6C00"/>
</radialGradient>
<radialGradient id="paint4_radial_222_1355" cx="0" cy="0" r="1" gradientUnits="userSpaceOnUse" gradientTransform="translate(12.3515 -10.9486) scale(372.224 324.906)">
<stop stop-color="#FFCA28"/>
<stop offset="0.5" stop-color="#FFFDE7"/>
<stop offset="1" stop-color="#EF6C00"/>
</radialGradient>
<radialGradient id="paint5_radial_222_1355" cx="0" cy="0" r="1" gradientUnits="userSpaceOnUse" gradientTransform="translate(12.3515 -10.9487) scale(372.224 324.906)">
<stop stop-color="#FFCA28"/>
<stop offset="0.5" stop-color="#FFFDE7"/>
<stop offset="1" stop-color="#EF6C00"/>
</radialGradient>
<radialGradient id="paint6_radial_222_1355" cx="0" cy="0" r="1" gradientUnits="userSpaceOnUse" gradientTransform="translate(12.3515 -10.9487) scale(372.224 324.906)">
<stop stop-color="#FFCA28"/>
<stop offset="0.5" stop-color="#FFFDE7"/>
<stop offset="1" stop-color="#EF6C00"/>
</radialGradient>
<radialGradient id="paint7_radial_222_1355" cx="0" cy="0" r="1" gradientUnits="userSpaceOnUse" gradientTransform="translate(12.3515 -10.949) scale(372.225 324.907)">
<stop stop-color="#FFCA28"/>
<stop offset="0.5" stop-color="#FFFDE7"/>
<stop offset="1" stop-color="#EF6C00"/>
</radialGradient>
<radialGradient id="paint8_radial_222_1355" cx="0" cy="0" r="1" gradientUnits="userSpaceOnUse" gradientTransform="translate(12.3515 -10.9492) scale(372.225 324.907)">
<stop stop-color="#FFCA28"/>
<stop offset="0.5" stop-color="#FFFDE7"/>
<stop offset="1" stop-color="#EF6C00"/>
</radialGradient>
<radialGradient id="paint9_radial_222_1355" cx="0" cy="0" r="1" gradientUnits="userSpaceOnUse" gradientTransform="translate(12.3512 -10.9495) scale(372.226 324.907)">
<stop stop-color="#FFCA28"/>
<stop offset="0.5" stop-color="#FFFDE7"/>
<stop offset="1" stop-color="#EF6C00"/>
</radialGradient>
<radialGradient id="paint10_radial_222_1355" cx="0" cy="0" r="1" gradientUnits="userSpaceOnUse" gradientTransform="translate(12.3511 -10.9486) scale(372.224 324.905)">
<stop stop-color="#FFCA28"/>
<stop offset="0.5" stop-color="#FFFDE7"/>
<stop offset="1" stop-color="#EF6C00"/>
</radialGradient>
<radialGradient id="paint11_radial_222_1355" cx="0" cy="0" r="1" gradientUnits="userSpaceOnUse" gradientTransform="translate(12.3511 -10.9487) scale(372.223 324.905)">
<stop stop-color="#FFCA28"/>
<stop offset="0.5" stop-color="#FFFDE7"/>
<stop offset="1" stop-color="#EF6C00"/>
</radialGradient>
<radialGradient id="paint12_radial_222_1355" cx="0" cy="0" r="1" gradientUnits="userSpaceOnUse" gradientTransform="translate(12.3511 -10.9487) scale(372.223 324.905)">
<stop stop-color="#FFCA28"/>
<stop offset="0.5" stop-color="#FFFDE7"/>
<stop offset="1" stop-color="#EF6C00"/>
</radialGradient>
<radialGradient id="paint13_radial_222_1355" cx="0" cy="0" r="1" gradientUnits="userSpaceOnUse" gradientTransform="translate(12.3512 -10.9492) scale(372.225 324.906)">
<stop stop-color="#FFCA28"/>
<stop offset="0.5" stop-color="#FFFDE7"/>
<stop offset="1" stop-color="#EF6C00"/>
</radialGradient>
<radialGradient id="paint14_radial_222_1355" cx="0" cy="0" r="1" gradientUnits="userSpaceOnUse" gradientTransform="translate(12.3511 -10.949) scale(372.223 324.906)">
<stop stop-color="#FFCA28"/>
<stop offset="0.5" stop-color="#FFFDE7"/>
<stop offset="1" stop-color="#EF6C00"/>
</radialGradient>
<radialGradient id="paint15_radial_222_1355" cx="0" cy="0" r="1" gradientUnits="userSpaceOnUse" gradientTransform="translate(12.3511 -10.9492) scale(372.225 324.907)">
<stop stop-color="#FFCA28"/>
<stop offset="0.5" stop-color="#FFFDE7"/>
<stop offset="1" stop-color="#EF6C00"/>
</radialGradient>
<radialGradient id="paint16_radial_222_1355" cx="0" cy="0" r="1" gradientUnits="userSpaceOnUse" gradientTransform="translate(12.2847 -10.2349) scale(372.224 312.686)">
<stop stop-color="#FFCA28"/>
<stop offset="0.5" stop-color="#FFFDE7"/>
<stop offset="1" stop-color="#EF6C00"/>
</radialGradient>
</defs>
</svg>
