<svg width="191" height="254" viewBox="0 0 191 254" fill="none" xmlns="http://www.w3.org/2000/svg">
<rect x="0.273315" y="0.0778198" width="190" height="253.463" rx="10" fill="#231F20"/>
<path d="M175.875 240.512V14.0267L14.8779 14.0267L14.8779 240.512H175.875ZM15.9561 14.9678L174.797 14.9678V239.571H15.9561L15.9561 14.9678Z" fill="url(#paint0_radial_410_5078)"/>
<path d="M20.2667 235.808H44.0203L20.2667 215.074V235.808ZM22.0577 233.58L26.5852 221.918L31.0018 225.773L22.0577 233.58ZM31.7629 226.438L36.1795 230.293L22.8188 234.245L31.7629 226.438ZM24.0761 234.867L37.0302 231.035L41.4198 234.867H24.0761ZM25.7345 221.176L21.3449 232.483V217.344L25.7345 221.176Z" fill="url(#paint1_radial_410_5078)"/>
<path d="M170.486 235.808V215.074L146.732 235.808H170.486ZM167.936 234.245L154.575 230.293L158.992 226.438L167.936 234.245ZM159.753 225.773L164.169 221.918L168.697 233.58L159.753 225.773ZM166.678 234.867H149.335L153.724 231.035L166.678 234.867ZM169.41 232.483L165.02 221.176L169.41 217.344V232.483Z" fill="url(#paint2_radial_410_5078)"/>
<path d="M170.486 39.4088V18.6748H146.732L170.486 39.4088ZM168.697 20.9025L164.169 32.5647L159.753 28.7096L168.697 20.9025ZM158.992 28.0436L154.575 24.1885L167.936 20.2365L158.992 28.0436ZM153.724 23.446L149.335 19.6143H166.678L153.724 23.446ZM165.02 33.3072L169.41 21.9999V37.1389L165.02 33.3072Z" fill="url(#paint3_radial_410_5078)"/>
<path d="M180.725 125.63C179.688 125.63 178.846 126.365 178.846 127.27C178.846 128.175 179.688 128.91 180.725 128.91C181.762 128.91 182.604 128.175 182.604 127.27C182.604 126.363 181.764 125.63 180.725 125.63Z" fill="url(#paint4_radial_410_5078)"/>
<path d="M180.725 119.408C179.688 119.408 178.846 120.143 178.846 121.048C178.846 121.953 179.688 122.688 180.725 122.688C181.762 122.688 182.604 121.953 182.604 121.048C182.604 120.142 181.764 119.408 180.725 119.408Z" fill="url(#paint5_radial_410_5078)"/>
<path d="M180.725 113.186C179.688 113.186 178.846 113.921 178.846 114.826C178.846 115.731 179.688 116.466 180.725 116.466C181.762 116.466 182.604 115.731 182.604 114.826C182.604 113.921 181.764 113.186 180.725 113.186Z" fill="url(#paint6_radial_410_5078)"/>
<path d="M180.725 131.851C179.688 131.851 178.846 132.585 178.846 133.49C178.846 134.396 179.688 135.13 180.725 135.13C181.762 135.13 182.604 134.396 182.604 133.49C182.604 132.585 181.764 131.851 180.725 131.851Z" fill="url(#paint7_radial_410_5078)"/>
<path d="M180.725 138.073C179.688 138.073 178.846 138.807 178.846 139.712C178.846 140.618 179.688 141.352 180.725 141.352C181.762 141.352 182.604 140.618 182.604 139.712C182.604 138.806 181.764 138.073 180.725 138.073Z" fill="url(#paint8_radial_410_5078)"/>
<path d="M180.725 144.294C179.688 144.294 178.846 145.029 178.846 145.934C178.846 146.677 179.41 147.302 180.186 147.504V244.275H10.5669L10.5669 147.504C11.3423 147.302 11.9065 146.675 11.9065 145.934C11.9065 145.029 11.0647 144.294 10.0278 144.294C8.9908 144.294 8.14905 145.029 8.14905 145.934C8.14905 146.677 8.7132 147.302 9.48869 147.504L9.48869 245.216H181.264V147.504C182.037 147.302 182.603 146.675 182.603 145.934C182.603 145.028 181.763 144.294 180.725 144.294Z" fill="url(#paint9_radial_410_5078)"/>
<path d="M10.0278 128.908C11.0647 128.908 11.9065 128.174 11.9065 127.269C11.9065 126.363 11.0647 125.629 10.0278 125.629C8.9908 125.629 8.14905 126.363 8.14905 127.269C8.15084 128.174 8.9908 128.908 10.0278 128.908Z" fill="url(#paint10_radial_410_5078)"/>
<path d="M10.0278 122.687C11.0647 122.687 11.9065 121.952 11.9065 121.047C11.9065 120.141 11.0647 119.407 10.0278 119.407C8.9908 119.407 8.14905 120.141 8.14905 121.047C8.15084 121.953 8.9908 122.687 10.0278 122.687Z" fill="url(#paint11_radial_410_5078)"/>
<path d="M10.0278 116.466C11.0647 116.466 11.9065 115.731 11.9065 114.826C11.9065 113.921 11.0647 113.186 10.0278 113.186C8.9908 113.186 8.14905 113.921 8.14905 114.826C8.15084 115.731 8.9908 116.466 10.0278 116.466Z" fill="url(#paint12_radial_410_5078)"/>
<path d="M10.0278 110.244C11.0647 110.244 11.9065 109.51 11.9065 108.604C11.9065 107.862 11.3423 107.237 10.5669 107.035L10.5669 10.2639L180.186 10.2639V107.035C179.412 107.237 178.846 107.863 178.846 108.604C178.846 109.51 179.688 110.244 180.725 110.244C181.762 110.244 182.603 109.51 182.603 108.604C182.603 107.862 182.039 107.237 181.264 107.035V9.32275L9.48869 9.32275L9.48869 107.035C8.71499 107.237 8.14905 107.863 8.14905 108.604C8.15084 109.51 8.9908 110.244 10.0278 110.244Z" fill="url(#paint13_radial_410_5078)"/>
<path d="M10.0278 135.13C11.0647 135.13 11.9065 134.396 11.9065 133.49C11.9065 132.585 11.0647 131.851 10.0278 131.851C8.9908 131.851 8.14905 132.585 8.14905 133.49C8.15084 134.396 8.9908 135.13 10.0278 135.13Z" fill="url(#paint14_radial_410_5078)"/>
<path d="M10.0278 141.351C11.0647 141.351 11.9065 140.616 11.9065 139.711C11.9065 138.806 11.0647 138.071 10.0278 138.071C8.9908 138.071 8.14905 138.806 8.14905 139.711C8.15084 140.618 8.9908 141.351 10.0278 141.351Z" fill="url(#paint15_radial_410_5078)"/>
<path d="M20.2001 18.3231V38.2772L43.9536 18.3231H20.2001ZM22.7522 19.826L36.1128 23.6294L31.6963 27.3395L22.7522 19.826ZM30.9351 27.9804L26.5186 31.6905L21.991 20.467L30.9351 27.9804ZM24.0095 19.2288H41.3532L36.9635 22.9163L24.0095 19.2288ZM21.2782 21.5231L25.6679 32.4051L21.2782 36.0926V21.5231Z" fill="url(#paint16_radial_410_5078)"/>
<path d="M95.2364 186.253C94.9612 186.253 94.737 186.477 94.737 186.752V213.685C94.737 213.962 94.9612 214.185 95.2364 214.185C95.5131 214.185 95.7359 213.961 95.7359 213.685V186.752C95.7373 186.477 95.5131 186.253 95.2364 186.253Z" fill="#FFF0D7" fill-opacity="0.1"/>
<path d="M136.701 227.739H109.535C109.258 227.739 109.036 227.963 109.036 228.238C109.036 228.515 109.26 228.738 109.535 228.738H136.701C136.976 228.738 137.201 228.514 137.201 228.238C137.201 227.963 136.978 227.739 136.701 227.739Z" fill="#FFF0D7" fill-opacity="0.1"/>
<path d="M80.9388 227.739H53.7727C53.4975 227.739 53.2733 227.963 53.2733 228.238C53.2733 228.515 53.4975 228.738 53.7727 228.738H80.9388C81.2141 228.738 81.4383 228.514 81.4383 228.238C81.4383 227.963 81.2155 227.739 80.9388 227.739Z" fill="#FFF0D7" fill-opacity="0.1"/>
<path d="M105.433 218.539C105.561 218.539 105.689 218.49 105.786 218.392L124.911 199.258C125.107 199.063 125.107 198.747 124.911 198.551C124.715 198.356 124.4 198.356 124.204 198.551L105.08 217.685C104.884 217.881 104.884 218.198 105.08 218.392C105.178 218.489 105.305 218.539 105.433 218.539Z" fill="#FFF0D7" fill-opacity="0.1"/>
<path d="M65.5646 198.551C65.3688 198.747 65.3688 199.064 65.5646 199.258L84.6874 218.391C84.7853 218.489 84.913 218.537 85.0407 218.537C85.1684 218.537 85.2961 218.489 85.394 218.391C85.5898 218.197 85.5898 217.88 85.394 217.684L66.2711 198.551C66.0753 198.356 65.759 198.356 65.5646 198.551Z" fill="#FFF0D7" fill-opacity="0.1"/>
<path d="M111.673 189.606C111.419 189.498 111.126 189.615 111.018 189.87L100.459 214.685C100.351 214.939 100.469 215.233 100.723 215.34C100.787 215.367 100.853 215.38 100.919 215.38C101.113 215.38 101.297 215.267 101.378 215.076L111.937 190.261C112.045 190.007 111.927 189.715 111.673 189.606Z" fill="#FFF0D7" fill-opacity="0.1"/>
<path d="M82.2399 222.16L57.2801 211.53C57.0261 211.422 56.7324 211.54 56.6246 211.794C56.5167 212.048 56.6345 212.342 56.8885 212.45L81.8483 223.08C81.9121 223.107 81.9788 223.119 82.0441 223.119C82.2385 223.119 82.4229 223.006 82.5038 222.816C82.6116 222.562 82.4939 222.268 82.2399 222.16Z" fill="#FFF0D7" fill-opacity="0.1"/>
<path d="M134.161 212.55C134.058 212.294 133.767 212.169 133.512 212.273L108.347 222.415C108.092 222.519 107.967 222.81 108.071 223.066C108.149 223.26 108.336 223.379 108.535 223.379C108.597 223.379 108.66 223.368 108.722 223.342L133.886 213.2C134.14 213.096 134.264 212.805 134.161 212.55Z" fill="#FFF0D7" fill-opacity="0.1"/>
<path d="M89.8136 215.269C89.876 215.269 89.9384 215.258 90.0008 215.233C90.2562 215.129 90.3811 214.838 90.2775 214.582L80.2067 189.571C80.1032 189.316 79.8123 189.191 79.557 189.295C79.3016 189.398 79.1767 189.689 79.2803 189.945L89.3511 214.956C89.4277 215.152 89.615 215.269 89.8136 215.269Z" fill="#FFF0D7" fill-opacity="0.1"/>
<path d="M95.2871 216.274C88.4541 216.274 82.9164 221.818 82.9164 228.654H107.661C107.661 221.818 102.12 216.274 95.2871 216.274Z" fill="#FFF0D7" fill-opacity="0.1"/>
<path d="M101.568 230.981C101.282 231.743 100.677 232.346 99.9141 232.633C100.676 232.919 101.28 233.523 101.568 234.284C101.855 233.522 102.462 232.917 103.224 232.633C102.462 232.348 101.855 231.743 101.568 230.981Z" fill="#FFF0D7" fill-opacity="0.1"/>
<path d="M95.2349 229.76C94.7355 231.085 93.6855 232.135 92.3589 232.633C93.6827 233.129 94.7355 234.181 95.2349 235.505C95.7343 234.181 96.7885 233.129 98.1137 232.633C96.7885 232.136 95.7343 231.086 95.2349 229.76Z" fill="#FFF0D7" fill-opacity="0.1"/>
<path d="M88.9027 230.981C88.6161 231.743 88.0117 232.346 87.2484 232.633C88.0103 232.919 88.6147 233.523 88.9027 234.284C89.1893 233.522 89.7966 232.917 90.5585 232.633C89.7966 232.348 89.1907 231.743 88.9027 230.981Z" fill="#FFF0D7" fill-opacity="0.1"/>
<path d="M96.2888 176.368C96.2888 175.908 95.914 175.533 95.4538 175.533C94.9913 175.533 94.6189 175.908 94.6189 176.368V195.7C94.6189 196.162 94.9937 196.535 95.4538 196.535C95.914 196.535 96.2888 196.16 96.2888 195.7V176.368Z" fill="#FFF0D7" fill-opacity="0.5"/>
<path d="M97.5965 171.584C98.0833 170.408 97.5252 169.06 96.35 168.573C95.1747 168.087 93.8274 168.645 93.3406 169.82C92.8538 170.996 93.4119 172.343 94.5871 172.83C95.7623 173.317 97.1097 172.759 97.5965 171.584Z" fill="#FFF0D7" fill-opacity="0.5"/>
<path d="M95.4538 77.1631C95.914 77.1631 96.2888 76.7882 96.2888 76.328V56.9966C96.2888 56.5363 95.914 56.1614 95.4538 56.1614C94.9913 56.1614 94.6189 56.5363 94.6189 56.9966V76.328C94.6189 76.7906 94.9913 77.1631 95.4538 77.1631Z" fill="#FFF0D7" fill-opacity="0.5"/>
<path d="M95.4539 84.2902C96.726 84.2902 97.7571 83.2588 97.7571 81.9865C97.7571 80.7142 96.726 79.6827 95.4539 79.6827C94.1819 79.6827 93.1508 80.7142 93.1508 81.9865C93.1508 83.2588 94.1819 84.2902 95.4539 84.2902Z" fill="#FFF0D7" fill-opacity="0.5"/>
<path d="M26.1184 127.186H45.4453C45.9055 127.186 46.2803 126.811 46.2803 126.35C46.2803 125.888 45.9055 125.515 45.4453 125.515H26.1184C25.6559 125.515 25.2834 125.89 25.2834 126.35C25.2834 126.811 25.6559 127.186 26.1184 127.186Z" fill="#FFF0D7" fill-opacity="0.5"/>
<path d="M53.2413 127.22C53.7281 126.045 53.17 124.697 51.9948 124.21C50.8196 123.723 49.4722 124.282 48.9854 125.457C48.4986 126.633 49.0567 127.98 50.2319 128.467C51.4072 128.954 52.7545 128.396 53.2413 127.22Z" fill="#FFF0D7" fill-opacity="0.5"/>
<path d="M164.79 125.513H145.463C145 125.513 144.628 125.888 144.628 126.348C144.628 126.808 145.002 127.183 145.463 127.183H164.79C165.25 127.183 165.624 126.808 165.624 126.348C165.624 125.888 165.25 125.513 164.79 125.513Z" fill="#FFF0D7" fill-opacity="0.5"/>
<path d="M140.185 128.613C141.44 128.409 142.293 127.225 142.089 125.969C141.885 124.714 140.702 123.861 139.447 124.065C138.191 124.268 137.338 125.452 137.542 126.708C137.746 127.964 138.929 128.816 140.185 128.613Z" fill="#FFF0D7" fill-opacity="0.5"/>
<path d="M95.7006 159.656C102.895 159.656 109.719 157.329 115.438 152.925L117.563 151.288L114.885 151.428C114.539 151.447 114.19 151.454 113.849 151.454C100.248 151.454 89.1824 140.192 89.1824 126.346C89.1824 114.103 97.833 103.883 109.235 101.676V120.72C109.235 120.725 109.237 120.73 109.237 120.735C108.913 121.43 108.516 122.085 108.059 122.69C107.029 122.547 106.014 122.26 105.049 121.821C105.487 122.785 105.774 123.798 105.917 124.83C105.087 125.456 104.166 125.971 103.175 126.346C104.166 126.716 105.087 127.231 105.917 127.857C105.774 128.882 105.49 129.89 105.056 130.849C106.014 130.415 107.024 130.13 108.049 129.988C108.675 130.816 109.19 131.734 109.562 132.721C109.935 131.734 110.45 130.816 111.076 129.99C112.108 130.135 113.123 130.422 114.088 130.863C113.649 129.9 113.362 128.884 113.218 127.855C114.048 127.228 114.968 126.716 115.96 126.346C114.968 125.973 114.046 125.458 113.215 124.832C113.358 123.805 113.642 122.792 114.076 121.831C113.113 122.267 112.101 122.552 111.073 122.694C110.618 122.092 110.224 121.442 109.899 120.751C109.899 120.742 109.902 120.732 109.902 120.723V101.56C111.187 101.349 112.504 101.237 113.846 101.237C114.24 101.237 114.567 101.244 114.878 101.261L117.561 101.403L115.431 99.7662C109.714 95.3676 102.892 93.0425 95.7006 93.0425C77.645 93.0425 62.9553 107.985 62.9553 126.35C62.9553 144.716 77.645 159.656 95.7006 159.656ZM95.7006 94.7127C101.661 94.7127 107.359 96.3996 112.321 99.612C98.5066 100.419 87.5101 112.103 87.5101 126.35C87.5101 140.598 98.5066 152.28 112.323 153.084C107.361 156.299 101.664 157.986 95.7006 157.986C78.5654 157.986 64.6252 143.793 64.6252 126.35C64.6252 108.905 78.5677 94.7127 95.7006 94.7127Z" fill="#FFF0D7" fill-opacity="0.5"/>
<path d="M41.4627 104.874L59.293 112.338C59.3665 112.369 59.4448 112.386 59.5207 112.393C57.8864 116.73 56.9898 121.435 56.9898 126.348C56.9898 131.376 57.9267 136.185 59.6345 140.605L41.8945 147.879C41.4675 148.054 41.2635 148.541 41.4391 148.968C41.5719 149.29 41.8826 149.487 42.2123 149.487C42.3167 149.487 42.4258 149.466 42.5278 149.426L60.2702 142.152C62.0848 146.318 64.5944 150.104 67.6471 153.355L54.3166 166.688C53.9892 167.016 53.9892 167.545 54.3166 167.87C54.4802 168.034 54.6937 168.114 54.9072 168.114C55.1207 168.114 55.3342 168.034 55.4978 167.87L68.8189 154.546C71.9712 157.628 75.636 160.171 79.6707 162.024L72.4077 179.381C72.2298 179.806 72.429 180.297 72.856 180.475C72.9604 180.52 73.0695 180.539 73.1786 180.539C73.5059 180.539 73.8167 180.347 73.9495 180.027L81.2054 162.686C85.6149 164.482 90.4253 165.471 95.4587 165.471C100.366 165.471 105.063 164.529 109.382 162.819L116.399 179.939C116.531 180.262 116.842 180.458 117.172 180.458C117.276 180.458 117.385 180.437 117.49 180.397C117.917 180.221 118.121 179.735 117.945 179.308L110.922 162.171C115.165 160.268 119.008 157.609 122.286 154.361L135.419 167.497C135.583 167.661 135.797 167.742 136.01 167.742C136.224 167.742 136.437 167.661 136.601 167.497C136.928 167.17 136.928 166.641 136.601 166.316L123.448 153.16C126.411 149.962 128.849 146.261 130.628 142.194L147.756 149.364C147.861 149.409 147.97 149.428 148.079 149.428C148.406 149.428 148.717 149.236 148.85 148.916C149.028 148.491 148.826 148 148.401 147.822L131.266 140.65C132.983 136.218 133.928 131.392 133.928 126.348C133.928 121.629 133.102 117.1 131.589 112.908L149.141 105.709C149.568 105.534 149.772 105.047 149.597 104.62C149.421 104.193 148.933 103.989 148.508 104.165L130.989 111.349C129.222 107.033 126.712 103.107 123.628 99.7306L136.976 86.3804C137.303 86.053 137.303 85.5239 136.976 85.1989C136.648 84.8715 136.119 84.8715 135.794 85.1989L122.476 98.5207C119.259 95.2916 115.49 92.632 111.327 90.7055L118.434 73.7182C118.612 73.2935 118.41 72.8024 117.985 72.6244C117.561 72.4465 117.07 72.6482 116.892 73.0729L109.793 90.0388C105.362 88.2239 100.525 87.2203 95.461 87.2203C90.4727 87.2203 85.705 88.1906 81.3263 89.9558L74.2436 72.6719C74.0681 72.2448 73.5818 72.0408 73.1549 72.2164C72.7279 72.3919 72.5239 72.8783 72.6995 73.3054L79.7941 90.6154C75.6336 92.511 71.8645 95.1374 68.641 98.3308L55.1349 84.8216C54.8076 84.4942 54.281 84.4942 53.9537 84.8216C53.6263 85.149 53.6263 85.6781 53.9537 86.0032L67.4787 99.5313C64.4189 102.834 61.9188 106.673 60.1279 110.896C60.0734 110.855 60.0165 110.817 59.95 110.791L42.1198 103.327C41.6952 103.149 41.2042 103.349 41.0263 103.776C40.8366 104.208 41.0382 104.696 41.4627 104.874ZM95.4515 88.8953C100.44 88.8953 105.2 89.9131 109.543 91.7518C109.629 91.8562 109.736 91.944 109.868 92.0009C109.973 92.046 110.082 92.065 110.191 92.065C110.212 92.065 110.231 92.0626 110.253 92.0602C123.194 97.8706 132.25 111.052 132.25 126.348C132.25 147.001 115.744 163.803 95.4539 163.803C75.1663 163.803 58.6596 147.001 58.6596 126.348C58.6596 105.695 75.1639 88.8953 95.4515 88.8953Z" fill="#FFF0D7" fill-opacity="0.5"/>
<defs>
<radialGradient id="paint0_radial_410_5078" cx="0" cy="0" r="1" gradientUnits="userSpaceOnUse" gradientTransform="translate(12.7274 -11.0926) scale(372.226 324.907)">
<stop stop-color="#FFCA28"/>
<stop offset="0.5" stop-color="#FFFDE7"/>
<stop offset="1" stop-color="#EF6C00"/>
</radialGradient>
<radialGradient id="paint1_radial_410_5078" cx="0" cy="0" r="1" gradientUnits="userSpaceOnUse" gradientTransform="translate(12.7272 -11.0922) scale(372.224 324.906)">
<stop stop-color="#FFCA28"/>
<stop offset="0.5" stop-color="#FFFDE7"/>
<stop offset="1" stop-color="#EF6C00"/>
</radialGradient>
<radialGradient id="paint2_radial_410_5078" cx="0" cy="0" r="1" gradientUnits="userSpaceOnUse" gradientTransform="translate(12.7275 -11.0922) scale(372.223 324.905)">
<stop stop-color="#FFCA28"/>
<stop offset="0.5" stop-color="#FFFDE7"/>
<stop offset="1" stop-color="#EF6C00"/>
</radialGradient>
<radialGradient id="paint3_radial_410_5078" cx="0" cy="0" r="1" gradientUnits="userSpaceOnUse" gradientTransform="translate(12.7275 -11.1482) scale(372.224 324.906)">
<stop stop-color="#FFCA28"/>
<stop offset="0.5" stop-color="#FFFDE7"/>
<stop offset="1" stop-color="#EF6C00"/>
</radialGradient>
<radialGradient id="paint4_radial_410_5078" cx="0" cy="0" r="1" gradientUnits="userSpaceOnUse" gradientTransform="translate(12.7276 -11.0919) scale(372.224 324.906)">
<stop stop-color="#FFCA28"/>
<stop offset="0.5" stop-color="#FFFDE7"/>
<stop offset="1" stop-color="#EF6C00"/>
</radialGradient>
<radialGradient id="paint5_radial_410_5078" cx="0" cy="0" r="1" gradientUnits="userSpaceOnUse" gradientTransform="translate(12.7275 -11.092) scale(372.224 324.906)">
<stop stop-color="#FFCA28"/>
<stop offset="0.5" stop-color="#FFFDE7"/>
<stop offset="1" stop-color="#EF6C00"/>
</radialGradient>
<radialGradient id="paint6_radial_410_5078" cx="0" cy="0" r="1" gradientUnits="userSpaceOnUse" gradientTransform="translate(12.7275 -11.092) scale(372.224 324.906)">
<stop stop-color="#FFCA28"/>
<stop offset="0.5" stop-color="#FFFDE7"/>
<stop offset="1" stop-color="#EF6C00"/>
</radialGradient>
<radialGradient id="paint7_radial_410_5078" cx="0" cy="0" r="1" gradientUnits="userSpaceOnUse" gradientTransform="translate(12.7275 -11.0923) scale(372.225 324.907)">
<stop stop-color="#FFCA28"/>
<stop offset="0.5" stop-color="#FFFDE7"/>
<stop offset="1" stop-color="#EF6C00"/>
</radialGradient>
<radialGradient id="paint8_radial_410_5078" cx="0" cy="0" r="1" gradientUnits="userSpaceOnUse" gradientTransform="translate(12.7275 -11.0926) scale(372.225 324.907)">
<stop stop-color="#FFCA28"/>
<stop offset="0.5" stop-color="#FFFDE7"/>
<stop offset="1" stop-color="#EF6C00"/>
</radialGradient>
<radialGradient id="paint9_radial_410_5078" cx="0" cy="0" r="1" gradientUnits="userSpaceOnUse" gradientTransform="translate(12.7273 -11.0928) scale(372.226 324.907)">
<stop stop-color="#FFCA28"/>
<stop offset="0.5" stop-color="#FFFDE7"/>
<stop offset="1" stop-color="#EF6C00"/>
</radialGradient>
<radialGradient id="paint10_radial_410_5078" cx="0" cy="0" r="1" gradientUnits="userSpaceOnUse" gradientTransform="translate(12.7272 -11.0919) scale(372.224 324.905)">
<stop stop-color="#FFCA28"/>
<stop offset="0.5" stop-color="#FFFDE7"/>
<stop offset="1" stop-color="#EF6C00"/>
</radialGradient>
<radialGradient id="paint11_radial_410_5078" cx="0" cy="0" r="1" gradientUnits="userSpaceOnUse" gradientTransform="translate(12.7272 -11.092) scale(372.223 324.905)">
<stop stop-color="#FFCA28"/>
<stop offset="0.5" stop-color="#FFFDE7"/>
<stop offset="1" stop-color="#EF6C00"/>
</radialGradient>
<radialGradient id="paint12_radial_410_5078" cx="0" cy="0" r="1" gradientUnits="userSpaceOnUse" gradientTransform="translate(12.7272 -11.092) scale(372.223 324.905)">
<stop stop-color="#FFCA28"/>
<stop offset="0.5" stop-color="#FFFDE7"/>
<stop offset="1" stop-color="#EF6C00"/>
</radialGradient>
<radialGradient id="paint13_radial_410_5078" cx="0" cy="0" r="1" gradientUnits="userSpaceOnUse" gradientTransform="translate(12.7273 -11.0925) scale(372.225 324.906)">
<stop stop-color="#FFCA28"/>
<stop offset="0.5" stop-color="#FFFDE7"/>
<stop offset="1" stop-color="#EF6C00"/>
</radialGradient>
<radialGradient id="paint14_radial_410_5078" cx="0" cy="0" r="1" gradientUnits="userSpaceOnUse" gradientTransform="translate(12.7272 -11.0923) scale(372.223 324.906)">
<stop stop-color="#FFCA28"/>
<stop offset="0.5" stop-color="#FFFDE7"/>
<stop offset="1" stop-color="#EF6C00"/>
</radialGradient>
<radialGradient id="paint15_radial_410_5078" cx="0" cy="0" r="1" gradientUnits="userSpaceOnUse" gradientTransform="translate(12.7272 -11.0925) scale(372.225 324.907)">
<stop stop-color="#FFCA28"/>
<stop offset="0.5" stop-color="#FFFDE7"/>
<stop offset="1" stop-color="#EF6C00"/>
</radialGradient>
<radialGradient id="paint16_radial_410_5078" cx="0" cy="0" r="1" gradientUnits="userSpaceOnUse" gradientTransform="translate(12.6606 -10.3782) scale(372.224 312.686)">
<stop stop-color="#FFCA28"/>
<stop offset="0.5" stop-color="#FFFDE7"/>
<stop offset="1" stop-color="#EF6C00"/>
</radialGradient>
</defs>
</svg>
