<svg width="54" height="54" viewBox="0 0 54 54" fill="none" xmlns="http://www.w3.org/2000/svg">
<path d="M11.4349 21.0224C7.97566 23.593 4.13163 25.6948 0 27.2301C4.12676 28.7537 7.97079 30.8555 11.4349 33.4261C10.7869 36.4264 9.67612 39.372 8.08291 42.1887C11.3473 41.005 14.7579 40.1494 18.222 39.6181C21.8615 43.6811 24.775 48.4003 26.7531 53.5727C28.7312 48.4042 31.6449 43.6928 35.2845 39.6299C38.7778 40.169 42.2078 41.0363 45.4966 42.2356C43.8887 39.3994 42.7632 36.4303 42.1103 33.4104C45.5744 30.8438 49.4187 28.7498 53.5455 27.2262C49.4138 25.6948 45.5648 23.593 42.0958 21.0185C42.7389 18.0065 43.8546 15.0491 45.4478 12.2207C42.1688 13.4083 38.7535 14.2678 35.2747 14.7991C31.6352 10.7362 28.7263 6.02863 26.7531 0.864014C24.7799 6.02863 21.876 10.7322 18.2463 14.7913C14.7578 14.2561 11.3326 13.3927 8.04389 12.2012C9.65659 15.0413 10.7821 18.0065 11.4349 21.0224Z" fill="#D7B676"/>
</svg>
