<svg width="1029" height="511" viewBox="0 0 1029 511" fill="none" xmlns="http://www.w3.org/2000/svg">
<g clip-path="url(#clip0_21137_3616)">
<path fill-rule="evenodd" clip-rule="evenodd" d="M968 491L968 511L1029 465.316L968 415.5V438H155V491H968Z" fill="white" fill-opacity="0.5"/>
<path d="M8.44918 416.718C31.0944 447.489 62.8345 470.368 99.1866 482.124C135.539 493.88 174.665 493.919 211.041 482.235C247.416 470.55 279.201 447.734 301.907 417.007C324.613 386.28 337.092 349.197 337.581 310.994C338.071 272.792 326.546 235.401 304.635 204.102C282.724 172.804 251.534 149.18 215.47 136.568C179.406 123.955 140.291 122.991 103.65 133.812C67.0084 144.633 34.6924 166.692 11.2662 196.872L53.6133 229.742C70.1513 208.435 92.9651 192.863 118.832 185.224C144.7 177.585 172.313 178.265 197.773 187.169C223.233 196.073 245.252 212.751 260.72 234.846C276.188 256.941 284.324 283.338 283.979 310.307C283.633 337.277 274.824 363.456 258.794 385.148C242.765 406.84 220.326 422.948 194.646 431.196C168.967 439.445 141.345 439.418 115.682 431.119C90.0185 422.819 67.6112 406.667 51.6246 384.944L8.44918 416.718Z" fill="#D7B676"/>
<path d="M244.009 198.595C237.024 173.921 236.232 147.905 241.703 122.852C247.174 97.7987 258.739 74.4814 275.374 54.9654C292.009 35.4494 313.2 20.3371 337.07 10.9672C360.941 1.59725 386.754 -1.74113 412.222 1.24776C437.691 4.23666 462.03 13.4606 483.082 28.1024C504.135 42.7443 521.251 62.3522 532.916 85.1893C544.58 108.026 550.433 133.388 549.955 159.027C549.477 184.666 542.683 209.791 530.175 232.178L490.148 209.814C498.978 194.01 503.774 176.272 504.112 158.172C504.449 140.072 500.318 122.168 492.083 106.046C483.848 89.9235 471.765 76.0811 456.903 65.7445C442.04 55.4079 424.858 48.8962 406.878 46.7861C388.898 44.6761 370.675 47.0328 353.824 53.6476C336.972 60.2625 322.012 70.9311 310.268 84.7087C298.525 98.4862 290.36 114.947 286.498 132.634C282.636 150.32 283.195 168.687 288.126 186.105L244.009 198.595Z" fill="#D7B676"/>
<path d="M85.6203 238.995L-0.347656 167.849V259.745L85.6203 238.995Z" fill="#D7B676"/>
<path d="M478.474 180.228L559.392 230.845L484.792 255.606L478.474 180.228Z" fill="#D7B676"/>
</g>
<defs>
<clipPath id="clip0_21137_3616">
<rect width="1029" height="511" fill="white"/>
</clipPath>
</defs>
</svg>
