<svg width="156" height="155" viewBox="0 0 156 155" fill="none" xmlns="http://www.w3.org/2000/svg">
<g clip-path="url(#clip0_410_5749)">
<path d="M154.88 77.14C154.88 81.44 154.52 85.66 153.84 89.77C147.78 126.12 115.98 153.84 77.6697 153.84C35.0197 153.84 0.449707 119.5 0.449707 77.14C0.449707 34.78 35.0197 0.429993 77.6697 0.429993C116.69 0.429993 148.95 29.18 154.15 66.53C154.63 70 154.88 73.54 154.88 77.14Z" fill="#00022B"/>
<path d="M77.6598 154.28C56.9198 154.28 37.4198 146.26 22.7498 131.69C8.07977 117.12 0.00976562 97.75 0.00976562 77.14C0.00976562 56.53 8.08977 37.16 22.7498 22.59C37.4198 8.02 56.9198 0 77.6598 0C96.5198 0 114.71 6.8 128.87 19.15C142.9 31.39 152.03 48.19 154.58 66.47C155.07 69.97 155.32 73.56 155.32 77.14C155.32 81.4 154.97 85.67 154.27 89.84C151.3 107.65 142.02 123.96 128.13 135.77C114.09 147.71 96.1698 154.28 77.6598 154.28ZM77.6598 0.87C57.1498 0.87 37.8698 8.8 23.3698 23.21C8.86977 37.61 0.889766 56.77 0.889766 77.14C0.889766 97.51 8.87976 116.66 23.3798 131.07C37.8798 145.48 57.1598 153.41 77.6698 153.41C95.9598 153.41 113.68 146.91 127.56 135.11C141.29 123.44 150.47 107.31 153.4 89.7C154.09 85.57 154.44 81.35 154.44 77.14C154.44 73.6 154.2 70.05 153.71 66.59C151.19 48.52 142.17 31.91 128.3 19.81C114.3 7.59 96.3098 0.87 77.6598 0.87Z" fill="url(#paint0_linear_410_5749)"/>
<path d="M77.66 148.86C58.37 148.86 40.24 141.4 26.61 127.85C12.97 114.3 5.45996 96.29 5.45996 77.13C5.45996 57.97 12.97 39.96 26.61 26.41C40.25 12.86 58.38 5.40002 77.66 5.40002C96.94 5.40002 115.08 12.86 128.71 26.41C142.35 39.96 149.86 57.97 149.86 77.13C149.86 96.29 142.35 114.3 128.71 127.85C115.08 141.4 96.95 148.86 77.66 148.86ZM77.66 6.29002C58.61 6.29002 40.7 13.66 27.23 27.04C13.76 40.42 6.33996 58.21 6.33996 77.14C6.33996 96.07 13.76 113.86 27.23 127.24C40.7 140.62 58.61 147.99 77.66 147.99C96.71 147.99 114.62 140.62 128.09 127.24C141.56 113.86 148.98 96.07 148.98 77.14C148.98 58.21 141.56 40.42 128.09 27.04C114.62 13.66 96.71 6.29002 77.66 6.29002Z" fill="url(#paint1_linear_410_5749)"/>
<path d="M76.4298 153.5L5.83984 83.11L6.45984 82.5L77.0499 152.89L76.4298 153.5Z" fill="url(#paint2_linear_410_5749)"/>
<path d="M77.0497 153.51L76.4297 152.88L148.87 82.49L149.48 83.12L77.0497 153.51Z" fill="url(#paint3_linear_410_5749)"/>
<path d="M78.3799 153.45C74.0499 153.45 69.7999 153.09 65.6599 152.41L70.5499 151.19L65.6499 146.48L72.2099 148.34L70.3399 141.82L75.0799 146.69L76.7299 140.12L78.3899 146.69L83.1299 141.82L81.2599 148.34L87.8199 146.48L82.9199 151.19L89.0599 152.71C85.5699 153.21 81.9999 153.45 78.3799 153.45Z" fill="#00022B"/>
<path d="M78.38 153.89C74.1 153.89 69.79 153.54 65.59 152.85L63.5 152.51L69.68 150.98L64.09 145.6L71.58 147.72L69.44 140.28L74.85 145.84L76.74 138.34L78.63 145.84L84.04 140.28L81.9 147.72L89.39 145.6L83.79 150.98L91.36 152.86L89.11 153.17C85.59 153.64 81.98 153.89 78.38 153.89ZM67.9 152.31C74.1 153.15 80.46 153.24 86.66 152.58L82.05 151.43L86.26 147.38L80.63 148.98L82.24 143.38L78.17 147.56L76.75 141.92L75.33 147.56L71.26 143.38L72.87 148.98L67.24 147.38L71.45 151.43L67.9 152.31Z" fill="url(#paint4_linear_410_5749)"/>
<path d="M148.86 71.78L78.27 1.38997L78.9 0.779968L149.48 71.16L148.86 71.78Z" fill="url(#paint5_linear_410_5749)"/>
<path d="M6.45984 71.78L5.83984 71.16L78.2798 0.769958L78.8898 1.39996L6.45984 71.78Z" fill="url(#paint6_linear_410_5749)"/>
<path d="M76.9498 0.820007C81.2798 0.820007 85.5298 1.18001 89.6698 1.86001L84.7798 3.08001L89.6798 7.79001L83.1198 5.93001L84.9898 12.45L80.2498 7.58001L78.5898 14.15L76.9298 7.57001L72.1898 12.44L74.0598 5.92001L67.4998 7.78001L72.3998 3.07001L66.2598 1.55001C69.7498 1.07001 73.3198 0.820007 76.9498 0.820007Z" fill="#00022B"/>
<path d="M78.58 15.94L76.69 8.43998L71.28 14L73.42 6.55998L65.93 8.68998L71.53 3.30998L63.96 1.42998L66.21 1.11998C73.93 0.0599848 82.01 0.159985 89.74 1.42998L91.83 1.76998L85.65 3.29998L91.24 8.67999L83.75 6.55998L85.89 14L80.48 8.43998L78.58 15.94ZM77.16 6.70998L78.58 12.35L80 6.70998L84.07 10.89L82.46 5.28998L88.09 6.88998L83.88 2.83998L87.41 1.95998C81.21 1.11998 74.85 1.02998 68.65 1.68998L73.26 2.83998L69.05 6.88998L74.68 5.28998L73.07 10.89L77.16 6.70998Z" fill="url(#paint7_linear_410_5749)"/>
<path d="M77.66 154.28C56.92 154.28 37.42 146.26 22.75 131.69C8.08 117.12 0 97.75 0 77.14C0 56.53 8.08 37.16 22.75 22.59C37.42 8.02 56.92 0 77.66 0C96.16 0 114.08 6.57 128.12 18.5C142 30.3 151.29 46.61 154.26 64.42C154.37 65.07 154.47 65.74 154.58 66.47C155.06 69.93 155.31 73.48 155.32 77.01V77.14C155.32 81.39 154.97 85.65 154.27 89.81V89.85C151.29 107.66 142 123.97 128.12 135.78C114.09 147.71 96.17 154.28 77.66 154.28ZM77.66 0.87C57.15 0.87 37.87 8.8 23.37 23.21C8.87 37.62 0.88 56.77 0.88 77.14C0.88 97.51 8.87 116.66 23.37 131.07C37.87 145.48 57.15 153.41 77.66 153.41C95.95 153.41 113.67 146.91 127.55 135.11C141.27 123.45 150.44 107.34 153.39 89.74V89.7C154.09 85.58 154.44 81.35 154.44 77.14V77.01C154.44 73.52 154.19 70.01 153.71 66.59C153.61 65.87 153.51 65.21 153.4 64.56C150.46 46.95 141.28 30.83 127.55 19.16C113.67 7.37 95.96 0.87 77.66 0.87Z" fill="url(#paint8_linear_410_5749)"/>
<path d="M149.17 82.81C152.323 82.81 154.88 80.2714 154.88 77.14C154.88 74.0085 152.323 71.47 149.17 71.47C146.016 71.47 143.46 74.0085 143.46 77.14C143.46 80.2714 146.016 82.81 149.17 82.81Z" fill="#00022B"/>
<path d="M149.17 83.24C145.78 83.24 143.02 80.5 143.02 77.14C143.02 73.78 145.78 71.04 149.17 71.04C152.56 71.04 155.32 73.78 155.32 77.14C155.32 80.5 152.56 83.24 149.17 83.24ZM149.17 71.91C146.27 71.91 143.9 74.26 143.9 77.14C143.9 80.02 146.26 82.37 149.17 82.37C152.08 82.37 154.44 80.02 154.44 77.14C154.44 74.25 152.08 71.91 149.17 71.91Z" fill="url(#paint9_linear_410_5749)"/>
<path d="M6.14994 82.81C9.30349 82.81 11.8599 80.2714 11.8599 77.14C11.8599 74.0085 9.30349 71.47 6.14994 71.47C2.9964 71.47 0.439941 74.0085 0.439941 77.14C0.439941 80.2714 2.9964 82.81 6.14994 82.81Z" fill="#00022B"/>
<path d="M6.15 83.24C2.76 83.24 0 80.5 0 77.14C0 73.78 2.76 71.04 6.15 71.04C9.54 71.04 12.3 73.78 12.3 77.14C12.3 80.5 9.54 83.24 6.15 83.24ZM6.15 71.91C3.25 71.91 0.88 74.26 0.88 77.14C0.88 80.02 3.24 82.37 6.15 82.37C9.06 82.37 11.42 80.02 11.42 77.14C11.42 74.26 9.06 71.91 6.15 71.91Z" fill="url(#paint10_linear_410_5749)"/>
<path d="M77.6602 138.9C43.3802 138.9 15.4902 111.19 15.4902 77.14C15.4902 43.09 43.3802 15.38 77.6602 15.38C111.94 15.38 139.83 43.09 139.83 77.14C139.83 111.19 111.94 138.9 77.6602 138.9ZM77.6602 16.25C43.8602 16.25 16.3702 43.56 16.3702 77.14C16.3702 110.72 43.8702 138.03 77.6602 138.03C111.45 138.03 138.95 110.72 138.95 77.14C138.95 43.56 111.46 16.25 77.6602 16.25Z" fill="url(#paint11_linear_410_5749)"/>
<path d="M28.48 35.64C28.48 33.59 30.15 31.93 32.21 31.93C34.27 31.93 35.94 33.59 35.94 35.64C35.94 37.69 34.27 39.35 32.21 39.35C30.15 39.35 28.48 37.69 28.48 35.64Z" fill="url(#paint12_linear_410_5749)"/>
<path d="M32.2101 39.93C29.8301 39.93 27.8901 38.01 27.8901 35.64C27.8901 33.27 29.8301 31.35 32.2101 31.35C34.5901 31.35 36.5301 33.27 36.5301 35.64C36.5301 38.01 34.5901 39.93 32.2101 39.93ZM32.2101 32.52C30.4801 32.52 29.0601 33.92 29.0601 35.65C29.0601 37.38 30.4701 38.78 32.2101 38.78C33.9501 38.78 35.3601 37.38 35.3601 35.65C35.3601 33.92 33.9501 32.52 32.2101 32.52Z" fill="#00022B"/>
<path d="M126.84 118.63C126.84 120.68 125.17 122.34 123.11 122.34C121.05 122.34 119.38 120.68 119.38 118.63C119.38 116.58 121.05 114.92 123.11 114.92C125.17 114.93 126.84 116.59 126.84 118.63Z" fill="url(#paint13_linear_410_5749)"/>
<path d="M123.11 122.92C120.73 122.92 118.79 121 118.79 118.63C118.79 116.26 120.73 114.34 123.11 114.34C125.49 114.34 127.43 116.26 127.43 118.63C127.43 121 125.49 122.92 123.11 122.92ZM123.11 115.51C121.38 115.51 119.96 116.91 119.96 118.64C119.96 120.37 121.37 121.77 123.11 121.77C124.85 121.77 126.26 120.37 126.26 118.64C126.26 116.91 124.85 115.51 123.11 115.51Z" fill="#00022B"/>
<path d="M121.11 38.0201C121 38.0201 120.89 37.9801 120.8 37.8901C120.63 37.7201 120.63 37.4401 120.8 37.2701L122.07 36.0001C122.24 35.8301 122.52 35.8301 122.69 36.0001C122.86 36.1701 122.86 36.4501 122.69 36.6201L121.42 37.8901C121.34 37.9801 121.23 38.0201 121.11 38.0201Z" fill="url(#paint14_linear_410_5749)"/>
<path d="M123.79 35.36C123.68 35.36 123.57 35.32 123.48 35.23C123.31 35.06 123.31 34.78 123.48 34.61L124.75 33.35C124.92 33.18 125.2 33.18 125.37 33.35C125.54 33.52 125.54 33.8 125.37 33.97L124.1 35.23C124.02 35.32 123.91 35.36 123.79 35.36Z" fill="url(#paint15_linear_410_5749)"/>
<path d="M122.37 35.38C122.26 35.38 122.15 35.34 122.06 35.25L120.81 34.01C120.64 33.84 120.64 33.56 120.81 33.39C120.98 33.22 121.26 33.22 121.43 33.39L122.68 34.63C122.85 34.8 122.85 35.08 122.68 35.25C122.59 35.34 122.48 35.38 122.37 35.38Z" fill="url(#paint16_linear_410_5749)"/>
<path d="M125.07 38.06C124.96 38.06 124.85 38.02 124.76 37.93L123.46 36.64C123.29 36.47 123.29 36.19 123.46 36.02C123.63 35.85 123.91 35.85 124.08 36.02L125.38 37.31C125.55 37.48 125.55 37.76 125.38 37.93C125.29 38.02 125.18 38.06 125.07 38.06Z" fill="url(#paint17_linear_410_5749)"/>
<path d="M127.64 36.08H124.47C124.23 36.08 124.03 35.88 124.03 35.64C124.03 35.4 124.23 35.2 124.47 35.2H127.64C127.88 35.2 128.08 35.4 128.08 35.64C128.08 35.88 127.88 36.08 127.64 36.08Z" fill="url(#paint18_linear_410_5749)"/>
<path d="M121.71 36.08H118.59C118.35 36.08 118.15 35.88 118.15 35.64C118.15 35.4 118.35 35.2 118.59 35.2H121.71C121.95 35.2 122.15 35.4 122.15 35.64C122.15 35.88 121.95 36.08 121.71 36.08Z" fill="url(#paint19_linear_410_5749)"/>
<path d="M123.11 40.58C122.87 40.58 122.67 40.38 122.67 40.14V36.99C122.67 36.75 122.87 36.55 123.11 36.55C123.35 36.55 123.55 36.75 123.55 36.99V40.14C123.55 40.38 123.36 40.58 123.11 40.58Z" fill="url(#paint20_linear_410_5749)"/>
<path d="M123.11 34.68C122.87 34.68 122.67 34.48 122.67 34.24V31.14C122.67 30.9 122.87 30.7 123.11 30.7C123.35 30.7 123.55 30.9 123.55 31.14V34.24C123.55 34.49 123.36 34.68 123.11 34.68Z" fill="url(#paint21_linear_410_5749)"/>
<path d="M124.81 35.31L123.4 33.91C123.23 33.74 122.95 33.74 122.78 33.91L121.37 35.31C121.2 35.48 121.2 35.76 121.37 35.93L122.78 37.33C122.87 37.42 122.98 37.46 123.09 37.46C123.2 37.46 123.31 37.42 123.4 37.33L124.81 35.93C124.98 35.76 124.98 35.48 124.81 35.31Z" fill="url(#paint22_linear_410_5749)"/>
<path d="M30.21 121.01C30.1 121.01 29.99 120.97 29.9 120.88C29.73 120.71 29.73 120.43 29.9 120.26L31.17 118.99C31.34 118.82 31.62 118.82 31.79 118.99C31.96 119.16 31.96 119.44 31.79 119.61L30.52 120.88C30.44 120.97 30.32 121.01 30.21 121.01Z" fill="url(#paint23_linear_410_5749)"/>
<path d="M32.8901 118.35C32.7801 118.35 32.6701 118.31 32.5801 118.22C32.4101 118.05 32.4101 117.77 32.5801 117.6L33.8501 116.34C34.0201 116.17 34.3001 116.17 34.4701 116.34C34.6401 116.51 34.6401 116.79 34.4701 116.96L33.2001 118.22C33.1201 118.31 33.0001 118.35 32.8901 118.35Z" fill="url(#paint24_linear_410_5749)"/>
<path d="M31.46 118.37C31.35 118.37 31.24 118.33 31.15 118.24L29.9 117C29.73 116.83 29.73 116.55 29.9 116.38C30.07 116.21 30.35 116.21 30.52 116.38L31.77 117.62C31.94 117.79 31.94 118.07 31.77 118.24C31.69 118.33 31.58 118.37 31.46 118.37Z" fill="url(#paint25_linear_410_5749)"/>
<path d="M34.1701 121.05C34.0601 121.05 33.9501 121.01 33.8601 120.92L32.5601 119.63C32.3901 119.46 32.3901 119.18 32.5601 119.01C32.7301 118.84 33.0101 118.84 33.1801 119.01L34.4801 120.3C34.6501 120.47 34.6501 120.75 34.4801 120.92C34.3901 121.01 34.2801 121.05 34.1701 121.05Z" fill="url(#paint26_linear_410_5749)"/>
<path d="M36.7399 119.07H33.5699C33.3299 119.07 33.1299 118.87 33.1299 118.63C33.1299 118.39 33.3299 118.19 33.5699 118.19H36.7399C36.9799 118.19 37.1799 118.39 37.1799 118.63C37.1799 118.87 36.9799 119.07 36.7399 119.07Z" fill="url(#paint27_linear_410_5749)"/>
<path d="M30.81 119.07H27.69C27.45 119.07 27.25 118.87 27.25 118.63C27.25 118.39 27.45 118.19 27.69 118.19H30.81C31.05 118.19 31.25 118.39 31.25 118.63C31.25 118.87 31.05 119.07 30.81 119.07Z" fill="url(#paint28_linear_410_5749)"/>
<path d="M32.21 123.57C31.97 123.57 31.77 123.37 31.77 123.13V119.98C31.77 119.74 31.97 119.54 32.21 119.54C32.45 119.54 32.65 119.74 32.65 119.98V123.13C32.65 123.37 32.45 123.57 32.21 123.57Z" fill="url(#paint29_linear_410_5749)"/>
<path d="M32.21 117.67C31.97 117.67 31.77 117.47 31.77 117.23V114.13C31.77 113.89 31.97 113.69 32.21 113.69C32.45 113.69 32.65 113.89 32.65 114.13V117.23C32.65 117.48 32.45 117.67 32.21 117.67Z" fill="url(#paint30_linear_410_5749)"/>
<path d="M33.9098 118.3L32.4998 116.9C32.4198 116.82 32.3098 116.77 32.1898 116.77C32.0698 116.77 31.9598 116.82 31.8798 116.9L30.4698 118.3C30.2998 118.47 30.2998 118.75 30.4698 118.92L31.8798 120.32C31.9698 120.41 32.0798 120.45 32.1898 120.45C32.2998 120.45 32.4098 120.41 32.4998 120.32L33.9098 118.92C33.9898 118.84 34.0398 118.73 34.0398 118.61C34.0298 118.5 33.9898 118.38 33.9098 118.3Z" fill="url(#paint31_linear_410_5749)"/>
<path d="M120.46 119.943C144.282 96.1209 144.282 57.4978 120.46 33.6759C96.6381 9.85389 58.0151 9.85389 34.1931 33.6759C10.3711 57.4979 10.3711 96.1209 34.1931 119.943C58.0151 143.765 96.6381 143.765 120.46 119.943Z" fill="#00022B"/>
<path d="M55.3802 115.8C61.7902 115.49 68.2002 113.69 73.7502 110.11C79.0002 106.72 83.3502 101.87 87.6302 97.07C90.1702 94.22 92.7402 91.34 94.6702 87.94C98.1102 81.86 99.2502 74.56 100.33 67.47C100.88 63.82 101.44 60.07 100.78 56.45C98.9102 46.19 87.9802 40.99 78.6502 41.94C70.6702 42.75 62.4902 47.43 59.3602 55.67C56.9302 62.09 57.8702 69.62 55.4802 76.07C52.1602 85.04 42.7702 90.95 42.1402 100.63C41.9902 102.91 42.3702 105.22 41.9902 107.46C41.5602 109.97 40.2102 112.2 39.7702 114.71C39.0702 118.66 40.8302 122.85 43.7002 125.29C46.5702 127.73 50.3502 128.56 53.9402 128.16C53.9402 123.5 55.7102 118.88 58.7002 115.64L55.3802 115.8Z" fill="#A18B62"/>
<path d="M77.3204 137.81C93.8504 137.81 108.84 131.22 119.83 120.54C116.69 113.73 110.3 108.26 103.17 105.49C93.3304 101.67 82.3904 102.07 71.9204 103.34C63.9404 104.31 55.7904 105.85 48.9804 110.12C44.0204 113.23 39.8904 118.09 38.2104 123.61C48.8004 132.47 62.4405 137.81 77.3305 137.81H77.3204Z" fill="#00022B"/>
<path d="M64.5004 50.95C62.3004 58.37 62.8504 71.38 64.5004 78.94C64.5004 78.98 64.5204 79.02 64.5304 79.06C65.4304 83.12 66.8604 87.17 69.5604 90.33C72.2604 93.49 76.4204 95.62 80.5404 95.06C84.5204 94.52 87.8604 91.56 89.8104 88.04C91.7504 84.52 92.5004 80.48 93.0404 76.5C93.9804 69.56 93.7404 51.15 93.0704 51.09C84.4904 50.36 72.8504 48.61 64.5004 50.71V50.95Z" fill="#00022B"/>
<path d="M92.7003 73.63C92.9103 72.1 94.7503 71.15 96.2303 71.6C97.7103 72.05 98.6803 73.58 98.7903 75.12C98.9003 76.66 98.2803 78.17 97.3903 79.44C95.9203 81.55 93.3303 83.19 90.8403 82.53C91.2303 79.37 91.8003 76.23 92.5403 73.13L92.7003 73.64V73.63Z" fill="#00022B"/>
<path d="M64.7303 73.63C64.5203 72.1 62.6803 71.15 61.2103 71.6C59.7303 72.05 58.7603 73.58 58.6503 75.12C58.5403 76.66 59.1603 78.17 60.0503 79.44C61.5203 81.55 64.1103 83.19 66.6003 82.53C66.2103 79.37 65.6403 76.23 64.9003 73.13L64.7403 73.64L64.7303 73.63Z" fill="#00022B"/>
<path d="M62.2304 67.76C66.0304 68.08 69.7504 66.58 72.5604 64.25C75.3704 61.92 77.6504 59.09 80.5404 56.84C83.5004 54.53 87.0804 52.87 90.8804 52.04C89.8704 57.7 91.7304 63.42 93.5804 68.91C94.5804 63.67 95.5804 58.33 94.7804 53.06C94.5404 51.48 94.0504 49.78 92.6404 48.81C91.5104 48.03 90.0104 47.88 88.6004 47.79C80.9304 47.27 73.1904 47.49 65.5704 48.43C64.9804 48.5 64.3704 48.59 63.8804 48.9C63.2104 49.32 62.9104 50.07 62.6904 50.78C60.9604 56.3 61.6504 62.17 62.3504 67.86L62.2404 67.75L62.2304 67.76Z" fill="#A18B62"/>
<path d="M92.5702 51.42C92.7202 51.16 92.8702 50.91 93.0402 50.67C93.1202 50.55 93.2102 50.43 93.2902 50.31C93.3302 50.25 93.3802 50.19 93.4202 50.13C93.4402 50.1 93.4602 50.08 93.4802 50.05C93.5302 49.98 93.4102 50.14 93.5002 50.02C93.8702 49.56 94.2602 49.12 94.6902 48.71C94.8802 48.52 94.8902 48.17 94.6902 47.98C94.4802 47.79 94.1702 47.78 93.9602 47.98C93.0602 48.84 92.2902 49.83 91.6802 50.9C91.5502 51.13 91.6202 51.47 91.8602 51.6C92.1002 51.73 92.4202 51.66 92.5602 51.42H92.5702Z" fill="#00022B"/>
<path d="M93.1603 56.46C93.0603 60 93.8503 63.52 95.4303 66.69C95.7203 67.28 96.6103 66.76 96.3203 66.17C94.8203 63.16 94.1003 59.81 94.1903 56.45C94.2103 55.79 93.1803 55.79 93.1603 56.45V56.46Z" fill="#00022B"/>
<path d="M96.8503 59.62C97.0203 61.11 97.2003 62.6 97.3703 64.08C97.4003 64.36 97.5803 64.59 97.8803 64.59C98.1303 64.59 98.4303 64.35 98.3903 64.08C98.2203 62.59 98.0403 61.1 97.8703 59.62C97.8403 59.34 97.6603 59.11 97.3603 59.11C97.1103 59.11 96.8103 59.35 96.8503 59.62Z" fill="#00022B"/>
<path d="M53.7502 83.3C52.9502 85.33 51.9302 87.27 50.7302 89.09C49.5802 90.83 48.1502 92.4 47.2302 94.28C45.3902 98.02 45.9702 102.28 45.0902 106.25C44.6502 108.24 43.8402 110.17 42.2702 111.54C41.7702 111.98 42.5002 112.7 43.0002 112.27C45.9802 109.68 46.3802 105.49 46.6802 101.81C46.8502 99.69 47.0302 97.52 47.8102 95.52C48.6002 93.51 50.0702 91.89 51.2802 90.13C52.6902 88.09 53.8402 85.89 54.7502 83.58C54.9902 82.96 54.0002 82.7 53.7602 83.31L53.7502 83.3Z" fill="#00022B"/>
<path d="M49.8804 97.56C50.4704 101.35 49.6004 105.29 47.5304 108.52C47.1704 109.08 48.0604 109.59 48.4204 109.04C50.6404 105.57 51.5004 101.36 50.8704 97.29C50.7704 96.64 49.7804 96.92 49.8804 97.56Z" fill="#00022B"/>
<path d="M56.5304 96.35C56.5804 97.73 56.3904 99.09 55.9704 100.4C55.7704 101.03 56.7604 101.3 56.9604 100.67C57.4104 99.28 57.6104 97.81 57.5504 96.35C57.5404 96.07 57.3204 95.84 57.0404 95.84C56.7604 95.84 56.5204 96.08 56.5304 96.35Z" fill="#00022B"/>
<path d="M61.2001 75.9C62.3201 76.92 63.3401 78.05 64.2201 79.27C64.3801 79.5 64.6701 79.6 64.9201 79.45C65.1401 79.32 65.2701 78.97 65.1001 78.75C64.1701 77.45 63.1101 76.24 61.9201 75.17C61.7101 74.98 61.4001 74.97 61.1901 75.17C61.0001 75.36 60.9801 75.71 61.1901 75.9H61.2001Z" fill="white"/>
<path d="M62.2401 79.41C62.8601 79.07 63.4801 78.74 64.1001 78.4C64.3401 78.27 64.4301 77.92 64.2801 77.7C64.1301 77.46 63.8301 77.38 63.5801 77.52C62.9601 77.86 62.3401 78.19 61.7201 78.53C61.4801 78.66 61.3901 79.01 61.5401 79.23C61.6901 79.47 61.9901 79.55 62.2401 79.41Z" fill="white"/>
<path d="M93.7103 77.45C93.7703 77.33 93.8303 77.22 93.9003 77.1C93.9303 77.04 93.9703 76.99 94.0103 76.93C94.0503 76.88 94.1003 76.83 94.1303 76.77C94.1103 76.82 94.0803 76.83 94.1303 76.77C94.1503 76.75 94.1703 76.72 94.1903 76.7C94.2303 76.65 94.2803 76.6 94.3203 76.55C94.4103 76.45 94.5003 76.36 94.6003 76.27C94.6503 76.23 94.7003 76.18 94.7503 76.14C94.7603 76.13 94.8403 76.06 94.7803 76.11C94.7203 76.16 94.8003 76.09 94.8103 76.09C94.9203 76.01 95.0303 75.94 95.1403 75.87C95.2503 75.8 95.3703 75.74 95.4903 75.68C95.5403 75.65 95.6003 75.62 95.6503 75.61C95.5203 75.65 95.6403 75.61 95.6603 75.61C95.6903 75.6 95.7303 75.58 95.7603 75.57C96.0103 75.48 96.2103 75.22 96.1203 74.94C96.0403 74.69 95.7603 74.48 95.4903 74.58C94.3503 74.99 93.3703 75.82 92.8303 76.92C92.7103 77.16 92.7603 77.49 93.0103 77.62C93.2403 77.74 93.5903 77.69 93.7103 77.44V77.45Z" fill="white"/>
<path d="M93.3204 77.46C93.5804 77.81 93.8504 78.16 94.1104 78.51C94.1404 78.57 94.1904 78.62 94.2404 78.65C94.2904 78.7 94.3504 78.73 94.4104 78.74C94.5304 78.77 94.7004 78.76 94.8104 78.69C94.9204 78.62 95.0204 78.51 95.0504 78.38C95.0804 78.25 95.0804 78.09 95.0004 77.98C94.7404 77.63 94.4704 77.28 94.2104 76.93C94.1804 76.87 94.1304 76.82 94.0804 76.79C94.0304 76.74 93.9704 76.71 93.9104 76.7C93.7904 76.67 93.6204 76.68 93.5104 76.75C93.4004 76.82 93.3004 76.93 93.2704 77.06C93.2404 77.19 93.2404 77.35 93.3204 77.46Z" fill="white"/>
<path d="M69.6001 73.45C70.5776 73.45 71.3701 72.5814 71.3701 71.51C71.3701 70.4386 70.5776 69.57 69.6001 69.57C68.6225 69.57 67.8301 70.4386 67.8301 71.51C67.8301 72.5814 68.6225 73.45 69.6001 73.45Z" fill="white"/>
<path d="M88.9101 71.51C88.9101 72.58 88.1201 73.45 87.1401 73.45C86.1601 73.45 85.3701 72.58 85.3701 71.51C85.3701 70.44 86.1601 69.57 87.1401 69.57C88.1201 69.57 88.9101 70.44 88.9101 71.51Z" fill="white"/>
<path d="M75.8001 70C75.3101 72.48 74.9201 74.97 74.6101 77.47C74.4801 78.52 74.3401 79.73 74.9801 80.66C75.4901 81.39 76.4701 81.88 77.3501 81.52C77.9501 81.27 77.6901 80.28 77.0801 80.53C76.3301 80.84 75.7401 80.14 75.5901 79.46C75.3801 78.51 75.6401 77.42 75.7701 76.47C76.0401 74.39 76.3901 72.32 76.7901 70.26C76.9201 69.61 75.9301 69.34 75.8001 69.99V70Z" fill="white"/>
<path d="M83.9503 64.58C83.7203 64.73 83.8403 65.12 84.0903 65.24C84.3403 65.35 84.6303 65.28 84.9003 65.21C86.9903 64.72 89.2703 65.14 91.0503 66.34C90.2803 64.97 88.9403 63.94 87.4303 63.54C86.1803 63.21 84.6003 63.43 83.9603 64.56V64.59L83.9503 64.58Z" fill="white"/>
<path d="M60.69 66.33C62.34 65.41 64.3 65.45 66.06 64.85C67.56 64.33 68.88 63.45 70.06 62.4C72.55 60.19 74.43 57.36 77.12 55.37C78.79 54.13 80.66 53.18 82.65 52.56C83.28 52.36 83.01 51.37 82.38 51.57C78.87 52.66 75.93 54.71 73.44 57.38C71.28 59.69 69.23 62.49 66.2 63.72C64.25 64.51 62.04 64.41 60.18 65.46C59.6 65.78 60.12 66.67 60.7 66.35L60.69 66.33Z" fill="#00022B"/>
<path d="M76.4904 51.33C73.8204 52.64 71.5604 54.56 69.7404 56.91C68.0504 59.09 66.0304 62.09 62.8604 61.71C62.2004 61.63 62.2104 62.66 62.8604 62.74C66.0804 63.12 68.3504 60.41 70.1004 58.12C71.0204 56.91 71.9904 55.75 73.1504 54.75C74.3204 53.73 75.6204 52.89 77.0104 52.21C77.6004 51.92 77.0804 51.03 76.4904 51.32V51.33Z" fill="#00022B"/>
<path d="M103.36 105.02C92.9703 100.98 81.6103 101.65 71.8603 102.84C63.9803 103.8 55.7203 105.3 48.7103 109.69C43.3303 113.06 39.4603 118 37.8003 123.25C38.0803 123.49 38.3503 123.73 38.6303 123.96C40.1403 118.78 43.9303 113.87 49.2403 110.54C56.0903 106.25 64.2103 104.78 71.9803 103.83C81.6003 102.66 92.8103 101.99 102.99 105.95C109.56 108.51 116.28 113.8 119.47 120.87C119.72 120.63 119.97 120.4 120.22 120.15C116.85 112.98 110.04 107.61 103.35 105.01L103.36 105.02Z" fill="white"/>
<path d="M108.64 111.32C102.96 107.52 96.1104 106 89.4104 104.65C89.0004 104.57 88.5804 104.48 88.2504 104.22C87.6904 103.78 88.9604 88.99 88.2504 82.52L78.6904 83.42L69.1304 82.52C68.4204 88.99 69.6904 103.78 69.1304 104.22C68.8004 104.48 68.3804 104.57 67.9704 104.65C61.2704 106 54.4204 107.52 48.7404 111.32C44.1204 114.42 40.4104 119.39 39.6904 124.78C41.3904 126.11 43.1604 127.36 45.0004 128.51C52.5904 128.53 64.9304 128.63 77.4004 128.8V128.84C77.8304 128.84 78.2604 128.83 78.6904 128.82C79.1204 128.82 79.5504 128.83 79.9804 128.84V128.8C91.0504 128.65 102.01 128.56 109.65 128.53C112.35 126.84 114.9 124.94 117.3 122.86C116.06 118.22 112.71 114.04 108.64 111.32Z" fill="#00022B"/>
<path d="M74.9001 86.38C75.2801 85.28 76.1901 84.33 77.3201 84.07C78.4601 83.81 79.7701 84.33 80.2801 85.38C80.9601 86.76 79.8801 88.64 78.3601 88.84C76.8301 89.05 75.3301 87.65 75.3201 86.11L74.8901 86.38H74.9001Z" fill="#A18B62"/>
<path d="M73.2202 85.92C76.0602 88.18 80.4802 87.95 82.9902 85.29C83.4402 84.81 82.7202 84.08 82.2602 84.56C80.1602 86.78 76.3502 87.12 73.9402 85.19C73.4302 84.78 72.7002 85.5 73.2102 85.92H73.2202Z" fill="white"/>
<path d="M48.5804 117.62C48.8704 121.38 49.1604 125.14 49.4404 128.9C49.4904 129.56 50.5204 129.56 50.4704 128.9C50.1804 125.14 49.8904 121.38 49.6104 117.62C49.5604 116.96 48.5304 116.96 48.5804 117.62Z" fill="white"/>
<path d="M46.8201 119.49C47.5201 120.54 48.2301 121.58 48.9301 122.63C49.0801 122.85 49.3901 122.97 49.6301 122.81C49.8501 122.67 49.9701 122.35 49.8101 122.11C49.1101 121.06 48.4001 120.02 47.7001 118.97C47.5501 118.75 47.2401 118.63 47.0001 118.79C46.7801 118.93 46.6601 119.25 46.8201 119.49Z" fill="white"/>
<path d="M109.14 116.42C109.72 119.86 110.1 123.32 110.28 126.8C110.31 127.46 111.34 127.46 111.31 126.8C111.13 123.23 110.74 119.67 110.14 116.14C110.03 115.49 109.04 115.77 109.15 116.41L109.14 116.42Z" fill="white"/>
<path d="M111.97 117.62C111.29 118.59 110.82 119.72 110.61 120.89C110.56 121.15 110.68 121.46 110.97 121.52C111.22 121.58 111.55 121.44 111.6 121.16C111.8 120.02 112.2 119.07 112.86 118.13C113.02 117.91 112.91 117.55 112.68 117.43C112.42 117.29 112.14 117.38 111.98 117.61L111.97 117.62Z" fill="white"/>
<path d="M100.5 107.1C101.32 105.74 102.35 104.55 103.6 103.55C103.82 103.38 103.78 103 103.6 102.82C103.39 102.61 103.09 102.64 102.87 102.82C101.57 103.87 100.47 105.15 99.6102 106.58C99.4702 106.82 99.5602 107.14 99.7902 107.28C100.03 107.42 100.35 107.33 100.49 107.1H100.5Z" fill="white"/>
<path d="M102.9 107.39C102.94 107.34 102.97 107.28 103.01 107.24C102.97 107.29 102.97 107.29 103.01 107.24C103.03 107.22 103.05 107.19 103.07 107.17C103.15 107.08 103.23 106.99 103.31 106.9C103.48 106.72 103.66 106.55 103.85 106.4C103.87 106.39 103.89 106.36 103.91 106.35C103.86 106.39 103.85 106.4 103.88 106.37C103.89 106.37 103.9 106.35 103.91 106.35C103.96 106.31 104.01 106.28 104.06 106.24C104.16 106.17 104.26 106.11 104.36 106.05C104.58 105.92 104.8 105.81 105.04 105.71C105.15 105.66 105.25 105.51 105.28 105.4C105.31 105.28 105.3 105.11 105.23 105C105.06 104.74 104.79 104.7 104.53 104.82C103.51 105.25 102.65 105.98 102.01 106.88C101.85 107.1 101.96 107.46 102.19 107.58C102.46 107.72 102.73 107.63 102.89 107.4L102.9 107.39Z" fill="white"/>
<path d="M58.1501 103.45C58.6801 104.14 59.2201 104.83 59.7501 105.53C59.8401 105.64 59.9201 105.73 60.0601 105.77C60.1801 105.8 60.3501 105.79 60.4601 105.72C60.6701 105.58 60.8201 105.24 60.6401 105.02C60.1101 104.33 59.5701 103.64 59.0401 102.94C58.9501 102.83 58.8701 102.74 58.7301 102.7C58.6101 102.67 58.4401 102.68 58.3301 102.75C58.1201 102.89 57.9701 103.23 58.1501 103.45Z" fill="white"/>
<path d="M60.72 103.21L62.18 106.29C62.3 106.53 62.66 106.62 62.88 106.47C63.13 106.31 63.19 106.03 63.06 105.77C62.57 104.74 62.09 103.72 61.6 102.69C61.48 102.45 61.12 102.36 60.9 102.51C60.65 102.67 60.59 102.95 60.72 103.21Z" fill="white"/>
<path d="M63.9002 103.46C64.2702 104.24 64.6502 105.01 65.0202 105.79C65.1402 106.03 65.5002 106.12 65.7202 105.97C65.9702 105.81 66.0302 105.53 65.9002 105.27C65.5302 104.49 65.1502 103.72 64.7802 102.94C64.6602 102.7 64.3002 102.61 64.0802 102.76C63.8302 102.92 63.7702 103.2 63.9002 103.46Z" fill="white"/>
<path d="M69.0801 99.75C79.7001 105.58 86.5601 100.09 88.2701 99.75C88.6101 99.68 89.1801 105.18 88.4901 105.84C87.9901 106.32 68.8501 106.83 68.3901 106.25C67.9401 105.67 67.9401 99.13 69.0801 99.75Z" fill="#00022B"/>
<path d="M73.1601 106.99C71.3601 106.99 69.9401 106.96 69.2901 106.92C68.4501 106.86 68.1701 106.78 68.0001 106.56C67.4701 105.87 67.4001 100.59 68.3201 99.51C68.5901 99.2 68.9701 99.12 69.3201 99.31C77.9001 104.01 83.8601 101.2 86.7301 99.84C87.3601 99.54 87.8201 99.33 88.1801 99.25C88.3701 99.21 88.6401 99.28 88.8001 99.58C89.1401 100.24 89.7601 105.32 88.8401 106.19C88.2701 106.73 78.8401 106.98 73.1601 106.98V106.99ZM68.7701 105.86C70.6301 106.21 86.4201 105.86 88.1801 105.43C88.4901 104.78 88.2701 101.5 88.0101 100.37C87.7801 100.47 87.4801 100.6 87.1601 100.76C84.4001 102.07 77.9501 105.11 69.0101 100.29C68.5801 101.13 68.4901 104.92 68.7701 105.87V105.86Z" fill="white"/>
<path d="M70.4204 102.54C70.8004 103.58 70.8204 104.64 70.5004 105.68C70.4204 105.94 70.5904 106.25 70.8604 106.31C71.1404 106.37 71.4104 106.23 71.4904 105.95C71.8604 104.76 71.8404 103.44 71.4104 102.26C71.3204 102 71.0604 101.82 70.7804 101.9C70.5304 101.97 70.3304 102.27 70.4204 102.53V102.54Z" fill="white"/>
<path d="M72.9 103.82C73.05 104.79 73.21 105.75 73.36 106.72C73.4 106.99 73.75 107.16 73.99 107.08C74.28 106.99 74.39 106.73 74.35 106.45C74.2 105.48 74.04 104.52 73.89 103.55C73.85 103.28 73.5 103.11 73.26 103.19C72.97 103.28 72.86 103.54 72.9 103.82Z" fill="white"/>
<path d="M77.1202 103.96C77.1702 104.75 77.2202 105.54 77.2602 106.33C77.2802 106.6 77.4802 106.86 77.7702 106.84C78.0302 106.83 78.3002 106.61 78.2802 106.33C78.2302 105.54 78.1802 104.75 78.1402 103.96C78.1202 103.69 77.9202 103.43 77.6302 103.45C77.3702 103.46 77.1002 103.68 77.1202 103.96Z" fill="white"/>
<path d="M81.1904 103.7V106.06C81.1904 106.33 81.4304 106.59 81.7004 106.57C81.9804 106.56 82.2104 106.34 82.2104 106.06V103.7C82.2104 103.43 81.9704 103.17 81.7004 103.19C81.4204 103.2 81.1904 103.42 81.1904 103.7Z" fill="white"/>
<path d="M85.3901 102.13V105.02C85.3901 105.29 85.6301 105.55 85.9001 105.53C86.1801 105.52 86.4101 105.3 86.4101 105.02V102.13C86.4101 101.86 86.1701 101.6 85.9001 101.62C85.6201 101.63 85.3901 101.85 85.3901 102.13Z" fill="white"/>
</g>
<defs>
<linearGradient id="paint0_linear_410_5749" x1="0.00976562" y1="77.14" x2="155.32" y2="77.14" gradientUnits="userSpaceOnUse">
<stop stop-color="#A18B62"/>
<stop offset="0.07" stop-color="#A89268"/>
<stop offset="0.51" stop-color="#D2BE88"/>
<stop offset="1" stop-color="#A18B62"/>
</linearGradient>
<linearGradient id="paint1_linear_410_5749" x1="149.899" y1="77.0897" x2="5.4938" y2="77.0897" gradientUnits="userSpaceOnUse">
<stop stop-color="#CCB479"/>
<stop offset="0.54"/>
<stop offset="1" stop-color="#BBA471"/>
</linearGradient>
<linearGradient id="paint2_linear_410_5749" x1="5.83984" y1="118" x2="77.0499" y2="118" gradientUnits="userSpaceOnUse">
<stop/>
<stop offset="0.04" stop-color="#221F18"/>
<stop offset="0.13" stop-color="#524934"/>
<stop offset="0.22" stop-color="#7E6F4C"/>
<stop offset="0.3" stop-color="#9F8C5F"/>
<stop offset="0.38" stop-color="#B8A26D"/>
<stop offset="0.45" stop-color="#C7AE76"/>
<stop offset="0.5" stop-color="#CCB479"/>
<stop offset="0.58" stop-color="#C8B077"/>
<stop offset="0.66" stop-color="#BDA672"/>
<stop offset="0.74" stop-color="#AA9768"/>
<stop offset="0.82" stop-color="#90805C"/>
<stop offset="0.9" stop-color="#70654C"/>
<stop offset="0.97" stop-color="#494439"/>
<stop offset="1" stop-color="#393631"/>
</linearGradient>
<linearGradient id="paint3_linear_410_5749" x1="76.4297" y1="118" x2="149.48" y2="118" gradientUnits="userSpaceOnUse">
<stop/>
<stop offset="0.04" stop-color="#221F18"/>
<stop offset="0.13" stop-color="#524934"/>
<stop offset="0.22" stop-color="#7E6F4C"/>
<stop offset="0.3" stop-color="#9F8C5F"/>
<stop offset="0.38" stop-color="#B8A26D"/>
<stop offset="0.45" stop-color="#C7AE76"/>
<stop offset="0.5" stop-color="#CCB479"/>
<stop offset="0.58" stop-color="#C8B077"/>
<stop offset="0.66" stop-color="#BDA672"/>
<stop offset="0.74" stop-color="#AA9768"/>
<stop offset="0.82" stop-color="#90805C"/>
<stop offset="0.9" stop-color="#70654C"/>
<stop offset="0.97" stop-color="#494439"/>
<stop offset="1" stop-color="#393631"/>
</linearGradient>
<linearGradient id="paint4_linear_410_5749" x1="68.54" y1="141.15" x2="85.81" y2="158.42" gradientUnits="userSpaceOnUse">
<stop stop-color="#A18B62"/>
<stop offset="0.07" stop-color="#A89268"/>
<stop offset="0.51" stop-color="#D2BE88"/>
<stop offset="1" stop-color="#A18B62"/>
</linearGradient>
<linearGradient id="paint5_linear_410_5749" x1="149.48" y1="36.28" x2="78.27" y2="36.28" gradientUnits="userSpaceOnUse">
<stop/>
<stop offset="0.04" stop-color="#221F18"/>
<stop offset="0.13" stop-color="#524934"/>
<stop offset="0.22" stop-color="#7E6F4C"/>
<stop offset="0.3" stop-color="#9F8C5F"/>
<stop offset="0.38" stop-color="#B8A26D"/>
<stop offset="0.45" stop-color="#C7AE76"/>
<stop offset="0.5" stop-color="#CCB479"/>
<stop offset="0.58" stop-color="#C8B077"/>
<stop offset="0.66" stop-color="#BDA672"/>
<stop offset="0.74" stop-color="#AA9768"/>
<stop offset="0.82" stop-color="#90805C"/>
<stop offset="0.9" stop-color="#70654C"/>
<stop offset="0.97" stop-color="#494439"/>
<stop offset="1" stop-color="#393631"/>
</linearGradient>
<linearGradient id="paint6_linear_410_5749" x1="78.8898" y1="36.27" x2="5.83984" y2="36.27" gradientUnits="userSpaceOnUse">
<stop/>
<stop offset="0.04" stop-color="#221F18"/>
<stop offset="0.13" stop-color="#524934"/>
<stop offset="0.22" stop-color="#7E6F4C"/>
<stop offset="0.3" stop-color="#9F8C5F"/>
<stop offset="0.38" stop-color="#B8A26D"/>
<stop offset="0.45" stop-color="#C7AE76"/>
<stop offset="0.5" stop-color="#CCB479"/>
<stop offset="0.58" stop-color="#C8B077"/>
<stop offset="0.66" stop-color="#BDA672"/>
<stop offset="0.74" stop-color="#AA9768"/>
<stop offset="0.82" stop-color="#90805C"/>
<stop offset="0.9" stop-color="#70654C"/>
<stop offset="0.97" stop-color="#494439"/>
<stop offset="1" stop-color="#393631"/>
</linearGradient>
<linearGradient id="paint7_linear_410_5749" x1="86.79" y1="13.13" x2="69.52" y2="-4.13002" gradientUnits="userSpaceOnUse">
<stop stop-color="#A18B62"/>
<stop offset="0.07" stop-color="#A89268"/>
<stop offset="0.51" stop-color="#D2BE88"/>
<stop offset="1" stop-color="#A18B62"/>
</linearGradient>
<linearGradient id="paint8_linear_410_5749" x1="0" y1="-466.78" x2="155.32" y2="-466.78" gradientUnits="userSpaceOnUse">
<stop stop-color="#A18B62"/>
<stop offset="0.07" stop-color="#A89268"/>
<stop offset="0.51" stop-color="#D2BE88"/>
<stop offset="1" stop-color="#A18B62"/>
</linearGradient>
<linearGradient id="paint9_linear_410_5749" x1="144.84" y1="81.46" x2="153.5" y2="72.81" gradientUnits="userSpaceOnUse">
<stop stop-color="#A18B62"/>
<stop offset="0.07" stop-color="#A89268"/>
<stop offset="0.51" stop-color="#D2BE88"/>
<stop offset="1" stop-color="#A18B62"/>
</linearGradient>
<linearGradient id="paint10_linear_410_5749" x1="1.82" y1="81.46" x2="10.48" y2="72.81" gradientUnits="userSpaceOnUse">
<stop stop-color="#A18B62"/>
<stop offset="0.07" stop-color="#A89268"/>
<stop offset="0.51" stop-color="#D2BE88"/>
<stop offset="1" stop-color="#A18B62"/>
</linearGradient>
<linearGradient id="paint11_linear_410_5749" x1="121.46" y1="120.93" x2="33.8702" y2="33.34" gradientUnits="userSpaceOnUse">
<stop stop-color="#CCB479"/>
<stop offset="0.54"/>
<stop offset="1" stop-color="#BBA471"/>
</linearGradient>
<linearGradient id="paint12_linear_410_5749" x1="32.21" y1="39.35" x2="32.21" y2="31.93" gradientUnits="userSpaceOnUse">
<stop stop-color="#A18B62"/>
<stop offset="0.07" stop-color="#A89268"/>
<stop offset="0.51" stop-color="#D2BE88"/>
<stop offset="1" stop-color="#A18B62"/>
</linearGradient>
<linearGradient id="paint13_linear_410_5749" x1="123.11" y1="114.92" x2="123.11" y2="122.34" gradientUnits="userSpaceOnUse">
<stop stop-color="#A18B62"/>
<stop offset="0.07" stop-color="#A89268"/>
<stop offset="0.51" stop-color="#D2BE88"/>
<stop offset="1" stop-color="#A18B62"/>
</linearGradient>
<linearGradient id="paint14_linear_410_5749" x1="121.083" y1="38.0538" x2="122.391" y2="35.7982" gradientUnits="userSpaceOnUse">
<stop stop-color="#A18B62"/>
<stop offset="0.07" stop-color="#A89268"/>
<stop offset="0.51" stop-color="#D2BE88"/>
<stop offset="1" stop-color="#A18B62"/>
</linearGradient>
<linearGradient id="paint15_linear_410_5749" x1="123.77" y1="35.3951" x2="125.078" y2="33.1394" gradientUnits="userSpaceOnUse">
<stop stop-color="#A18B62"/>
<stop offset="0.07" stop-color="#A89268"/>
<stop offset="0.51" stop-color="#D2BE88"/>
<stop offset="1" stop-color="#A18B62"/>
</linearGradient>
<linearGradient id="paint16_linear_410_5749" x1="121.408" y1="34.8718" x2="122.073" y2="33.7263" gradientUnits="userSpaceOnUse">
<stop stop-color="#A18B62"/>
<stop offset="0.07" stop-color="#A89268"/>
<stop offset="0.51" stop-color="#D2BE88"/>
<stop offset="1" stop-color="#A18B62"/>
</linearGradient>
<linearGradient id="paint17_linear_410_5749" x1="124.081" y1="37.5447" x2="124.746" y2="36.385" gradientUnits="userSpaceOnUse">
<stop stop-color="#A18B62"/>
<stop offset="0.07" stop-color="#A89268"/>
<stop offset="0.51" stop-color="#D2BE88"/>
<stop offset="1" stop-color="#A18B62"/>
</linearGradient>
<linearGradient id="paint18_linear_410_5749" x1="126.27" y1="36.46" x2="125.84" y2="34.82" gradientUnits="userSpaceOnUse">
<stop stop-color="#A18B62"/>
<stop offset="0.07" stop-color="#A89268"/>
<stop offset="0.51" stop-color="#D2BE88"/>
<stop offset="1" stop-color="#A18B62"/>
</linearGradient>
<linearGradient id="paint19_linear_410_5749" x1="120.37" y1="36.45" x2="119.93" y2="34.83" gradientUnits="userSpaceOnUse">
<stop stop-color="#A18B62"/>
<stop offset="0.07" stop-color="#A89268"/>
<stop offset="0.51" stop-color="#D2BE88"/>
<stop offset="1" stop-color="#A18B62"/>
</linearGradient>
<linearGradient id="paint20_linear_410_5749" x1="123.62" y1="40.46" x2="122.6" y2="36.67" gradientUnits="userSpaceOnUse">
<stop stop-color="#A18B62"/>
<stop offset="0.07" stop-color="#A89268"/>
<stop offset="0.51" stop-color="#D2BE88"/>
<stop offset="1" stop-color="#A18B62"/>
</linearGradient>
<linearGradient id="paint21_linear_410_5749" x1="123.61" y1="34.56" x2="122.61" y2="30.82" gradientUnits="userSpaceOnUse">
<stop stop-color="#A18B62"/>
<stop offset="0.07" stop-color="#A89268"/>
<stop offset="0.51" stop-color="#D2BE88"/>
<stop offset="1" stop-color="#A18B62"/>
</linearGradient>
<linearGradient id="paint22_linear_410_5749" x1="123.7" y1="37.9" x2="122.48" y2="33.33" gradientUnits="userSpaceOnUse">
<stop stop-color="#A18B62"/>
<stop offset="0.07" stop-color="#A89268"/>
<stop offset="0.51" stop-color="#D2BE88"/>
<stop offset="1" stop-color="#A18B62"/>
</linearGradient>
<linearGradient id="paint23_linear_410_5749" x1="30.1844" y1="121.047" x2="31.4926" y2="118.791" gradientUnits="userSpaceOnUse">
<stop stop-color="#A18B62"/>
<stop offset="0.07" stop-color="#A89268"/>
<stop offset="0.51" stop-color="#D2BE88"/>
<stop offset="1" stop-color="#A18B62"/>
</linearGradient>
<linearGradient id="paint24_linear_410_5749" x1="32.8716" y1="118.388" x2="34.1727" y2="116.125" gradientUnits="userSpaceOnUse">
<stop stop-color="#A18B62"/>
<stop offset="0.07" stop-color="#A89268"/>
<stop offset="0.51" stop-color="#D2BE88"/>
<stop offset="1" stop-color="#A18B62"/>
</linearGradient>
<linearGradient id="paint25_linear_410_5749" x1="30.4956" y1="117.865" x2="31.1602" y2="116.719" gradientUnits="userSpaceOnUse">
<stop stop-color="#A18B62"/>
<stop offset="0.07" stop-color="#A89268"/>
<stop offset="0.51" stop-color="#D2BE88"/>
<stop offset="1" stop-color="#A18B62"/>
</linearGradient>
<linearGradient id="paint26_linear_410_5749" x1="33.1756" y1="120.531" x2="33.8474" y2="119.378" gradientUnits="userSpaceOnUse">
<stop stop-color="#A18B62"/>
<stop offset="0.07" stop-color="#A89268"/>
<stop offset="0.51" stop-color="#D2BE88"/>
<stop offset="1" stop-color="#A18B62"/>
</linearGradient>
<linearGradient id="paint27_linear_410_5749" x1="35.3699" y1="119.45" x2="34.9399" y2="117.81" gradientUnits="userSpaceOnUse">
<stop stop-color="#A18B62"/>
<stop offset="0.07" stop-color="#A89268"/>
<stop offset="0.51" stop-color="#D2BE88"/>
<stop offset="1" stop-color="#A18B62"/>
</linearGradient>
<linearGradient id="paint28_linear_410_5749" x1="29.47" y1="119.44" x2="29.03" y2="117.82" gradientUnits="userSpaceOnUse">
<stop stop-color="#A18B62"/>
<stop offset="0.07" stop-color="#A89268"/>
<stop offset="0.51" stop-color="#D2BE88"/>
<stop offset="1" stop-color="#A18B62"/>
</linearGradient>
<linearGradient id="paint29_linear_410_5749" x1="32.72" y1="123.44" x2="31.7" y2="119.66" gradientUnits="userSpaceOnUse">
<stop stop-color="#A18B62"/>
<stop offset="0.07" stop-color="#A89268"/>
<stop offset="0.51" stop-color="#D2BE88"/>
<stop offset="1" stop-color="#A18B62"/>
</linearGradient>
<linearGradient id="paint30_linear_410_5749" x1="32.71" y1="117.55" x2="31.71" y2="113.81" gradientUnits="userSpaceOnUse">
<stop stop-color="#A18B62"/>
<stop offset="0.07" stop-color="#A89268"/>
<stop offset="0.51" stop-color="#D2BE88"/>
<stop offset="1" stop-color="#A18B62"/>
</linearGradient>
<linearGradient id="paint31_linear_410_5749" x1="32.6498" y1="120.33" x2="31.7298" y2="116.88" gradientUnits="userSpaceOnUse">
<stop stop-color="#A18B62"/>
<stop offset="0.07" stop-color="#A89268"/>
<stop offset="0.51" stop-color="#D2BE88"/>
<stop offset="1" stop-color="#A18B62"/>
</linearGradient>
<clipPath id="clip0_410_5749">
<rect width="155.32" height="154.28" fill="white"/>
</clipPath>
</defs>
</svg>
