<svg width="156" height="155" viewBox="0 0 156 155" fill="none" xmlns="http://www.w3.org/2000/svg">
<g clip-path="url(#clip0_410_5321)">
<path d="M154.88 77.14C154.88 81.44 154.52 85.66 153.84 89.77C147.78 126.12 115.98 153.84 77.6697 153.84C35.0197 153.84 0.449707 119.5 0.449707 77.14C0.449707 34.78 35.0197 0.429993 77.6697 0.429993C116.69 0.429993 148.95 29.18 154.15 66.53C154.63 70 154.88 73.54 154.88 77.14Z" fill="#00022B"/>
<path d="M77.6598 154.28C56.9198 154.28 37.4198 146.26 22.7498 131.69C8.07977 117.12 0.00976562 97.75 0.00976562 77.14C0.00976562 56.53 8.08977 37.16 22.7498 22.59C37.4198 8.02 56.9198 0 77.6598 0C96.5198 0 114.71 6.8 128.87 19.15C142.9 31.39 152.03 48.19 154.58 66.47C155.07 69.97 155.32 73.56 155.32 77.14C155.32 81.4 154.97 85.67 154.27 89.84C151.3 107.65 142.02 123.96 128.13 135.77C114.09 147.71 96.1698 154.28 77.6598 154.28ZM77.6598 0.87C57.1498 0.87 37.8698 8.8 23.3698 23.21C8.86977 37.61 0.889766 56.77 0.889766 77.14C0.889766 97.51 8.87976 116.66 23.3798 131.07C37.8798 145.48 57.1598 153.41 77.6698 153.41C95.9598 153.41 113.68 146.91 127.56 135.11C141.29 123.44 150.47 107.31 153.4 89.7C154.09 85.57 154.44 81.35 154.44 77.14C154.44 73.6 154.2 70.05 153.71 66.59C151.19 48.52 142.17 31.91 128.3 19.81C114.3 7.59 96.3098 0.87 77.6598 0.87Z" fill="url(#paint0_linear_410_5321)"/>
<path d="M77.66 148.86C58.37 148.86 40.24 141.4 26.61 127.85C12.97 114.3 5.45996 96.29 5.45996 77.13C5.45996 57.97 12.97 39.96 26.61 26.41C40.25 12.86 58.38 5.40002 77.66 5.40002C96.94 5.40002 115.08 12.86 128.71 26.41C142.35 39.96 149.86 57.97 149.86 77.13C149.86 96.29 142.35 114.3 128.71 127.85C115.08 141.4 96.95 148.86 77.66 148.86ZM77.66 6.29002C58.61 6.29002 40.7 13.66 27.23 27.04C13.76 40.42 6.33996 58.21 6.33996 77.14C6.33996 96.07 13.76 113.86 27.23 127.24C40.7 140.62 58.61 147.99 77.66 147.99C96.71 147.99 114.62 140.62 128.09 127.24C141.56 113.86 148.98 96.07 148.98 77.14C148.98 58.21 141.56 40.42 128.09 27.04C114.62 13.66 96.71 6.29002 77.66 6.29002Z" fill="url(#paint1_linear_410_5321)"/>
<path d="M76.4298 153.5L5.83984 83.11L6.45984 82.5L77.0499 152.89L76.4298 153.5Z" fill="url(#paint2_linear_410_5321)"/>
<path d="M77.0497 153.51L76.4297 152.88L148.87 82.49L149.48 83.12L77.0497 153.51Z" fill="url(#paint3_linear_410_5321)"/>
<path d="M78.3799 153.45C74.0499 153.45 69.7999 153.09 65.6599 152.41L70.5499 151.19L65.6499 146.48L72.2099 148.34L70.3399 141.82L75.0799 146.69L76.7299 140.12L78.3899 146.69L83.1299 141.82L81.2599 148.34L87.8199 146.48L82.9199 151.19L89.0599 152.71C85.5699 153.21 81.9999 153.45 78.3799 153.45Z" fill="#00022B"/>
<path d="M78.38 153.89C74.1 153.89 69.79 153.54 65.59 152.85L63.5 152.51L69.68 150.98L64.09 145.6L71.58 147.72L69.44 140.28L74.85 145.84L76.74 138.34L78.63 145.84L84.04 140.28L81.9 147.72L89.39 145.6L83.79 150.98L91.36 152.86L89.11 153.17C85.59 153.64 81.98 153.89 78.38 153.89ZM67.9 152.31C74.1 153.15 80.46 153.24 86.66 152.58L82.05 151.43L86.26 147.38L80.63 148.98L82.24 143.38L78.17 147.56L76.75 141.92L75.33 147.56L71.26 143.38L72.87 148.98L67.24 147.38L71.45 151.43L67.9 152.31Z" fill="url(#paint4_linear_410_5321)"/>
<path d="M148.86 71.78L78.27 1.38997L78.9 0.779968L149.48 71.16L148.86 71.78Z" fill="url(#paint5_linear_410_5321)"/>
<path d="M6.45984 71.78L5.83984 71.16L78.2798 0.769958L78.8898 1.39996L6.45984 71.78Z" fill="url(#paint6_linear_410_5321)"/>
<path d="M76.9498 0.820007C81.2798 0.820007 85.5298 1.18001 89.6698 1.86001L84.7798 3.08001L89.6798 7.79001L83.1198 5.93001L84.9898 12.45L80.2498 7.58001L78.5898 14.15L76.9298 7.57001L72.1898 12.44L74.0598 5.92001L67.4998 7.78001L72.3998 3.07001L66.2598 1.55001C69.7498 1.07001 73.3198 0.820007 76.9498 0.820007Z" fill="#00022B"/>
<path d="M78.58 15.94L76.69 8.43998L71.28 14L73.42 6.55998L65.93 8.68998L71.53 3.30998L63.96 1.42998L66.21 1.11998C73.93 0.0599848 82.01 0.159985 89.74 1.42998L91.83 1.76998L85.65 3.29998L91.24 8.67999L83.75 6.55998L85.89 14L80.48 8.43998L78.58 15.94ZM77.16 6.70998L78.58 12.35L80 6.70998L84.07 10.89L82.46 5.28998L88.09 6.88998L83.88 2.83998L87.41 1.95998C81.21 1.11998 74.85 1.02998 68.65 1.68998L73.26 2.83998L69.05 6.88998L74.68 5.28998L73.07 10.89L77.16 6.70998Z" fill="url(#paint7_linear_410_5321)"/>
<path d="M77.66 154.28C56.92 154.28 37.42 146.26 22.75 131.69C8.08 117.12 0 97.75 0 77.14C0 56.53 8.08 37.16 22.75 22.59C37.42 8.02 56.92 0 77.66 0C96.16 0 114.08 6.57 128.12 18.5C142 30.3 151.29 46.61 154.26 64.42C154.37 65.07 154.47 65.74 154.58 66.47C155.06 69.93 155.31 73.48 155.32 77.01V77.14C155.32 81.39 154.97 85.65 154.27 89.81V89.85C151.29 107.66 142 123.97 128.12 135.78C114.09 147.71 96.17 154.28 77.66 154.28ZM77.66 0.87C57.15 0.87 37.87 8.8 23.37 23.21C8.87 37.62 0.88 56.77 0.88 77.14C0.88 97.51 8.87 116.66 23.37 131.07C37.87 145.48 57.15 153.41 77.66 153.41C95.95 153.41 113.67 146.91 127.55 135.11C141.27 123.45 150.44 107.34 153.39 89.74V89.7C154.09 85.58 154.44 81.35 154.44 77.14V77.01C154.44 73.52 154.19 70.01 153.71 66.59C153.61 65.87 153.51 65.21 153.4 64.56C150.46 46.95 141.28 30.83 127.55 19.16C113.67 7.37 95.96 0.87 77.66 0.87Z" fill="url(#paint8_linear_410_5321)"/>
<path d="M149.17 82.81C152.323 82.81 154.88 80.2714 154.88 77.14C154.88 74.0085 152.323 71.47 149.17 71.47C146.016 71.47 143.46 74.0085 143.46 77.14C143.46 80.2714 146.016 82.81 149.17 82.81Z" fill="#00022B"/>
<path d="M149.17 83.24C145.78 83.24 143.02 80.5 143.02 77.14C143.02 73.78 145.78 71.04 149.17 71.04C152.56 71.04 155.32 73.78 155.32 77.14C155.32 80.5 152.56 83.24 149.17 83.24ZM149.17 71.91C146.27 71.91 143.9 74.26 143.9 77.14C143.9 80.02 146.26 82.37 149.17 82.37C152.08 82.37 154.44 80.02 154.44 77.14C154.44 74.25 152.08 71.91 149.17 71.91Z" fill="url(#paint9_linear_410_5321)"/>
<path d="M6.14994 82.81C9.30349 82.81 11.8599 80.2714 11.8599 77.14C11.8599 74.0085 9.30349 71.47 6.14994 71.47C2.9964 71.47 0.439941 74.0085 0.439941 77.14C0.439941 80.2714 2.9964 82.81 6.14994 82.81Z" fill="#00022B"/>
<path d="M6.15 83.24C2.76 83.24 0 80.5 0 77.14C0 73.78 2.76 71.04 6.15 71.04C9.54 71.04 12.3 73.78 12.3 77.14C12.3 80.5 9.54 83.24 6.15 83.24ZM6.15 71.91C3.25 71.91 0.88 74.26 0.88 77.14C0.88 80.02 3.24 82.37 6.15 82.37C9.06 82.37 11.42 80.02 11.42 77.14C11.42 74.26 9.06 71.91 6.15 71.91Z" fill="url(#paint10_linear_410_5321)"/>
<path d="M77.6602 138.9C43.3802 138.9 15.4902 111.19 15.4902 77.14C15.4902 43.09 43.3802 15.38 77.6602 15.38C111.94 15.38 139.83 43.09 139.83 77.14C139.83 111.19 111.94 138.9 77.6602 138.9ZM77.6602 16.25C43.8602 16.25 16.3702 43.56 16.3702 77.14C16.3702 110.72 43.8702 138.03 77.6602 138.03C111.45 138.03 138.95 110.72 138.95 77.14C138.95 43.56 111.46 16.25 77.6602 16.25Z" fill="url(#paint11_linear_410_5321)"/>
<path d="M28.48 35.64C28.48 33.59 30.15 31.93 32.21 31.93C34.27 31.93 35.94 33.59 35.94 35.64C35.94 37.69 34.27 39.35 32.21 39.35C30.15 39.35 28.48 37.69 28.48 35.64Z" fill="url(#paint12_linear_410_5321)"/>
<path d="M32.2101 39.93C29.8301 39.93 27.8901 38.01 27.8901 35.64C27.8901 33.27 29.8301 31.35 32.2101 31.35C34.5901 31.35 36.5301 33.27 36.5301 35.64C36.5301 38.01 34.5901 39.93 32.2101 39.93ZM32.2101 32.52C30.4801 32.52 29.0601 33.92 29.0601 35.65C29.0601 37.38 30.4701 38.78 32.2101 38.78C33.9501 38.78 35.3601 37.38 35.3601 35.65C35.3601 33.92 33.9501 32.52 32.2101 32.52Z" fill="#00022B"/>
<path d="M126.84 118.63C126.84 120.68 125.17 122.34 123.11 122.34C121.05 122.34 119.38 120.68 119.38 118.63C119.38 116.58 121.05 114.92 123.11 114.92C125.17 114.93 126.84 116.59 126.84 118.63Z" fill="url(#paint13_linear_410_5321)"/>
<path d="M123.11 122.92C120.73 122.92 118.79 121 118.79 118.63C118.79 116.26 120.73 114.34 123.11 114.34C125.49 114.34 127.43 116.26 127.43 118.63C127.43 121 125.49 122.92 123.11 122.92ZM123.11 115.51C121.38 115.51 119.96 116.91 119.96 118.64C119.96 120.37 121.37 121.77 123.11 121.77C124.85 121.77 126.26 120.37 126.26 118.64C126.26 116.91 124.85 115.51 123.11 115.51Z" fill="#00022B"/>
<path d="M121.11 38.0201C121 38.0201 120.89 37.9801 120.8 37.8901C120.63 37.7201 120.63 37.4401 120.8 37.2701L122.07 36.0001C122.24 35.8301 122.52 35.8301 122.69 36.0001C122.86 36.1701 122.86 36.4501 122.69 36.6201L121.42 37.8901C121.34 37.9801 121.23 38.0201 121.11 38.0201Z" fill="url(#paint14_linear_410_5321)"/>
<path d="M123.79 35.36C123.68 35.36 123.57 35.32 123.48 35.23C123.31 35.06 123.31 34.78 123.48 34.61L124.75 33.35C124.92 33.18 125.2 33.18 125.37 33.35C125.54 33.52 125.54 33.8 125.37 33.97L124.1 35.23C124.02 35.32 123.91 35.36 123.79 35.36Z" fill="url(#paint15_linear_410_5321)"/>
<path d="M122.37 35.38C122.26 35.38 122.15 35.34 122.06 35.25L120.81 34.01C120.64 33.84 120.64 33.56 120.81 33.39C120.98 33.22 121.26 33.22 121.43 33.39L122.68 34.63C122.85 34.8 122.85 35.08 122.68 35.25C122.59 35.34 122.48 35.38 122.37 35.38Z" fill="url(#paint16_linear_410_5321)"/>
<path d="M125.07 38.06C124.96 38.06 124.85 38.02 124.76 37.93L123.46 36.64C123.29 36.47 123.29 36.19 123.46 36.02C123.63 35.85 123.91 35.85 124.08 36.02L125.38 37.31C125.55 37.48 125.55 37.76 125.38 37.93C125.29 38.02 125.18 38.06 125.07 38.06Z" fill="url(#paint17_linear_410_5321)"/>
<path d="M127.64 36.08H124.47C124.23 36.08 124.03 35.88 124.03 35.64C124.03 35.4 124.23 35.2 124.47 35.2H127.64C127.88 35.2 128.08 35.4 128.08 35.64C128.08 35.88 127.88 36.08 127.64 36.08Z" fill="url(#paint18_linear_410_5321)"/>
<path d="M121.71 36.08H118.59C118.35 36.08 118.15 35.88 118.15 35.64C118.15 35.4 118.35 35.2 118.59 35.2H121.71C121.95 35.2 122.15 35.4 122.15 35.64C122.15 35.88 121.95 36.08 121.71 36.08Z" fill="url(#paint19_linear_410_5321)"/>
<path d="M123.11 40.58C122.87 40.58 122.67 40.38 122.67 40.14V36.99C122.67 36.75 122.87 36.55 123.11 36.55C123.35 36.55 123.55 36.75 123.55 36.99V40.14C123.55 40.38 123.36 40.58 123.11 40.58Z" fill="url(#paint20_linear_410_5321)"/>
<path d="M123.11 34.68C122.87 34.68 122.67 34.48 122.67 34.24V31.14C122.67 30.9 122.87 30.7 123.11 30.7C123.35 30.7 123.55 30.9 123.55 31.14V34.24C123.55 34.49 123.36 34.68 123.11 34.68Z" fill="url(#paint21_linear_410_5321)"/>
<path d="M124.81 35.31L123.4 33.91C123.23 33.74 122.95 33.74 122.78 33.91L121.37 35.31C121.2 35.48 121.2 35.76 121.37 35.93L122.78 37.33C122.87 37.42 122.98 37.46 123.09 37.46C123.2 37.46 123.31 37.42 123.4 37.33L124.81 35.93C124.98 35.76 124.98 35.48 124.81 35.31Z" fill="url(#paint22_linear_410_5321)"/>
<path d="M30.21 121.01C30.1 121.01 29.99 120.97 29.9 120.88C29.73 120.71 29.73 120.43 29.9 120.26L31.17 118.99C31.34 118.82 31.62 118.82 31.79 118.99C31.96 119.16 31.96 119.44 31.79 119.61L30.52 120.88C30.44 120.97 30.32 121.01 30.21 121.01Z" fill="url(#paint23_linear_410_5321)"/>
<path d="M32.8901 118.35C32.7801 118.35 32.6701 118.31 32.5801 118.22C32.4101 118.05 32.4101 117.77 32.5801 117.6L33.8501 116.34C34.0201 116.17 34.3001 116.17 34.4701 116.34C34.6401 116.51 34.6401 116.79 34.4701 116.96L33.2001 118.22C33.1201 118.31 33.0001 118.35 32.8901 118.35Z" fill="url(#paint24_linear_410_5321)"/>
<path d="M31.46 118.37C31.35 118.37 31.24 118.33 31.15 118.24L29.9 117C29.73 116.83 29.73 116.55 29.9 116.38C30.07 116.21 30.35 116.21 30.52 116.38L31.77 117.62C31.94 117.79 31.94 118.07 31.77 118.24C31.69 118.33 31.58 118.37 31.46 118.37Z" fill="url(#paint25_linear_410_5321)"/>
<path d="M34.1701 121.05C34.0601 121.05 33.9501 121.01 33.8601 120.92L32.5601 119.63C32.3901 119.46 32.3901 119.18 32.5601 119.01C32.7301 118.84 33.0101 118.84 33.1801 119.01L34.4801 120.3C34.6501 120.47 34.6501 120.75 34.4801 120.92C34.3901 121.01 34.2801 121.05 34.1701 121.05Z" fill="url(#paint26_linear_410_5321)"/>
<path d="M36.7399 119.07H33.5699C33.3299 119.07 33.1299 118.87 33.1299 118.63C33.1299 118.39 33.3299 118.19 33.5699 118.19H36.7399C36.9799 118.19 37.1799 118.39 37.1799 118.63C37.1799 118.87 36.9799 119.07 36.7399 119.07Z" fill="url(#paint27_linear_410_5321)"/>
<path d="M30.81 119.07H27.69C27.45 119.07 27.25 118.87 27.25 118.63C27.25 118.39 27.45 118.19 27.69 118.19H30.81C31.05 118.19 31.25 118.39 31.25 118.63C31.25 118.87 31.05 119.07 30.81 119.07Z" fill="url(#paint28_linear_410_5321)"/>
<path d="M32.21 123.57C31.97 123.57 31.77 123.37 31.77 123.13V119.98C31.77 119.74 31.97 119.54 32.21 119.54C32.45 119.54 32.65 119.74 32.65 119.98V123.13C32.65 123.37 32.45 123.57 32.21 123.57Z" fill="url(#paint29_linear_410_5321)"/>
<path d="M32.21 117.67C31.97 117.67 31.77 117.47 31.77 117.23V114.13C31.77 113.89 31.97 113.69 32.21 113.69C32.45 113.69 32.65 113.89 32.65 114.13V117.23C32.65 117.48 32.45 117.67 32.21 117.67Z" fill="url(#paint30_linear_410_5321)"/>
<path d="M33.9098 118.3L32.4998 116.9C32.4198 116.82 32.3098 116.77 32.1898 116.77C32.0698 116.77 31.9598 116.82 31.8798 116.9L30.4698 118.3C30.2998 118.47 30.2998 118.75 30.4698 118.92L31.8798 120.32C31.9698 120.41 32.0798 120.45 32.1898 120.45C32.2998 120.45 32.4098 120.41 32.4998 120.32L33.9098 118.92C33.9898 118.84 34.0398 118.73 34.0398 118.61C34.0298 118.5 33.9898 118.38 33.9098 118.3Z" fill="url(#paint31_linear_410_5321)"/>
<path d="M120.992 120.474C144.927 96.5385 144.927 57.7319 120.992 33.7966C97.0566 9.86139 58.2499 9.86138 34.3146 33.7966C10.3794 57.7319 10.3794 96.5385 34.3146 120.474C58.2499 144.409 97.0566 144.409 120.992 120.474Z" fill="#00022B"/>
<path d="M73.8201 125.09C73.1201 128.14 70.9101 131.03 67.7501 131.95C64.5901 132.87 60.6301 131.25 59.7901 128.23C59.3801 129.64 57.6201 130.38 56.0901 130.21C54.5501 130.05 53.2001 129.22 51.9301 128.39C48.3901 126.08 44.8001 123.45 43.1001 119.72C41.3901 115.99 42.3001 110.89 46.1201 109.01C42.2501 104.04 40.7501 97.48 42.1201 91.44C42.7801 88.5 44.1601 85.61 46.5801 83.66C48.9901 81.71 52.5701 80.87 55.4601 82.11C55.1801 76.75 55.5201 70.25 60.4701 67.62C62.1201 66.74 64.0401 66.47 65.9301 66.34C71.3401 65.97 77.8701 67.4 79.7301 72.21C83.0701 68.65 88.0601 66.12 93.0501 66.76C98.0501 67.4 102.49 71.99 101.58 76.67C104.9 74.39 110.19 76 111.95 79.5C113.71 83 112.08 87.54 108.71 89.75C112.65 89.82 115.72 93.51 115.98 97.22C116.24 100.93 114.33 104.49 111.95 107.44C114.7 110.49 114.84 115.36 112.28 118.56C111.06 120.08 109.34 121.21 108.24 122.81C107.46 123.94 107.01 125.27 106.19 126.38C104.3 128.92 100.35 129.84 97.4201 128.43C95.9801 132.59 90.0401 134.68 86.0701 132.42C84.1001 134.14 82.3801 134.6 79.9401 133.54C77.5001 132.48 74.4901 129.95 74.6001 127.42L73.8201 125.08V125.09Z" fill="url(#paint32_linear_410_5321)"/>
<path d="M81.0302 133.57L80.6802 133.6H79.7302H78.9202L78.4502 133.57C69.8302 133.46 60.6802 133.37 53.1802 133.33C53.5602 133.5 53.9402 133.66 54.3202 133.82C61.5102 133.87 70.1302 133.95 78.4402 134.06V134.1C78.8702 134.1 79.3102 134.09 79.7402 134.08C80.1702 134.08 80.6102 134.09 81.0402 134.1V134.06C88.2002 133.97 95.0502 133.89 100.96 133.84C101.35 133.68 101.73 133.52 102.11 133.35C95.8002 133.4 88.4502 133.48 81.0302 133.57Z" fill="#00022B"/>
<path d="M115.98 124.96C114.32 121.57 111.6 118.59 108.45 116.48C102.75 112.66 95.8604 111.13 89.1304 109.78C88.7204 109.7 88.2904 109.61 87.9604 109.35C87.4004 108.91 88.6804 94.05 87.9604 87.55L78.3604 88.45L68.7604 87.55C68.0404 94.05 69.3204 108.91 68.7604 109.35C68.4304 109.61 68.0004 109.7 67.5904 109.78C60.8604 111.13 53.9704 112.66 48.2704 116.48C44.8704 118.75 41.9804 122.04 40.3804 125.76C40.3804 125.76 53.5604 137.85 76.9904 138.42C100.42 138.99 115.99 124.96 115.99 124.96H115.98Z" fill="#00022B"/>
<path d="M58.7004 80.13C58.5804 81.73 59.3504 83.2 60.0204 84.16C61.3104 86.01 63.2904 87.2 65.0704 87.2H65.4604L65.5704 87.53C66.5704 90.63 67.8804 93.1 69.5604 95.07C72.4104 98.41 76.4804 100.16 80.1604 99.66C83.6804 99.18 87.0304 96.64 89.1204 92.85C89.9604 91.32 90.6404 89.59 91.1704 87.55L91.2704 87.19H91.6504C93.4504 87.27 95.4604 86.03 96.7704 84.15C97.4304 83.2 98.2004 81.73 98.0904 80.12C97.9904 78.66 97.0704 77.38 95.8604 77.01C95.0804 76.77 94.1304 77.01 93.5104 77.6L92.6304 78.43L92.7004 77.22C93.0504 71.24 92.9904 63.26 92.7704 59.05C92.7404 59.03 92.7104 59 92.6704 58.98C91.2904 57.93 89.8604 56.93 88.3904 56.01C88.3104 56.01 88.2304 55.99 88.1404 55.99C80.3004 55.21 71.4204 54.33 64.5904 55.95C62.8904 61.7 62.9304 70.48 63.5404 76.78L63.6304 77.69L62.8304 77.24C62.2404 76.91 61.5404 76.82 60.9604 77C59.7504 77.37 58.8304 78.65 58.7304 80.11L58.7004 80.13Z" fill="#00022B"/>
<path d="M78.9002 100.23C75.4302 100.23 71.8102 98.45 69.1902 95.38C67.4602 93.35 66.1202 90.83 65.1002 87.67C63.1302 87.67 61.0002 86.39 59.6202 84.42C58.9102 83.4 58.0902 81.83 58.2202 80.08C58.3402 78.42 59.4002 76.97 60.7902 76.55C61.5002 76.34 62.3402 76.44 63.0402 76.83C62.4302 70.49 62.3802 61.64 64.1002 55.82L64.1802 55.55L64.4502 55.49C71.3702 53.85 80.2902 54.73 88.1602 55.52L88.5202 55.55L88.6202 55.61C90.0702 56.51 91.5202 57.52 92.9402 58.61L93.1202 58.74L93.2302 59.03C93.4602 63.42 93.5002 71.44 93.1602 77.25C93.9102 76.54 95.0402 76.26 95.9802 76.55C97.3802 76.97 98.4302 78.43 98.5502 80.08C98.6702 81.82 97.8602 83.4 97.1502 84.42C95.7202 86.47 93.5502 87.74 91.6302 87.67C91.0902 89.75 90.4002 91.52 89.5402 93.08C87.3802 97 83.9002 99.63 80.2302 100.13C79.7902 100.19 79.3502 100.22 78.9102 100.22L78.9002 100.23ZM65.8002 86.71L66.0202 87.38C67.0002 90.42 68.2802 92.83 69.9202 94.76C72.6702 97.97 76.5702 99.67 80.0902 99.19C83.4602 98.73 86.6702 96.28 88.6902 92.62C89.5202 91.13 90.1702 89.43 90.7002 87.43L90.8902 86.7H91.6402C93.2702 86.77 95.1202 85.64 96.3602 83.87C96.9802 82.98 97.7002 81.61 97.5902 80.15C97.5002 78.88 96.7202 77.78 95.7002 77.47C95.0902 77.28 94.3102 77.48 93.8202 77.95L92.0602 79.61L92.2002 77.19C92.5302 71.51 92.5002 63.71 92.2802 59.3C90.9402 58.28 89.5702 57.33 88.2102 56.47H88.0702C80.3802 55.69 71.6702 54.83 64.9502 56.35C63.3502 62.04 63.4002 70.58 64.0002 76.73L64.1802 78.55L62.5802 77.66C62.1002 77.39 61.5402 77.32 61.0802 77.46C60.0502 77.77 59.2802 78.88 59.1902 80.14C59.0802 81.6 59.8002 82.97 60.4202 83.86C61.6202 85.58 63.4502 86.7 65.0702 86.7H65.8102L65.8002 86.71Z" fill="#00022B"/>
<path d="M69.0901 77.99C70.04 77.99 70.8101 77.202 70.8101 76.23C70.8101 75.258 70.04 74.47 69.0901 74.47C68.1402 74.47 67.3701 75.258 67.3701 76.23C67.3701 77.202 68.1402 77.99 69.0901 77.99Z" fill="white"/>
<path d="M88.3301 76.23C88.3301 77.2 87.5601 77.99 86.6101 77.99C85.6601 77.99 84.8901 77.2 84.8901 76.23C84.8901 75.26 85.6601 74.47 86.6101 74.47C87.5601 74.47 88.3301 75.26 88.3301 76.23Z" fill="white"/>
<path d="M74.47 86.3C74.9 87.42 75.58 88.58 76.66 89.18C77.7 89.76 78.85 89.57 79.76 88.84C80.44 88.29 80.92 87.51 81.3 86.73C81.48 86.37 81.26 85.97 80.85 85.95C79.14 85.86 77.42 85.77 75.71 85.68C75.46 85.67 75.22 85.65 74.97 85.64C74.31 85.61 74.31 86.64 74.97 86.67L80.11 86.94C80.36 86.95 80.6 86.97 80.85 86.98C80.7 86.72 80.55 86.46 80.4 86.2C80.06 86.9 79.64 87.62 79.02 88.1C78.78 88.29 78.56 88.39 78.29 88.46C78.13 88.5 78.17 88.49 78.01 88.5C77.94 88.5 77.87 88.5 77.8 88.5C77.71 88.5 77.82 88.5 77.7 88.48C77.21 88.37 76.82 88.09 76.45 87.69C76.01 87.21 75.69 86.62 75.46 86.02C75.36 85.76 75.11 85.58 74.82 85.66C74.57 85.73 74.36 86.03 74.46 86.3H74.47Z" fill="white"/>
<path d="M92.8201 82.69C92.9001 82.56 92.9901 82.43 93.0801 82.3C93.1001 82.27 93.1201 82.24 93.1501 82.21C93.1501 82.21 93.2301 82.1 93.1901 82.16C93.1501 82.21 93.2301 82.12 93.2301 82.11C93.2601 82.08 93.2901 82.04 93.3201 82.01C93.5201 81.78 93.7301 81.56 93.9601 81.36C94.0201 81.31 94.0701 81.26 94.1301 81.22C94.1601 81.2 94.1901 81.17 94.2201 81.15C94.1401 81.21 94.2201 81.15 94.2401 81.14C94.3701 81.05 94.4901 80.96 94.6301 80.88C94.9001 80.71 95.1701 80.57 95.4601 80.44C95.7101 80.33 95.7801 79.95 95.6501 79.73C95.4801 79.47 95.2101 79.43 94.9401 79.54C93.7001 80.08 92.6401 81.02 91.9401 82.18C91.8001 82.41 91.8801 82.76 92.1301 82.89C92.3801 83.02 92.6901 82.95 92.8401 82.7L92.8201 82.69Z" fill="white"/>
<path d="M93.5602 81.77C93.5602 81.77 93.6502 81.83 93.7002 81.86C93.7202 81.87 93.7403 81.88 93.7503 81.9C93.7503 81.9 93.8402 81.97 93.7802 81.92C93.7202 81.87 93.7903 81.92 93.8003 81.94C93.8203 81.96 93.8403 81.98 93.8603 81.99C93.9003 82.02 93.9303 82.06 93.9703 82.09C94.0503 82.17 94.1203 82.25 94.1903 82.33C94.2303 82.38 94.1902 82.33 94.1702 82.3C94.1802 82.32 94.2003 82.34 94.2203 82.37C94.2503 82.41 94.2802 82.46 94.3102 82.51C94.3602 82.6 94.4102 82.69 94.4602 82.78C94.4602 82.8 94.4802 82.82 94.4902 82.84C94.5402 82.94 94.4602 82.76 94.4902 82.82C94.5102 82.87 94.5303 82.92 94.5503 82.97C94.5803 83.07 94.6102 83.17 94.6302 83.27C94.6402 83.32 94.6503 83.38 94.6603 83.43C94.6603 83.41 94.6503 83.32 94.6603 83.39C94.6603 83.42 94.6603 83.46 94.6603 83.49C94.6803 83.76 94.8803 84.02 95.1803 84.01C95.4403 84 95.7202 83.78 95.7002 83.49C95.6302 82.42 95.0302 81.42 94.1002 80.87C93.8702 80.73 93.5203 80.81 93.3903 81.06C93.2603 81.31 93.3303 81.62 93.5803 81.77H93.5602Z" fill="white"/>
<path d="M60.9502 79.56C61.6502 80.73 62.3602 81.9 63.0602 83.08C63.2002 83.32 63.5202 83.41 63.7702 83.27C64.0102 83.13 64.1002 82.8 63.9602 82.56C63.2602 81.39 62.5502 80.22 61.8502 79.04C61.7102 78.8 61.3902 78.71 61.1402 78.85C60.9002 78.99 60.8102 79.32 60.9502 79.56Z" fill="white"/>
<path d="M60.9703 82.86C61.4403 82.51 61.9103 82.16 62.3803 81.81C62.4903 81.73 62.5803 81.64 62.6203 81.5C62.6503 81.38 62.6403 81.21 62.5703 81.1C62.5003 80.99 62.3903 80.89 62.2603 80.86C62.1303 80.83 61.9703 80.83 61.8603 80.91C61.3903 81.26 60.9203 81.61 60.4503 81.96C60.3403 82.04 60.2503 82.13 60.2103 82.27C60.1803 82.39 60.1903 82.56 60.2603 82.67C60.3303 82.78 60.4403 82.88 60.5703 82.91C60.7003 82.94 60.8603 82.94 60.9703 82.86Z" fill="white"/>
<path d="M84.88 70.17C84.98 70.12 85.11 70.07 85.27 70.03C85.35 70.01 85.43 69.99 85.51 69.97C85.55 69.97 85.58 69.96 85.62 69.95C85.66 69.95 85.66 69.95 85.62 69.95C85.64 69.95 85.66 69.95 85.67 69.95C86.01 69.92 86.3 69.93 86.57 69.99C87.2 70.12 87.7 70.4 88.13 70.87C88.32 71.08 88.67 71.06 88.86 70.87C89.07 70.66 89.05 70.35 88.86 70.14C87.74 68.9 85.85 68.57 84.36 69.28C84.11 69.4 84.04 69.76 84.17 69.99C84.32 70.25 84.62 70.3 84.88 70.18V70.17Z" fill="white"/>
<path d="M68.5502 70.96C68.9602 70.44 69.4602 70.13 70.0702 69.97C70.1502 69.95 70.2302 69.93 70.3102 69.92C70.3502 69.92 70.3802 69.91 70.4202 69.9C70.4602 69.9 70.4602 69.9 70.4202 69.9C70.4402 69.9 70.4602 69.9 70.4702 69.9C70.6302 69.89 70.7902 69.88 70.9602 69.89C71.0102 69.89 71.0502 69.89 71.1002 69.89C71.1102 69.89 71.2302 69.9 71.1502 69.89C71.2302 69.9 71.3102 69.92 71.3902 69.93C71.5602 69.97 71.7202 70.02 71.8802 70.09C72.1402 70.19 72.4502 69.98 72.5202 69.73C72.6002 69.43 72.4202 69.2 72.1602 69.09C70.6902 68.49 68.8302 68.98 67.8402 70.23C67.6702 70.45 67.6302 70.75 67.8402 70.96C68.0202 71.14 68.4002 71.18 68.5702 70.96H68.5502Z" fill="white"/>
<path d="M78.3502 83.65C80.1102 82.44 81.7902 81.13 83.3902 79.72C83.6702 79.48 83.5402 78.92 83.1602 78.86C81.2202 78.52 79.2802 78.18 77.3402 77.84C77.4702 78.01 77.5902 78.17 77.7202 78.34C77.7002 76.51 77.6802 74.67 77.6502 72.84C77.6502 72.18 76.6102 72.17 76.6202 72.84C76.6402 74.67 76.6602 76.51 76.6902 78.34C76.6902 78.55 76.8502 78.8 77.0702 78.84C79.0102 79.18 80.9502 79.52 82.8902 79.86C82.8102 79.57 82.7402 79.28 82.6602 79C81.1202 80.35 79.5102 81.61 77.8302 82.77C77.2902 83.14 77.8002 84.04 78.3502 83.66V83.65Z" fill="white"/>
<path d="M108.31 77.8C110.64 78.73 112.42 81.06 112.64 83.58C112.87 86.16 111.57 88.77 109.37 90.14C108.87 90.46 109.2 91.21 109.77 91.08C112.6 90.47 115.2 92.79 116.33 95.18C117.68 98.05 116.22 101.08 113.94 102.97C112.62 104.06 111.03 104.83 109.46 105.49C109.2 105.6 109.02 105.83 109.1 106.13C109.16 106.37 109.48 106.6 109.74 106.49C112.87 105.18 116.04 103.39 117.38 100.1C118.02 98.53 118.09 96.78 117.45 95.2C116.84 93.67 115.81 92.32 114.49 91.33C113.05 90.25 111.27 89.71 109.49 90.09C109.62 90.4 109.76 90.72 109.89 91.03C111.85 89.8 113.25 87.71 113.6 85.42C113.95 83.11 113.24 80.8 111.73 79.03C110.88 78.04 109.8 77.29 108.59 76.8C107.97 76.55 107.7 77.55 108.32 77.8H108.31Z" fill="url(#paint33_linear_410_5321)"/>
<path d="M57.6701 70.02C54.4101 71.72 52.5801 75.54 53.2001 79.14L53.8401 78.5C50.2701 77.9 46.5601 79.02 43.8501 81.42C41.0601 83.89 39.7201 87.65 40.1101 91.34C40.3401 93.45 41.0801 95.49 42.3601 97.19C42.4201 96.95 42.4801 96.72 42.5501 96.48C40.3101 98 38.9501 100.62 38.9201 103.33C38.9001 106.1 40.4201 108.63 42.7301 110.11C44.0201 110.93 45.5301 111.39 47.0501 111.39C47.7101 111.39 47.7201 110.36 47.0501 110.36C44.6801 110.35 42.3901 109.07 41.0701 107.1C39.7501 105.11 39.6101 102.58 40.5701 100.41C41.1001 99.19 41.9601 98.12 43.0601 97.37C43.2701 97.23 43.4201 96.9 43.2501 96.66C41.1901 93.92 40.5601 90.27 41.5001 86.98C42.4301 83.76 44.9401 81.21 48.0701 80.05C49.8201 79.41 51.7101 79.18 53.5501 79.48C53.9601 79.55 54.2601 79.25 54.1901 78.84C53.6501 75.68 55.3601 72.36 58.1901 70.88C58.7801 70.57 58.2601 69.68 57.6701 69.99V70.02Z" fill="url(#paint34_linear_410_5321)"/>
<path d="M82.0103 58.6C81.7703 59.73 81.2203 60.76 80.4003 61.56C79.7303 62.21 78.8203 62.86 77.8403 62.73C77.5503 62.69 77.1703 62.55 77.1603 62.21C77.1603 61.95 77.4303 61.79 77.6703 61.73C78.6203 61.47 78.8903 62.48 78.5903 63.2C78.0403 64.52 76.3703 64.68 75.1303 64.8C74.4703 64.86 74.4703 65.9 75.1303 65.83C76.7403 65.67 78.6603 65.4 79.4503 63.78C80.0703 62.52 79.6403 60.71 78.0103 60.65C76.7803 60.61 75.5603 61.85 76.4003 63.03C77.2203 64.18 78.9803 63.81 79.9903 63.18C81.5303 62.22 82.6403 60.64 83.0103 58.86C83.1503 58.21 82.1503 57.93 82.0103 58.59V58.6Z" fill="url(#paint35_linear_410_5321)"/>
<path d="M98.9002 62.53C98.9002 62.53 98.8102 62.53 98.7702 62.53C96.3902 62.47 94.3702 60.92 92.5902 59.56L92.3602 59.38C87.2302 55.46 82.4302 52.98 77.6702 51.82C71.9302 50.42 66.1102 51.06 61.6702 53.56L60.9302 53.98L61.1202 47.43C61.6402 44.5 62.7202 41.69 64.2602 39.23C64.8902 38.22 65.7802 36.96 67.0902 36.22C68.2502 35.57 69.5902 35.4 70.9602 35.27C76.9202 34.71 83.8302 34.5 89.9102 37.2C93.0302 38.58 96.0702 40.78 99.4702 44.12C101.97 46.57 104.89 49.9 105.35 53.99C105.61 56.28 104.79 58.77 103.21 60.49C102.01 61.8 100.48 62.52 98.8902 62.52L98.9002 62.53ZM71.7002 50.14C73.7402 50.14 75.8202 50.39 77.8902 50.9C82.7802 52.09 87.7102 54.62 92.9402 58.63L93.1702 58.81C94.9102 60.15 96.7202 61.53 98.7902 61.58C100.15 61.64 101.47 61 102.51 59.86C103.9 58.34 104.63 56.14 104.4 54.11C103.97 50.32 101.18 47.15 98.8002 44.81C95.4802 41.55 92.5302 39.41 89.5202 38.08C83.6502 35.47 76.8902 35.68 71.0502 36.23C69.7302 36.35 68.5502 36.5 67.5602 37.06C66.4402 37.69 65.6402 38.82 65.0702 39.74C63.6002 42.1 62.5602 44.8 62.0702 47.53L61.9302 52.33C64.8102 50.88 68.1702 50.13 71.6902 50.13L71.7002 50.14Z" fill="white"/>
<path d="M89.1204 39.42C89.6104 37.95 90.3803 35.68 92.2503 35.72C92.8603 35.73 93.5504 36 93.7903 36.56C93.9204 36.86 93.8303 37.32 93.6403 37.67C93.4103 38.12 93.1003 38.52 92.7503 38.88C91.9603 39.69 90.9603 40.25 89.8603 40.51C89.2103 40.66 89.4903 41.66 90.1303 41.51C91.3403 41.23 92.4603 40.61 93.3503 39.74C94.1903 38.92 95.1003 37.69 94.8203 36.45C94.6003 35.51 93.6803 34.9 92.7703 34.74C91.7103 34.56 90.7303 34.89 89.9603 35.63C88.9903 36.56 88.5303 37.89 88.1103 39.14C87.9003 39.77 88.9003 40.04 89.1103 39.41L89.1204 39.42Z" fill="white"/>
<path d="M62.3103 49.2C65.1303 49.24 67.9703 49.2 70.7803 49.38C73.3103 49.53 75.8503 49.87 78.2303 50.78C79.5503 51.29 80.8103 51.99 81.9003 52.9C82.4103 53.32 83.1403 52.6 82.6303 52.17C78.4603 48.7 72.8203 48.32 67.6203 48.23C65.8503 48.2 64.0803 48.18 62.3103 48.16C61.6503 48.16 61.6403 49.18 62.3103 49.19V49.2Z" fill="white"/>
<path d="M69.68 37.43C67.44 37.47 65.51 39.31 65.3 41.53C65.27 41.81 65.56 42.05 65.82 42.05C66.12 42.05 66.31 41.81 66.34 41.53C66.35 41.38 66.4 41.14 66.47 40.92C66.54 40.69 66.58 40.61 66.69 40.4C66.91 39.98 67.12 39.71 67.46 39.39C68.06 38.83 68.88 38.48 69.69 38.46C69.97 38.46 70.21 38.23 70.21 37.94C70.21 37.65 69.97 37.42 69.69 37.42L69.68 37.43Z" fill="white"/>
<path d="M100.54 49.71C102.11 51 102.84 53.15 102.33 55.13C102.16 55.77 103.16 56.05 103.33 55.4C103.93 53.09 103.12 50.5 101.28 48.98C101.07 48.8 100.76 48.77 100.55 48.98C100.37 49.16 100.33 49.53 100.55 49.71H100.54Z" fill="white"/>
<path d="M92.6502 59C89.5202 56.6 86.1402 54.47 82.5102 52.95C82.3302 53.05 82.1002 53.07 81.9002 52.9C81.7202 52.75 81.5302 52.62 81.3502 52.48C80.1802 52.04 79.0002 51.65 77.7802 51.36C72.6602 50.11 67.0602 50.35 62.3502 52.67C61.6102 53.54 60.9302 54.49 60.3302 55.52H60.4902C60.0202 56.31 59.7002 57.2 59.4602 58.1C58.1702 62.85 58.7502 67.86 59.3402 72.74C59.4602 73.76 59.6002 74.83 60.1802 75.7C60.7602 76.57 61.9302 77.18 62.9502 76.83C63.9702 76.48 64.3402 74.92 63.4002 74.39C64.8802 73.97 65.8602 72.56 66.1202 71.11C66.3802 69.66 66.0302 68.19 65.6202 66.78C67.5902 67.47 69.9902 66.78 71.2502 65.19C72.5002 63.59 72.5002 61.21 71.2502 59.62C74.5002 61.67 79.0302 61.71 82.3202 59.72C83.3402 61.2 84.7302 62.57 86.5202 63.08C87.4002 63.33 88.7002 62.87 89.9002 62.15C89.7902 63.63 90.6002 65.17 91.9602 65.93C90.6602 66.77 89.9102 68.31 90.0802 69.79C90.2502 71.27 91.3302 72.63 92.7902 73.18C91.8302 74.17 91.0702 75.48 91.2302 76.82C91.2302 76.89 91.2502 76.95 91.2602 77.02C91.6202 78.72 93.8602 79.34 95.2102 78.18L96.4802 77.09C96.4802 77.03 96.4602 76.97 96.4502 76.91C96.4702 76.95 96.4902 77 96.5102 77.04L96.4902 77.08L97.6402 76.09C97.6402 76.09 99.1202 68.42 98.4602 62.03C96.2802 61.84 94.4102 60.36 92.6502 59.02V59Z" fill="url(#paint36_linear_410_5321)"/>
<path d="M64.9801 131.33C61.7501 131.33 58.5101 130.33 55.9101 128.45C52.1301 125.72 49.7001 121.13 49.5601 116.47C49.5301 115.55 49.6601 113.35 51.3601 112.73L51.5701 112.65L51.7601 112.76L78.0001 127.71L105 112.33L105.25 112.5C108.59 114.81 108.59 119.95 106.51 123.11C104.27 126.51 100.37 128.23 97.2101 129.36C94.0201 130.5 89.2401 131.89 84.5901 130.85C83.2901 130.56 82.3801 130.08 81.5801 129.66C80.5201 129.11 79.7101 128.67 78.2001 128.69L78.0001 128.8L77.8301 128.7C76.1801 128.81 73.2901 129.48 69.2601 130.69C67.8701 131.1 66.4201 131.31 64.9701 131.31L64.9801 131.33ZM51.5001 113.72C50.5401 114.27 50.5001 115.93 50.5201 116.45C50.6501 120.82 52.9301 125.12 56.4701 127.68C60.0101 130.24 64.8101 131.05 69.0001 129.8C72.2301 128.83 74.6901 128.22 76.4401 127.94L51.5001 113.73V113.72ZM79.6601 127.88C80.5801 128.07 81.2901 128.44 82.0201 128.83C82.8101 129.24 83.6201 129.67 84.7901 129.93C89.2001 130.92 93.8001 129.57 96.8801 128.47C99.8901 127.39 103.62 125.75 105.7 122.59C107.49 119.88 107.58 115.55 104.94 113.47L79.6501 127.87L79.6601 127.88Z" fill="white"/>
<path d="M39.99 125.47C40.12 125.57 40.25 125.68 40.38 125.78C42.28 121.6 44.76 118.97 46.79 117.37C49.97 114.87 52.79 114.29 52.81 114.28L52.72 113.81C52.72 113.81 44.59 115.42 39.98 125.47H39.99Z" fill="white"/>
<path d="M115.61 125.24C115.75 125.13 115.89 125.02 116.03 124.91C114.33 120.19 111.04 115.27 104.53 114.15L104.45 114.62C108.33 115.29 112.97 117.8 115.61 125.24Z" fill="white"/>
<path d="M103.83 124.86C103.46 126.9 103.4 128.98 103.66 131.04C103.7 131.32 103.87 131.56 104.18 131.56C104.43 131.56 104.73 131.32 104.7 131.04C104.45 129.08 104.48 127.09 104.83 125.14C104.88 124.87 104.76 124.58 104.47 124.5C104.22 124.43 103.88 124.58 103.83 124.86Z" fill="white"/>
<path d="M52.0801 126.52V132.06C52.0801 132.72 53.1101 132.73 53.1101 132.06V126.52C53.1101 125.86 52.0801 125.85 52.0801 126.52Z" fill="white"/>
</g>
<defs>
<linearGradient id="paint0_linear_410_5321" x1="0.00976562" y1="77.14" x2="155.32" y2="77.14" gradientUnits="userSpaceOnUse">
<stop stop-color="#A18B62"/>
<stop offset="0.07" stop-color="#A89268"/>
<stop offset="0.51" stop-color="#D2BE88"/>
<stop offset="1" stop-color="#A18B62"/>
</linearGradient>
<linearGradient id="paint1_linear_410_5321" x1="149.895" y1="77.09" x2="5.48976" y2="77.09" gradientUnits="userSpaceOnUse">
<stop stop-color="#CCB479"/>
<stop offset="0.54" stop-color="#00022B"/>
<stop offset="1" stop-color="#BBA471"/>
</linearGradient>
<linearGradient id="paint2_linear_410_5321" x1="5.83984" y1="118" x2="77.0499" y2="118" gradientUnits="userSpaceOnUse">
<stop/>
<stop offset="0.04" stop-color="#221F18"/>
<stop offset="0.13" stop-color="#524934"/>
<stop offset="0.22" stop-color="#7E6F4C"/>
<stop offset="0.3" stop-color="#9F8C5F"/>
<stop offset="0.38" stop-color="#B8A26D"/>
<stop offset="0.45" stop-color="#C7AE76"/>
<stop offset="0.5" stop-color="#CCB479"/>
<stop offset="0.58" stop-color="#C8B077"/>
<stop offset="0.66" stop-color="#BDA672"/>
<stop offset="0.74" stop-color="#AA9768"/>
<stop offset="0.82" stop-color="#90805C"/>
<stop offset="0.9" stop-color="#70654C"/>
<stop offset="0.97" stop-color="#494439"/>
<stop offset="1" stop-color="#393631"/>
</linearGradient>
<linearGradient id="paint3_linear_410_5321" x1="76.4297" y1="118" x2="149.48" y2="118" gradientUnits="userSpaceOnUse">
<stop/>
<stop offset="0.04" stop-color="#221F18"/>
<stop offset="0.13" stop-color="#524934"/>
<stop offset="0.22" stop-color="#7E6F4C"/>
<stop offset="0.3" stop-color="#9F8C5F"/>
<stop offset="0.38" stop-color="#B8A26D"/>
<stop offset="0.45" stop-color="#C7AE76"/>
<stop offset="0.5" stop-color="#CCB479"/>
<stop offset="0.58" stop-color="#C8B077"/>
<stop offset="0.66" stop-color="#BDA672"/>
<stop offset="0.74" stop-color="#AA9768"/>
<stop offset="0.82" stop-color="#90805C"/>
<stop offset="0.9" stop-color="#70654C"/>
<stop offset="0.97" stop-color="#494439"/>
<stop offset="1" stop-color="#393631"/>
</linearGradient>
<linearGradient id="paint4_linear_410_5321" x1="68.54" y1="141.15" x2="85.8" y2="158.42" gradientUnits="userSpaceOnUse">
<stop stop-color="#A18B62"/>
<stop offset="0.07" stop-color="#A89268"/>
<stop offset="0.51" stop-color="#D2BE88"/>
<stop offset="1" stop-color="#A18B62"/>
</linearGradient>
<linearGradient id="paint5_linear_410_5321" x1="149.48" y1="36.28" x2="78.27" y2="36.28" gradientUnits="userSpaceOnUse">
<stop/>
<stop offset="0.04" stop-color="#221F18"/>
<stop offset="0.13" stop-color="#524934"/>
<stop offset="0.22" stop-color="#7E6F4C"/>
<stop offset="0.3" stop-color="#9F8C5F"/>
<stop offset="0.38" stop-color="#B8A26D"/>
<stop offset="0.45" stop-color="#C7AE76"/>
<stop offset="0.5" stop-color="#CCB479"/>
<stop offset="0.58" stop-color="#C8B077"/>
<stop offset="0.66" stop-color="#BDA672"/>
<stop offset="0.74" stop-color="#AA9768"/>
<stop offset="0.82" stop-color="#90805C"/>
<stop offset="0.9" stop-color="#70654C"/>
<stop offset="0.97" stop-color="#494439"/>
<stop offset="1" stop-color="#393631"/>
</linearGradient>
<linearGradient id="paint6_linear_410_5321" x1="78.8898" y1="36.28" x2="5.83984" y2="36.28" gradientUnits="userSpaceOnUse">
<stop/>
<stop offset="0.04" stop-color="#221F18"/>
<stop offset="0.13" stop-color="#524934"/>
<stop offset="0.22" stop-color="#7E6F4C"/>
<stop offset="0.3" stop-color="#9F8C5F"/>
<stop offset="0.38" stop-color="#B8A26D"/>
<stop offset="0.45" stop-color="#C7AE76"/>
<stop offset="0.5" stop-color="#CCB479"/>
<stop offset="0.58" stop-color="#C8B077"/>
<stop offset="0.66" stop-color="#BDA672"/>
<stop offset="0.74" stop-color="#AA9768"/>
<stop offset="0.82" stop-color="#90805C"/>
<stop offset="0.9" stop-color="#70654C"/>
<stop offset="0.97" stop-color="#494439"/>
<stop offset="1" stop-color="#393631"/>
</linearGradient>
<linearGradient id="paint7_linear_410_5321" x1="86.78" y1="13.14" x2="69.52" y2="-4.13002" gradientUnits="userSpaceOnUse">
<stop stop-color="#A18B62"/>
<stop offset="0.07" stop-color="#A89268"/>
<stop offset="0.51" stop-color="#D2BE88"/>
<stop offset="1" stop-color="#A18B62"/>
</linearGradient>
<linearGradient id="paint8_linear_410_5321" x1="0" y1="-466.78" x2="155.32" y2="-466.78" gradientUnits="userSpaceOnUse">
<stop stop-color="#A18B62"/>
<stop offset="0.07" stop-color="#A89268"/>
<stop offset="0.51" stop-color="#D2BE88"/>
<stop offset="1" stop-color="#A18B62"/>
</linearGradient>
<linearGradient id="paint9_linear_410_5321" x1="144.84" y1="81.46" x2="153.5" y2="72.81" gradientUnits="userSpaceOnUse">
<stop stop-color="#A18B62"/>
<stop offset="0.07" stop-color="#A89268"/>
<stop offset="0.51" stop-color="#D2BE88"/>
<stop offset="1" stop-color="#A18B62"/>
</linearGradient>
<linearGradient id="paint10_linear_410_5321" x1="1.82" y1="81.46" x2="10.48" y2="72.81" gradientUnits="userSpaceOnUse">
<stop stop-color="#A18B62"/>
<stop offset="0.07" stop-color="#A89268"/>
<stop offset="0.51" stop-color="#D2BE88"/>
<stop offset="1" stop-color="#A18B62"/>
</linearGradient>
<linearGradient id="paint11_linear_410_5321" x1="121.45" y1="120.93" x2="33.8702" y2="33.34" gradientUnits="userSpaceOnUse">
<stop stop-color="#CCB479"/>
<stop offset="0.54" stop-color="#00022B"/>
<stop offset="1" stop-color="#BBA471"/>
</linearGradient>
<linearGradient id="paint12_linear_410_5321" x1="32.21" y1="39.35" x2="32.21" y2="31.93" gradientUnits="userSpaceOnUse">
<stop stop-color="#A18B62"/>
<stop offset="0.07" stop-color="#A89268"/>
<stop offset="0.51" stop-color="#D2BE88"/>
<stop offset="1" stop-color="#A18B62"/>
</linearGradient>
<linearGradient id="paint13_linear_410_5321" x1="123.11" y1="114.92" x2="123.11" y2="122.34" gradientUnits="userSpaceOnUse">
<stop stop-color="#A18B62"/>
<stop offset="0.07" stop-color="#A89268"/>
<stop offset="0.51" stop-color="#D2BE88"/>
<stop offset="1" stop-color="#A18B62"/>
</linearGradient>
<linearGradient id="paint14_linear_410_5321" x1="121.093" y1="38.0541" x2="122.395" y2="35.8055" gradientUnits="userSpaceOnUse">
<stop stop-color="#A18B62"/>
<stop offset="0.07" stop-color="#A89268"/>
<stop offset="0.51" stop-color="#D2BE88"/>
<stop offset="1" stop-color="#A18B62"/>
</linearGradient>
<linearGradient id="paint15_linear_410_5321" x1="123.774" y1="35.4024" x2="125.082" y2="33.1467" gradientUnits="userSpaceOnUse">
<stop stop-color="#A18B62"/>
<stop offset="0.07" stop-color="#A89268"/>
<stop offset="0.51" stop-color="#D2BE88"/>
<stop offset="1" stop-color="#A18B62"/>
</linearGradient>
<linearGradient id="paint16_linear_410_5321" x1="121.411" y1="34.8791" x2="122.076" y2="33.7336" gradientUnits="userSpaceOnUse">
<stop stop-color="#A18B62"/>
<stop offset="0.07" stop-color="#A89268"/>
<stop offset="0.51" stop-color="#D2BE88"/>
<stop offset="1" stop-color="#A18B62"/>
</linearGradient>
<linearGradient id="paint17_linear_410_5321" x1="124.078" y1="37.5449" x2="124.756" y2="36.3853" gradientUnits="userSpaceOnUse">
<stop stop-color="#A18B62"/>
<stop offset="0.07" stop-color="#A89268"/>
<stop offset="0.51" stop-color="#D2BE88"/>
<stop offset="1" stop-color="#A18B62"/>
</linearGradient>
<linearGradient id="paint18_linear_410_5321" x1="126.27" y1="36.46" x2="125.84" y2="34.82" gradientUnits="userSpaceOnUse">
<stop stop-color="#A18B62"/>
<stop offset="0.07" stop-color="#A89268"/>
<stop offset="0.51" stop-color="#D2BE88"/>
<stop offset="1" stop-color="#A18B62"/>
</linearGradient>
<linearGradient id="paint19_linear_410_5321" x1="120.37" y1="36.45" x2="119.93" y2="34.83" gradientUnits="userSpaceOnUse">
<stop stop-color="#A18B62"/>
<stop offset="0.07" stop-color="#A89268"/>
<stop offset="0.51" stop-color="#D2BE88"/>
<stop offset="1" stop-color="#A18B62"/>
</linearGradient>
<linearGradient id="paint20_linear_410_5321" x1="123.62" y1="40.46" x2="122.6" y2="36.67" gradientUnits="userSpaceOnUse">
<stop stop-color="#A18B62"/>
<stop offset="0.07" stop-color="#A89268"/>
<stop offset="0.51" stop-color="#D2BE88"/>
<stop offset="1" stop-color="#A18B62"/>
</linearGradient>
<linearGradient id="paint21_linear_410_5321" x1="123.61" y1="34.56" x2="122.61" y2="30.82" gradientUnits="userSpaceOnUse">
<stop stop-color="#A18B62"/>
<stop offset="0.07" stop-color="#A89268"/>
<stop offset="0.51" stop-color="#D2BE88"/>
<stop offset="1" stop-color="#A18B62"/>
</linearGradient>
<linearGradient id="paint22_linear_410_5321" x1="123.7" y1="37.9" x2="122.48" y2="33.33" gradientUnits="userSpaceOnUse">
<stop stop-color="#A18B62"/>
<stop offset="0.07" stop-color="#A89268"/>
<stop offset="0.51" stop-color="#D2BE88"/>
<stop offset="1" stop-color="#A18B62"/>
</linearGradient>
<linearGradient id="paint23_linear_410_5321" x1="30.195" y1="121.047" x2="31.4961" y2="118.799" gradientUnits="userSpaceOnUse">
<stop stop-color="#A18B62"/>
<stop offset="0.07" stop-color="#A89268"/>
<stop offset="0.51" stop-color="#D2BE88"/>
<stop offset="1" stop-color="#A18B62"/>
</linearGradient>
<linearGradient id="paint24_linear_410_5321" x1="32.8751" y1="118.396" x2="34.1762" y2="116.133" gradientUnits="userSpaceOnUse">
<stop stop-color="#A18B62"/>
<stop offset="0.07" stop-color="#A89268"/>
<stop offset="0.51" stop-color="#D2BE88"/>
<stop offset="1" stop-color="#A18B62"/>
</linearGradient>
<linearGradient id="paint25_linear_410_5321" x1="30.5061" y1="117.865" x2="31.1708" y2="116.72" gradientUnits="userSpaceOnUse">
<stop stop-color="#A18B62"/>
<stop offset="0.07" stop-color="#A89268"/>
<stop offset="0.51" stop-color="#D2BE88"/>
<stop offset="1" stop-color="#A18B62"/>
</linearGradient>
<linearGradient id="paint26_linear_410_5321" x1="33.1791" y1="120.538" x2="33.8509" y2="119.371" gradientUnits="userSpaceOnUse">
<stop stop-color="#A18B62"/>
<stop offset="0.07" stop-color="#A89268"/>
<stop offset="0.51" stop-color="#D2BE88"/>
<stop offset="1" stop-color="#A18B62"/>
</linearGradient>
<linearGradient id="paint27_linear_410_5321" x1="35.3699" y1="119.45" x2="34.9399" y2="117.81" gradientUnits="userSpaceOnUse">
<stop stop-color="#A18B62"/>
<stop offset="0.07" stop-color="#A89268"/>
<stop offset="0.51" stop-color="#D2BE88"/>
<stop offset="1" stop-color="#A18B62"/>
</linearGradient>
<linearGradient id="paint28_linear_410_5321" x1="29.47" y1="119.44" x2="29.03" y2="117.82" gradientUnits="userSpaceOnUse">
<stop stop-color="#A18B62"/>
<stop offset="0.07" stop-color="#A89268"/>
<stop offset="0.51" stop-color="#D2BE88"/>
<stop offset="1" stop-color="#A18B62"/>
</linearGradient>
<linearGradient id="paint29_linear_410_5321" x1="32.72" y1="123.44" x2="31.7" y2="119.66" gradientUnits="userSpaceOnUse">
<stop stop-color="#A18B62"/>
<stop offset="0.07" stop-color="#A89268"/>
<stop offset="0.51" stop-color="#D2BE88"/>
<stop offset="1" stop-color="#A18B62"/>
</linearGradient>
<linearGradient id="paint30_linear_410_5321" x1="32.71" y1="117.55" x2="31.71" y2="113.81" gradientUnits="userSpaceOnUse">
<stop stop-color="#A18B62"/>
<stop offset="0.07" stop-color="#A89268"/>
<stop offset="0.51" stop-color="#D2BE88"/>
<stop offset="1" stop-color="#A18B62"/>
</linearGradient>
<linearGradient id="paint31_linear_410_5321" x1="32.6498" y1="120.33" x2="31.7298" y2="116.88" gradientUnits="userSpaceOnUse">
<stop stop-color="#A18B62"/>
<stop offset="0.07" stop-color="#A89268"/>
<stop offset="0.51" stop-color="#D2BE88"/>
<stop offset="1" stop-color="#A18B62"/>
</linearGradient>
<linearGradient id="paint32_linear_410_5321" x1="41.6101" y1="100.2" x2="116" y2="100.2" gradientUnits="userSpaceOnUse">
<stop stop-color="#A18B62"/>
<stop offset="0.07" stop-color="#A89268"/>
<stop offset="0.51" stop-color="#D2BE88"/>
<stop offset="1" stop-color="#A18B62"/>
</linearGradient>
<linearGradient id="paint33_linear_410_5321" x1="107.97" y1="91.64" x2="117.89" y2="91.64" gradientUnits="userSpaceOnUse">
<stop stop-color="#A18B62"/>
<stop offset="0.07" stop-color="#A89268"/>
<stop offset="0.51" stop-color="#D2BE88"/>
<stop offset="1" stop-color="#A18B62"/>
</linearGradient>
<linearGradient id="paint34_linear_410_5321" x1="38.9201" y1="90.68" x2="58.4501" y2="90.68" gradientUnits="userSpaceOnUse">
<stop stop-color="#A18B62"/>
<stop offset="0.07" stop-color="#A89268"/>
<stop offset="0.51" stop-color="#D2BE88"/>
<stop offset="1" stop-color="#A18B62"/>
</linearGradient>
<linearGradient id="paint35_linear_410_5321" x1="74.6303" y1="62.04" x2="83.0203" y2="62.04" gradientUnits="userSpaceOnUse">
<stop stop-color="#A18B62"/>
<stop offset="0.07" stop-color="#A89268"/>
<stop offset="0.51" stop-color="#D2BE88"/>
<stop offset="1" stop-color="#A18B62"/>
</linearGradient>
<linearGradient id="paint36_linear_410_5321" x1="58.6702" y1="64.68" x2="98.6202" y2="64.68" gradientUnits="userSpaceOnUse">
<stop stop-color="#A18B62"/>
<stop offset="0.07" stop-color="#A89268"/>
<stop offset="0.51" stop-color="#D2BE88"/>
<stop offset="1" stop-color="#A18B62"/>
</linearGradient>
<clipPath id="clip0_410_5321">
<rect width="155.32" height="154.28" fill="white"/>
</clipPath>
</defs>
</svg>
