<svg width="161" height="64" viewBox="0 0 161 64" fill="none" xmlns="http://www.w3.org/2000/svg">
<g clip-path="url(#clip0_163_1274)">
<path d="M82.5325 11.7838H88.4779V41.9951C88.4779 49.9612 84.9407 55.5226 76.7376 55.5226C73.6519 55.5226 71.2437 54.9966 69.5879 54.3954V48.6086C71.3942 49.3601 73.5768 49.7359 75.7591 49.7359C80.8016 49.7359 82.5325 46.7297 82.5325 42.3709V11.7838Z" fill="#DBC087"/>
<path d="M99.391 9.4541C101.724 9.4541 103.38 10.882 103.38 13.4372C103.38 15.9172 101.724 17.4203 99.391 17.4203C97.058 17.4203 95.4023 15.9924 95.4023 13.4372C95.4023 10.9572 97.058 9.4541 99.391 9.4541ZM96.4559 22.155H102.176V55.2219H96.4559V22.155Z" fill="#DBC087"/>
<path d="M116.324 55.2219H110.755V22.155H116.324V27.9417C118.281 24.0337 121.592 21.2531 128.064 21.6289V27.1901C120.764 26.4387 116.324 28.618 116.324 35.6823V55.2219Z" fill="#DBC087"/>
<path d="M154.781 49.2849C152.674 53.6437 148.685 55.8985 143.568 55.8985C134.762 55.8985 130.322 48.4584 130.322 38.6884C130.322 29.3695 134.988 21.4785 144.245 21.4785C149.062 21.4785 152.825 23.6578 154.781 27.9417V22.155H160.501V55.2219H154.781V49.2849ZM145.073 50.6378C150.191 50.6378 154.706 47.4062 154.706 40.0413V37.4109C154.706 30.046 150.567 26.8143 145.675 26.8143C139.278 26.8143 135.967 31.0228 135.967 38.6884C136.042 46.6546 139.203 50.6378 145.073 50.6378Z" fill="#DBC087"/>
<path d="M53.0298 4.64447H26.9902C26.9902 11.1076 32.2585 16.3683 38.7306 16.3683H43.5473V20.9526C43.5473 27.4156 48.8153 32.6763 55.2876 32.6763V6.89905C55.2876 5.62146 54.3092 4.64447 53.0298 4.64447Z" fill="#DBC087"/>
<path d="M39.7855 17.9464H13.7461C13.7461 24.4095 19.0142 29.6701 25.4865 29.6701H30.303V34.2545C30.303 40.7176 35.5711 45.9782 42.0434 45.9782V20.201C42.0434 18.9985 41.0649 17.9464 39.7855 17.9464Z" fill="#DBC087"/>
<path d="M26.5395 31.3237H0.5C0.5 37.7868 5.76811 43.0475 12.2403 43.0475H17.0569V47.6318C17.0569 54.0949 22.3251 59.3556 28.7972 59.3556V33.5782C28.7972 32.3007 27.7436 31.3237 26.5395 31.3237Z" fill="#DBC087"/>
</g>
<defs>
<clipPath id="clip0_163_1274">
<rect width="160" height="64" fill="white" transform="translate(0.5)"/>
</clipPath>
</defs>
</svg>
