<svg width="190" height="253" viewBox="0 0 190 253" fill="none" xmlns="http://www.w3.org/2000/svg">
<rect x="0.5" y="0.5" width="189" height="252" rx="9.5" fill="#1A2541" stroke="#9B9B9B" stroke-dasharray="4 4"/>
<path d="M96.0053 204.732C96.0053 204.272 95.6306 203.897 95.1704 203.897C94.7079 203.897 94.3354 204.272 94.3354 204.732V224.063C94.3354 224.526 94.7102 224.898 95.1704 224.898C95.6306 224.898 96.0053 224.523 96.0053 224.063V204.732Z" fill="#FFF0D7" fill-opacity="0.1"/>
<path d="M97.3131 199.947C97.7999 198.772 97.2418 197.424 96.0666 196.937C94.8914 196.45 93.544 197.008 93.0572 198.184C92.5704 199.359 93.1285 200.707 94.3037 201.194C95.4789 201.681 96.8263 201.123 97.3131 199.947Z" fill="#FFF0D7" fill-opacity="0.1"/>
<path d="M95.1704 105.527C95.6306 105.527 96.0053 105.152 96.0053 104.692V85.3602C96.0053 84.8999 95.6306 84.525 95.1704 84.525C94.7079 84.525 94.3354 84.8999 94.3354 85.3602V104.692C94.3354 105.154 94.7079 105.527 95.1704 105.527Z" fill="#FFF0D7" fill-opacity="0.1"/>
<path d="M95.1704 112.654C96.4424 112.654 97.4736 111.622 97.4736 110.35C97.4736 109.078 96.4424 108.046 95.1704 108.046C93.8984 108.046 92.8672 109.078 92.8672 110.35C92.8672 111.622 93.8984 112.654 95.1704 112.654Z" fill="#FFF0D7" fill-opacity="0.1"/>
<path d="M25.8349 155.549H45.1619C45.622 155.549 45.9968 155.174 45.9968 154.714C45.9968 154.251 45.622 153.879 45.1619 153.879H25.8349C25.3724 153.879 25 154.254 25 154.714C25 155.174 25.3724 155.549 25.8349 155.549Z" fill="#FFF0D7" fill-opacity="0.1"/>
<path d="M52.9576 155.584C53.4444 154.408 52.8863 153.061 51.7111 152.574C50.5359 152.087 49.1885 152.645 48.7017 153.821C48.2149 154.996 48.773 156.344 49.9482 156.831C51.1235 157.318 52.4708 156.759 52.9576 155.584Z" fill="#FFF0D7" fill-opacity="0.1"/>
<path d="M164.506 153.877H145.179C144.717 153.877 144.344 154.251 144.344 154.712C144.344 155.172 144.719 155.547 145.179 155.547H164.506C164.966 155.547 165.341 155.172 165.341 154.712C165.341 154.251 164.966 153.877 164.506 153.877Z" fill="#FFF0D7" fill-opacity="0.1"/>
<path d="M139.901 156.976C141.157 156.772 142.009 155.589 141.806 154.333C141.602 153.077 140.419 152.224 139.163 152.428C137.908 152.632 137.055 153.815 137.259 155.071C137.462 156.327 138.645 157.18 139.901 156.976Z" fill="#FFF0D7" fill-opacity="0.1"/>
<path d="M95.4172 188.02C102.611 188.02 109.436 185.692 115.154 181.289L117.28 179.652L114.602 179.792C114.255 179.811 113.907 179.818 113.565 179.818C99.9643 179.818 88.8989 168.555 88.8989 154.709C88.8989 142.467 97.5496 132.246 108.952 130.04V149.084C108.952 149.089 108.954 149.094 108.954 149.098C108.629 149.793 108.233 150.448 107.775 151.053C106.746 150.911 105.731 150.624 104.765 150.185C105.204 151.148 105.491 152.161 105.633 153.193C104.803 153.82 103.883 154.334 102.891 154.709C103.883 155.079 104.803 155.594 105.633 156.221C105.491 157.246 105.206 158.254 104.772 159.212C105.731 158.778 106.741 158.494 107.766 158.351C108.392 159.179 108.907 160.097 109.279 161.084C109.651 160.097 110.166 159.179 110.792 158.354C111.824 158.498 112.839 158.785 113.805 159.227C113.366 158.263 113.079 157.248 112.934 156.218C113.764 155.592 114.685 155.079 115.676 154.709C114.685 154.337 113.762 153.822 112.932 153.196C113.074 152.168 113.359 151.155 113.793 150.194C112.83 150.631 111.817 150.916 110.79 151.058C110.335 150.455 109.941 149.805 109.616 149.115C109.616 149.105 109.618 149.096 109.618 149.086V129.923C110.904 129.712 112.22 129.601 113.563 129.601C113.957 129.601 114.284 129.608 114.595 129.625L117.277 129.767L115.147 128.13C109.431 123.731 102.609 121.406 95.4172 121.406C77.3616 121.406 62.6719 136.348 62.6719 154.714C62.6719 173.08 77.3616 188.02 95.4172 188.02ZM95.4172 123.076C101.378 123.076 107.075 124.763 112.038 127.976C98.2232 128.782 87.2267 140.467 87.2267 154.714C87.2267 168.961 98.2232 180.643 112.04 181.448C107.078 184.663 101.38 186.349 95.4172 186.349C78.2819 186.349 64.3418 172.157 64.3418 154.714C64.3418 137.269 78.2843 123.076 95.4172 123.076Z" fill="#FFF0D7" fill-opacity="0.1"/>
<path d="M41.1794 133.238L59.0097 140.702C59.0832 140.733 59.1615 140.749 59.2374 140.756C57.6031 145.093 56.7065 149.798 56.7065 154.712C56.7065 159.739 57.6434 164.548 59.3512 168.968L41.6111 176.242C41.1842 176.418 40.9802 176.904 41.1557 177.331C41.2886 177.654 41.5993 177.851 41.929 177.851C42.0334 177.851 42.1424 177.83 42.2444 177.789L59.9869 170.515C61.8015 174.681 64.3111 178.468 67.3638 181.718L54.0332 195.052C53.7059 195.379 53.7059 195.908 54.0332 196.233C54.1969 196.397 54.4104 196.478 54.6239 196.478C54.8373 196.478 55.0508 196.397 55.2145 196.233L68.5355 182.909C71.6879 185.991 75.3526 188.535 79.3874 190.387L72.1244 207.745C71.9465 208.17 72.1457 208.661 72.5727 208.839C72.677 208.884 72.7862 208.903 72.8953 208.903C73.2226 208.903 73.5333 208.711 73.6662 208.39L80.922 191.049C85.3316 192.845 90.142 193.835 95.1753 193.835C100.083 193.835 104.779 192.893 109.099 191.182L116.115 208.302C116.248 208.625 116.559 208.822 116.888 208.822C116.993 208.822 117.102 208.801 117.206 208.76C117.633 208.585 117.837 208.098 117.662 207.671L110.638 190.535C114.882 188.632 118.724 185.972 122.002 182.724L135.136 195.861C135.3 196.025 135.513 196.105 135.727 196.105C135.94 196.105 136.154 196.025 136.317 195.861C136.645 195.534 136.645 195.004 136.317 194.679L123.165 181.524C126.127 178.326 128.566 174.624 130.345 170.558L147.473 177.728C147.577 177.773 147.686 177.792 147.795 177.792C148.123 177.792 148.433 177.6 148.566 177.279C148.744 176.855 148.543 176.363 148.118 176.185L130.983 169.013C132.7 164.581 133.644 159.756 133.644 154.712C133.644 149.993 132.819 145.464 131.305 141.271L148.858 134.073C149.285 133.897 149.489 133.411 149.314 132.984C149.138 132.557 148.649 132.353 148.225 132.529L130.705 139.713C128.938 135.397 126.429 131.47 123.345 128.094L136.692 114.744C137.02 114.417 137.02 113.888 136.692 113.562C136.365 113.235 135.836 113.235 135.511 113.562L122.192 126.884C118.976 123.655 115.207 120.996 111.044 119.069L118.15 102.082C118.328 101.657 118.127 101.166 117.702 100.988C117.277 100.81 116.786 101.012 116.609 101.436L109.509 118.402C105.078 116.587 100.242 115.584 95.1777 115.584C90.1894 115.584 85.4217 116.554 81.043 118.319L73.9603 101.035C73.7848 100.608 73.2985 100.404 72.8715 100.58C72.4446 100.756 72.2406 101.242 72.4161 101.669L79.5107 118.979C75.3503 120.875 71.5812 123.501 68.3576 126.694L54.8516 113.185C54.5242 112.858 53.9977 112.858 53.6703 113.185C53.343 113.513 53.343 114.042 53.6703 114.367L67.1954 127.895C64.1355 131.198 61.6355 135.036 59.8446 139.259C59.7901 139.219 59.7331 139.181 59.6667 139.155L41.8365 131.691C41.4119 131.513 40.9209 131.712 40.743 132.139C40.5532 132.571 40.7548 133.06 41.1794 133.238ZM95.1682 117.259C100.156 117.259 104.917 118.277 109.26 120.115C109.346 120.22 109.452 120.308 109.585 120.365C109.69 120.41 109.799 120.429 109.908 120.429C109.929 120.429 109.948 120.426 109.969 120.424C122.911 126.234 131.967 139.416 131.967 154.712C131.967 175.365 115.461 192.167 95.1706 192.167C74.883 192.167 58.3763 175.365 58.3763 154.712C58.3763 134.059 74.8806 117.259 95.1682 117.259Z" fill="#FFF0D7" fill-opacity="0.1"/>
</svg>
