<svg width="820" height="253" viewBox="0 0 820 253" fill="none" xmlns="http://www.w3.org/2000/svg">
<rect x="0.5" y="0.5" width="189" height="252" rx="9.5" fill="#1A2541" stroke="#9B9B9B" stroke-dasharray="4 4"/>
<path d="M96.0053 204.732C96.0053 204.271 95.6306 203.897 95.1704 203.897C94.7079 203.897 94.3354 204.271 94.3354 204.732V224.063C94.3354 224.526 94.7102 224.898 95.1704 224.898C95.6306 224.898 96.0053 224.523 96.0053 224.063V204.732Z" fill="#FFF0D7" fill-opacity="0.1"/>
<path d="M97.3131 199.947C97.7999 198.772 97.2418 197.424 96.0666 196.937C94.8914 196.45 93.544 197.008 93.0572 198.184C92.5704 199.359 93.1285 200.707 94.3037 201.194C95.4789 201.681 96.8263 201.123 97.3131 199.947Z" fill="#FFF0D7" fill-opacity="0.1"/>
<path d="M95.1704 105.527C95.6306 105.527 96.0053 105.152 96.0053 104.692V85.3601C96.0053 84.8999 95.6306 84.525 95.1704 84.525C94.7079 84.525 94.3354 84.8999 94.3354 85.3601V104.692C94.3354 105.154 94.7079 105.527 95.1704 105.527Z" fill="#FFF0D7" fill-opacity="0.1"/>
<path d="M95.1704 112.654C96.4424 112.654 97.4736 111.622 97.4736 110.35C97.4736 109.078 96.4424 108.046 95.1704 108.046C93.8984 108.046 92.8672 109.078 92.8672 110.35C92.8672 111.622 93.8984 112.654 95.1704 112.654Z" fill="#FFF0D7" fill-opacity="0.1"/>
<path d="M25.8349 155.549H45.1619C45.622 155.549 45.9968 155.174 45.9968 154.714C45.9968 154.251 45.622 153.879 45.1619 153.879H25.8349C25.3724 153.879 25 154.254 25 154.714C25 155.174 25.3724 155.549 25.8349 155.549Z" fill="#FFF0D7" fill-opacity="0.1"/>
<path d="M52.9578 155.584C53.4446 154.408 52.8866 153.061 51.7113 152.574C50.5361 152.087 49.1888 152.645 48.702 153.821C48.2152 154.996 48.7733 156.344 49.9485 156.831C51.1237 157.318 52.471 156.759 52.9578 155.584Z" fill="#FFF0D7" fill-opacity="0.1"/>
<path d="M164.506 153.877H145.179C144.717 153.877 144.344 154.251 144.344 154.712C144.344 155.172 144.719 155.547 145.179 155.547H164.506C164.966 155.547 165.341 155.172 165.341 154.712C165.341 154.251 164.966 153.877 164.506 153.877Z" fill="#FFF0D7" fill-opacity="0.1"/>
<path d="M139.901 156.976C141.157 156.772 142.009 155.589 141.806 154.333C141.602 153.077 140.419 152.224 139.163 152.428C137.908 152.632 137.055 153.815 137.259 155.071C137.462 156.327 138.645 157.18 139.901 156.976Z" fill="#FFF0D7" fill-opacity="0.1"/>
<path d="M95.4172 188.02C102.611 188.02 109.436 185.692 115.154 181.289L117.28 179.652L114.602 179.792C114.255 179.811 113.907 179.818 113.565 179.818C99.9643 179.818 88.8989 168.555 88.8989 154.709C88.8989 142.467 97.5496 132.246 108.952 130.04V149.084C108.952 149.089 108.954 149.093 108.954 149.098C108.629 149.793 108.233 150.448 107.775 151.053C106.746 150.911 105.731 150.624 104.765 150.185C105.204 151.148 105.491 152.161 105.633 153.193C104.803 153.82 103.883 154.334 102.891 154.709C103.883 155.079 104.803 155.594 105.633 156.221C105.491 157.246 105.206 158.254 104.772 159.212C105.731 158.778 106.741 158.493 107.766 158.351C108.392 159.179 108.907 160.097 109.279 161.084C109.651 160.097 110.166 159.179 110.792 158.353C111.824 158.498 112.839 158.785 113.805 159.227C113.366 158.263 113.079 157.248 112.934 156.218C113.764 155.592 114.685 155.079 115.676 154.709C114.685 154.337 113.762 153.822 112.932 153.196C113.074 152.168 113.359 151.155 113.793 150.194C112.83 150.631 111.817 150.916 110.79 151.058C110.335 150.455 109.941 149.805 109.616 149.115C109.616 149.105 109.618 149.096 109.618 149.086V129.923C110.904 129.712 112.22 129.601 113.563 129.601C113.957 129.601 114.284 129.608 114.595 129.624L117.277 129.767L115.147 128.13C109.431 123.731 102.609 121.406 95.4172 121.406C77.3616 121.406 62.6719 136.348 62.6719 154.714C62.6719 173.08 77.3616 188.02 95.4172 188.02ZM95.4172 123.076C101.378 123.076 107.075 124.763 112.038 127.976C98.2232 128.782 87.2267 140.467 87.2267 154.714C87.2267 168.961 98.2232 180.643 112.04 181.448C107.078 184.663 101.38 186.349 95.4172 186.349C78.2819 186.349 64.3418 172.157 64.3418 154.714C64.3418 137.269 78.2843 123.076 95.4172 123.076Z" fill="#FFF0D7" fill-opacity="0.1"/>
<path d="M41.1794 133.238L59.0097 140.702C59.0832 140.733 59.1615 140.749 59.2374 140.756C57.6031 145.093 56.7065 149.798 56.7065 154.712C56.7065 159.739 57.6434 164.548 59.3512 168.968L41.6111 176.242C41.1842 176.418 40.9802 176.904 41.1557 177.331C41.2886 177.654 41.5993 177.851 41.929 177.851C42.0334 177.851 42.1424 177.83 42.2444 177.789L59.9869 170.515C61.8015 174.681 64.3111 178.468 67.3638 181.718L54.0332 195.052C53.7059 195.379 53.7059 195.908 54.0332 196.233C54.1969 196.397 54.4104 196.478 54.6239 196.478C54.8373 196.478 55.0508 196.397 55.2145 196.233L68.5355 182.909C71.6879 185.991 75.3526 188.535 79.3874 190.387L72.1244 207.745C71.9465 208.17 72.1457 208.661 72.5727 208.839C72.677 208.884 72.7862 208.903 72.8953 208.903C73.2226 208.903 73.5333 208.711 73.6662 208.39L80.922 191.049C85.3316 192.845 90.142 193.835 95.1753 193.835C100.083 193.835 104.779 192.893 109.099 191.182L116.115 208.302C116.248 208.625 116.559 208.822 116.888 208.822C116.993 208.822 117.102 208.801 117.206 208.76C117.633 208.585 117.837 208.098 117.662 207.671L110.638 190.535C114.882 188.632 118.724 185.972 122.002 182.724L135.136 195.861C135.3 196.025 135.513 196.105 135.727 196.105C135.94 196.105 136.154 196.025 136.317 195.861C136.645 195.534 136.645 195.004 136.317 194.679L123.165 181.524C126.127 178.326 128.566 174.624 130.345 170.558L147.473 177.728C147.577 177.773 147.686 177.792 147.795 177.792C148.123 177.792 148.433 177.6 148.566 177.279C148.744 176.855 148.543 176.363 148.118 176.185L130.983 169.013C132.7 164.581 133.644 159.756 133.644 154.712C133.644 149.993 132.819 145.464 131.305 141.271L148.858 134.073C149.285 133.897 149.489 133.411 149.314 132.984C149.138 132.557 148.649 132.353 148.225 132.529L130.705 139.713C128.938 135.397 126.429 131.47 123.345 128.094L136.692 114.744C137.02 114.417 137.02 113.888 136.692 113.562C136.365 113.235 135.836 113.235 135.511 113.562L122.192 126.884C118.976 123.655 115.207 120.996 111.044 119.069L118.15 102.082C118.328 101.657 118.127 101.166 117.702 100.988C117.277 100.81 116.786 101.012 116.609 101.436L109.509 118.402C105.078 116.587 100.242 115.584 95.1777 115.584C90.1894 115.584 85.4217 116.554 81.043 118.319L73.9603 101.035C73.7848 100.608 73.2985 100.404 72.8715 100.58C72.4446 100.756 72.2406 101.242 72.4161 101.669L79.5107 118.979C75.3503 120.875 71.5812 123.501 68.3576 126.694L54.8516 113.185C54.5242 112.858 53.9977 112.858 53.6703 113.185C53.343 113.513 53.343 114.042 53.6703 114.367L67.1954 127.895C64.1355 131.198 61.6355 135.036 59.8446 139.259C59.7901 139.219 59.7331 139.181 59.6667 139.155L41.8365 131.691C41.4119 131.513 40.9209 131.712 40.743 132.139C40.5532 132.571 40.7548 133.06 41.1794 133.238ZM95.1682 117.259C100.156 117.259 104.917 118.277 109.26 120.115C109.346 120.22 109.452 120.308 109.585 120.365C109.69 120.41 109.799 120.429 109.908 120.429C109.929 120.429 109.948 120.426 109.969 120.424C122.911 126.234 131.967 139.416 131.967 154.712C131.967 175.365 115.461 192.167 95.1706 192.167C74.883 192.167 58.3763 175.365 58.3763 154.712C58.3763 134.059 74.8806 117.259 95.1682 117.259Z" fill="#FFF0D7" fill-opacity="0.1"/>
<path d="M82.9998 12L81.0428 18.0431L75 20.0001L81.0428 21.957L82.9998 28.0001L84.9568 21.957L90.9996 20.0001L84.9568 18.0431L82.9998 12ZM83.0949 19.77V12.9117L84.7727 18.0923L83.0949 19.77ZM82.9047 19.77L82.1135 18.9789L81.2272 18.0926L82.9049 12.912V19.77H82.9047ZM82.77 19.9049H75.9117L81.0923 18.2272L82.77 19.9049ZM82.77 20.0952L81.0923 21.773L75.9117 20.0952H82.77ZM82.1135 21.021L82.9047 20.2298V27.0881L81.2269 21.9076L82.1135 21.021ZM83.0949 20.2298L84.7727 21.9076L83.0949 27.0881V20.2298ZM83.2296 20.0952H90.0879L84.9073 21.773L83.2296 20.0952ZM83.2296 19.9049L84.9073 18.2272L90.0879 19.9049H83.2296Z" fill="#FFF0D7"/>
<path d="M86.6687 17.1784C86.5468 16.91 86.5462 16.6 86.6676 16.3318C86.3992 16.4532 86.09 16.4529 85.8213 16.3313C85.9432 16.5992 85.9435 16.9089 85.8221 17.1773C86.0908 17.0557 86.4005 17.0562 86.6687 17.1784Z" fill="#FFF0D7"/>
<path d="M87.1662 16.3327C87.0943 16.1745 87.094 15.9921 87.1656 15.8339C87.0075 15.9056 86.8256 15.9053 86.6675 15.8337C86.7394 15.9915 86.7394 16.1737 86.668 16.3318C86.8256 16.2602 87.0083 16.2608 87.1662 16.3327Z" fill="#FFF0D7"/>
<path d="M87.7954 15.4869C87.7548 15.3974 87.7546 15.2941 87.7951 15.2047C87.7056 15.2452 87.6027 15.245 87.5132 15.2044C87.5537 15.2936 87.554 15.3969 87.5135 15.4863C87.6029 15.4461 87.7062 15.4463 87.7954 15.4869Z" fill="#FFF0D7"/>
<path d="M80.1776 22.8228C79.9092 22.9442 79.5992 22.9436 79.3311 22.8215C79.453 23.0899 79.4535 23.3999 79.3321 23.668C79.6005 23.5467 79.9098 23.547 80.1784 23.6686C80.0563 23.401 80.056 23.0912 80.1776 22.8228Z" fill="#FFF0D7"/>
<path d="M79.3322 23.668C79.174 23.7397 78.9916 23.7391 78.8337 23.6672C78.9056 23.8254 78.9059 24.0078 78.8343 24.1659C78.9924 24.0943 79.1743 24.0946 79.3324 24.1662C79.2608 24.0086 79.2605 23.8262 79.3322 23.668Z" fill="#FFF0D7"/>
<path d="M78.4865 24.5135C78.3971 24.5541 78.2938 24.5538 78.2043 24.513C78.2449 24.6025 78.2452 24.7057 78.2046 24.7952C78.2941 24.7546 78.3971 24.7549 78.4865 24.7955C78.446 24.7063 78.446 24.603 78.4865 24.5135Z" fill="#FFF0D7"/>
<path d="M86.6687 22.8215C86.4008 22.9434 86.091 22.9436 85.8226 22.8223C85.944 23.0907 85.9435 23.4007 85.8213 23.6686C86.0897 23.5467 86.3997 23.5461 86.6679 23.6675C86.5468 23.3994 86.547 23.0902 86.6687 22.8215Z" fill="#FFF0D7"/>
<path d="M86.6678 23.6678C86.7392 23.8259 86.7389 24.0084 86.667 24.1662C86.8251 24.0943 87.0076 24.094 87.1657 24.1657C87.0941 24.0076 87.0943 23.8256 87.166 23.6675C87.0081 23.7391 86.8259 23.7394 86.6678 23.6678Z" fill="#FFF0D7"/>
<path d="M87.5132 24.5133C87.5538 24.6027 87.5535 24.706 87.5127 24.7955C87.6022 24.7549 87.7054 24.7547 87.7949 24.7952C87.7543 24.7057 87.7546 24.6027 87.7952 24.5133C87.706 24.5535 87.6027 24.5538 87.5132 24.5133Z" fill="#FFF0D7"/>
<path d="M79.3316 16.3321C79.453 16.6005 79.4527 16.9097 79.3311 17.1784C79.5989 17.0565 79.9087 17.0562 80.1771 17.1776C80.0557 16.9092 80.0563 16.5992 80.1784 16.3313C79.91 16.4532 79.6 16.4537 79.3316 16.3321Z" fill="#FFF0D7"/>
<path d="M79.3314 16.3321C79.2598 16.174 79.2603 15.9915 79.3322 15.8337C79.1741 15.9056 78.9916 15.9058 78.8335 15.8342C78.9052 15.9923 78.9049 16.1743 78.8333 16.3324C78.9911 16.2608 79.1736 16.2608 79.3314 16.3321Z" fill="#FFF0D7"/>
<path d="M78.2046 15.2049C78.2452 15.2944 78.2449 15.3974 78.2043 15.4869C78.2935 15.4463 78.3968 15.4461 78.4863 15.4866C78.4457 15.3971 78.446 15.2939 78.4868 15.2044C78.3973 15.2452 78.2941 15.2452 78.2046 15.2049Z" fill="#FFF0D7"/>
<path d="M103.999 12L102.042 18.0431L95.9995 20.0001L102.042 21.957L103.999 28.0001L105.956 21.957L111.999 20.0001L105.956 18.0431L103.999 12ZM104.094 19.77V12.9117L105.772 18.0923L104.094 19.77ZM103.904 19.77L103.113 18.9789L102.227 18.0926L103.904 12.912V19.77H103.904ZM103.77 19.9049H96.9112L102.092 18.2272L103.77 19.9049ZM103.77 20.0952L102.092 21.773L96.9112 20.0952H103.77ZM103.113 21.021L103.904 20.2298V27.0881L102.226 21.9076L103.113 21.021ZM104.094 20.2298L105.772 21.9076L104.094 27.0881V20.2298ZM104.229 20.0952H111.087L105.907 21.773L104.229 20.0952ZM104.229 19.9049L105.907 18.2272L111.087 19.9049H104.229Z" fill="#FFF0D7"/>
<path d="M107.668 17.1784C107.546 16.91 107.546 16.5999 107.667 16.3318C107.399 16.4532 107.089 16.4529 106.821 16.3313C106.943 16.5991 106.943 16.9089 106.822 17.1773C107.09 17.0557 107.4 17.0562 107.668 17.1784Z" fill="#FFF0D7"/>
<path d="M108.165 16.3326C108.094 16.1745 108.093 15.992 108.165 15.8339C108.007 15.9055 107.825 15.9053 107.667 15.8336C107.739 15.9915 107.739 16.1737 107.667 16.3318C107.825 16.2602 108.008 16.2607 108.165 16.3326Z" fill="#FFF0D7"/>
<path d="M108.795 15.4868C108.754 15.3974 108.754 15.2941 108.794 15.2046C108.705 15.2452 108.602 15.2449 108.512 15.2044C108.553 15.2936 108.553 15.3968 108.513 15.4863C108.602 15.446 108.705 15.4463 108.795 15.4868Z" fill="#FFF0D7"/>
<path d="M101.177 22.8228C100.909 22.9442 100.599 22.9436 100.331 22.8215C100.453 23.0899 100.453 23.3999 100.332 23.668C100.6 23.5467 100.91 23.547 101.178 23.6686C101.056 23.401 101.056 23.0912 101.177 22.8228Z" fill="#FFF0D7"/>
<path d="M100.332 23.668C100.174 23.7397 99.9914 23.7391 99.8335 23.6672C99.9054 23.8254 99.9057 24.0078 99.834 24.1659C99.9922 24.0943 100.174 24.0946 100.332 24.1662C100.261 24.0086 100.26 23.8262 100.332 23.668Z" fill="#FFF0D7"/>
<path d="M99.4863 24.5135C99.3968 24.5541 99.2936 24.5538 99.2041 24.513C99.2446 24.6025 99.2449 24.7057 99.2044 24.7952C99.2938 24.7546 99.3968 24.7549 99.4863 24.7955C99.4457 24.7063 99.4457 24.603 99.4863 24.5135Z" fill="#FFF0D7"/>
<path d="M107.668 22.8214C107.4 22.9433 107.091 22.9436 106.822 22.8222C106.944 23.0906 106.943 23.4006 106.821 23.6685C107.089 23.5466 107.399 23.546 107.667 23.6674C107.546 23.3993 107.547 23.0901 107.668 22.8214Z" fill="#FFF0D7"/>
<path d="M107.667 23.6677C107.739 23.8258 107.738 24.0082 107.667 24.1661C107.825 24.0942 108.007 24.0939 108.165 24.1656C108.094 24.0074 108.094 23.8255 108.165 23.6674C108.008 23.739 107.825 23.7393 107.667 23.6677Z" fill="#FFF0D7"/>
<path d="M108.513 24.5132C108.553 24.6026 108.553 24.7059 108.512 24.7953C108.602 24.7548 108.705 24.7545 108.794 24.7951C108.754 24.7056 108.754 24.6026 108.795 24.5132C108.705 24.5534 108.602 24.5537 108.513 24.5132Z" fill="#FFF0D7"/>
<path d="M100.331 16.3321C100.453 16.6005 100.452 16.9097 100.331 17.1784C100.599 17.0565 100.908 17.0562 101.177 17.1776C101.055 16.9092 101.056 16.5992 101.178 16.3313C100.91 16.4532 100.6 16.4537 100.331 16.3321Z" fill="#FFF0D7"/>
<path d="M100.331 16.3321C100.26 16.174 100.26 15.9915 100.332 15.8337C100.174 15.9056 99.9914 15.9058 99.8333 15.8342C99.9049 15.9923 99.9046 16.1743 99.833 16.3324C99.9909 16.2608 100.173 16.2608 100.331 16.3321Z" fill="#FFF0D7"/>
<path d="M99.2044 15.2049C99.2449 15.2944 99.2446 15.3974 99.2041 15.4869C99.2933 15.4463 99.3966 15.4461 99.486 15.4866C99.4455 15.3971 99.4457 15.2939 99.4866 15.2044C99.3971 15.2452 99.2938 15.2452 99.2044 15.2049Z" fill="#FFF0D7"/>
<path d="M124.999 12L123.042 18.0431L116.999 20.0001L123.042 21.957L124.999 28.0001L126.956 21.957L132.999 20.0001L126.956 18.0431L124.999 12ZM125.094 19.77V12.9117L126.772 18.0923L125.094 19.77ZM124.904 19.77L124.113 18.9789L123.226 18.0926L124.904 12.912V19.77H124.904ZM124.769 19.9049H117.911L123.092 18.2272L124.769 19.9049ZM124.769 20.0952L123.092 21.773L117.911 20.0952H124.769ZM124.113 21.021L124.904 20.2298V27.0881L123.226 21.9076L124.113 21.021ZM125.094 20.2298L126.772 21.9076L125.094 27.0881V20.2298ZM125.229 20.0952H132.087L126.907 21.773L125.229 20.0952ZM125.229 19.9049L126.907 18.2272L132.087 19.9049H125.229Z" fill="#FFF0D7"/>
<path d="M128.668 17.1784C128.546 16.91 128.546 16.6 128.667 16.3318C128.398 16.4532 128.089 16.4529 127.821 16.3313C127.942 16.5992 127.943 16.9089 127.821 17.1773C128.09 17.0557 128.4 17.0562 128.668 17.1784Z" fill="#FFF0D7"/>
<path d="M129.165 16.3327C129.094 16.1745 129.093 15.9921 129.165 15.8339C129.007 15.9056 128.825 15.9053 128.667 15.8337C128.739 15.9915 128.739 16.1737 128.667 16.3318C128.825 16.2602 129.008 16.2608 129.165 16.3327Z" fill="#FFF0D7"/>
<path d="M129.795 15.4869C129.754 15.3974 129.754 15.2941 129.794 15.2047C129.705 15.2452 129.602 15.245 129.512 15.2044C129.553 15.2936 129.553 15.3969 129.513 15.4863C129.602 15.4461 129.705 15.4463 129.795 15.4869Z" fill="#FFF0D7"/>
<path d="M122.177 22.8228C121.908 22.9442 121.598 22.9436 121.33 22.8215C121.452 23.0899 121.453 23.3999 121.331 23.668C121.6 23.5467 121.909 23.547 122.178 23.6686C122.056 23.401 122.055 23.0912 122.177 22.8228Z" fill="#FFF0D7"/>
<path d="M121.331 23.668C121.173 23.7397 120.991 23.7391 120.833 23.6672C120.905 23.8254 120.905 24.0078 120.834 24.1659C120.992 24.0943 121.174 24.0946 121.332 24.1662C121.26 24.0086 121.26 23.8262 121.331 23.668Z" fill="#FFF0D7"/>
<path d="M120.486 24.5135C120.396 24.5541 120.293 24.5538 120.204 24.513C120.244 24.6025 120.244 24.7057 120.204 24.7952C120.293 24.7546 120.396 24.7549 120.486 24.7955C120.445 24.7063 120.445 24.603 120.486 24.5135Z" fill="#FFF0D7"/>
<path d="M128.668 22.8215C128.4 22.9434 128.09 22.9436 127.822 22.8223C127.943 23.0907 127.943 23.4007 127.821 23.6686C128.089 23.5467 128.399 23.5461 128.667 23.6675C128.546 23.3994 128.546 23.0902 128.668 22.8215Z" fill="#FFF0D7"/>
<path d="M128.667 23.6678C128.738 23.8259 128.738 24.0084 128.666 24.1662C128.824 24.0943 129.007 24.094 129.165 24.1657C129.093 24.0076 129.094 23.8256 129.165 23.6675C129.007 23.7391 128.825 23.7394 128.667 23.6678Z" fill="#FFF0D7"/>
<path d="M129.513 24.5133C129.553 24.6027 129.553 24.706 129.512 24.7955C129.601 24.7549 129.705 24.7547 129.794 24.7952C129.754 24.7057 129.754 24.6027 129.794 24.5133C129.705 24.5535 129.602 24.5538 129.513 24.5133Z" fill="#FFF0D7"/>
<path d="M121.331 16.3321C121.452 16.6005 121.452 16.9097 121.33 17.1784C121.598 17.0565 121.908 17.0562 122.176 17.1776C122.055 16.9092 122.056 16.5992 122.178 16.3313C121.909 16.4532 121.599 16.4537 121.331 16.3321Z" fill="#FFF0D7"/>
<path d="M121.331 16.3321C121.259 16.174 121.26 15.9915 121.331 15.8337C121.173 15.9056 120.991 15.9058 120.833 15.8342C120.904 15.9923 120.904 16.1743 120.833 16.3324C120.99 16.2608 121.173 16.2608 121.331 16.3321Z" fill="#FFF0D7"/>
<path d="M120.204 15.2049C120.244 15.2944 120.244 15.3974 120.204 15.4869C120.293 15.4463 120.396 15.4461 120.486 15.4866C120.445 15.3971 120.445 15.2939 120.486 15.2044C120.397 15.2452 120.293 15.2452 120.204 15.2049Z" fill="#FFF0D7"/>
<path d="M145.999 12L144.042 18.0431L137.999 20.0001L144.042 21.957L145.999 28.0001L147.956 21.957L153.998 20.0001L147.956 18.0431L145.999 12ZM146.094 19.77V12.9117L147.771 18.0923L146.094 19.77ZM145.903 19.77L145.112 18.9789L144.226 18.0926L145.904 12.912V19.77H145.903ZM145.769 19.9049H138.911L144.091 18.2272L145.769 19.9049ZM145.769 20.0952L144.091 21.773L138.911 20.0952H145.769ZM145.112 21.021L145.903 20.2298V27.0881L144.226 21.9076L145.112 21.021ZM146.094 20.2298L147.771 21.9076L146.094 27.0881V20.2298ZM146.228 20.0952H153.087L147.906 21.773L146.228 20.0952ZM146.228 19.9049L147.906 18.2272L153.087 19.9049H146.228Z" fill="#FFF0D7"/>
<path d="M149.667 17.1784C149.546 16.91 149.545 16.6 149.666 16.3318C149.398 16.4532 149.089 16.4529 148.82 16.3313C148.942 16.5992 148.942 16.9089 148.821 17.1773C149.09 17.0557 149.399 17.0562 149.667 17.1784Z" fill="#FFF0D7"/>
<path d="M150.165 16.3327C150.093 16.1745 150.093 15.9921 150.164 15.8339C150.006 15.9056 149.824 15.9053 149.666 15.8337C149.738 15.9915 149.738 16.1737 149.667 16.3318C149.824 16.2602 150.007 16.2608 150.165 16.3327Z" fill="#FFF0D7"/>
<path d="M150.794 15.4869C150.754 15.3974 150.753 15.2941 150.794 15.2047C150.704 15.2452 150.601 15.245 150.512 15.2044C150.553 15.2936 150.553 15.3969 150.512 15.4863C150.602 15.4461 150.705 15.4463 150.794 15.4869Z" fill="#FFF0D7"/>
<path d="M143.176 22.8228C142.908 22.9442 142.598 22.9436 142.33 22.8215C142.452 23.0899 142.452 23.3999 142.331 23.668C142.599 23.5467 142.909 23.547 143.177 23.6686C143.055 23.401 143.055 23.0912 143.176 22.8228Z" fill="#FFF0D7"/>
<path d="M142.331 23.668C142.173 23.7397 141.99 23.7391 141.833 23.6672C141.904 23.8254 141.905 24.0078 141.833 24.1659C141.991 24.0943 142.173 24.0946 142.331 24.1662C142.26 24.0086 142.259 23.8262 142.331 23.668Z" fill="#FFF0D7"/>
<path d="M141.485 24.5135C141.396 24.5541 141.293 24.5538 141.203 24.513C141.244 24.6025 141.244 24.7057 141.203 24.7952C141.293 24.7546 141.396 24.7549 141.485 24.7955C141.445 24.7063 141.445 24.603 141.485 24.5135Z" fill="#FFF0D7"/>
<path d="M149.667 22.8215C149.4 22.9434 149.09 22.9436 148.821 22.8223C148.943 23.0907 148.942 23.4007 148.82 23.6686C149.088 23.5467 149.399 23.5461 149.667 23.6675C149.546 23.3994 149.546 23.0902 149.667 22.8215Z" fill="#FFF0D7"/>
<path d="M149.667 23.6678C149.738 23.8259 149.738 24.0084 149.666 24.1662C149.824 24.0943 150.006 24.094 150.164 24.1657C150.093 24.0076 150.093 23.8256 150.165 23.6675C150.007 23.7391 149.825 23.7394 149.667 23.6678Z" fill="#FFF0D7"/>
<path d="M150.512 24.5133C150.553 24.6027 150.552 24.706 150.511 24.7955C150.601 24.7549 150.704 24.7547 150.794 24.7952C150.753 24.7057 150.753 24.6027 150.794 24.5133C150.705 24.5535 150.601 24.5538 150.512 24.5133Z" fill="#FFF0D7"/>
<path d="M142.33 16.3321C142.452 16.6005 142.451 16.9097 142.33 17.1784C142.598 17.0565 142.907 17.0562 143.176 17.1776C143.055 16.9092 143.055 16.5992 143.177 16.3313C142.909 16.4532 142.599 16.4537 142.33 16.3321Z" fill="#FFF0D7"/>
<path d="M142.33 16.3321C142.259 16.174 142.259 15.9915 142.331 15.8337C142.173 15.9056 141.99 15.9058 141.832 15.8342C141.904 15.9923 141.904 16.1743 141.832 16.3324C141.99 16.2608 142.172 16.2608 142.33 16.3321Z" fill="#FFF0D7"/>
<path d="M141.203 15.2049C141.244 15.2944 141.244 15.3974 141.203 15.4869C141.292 15.4463 141.396 15.4461 141.485 15.4866C141.445 15.3971 141.445 15.2939 141.486 15.2044C141.396 15.2452 141.293 15.2452 141.203 15.2049Z" fill="#FFF0D7"/>
<path d="M12.728 24.8009V25.6689H25.286V24.8009H12.728ZM12.798 15.7149V16.5829H25.202V15.7149H12.798ZM13.764 22.7569V23.5969H24.39V22.7569H13.764ZM18.412 14.3009V25.2209H19.462V14.3009H18.412ZM23.284 13.3069C21.072 13.7129 17.11 13.9649 13.848 14.0489C13.946 14.2729 14.072 14.6369 14.072 14.8889C17.348 14.8189 21.338 14.5809 23.844 14.1189L23.284 13.3069ZM15.234 19.9429H22.808V21.0209H15.234V19.9429ZM15.234 18.1789H22.808V19.2429H15.234V18.1789ZM14.212 17.4229V21.7769H23.872V17.4229H14.212ZM26.63 20.8809V21.7629H39.37V20.8809H26.63ZM26.966 13.8389V14.7629H39.02V13.8389H26.966ZM31.488 19.4109C30.62 20.7829 29.318 22.6589 28.422 23.7929L29.416 24.1289C30.312 22.9809 31.6 21.1469 32.51 19.6909L31.488 19.4109ZM35.688 21.1889C34.568 23.9189 31.824 24.9129 26.826 25.1789C26.994 25.4169 27.162 25.7949 27.232 26.1029C32.482 25.7109 35.464 24.5629 36.696 21.4829L35.688 21.1889ZM29.178 23.6529C32.734 24.3109 36.164 25.2629 38.306 26.1449L38.936 25.2909C36.766 24.4369 33.168 23.4989 29.71 22.8829L29.178 23.6529ZM30.788 14.1889V19.0749H31.782V14.1889H30.788ZM34.05 14.1889V19.0749H35.044V14.1889H34.05ZM28.646 16.8209H37.382V18.7249H28.646V16.8209ZM27.666 15.9669V19.5929H38.432V15.9669H27.666ZM49.016 19.8309V25.4309H50.052V19.8309H49.016ZM45.936 19.4529V20.3769H53.174V19.4529H45.936ZM45.334 24.8009V25.7389H53.482V24.8009H45.334ZM46.272 22.0569V22.9669H52.852V22.0569H46.272ZM47.448 14.7209H51.662V17.3109H47.448V14.7209ZM46.468 13.8109V18.2209H52.684V13.8109H46.468ZM42.968 14.3849V26.0749H43.99V14.3849H42.968ZM40.672 17.1709V18.1649H45.754V17.1709H40.672ZM43.024 17.5489C42.52 19.2849 41.4 21.4689 40.392 22.5889C40.574 22.8269 40.826 23.2609 40.924 23.5549C42.002 22.2529 43.122 19.8029 43.682 17.8289L43.024 17.5489ZM45.04 13.4329C44.018 13.9089 42.17 14.3009 40.588 14.5669C40.714 14.8049 40.854 15.1409 40.91 15.3789C42.534 15.1549 44.494 14.7629 45.782 14.2449L45.04 13.4329ZM43.948 18.9769L43.458 19.3969C43.892 19.8869 44.942 21.2169 45.278 21.7909L45.894 20.9649C45.614 20.6149 44.298 19.2849 43.948 18.9769ZM57.15 17.1569V18.0249H67.104V17.1569H57.15ZM57.346 21.2449V22.1129H65.354V21.2449H57.346ZM59.404 15.9389V20.3489H64.836V15.9389H63.814V19.5089H60.398V15.9389H59.404ZM65.074 21.2449V21.3989C63.8 23.7929 60.342 24.8849 56.8 25.2209C56.968 25.4589 57.164 25.8509 57.248 26.1169C61.014 25.6409 64.598 24.4649 66.138 21.5529L65.48 21.1889L65.284 21.2449H65.074ZM59.838 21.9729L58.928 22.3089C60.454 24.4929 63.366 25.6829 66.838 26.1309C66.964 25.8649 67.23 25.4589 67.454 25.2349C64.066 24.8849 61.168 23.8349 59.838 21.9729ZM60.86 13.2369V15.1409H61.938V13.2369H60.86ZM56.198 14.6229V15.5749H67.202V14.6229H56.198ZM55.68 14.6229V18.6549C55.68 20.6989 55.582 23.5409 54.434 25.5429C54.672 25.6549 55.12 25.9489 55.302 26.1309C56.506 24.0029 56.688 20.8389 56.688 18.6549V14.6229H55.68Z" fill="#FFF0D7" fill-opacity="0.8"/>
<rect x="212.5" y="0.5" width="189" height="252" rx="9.5" fill="#1A2541" stroke="#9B9B9B" stroke-dasharray="4 4"/>
<path d="M308.005 204.732C308.005 204.271 307.631 203.897 307.17 203.897C306.708 203.897 306.335 204.271 306.335 204.732V224.063C306.335 224.526 306.71 224.898 307.17 224.898C307.631 224.898 308.005 224.523 308.005 224.063V204.732Z" fill="#FFF0D7" fill-opacity="0.1"/>
<path d="M309.313 199.947C309.8 198.772 309.242 197.424 308.067 196.937C306.891 196.45 305.544 197.008 305.057 198.184C304.57 199.359 305.128 200.707 306.304 201.194C307.479 201.681 308.826 201.123 309.313 199.947Z" fill="#FFF0D7" fill-opacity="0.1"/>
<path d="M307.17 105.527C307.631 105.527 308.005 105.152 308.005 104.692V85.3601C308.005 84.8999 307.631 84.525 307.17 84.525C306.708 84.525 306.335 84.8999 306.335 85.3601V104.692C306.335 105.154 306.708 105.527 307.17 105.527Z" fill="#FFF0D7" fill-opacity="0.1"/>
<path d="M307.17 112.654C308.442 112.654 309.474 111.622 309.474 110.35C309.474 109.078 308.442 108.046 307.17 108.046C305.898 108.046 304.867 109.078 304.867 110.35C304.867 111.622 305.898 112.654 307.17 112.654Z" fill="#FFF0D7" fill-opacity="0.1"/>
<path d="M237.835 155.549H257.162C257.622 155.549 257.997 155.174 257.997 154.714C257.997 154.251 257.622 153.879 257.162 153.879H237.835C237.372 153.879 237 154.254 237 154.714C237 155.174 237.372 155.549 237.835 155.549Z" fill="#FFF0D7" fill-opacity="0.1"/>
<path d="M264.958 155.584C265.445 154.408 264.887 153.061 263.711 152.574C262.536 152.087 261.189 152.645 260.702 153.821C260.215 154.996 260.773 156.344 261.948 156.831C263.124 157.318 264.471 156.759 264.958 155.584Z" fill="#FFF0D7" fill-opacity="0.1"/>
<path d="M376.506 153.877H357.179C356.717 153.877 356.344 154.251 356.344 154.712C356.344 155.172 356.719 155.547 357.179 155.547H376.506C376.966 155.547 377.341 155.172 377.341 154.712C377.341 154.251 376.966 153.877 376.506 153.877Z" fill="#FFF0D7" fill-opacity="0.1"/>
<path d="M351.901 156.976C353.157 156.772 354.009 155.589 353.806 154.333C353.602 153.077 352.419 152.224 351.163 152.428C349.908 152.632 349.055 153.815 349.259 155.071C349.462 156.327 350.645 157.18 351.901 156.976Z" fill="#FFF0D7" fill-opacity="0.1"/>
<path d="M307.417 188.02C314.611 188.02 321.436 185.692 327.154 181.289L329.28 179.652L326.602 179.792C326.255 179.811 325.907 179.818 325.565 179.818C311.964 179.818 300.899 168.555 300.899 154.709C300.899 142.467 309.55 132.246 320.952 130.04V149.084C320.952 149.089 320.954 149.093 320.954 149.098C320.629 149.793 320.233 150.448 319.775 151.053C318.746 150.911 317.731 150.624 316.765 150.185C317.204 151.148 317.491 152.161 317.633 153.193C316.803 153.82 315.883 154.334 314.891 154.709C315.883 155.079 316.803 155.594 317.633 156.221C317.491 157.246 317.206 158.254 316.772 159.212C317.731 158.778 318.741 158.493 319.766 158.351C320.392 159.179 320.907 160.097 321.279 161.084C321.651 160.097 322.166 159.179 322.792 158.353C323.824 158.498 324.839 158.785 325.805 159.227C325.366 158.263 325.079 157.248 324.934 156.218C325.764 155.592 326.685 155.079 327.676 154.709C326.685 154.337 325.762 153.822 324.932 153.196C325.074 152.168 325.359 151.155 325.793 150.194C324.83 150.631 323.817 150.916 322.79 151.058C322.335 150.455 321.941 149.805 321.616 149.115C321.616 149.105 321.618 149.096 321.618 149.086V129.923C322.904 129.712 324.22 129.601 325.563 129.601C325.957 129.601 326.284 129.608 326.595 129.624L329.277 129.767L327.147 128.13C321.431 123.731 314.609 121.406 307.417 121.406C289.362 121.406 274.672 136.348 274.672 154.714C274.672 173.08 289.362 188.02 307.417 188.02ZM307.417 123.076C313.378 123.076 319.075 124.763 324.038 127.976C310.223 128.782 299.227 140.467 299.227 154.714C299.227 168.961 310.223 180.643 324.04 181.448C319.078 184.663 313.38 186.349 307.417 186.349C290.282 186.349 276.342 172.157 276.342 154.714C276.342 137.269 290.284 123.076 307.417 123.076Z" fill="#FFF0D7" fill-opacity="0.1"/>
<path d="M253.179 133.238L271.01 140.702C271.083 140.733 271.161 140.749 271.237 140.756C269.603 145.093 268.706 149.798 268.706 154.712C268.706 159.739 269.643 164.548 271.351 168.968L253.611 176.242C253.184 176.418 252.98 176.904 253.156 177.331C253.289 177.654 253.599 177.851 253.929 177.851C254.033 177.851 254.142 177.83 254.244 177.789L271.987 170.515C273.801 174.681 276.311 178.468 279.364 181.718L266.033 195.052C265.706 195.379 265.706 195.908 266.033 196.233C266.197 196.397 266.41 196.478 266.624 196.478C266.837 196.478 267.051 196.397 267.214 196.233L280.536 182.909C283.688 185.991 287.353 188.535 291.387 190.387L284.124 207.745C283.946 208.17 284.146 208.661 284.573 208.839C284.677 208.884 284.786 208.903 284.895 208.903C285.223 208.903 285.533 208.711 285.666 208.39L292.922 191.049C297.332 192.845 302.142 193.835 307.175 193.835C312.083 193.835 316.779 192.893 321.099 191.182L328.115 208.302C328.248 208.625 328.559 208.822 328.888 208.822C328.993 208.822 329.102 208.801 329.206 208.76C329.633 208.585 329.837 208.098 329.662 207.671L322.638 190.535C326.882 188.632 330.724 185.972 334.002 182.724L347.136 195.861C347.3 196.025 347.513 196.105 347.727 196.105C347.94 196.105 348.154 196.025 348.317 195.861C348.645 195.534 348.645 195.004 348.317 194.679L335.165 181.524C338.127 178.326 340.566 174.624 342.345 170.558L359.473 177.728C359.577 177.773 359.686 177.792 359.795 177.792C360.123 177.792 360.433 177.6 360.566 177.279C360.744 176.855 360.543 176.363 360.118 176.185L342.983 169.013C344.7 164.581 345.644 159.756 345.644 154.712C345.644 149.993 344.819 145.464 343.305 141.271L360.858 134.073C361.285 133.897 361.489 133.411 361.314 132.984C361.138 132.557 360.649 132.353 360.225 132.529L342.705 139.713C340.938 135.397 338.429 131.47 335.345 128.094L348.692 114.744C349.02 114.417 349.02 113.888 348.692 113.562C348.365 113.235 347.836 113.235 347.511 113.562L334.192 126.884C330.976 123.655 327.207 120.996 323.044 119.069L330.15 102.082C330.328 101.657 330.127 101.166 329.702 100.988C329.277 100.81 328.786 101.012 328.609 101.436L321.509 118.402C317.078 116.587 312.242 115.584 307.178 115.584C302.189 115.584 297.422 116.554 293.043 118.319L285.96 101.035C285.785 100.608 285.298 100.404 284.872 100.58C284.445 100.756 284.241 101.242 284.416 101.669L291.511 118.979C287.35 120.875 283.581 123.501 280.358 126.694L266.852 113.185C266.524 112.858 265.998 112.858 265.67 113.185C265.343 113.513 265.343 114.042 265.67 114.367L279.195 127.895C276.136 131.198 273.635 135.036 271.845 139.259C271.79 139.219 271.733 139.181 271.667 139.155L253.836 131.691C253.412 131.513 252.921 131.712 252.743 132.139C252.553 132.571 252.755 133.06 253.179 133.238ZM307.168 117.259C312.156 117.259 316.917 118.277 321.26 120.115C321.346 120.22 321.452 120.308 321.585 120.365C321.69 120.41 321.799 120.429 321.908 120.429C321.929 120.429 321.948 120.426 321.969 120.424C334.911 126.234 343.967 139.416 343.967 154.712C343.967 175.365 327.461 192.167 307.171 192.167C286.883 192.167 270.376 175.365 270.376 154.712C270.376 134.059 286.881 117.259 307.168 117.259Z" fill="#FFF0D7" fill-opacity="0.1"/>
<path d="M295 12L293.043 18.0431L287 20.0001L293.043 21.957L295 28.0001L296.957 21.957L303 20.0001L296.957 18.0431L295 12ZM295.095 19.77V12.9117L296.773 18.0923L295.095 19.77ZM294.905 19.77L294.113 18.9789L293.227 18.0926L294.905 12.912V19.77H294.905ZM294.77 19.9049H287.912L293.092 18.2272L294.77 19.9049ZM294.77 20.0952L293.092 21.773L287.912 20.0952H294.77ZM294.113 21.021L294.905 20.2298V27.0881L293.227 21.9076L294.113 21.021ZM295.095 20.2298L296.773 21.9076L295.095 27.0881V20.2298ZM295.23 20.0952H302.088L296.907 21.773L295.23 20.0952ZM295.23 19.9049L296.907 18.2272L302.088 19.9049H295.23Z" fill="#FFF0D7"/>
<path d="M298.669 17.1784C298.547 16.91 298.546 16.6 298.668 16.3318C298.399 16.4532 298.09 16.4529 297.821 16.3313C297.943 16.5992 297.943 16.9089 297.822 17.1773C298.091 17.0557 298.401 17.0562 298.669 17.1784Z" fill="#FFF0D7"/>
<path d="M299.166 16.3327C299.094 16.1745 299.094 15.9921 299.166 15.8339C299.008 15.9056 298.826 15.9053 298.667 15.8337C298.739 15.9915 298.739 16.1737 298.668 16.3318C298.826 16.2602 299.008 16.2608 299.166 16.3327Z" fill="#FFF0D7"/>
<path d="M299.795 15.4869C299.755 15.3974 299.755 15.2941 299.795 15.2047C299.706 15.2452 299.603 15.245 299.513 15.2044C299.554 15.2936 299.554 15.3969 299.513 15.4863C299.603 15.4461 299.706 15.4463 299.795 15.4869Z" fill="#FFF0D7"/>
<path d="M292.178 22.8228C291.909 22.9442 291.599 22.9436 291.331 22.8215C291.453 23.0899 291.454 23.3999 291.332 23.668C291.601 23.5467 291.91 23.547 292.178 23.6686C292.056 23.401 292.056 23.0912 292.178 22.8228Z" fill="#FFF0D7"/>
<path d="M291.332 23.668C291.174 23.7397 290.992 23.7391 290.834 23.6672C290.906 23.8254 290.906 24.0078 290.834 24.1659C290.992 24.0943 291.174 24.0946 291.332 24.1662C291.261 24.0086 291.261 23.8262 291.332 23.668Z" fill="#FFF0D7"/>
<path d="M290.487 24.5135C290.397 24.5541 290.294 24.5538 290.204 24.513C290.245 24.6025 290.245 24.7057 290.205 24.7952C290.294 24.7546 290.397 24.7549 290.487 24.7955C290.446 24.7063 290.446 24.603 290.487 24.5135Z" fill="#FFF0D7"/>
<path d="M298.669 22.8215C298.401 22.9434 298.091 22.9436 297.823 22.8223C297.944 23.0907 297.943 23.4007 297.821 23.6686C298.09 23.5467 298.4 23.5461 298.668 23.6675C298.547 23.3994 298.547 23.0902 298.669 22.8215Z" fill="#FFF0D7"/>
<path d="M298.668 23.6678C298.739 23.8259 298.739 24.0084 298.667 24.1662C298.825 24.0943 299.008 24.094 299.166 24.1657C299.094 24.0076 299.094 23.8256 299.166 23.6675C299.008 23.7391 298.826 23.7394 298.668 23.6678Z" fill="#FFF0D7"/>
<path d="M299.513 24.5133C299.554 24.6027 299.554 24.706 299.513 24.7955C299.602 24.7549 299.705 24.7547 299.795 24.7952C299.754 24.7057 299.755 24.6027 299.795 24.5133C299.706 24.5535 299.603 24.5538 299.513 24.5133Z" fill="#FFF0D7"/>
<path d="M291.332 16.3321C291.453 16.6005 291.453 16.9097 291.331 17.1784C291.599 17.0565 291.909 17.0562 292.177 17.1776C292.056 16.9092 292.056 16.5992 292.178 16.3313C291.91 16.4532 291.6 16.4537 291.332 16.3321Z" fill="#FFF0D7"/>
<path d="M291.331 16.3321C291.26 16.174 291.26 15.9915 291.332 15.8337C291.174 15.9056 290.992 15.9058 290.834 15.8342C290.905 15.9923 290.905 16.1743 290.833 16.3324C290.991 16.2608 291.174 16.2608 291.331 16.3321Z" fill="#FFF0D7"/>
<path d="M290.205 15.2049C290.245 15.2944 290.245 15.3974 290.204 15.4869C290.294 15.4463 290.397 15.4461 290.486 15.4866C290.446 15.3971 290.446 15.2939 290.487 15.2044C290.397 15.2452 290.294 15.2452 290.205 15.2049Z" fill="#FFF0D7"/>
<path d="M315.999 12L314.042 18.0431L308 20.0001L314.042 21.957L315.999 28.0001L317.956 21.957L323.999 20.0001L317.956 18.0431L315.999 12ZM316.094 19.77V12.9117L317.772 18.0923L316.094 19.77ZM315.904 19.77L315.113 18.9789L314.227 18.0926L315.904 12.912V19.77H315.904ZM315.77 19.9049H308.911L314.092 18.2272L315.77 19.9049ZM315.77 20.0952L314.092 21.773L308.911 20.0952H315.77ZM315.113 21.021L315.904 20.2298V27.0881L314.226 21.9076L315.113 21.021ZM316.094 20.2298L317.772 21.9076L316.094 27.0881V20.2298ZM316.229 20.0952H323.087L317.907 21.773L316.229 20.0952ZM316.229 19.9049L317.907 18.2272L323.087 19.9049H316.229Z" fill="#FFF0D7"/>
<path d="M319.668 17.1784C319.546 16.91 319.546 16.5999 319.667 16.3318C319.399 16.4532 319.089 16.4529 318.821 16.3313C318.943 16.5991 318.943 16.9089 318.822 17.1773C319.09 17.0557 319.4 17.0562 319.668 17.1784Z" fill="#FFF0D7"/>
<path d="M320.165 16.3326C320.094 16.1745 320.093 15.992 320.165 15.8339C320.007 15.9055 319.825 15.9053 319.667 15.8336C319.739 15.9915 319.739 16.1737 319.667 16.3318C319.825 16.2602 320.008 16.2607 320.165 16.3326Z" fill="#FFF0D7"/>
<path d="M320.795 15.4868C320.754 15.3974 320.754 15.2941 320.794 15.2046C320.705 15.2452 320.602 15.2449 320.512 15.2044C320.553 15.2936 320.553 15.3968 320.513 15.4863C320.602 15.446 320.705 15.4463 320.795 15.4868Z" fill="#FFF0D7"/>
<path d="M313.177 22.8228C312.909 22.9442 312.599 22.9436 312.331 22.8215C312.453 23.0899 312.453 23.3999 312.332 23.668C312.6 23.5467 312.91 23.547 313.178 23.6686C313.056 23.401 313.056 23.0912 313.177 22.8228Z" fill="#FFF0D7"/>
<path d="M312.332 23.668C312.174 23.7397 311.991 23.7391 311.833 23.6672C311.905 23.8254 311.906 24.0078 311.834 24.1659C311.992 24.0943 312.174 24.0946 312.332 24.1662C312.261 24.0086 312.26 23.8262 312.332 23.668Z" fill="#FFF0D7"/>
<path d="M311.486 24.5135C311.397 24.5541 311.294 24.5538 311.204 24.513C311.245 24.6025 311.245 24.7057 311.204 24.7952C311.294 24.7546 311.397 24.7549 311.486 24.7955C311.446 24.7063 311.446 24.603 311.486 24.5135Z" fill="#FFF0D7"/>
<path d="M319.668 22.8214C319.4 22.9433 319.091 22.9436 318.822 22.8222C318.944 23.0906 318.943 23.4006 318.821 23.6685C319.089 23.5466 319.399 23.546 319.667 23.6674C319.546 23.3993 319.547 23.0901 319.668 22.8214Z" fill="#FFF0D7"/>
<path d="M319.667 23.6677C319.739 23.8258 319.738 24.0082 319.667 24.1661C319.825 24.0942 320.007 24.0939 320.165 24.1656C320.094 24.0074 320.094 23.8255 320.165 23.6674C320.008 23.739 319.825 23.7393 319.667 23.6677Z" fill="#FFF0D7"/>
<path d="M320.513 24.5132C320.553 24.6026 320.553 24.7059 320.512 24.7953C320.602 24.7548 320.705 24.7545 320.794 24.7951C320.754 24.7056 320.754 24.6026 320.795 24.5132C320.705 24.5534 320.602 24.5537 320.513 24.5132Z" fill="#FFF0D7"/>
<path d="M312.331 16.3321C312.453 16.6005 312.452 16.9097 312.331 17.1784C312.599 17.0565 312.908 17.0562 313.177 17.1776C313.055 16.9092 313.056 16.5992 313.178 16.3313C312.91 16.4532 312.6 16.4537 312.331 16.3321Z" fill="#FFF0D7"/>
<path d="M312.331 16.3321C312.26 16.174 312.26 15.9915 312.332 15.8337C312.174 15.9056 311.991 15.9058 311.833 15.8342C311.905 15.9923 311.905 16.1743 311.833 16.3324C311.991 16.2608 312.173 16.2608 312.331 16.3321Z" fill="#FFF0D7"/>
<path d="M311.204 15.2049C311.245 15.2944 311.245 15.3974 311.204 15.4869C311.293 15.4463 311.397 15.4461 311.486 15.4866C311.445 15.3971 311.446 15.2939 311.487 15.2044C311.397 15.2452 311.294 15.2452 311.204 15.2049Z" fill="#FFF0D7"/>
<path d="M336.999 12L335.042 18.0431L328.999 20.0001L335.042 21.957L336.999 28.0001L338.956 21.957L344.999 20.0001L338.956 18.0431L336.999 12ZM337.094 19.77V12.9117L338.772 18.0923L337.094 19.77ZM336.904 19.77L336.113 18.9789L335.226 18.0926L336.904 12.912V19.77H336.904ZM336.769 19.9049H329.911L335.092 18.2272L336.769 19.9049ZM336.769 20.0952L335.092 21.773L329.911 20.0952H336.769ZM336.113 21.021L336.904 20.2298V27.0881L335.226 21.9076L336.113 21.021ZM337.094 20.2298L338.772 21.9076L337.094 27.0881V20.2298ZM337.229 20.0952H344.087L338.907 21.773L337.229 20.0952ZM337.229 19.9049L338.907 18.2272L344.087 19.9049H337.229Z" fill="#FFF0D7"/>
<path d="M340.668 17.1784C340.546 16.91 340.546 16.6 340.667 16.3318C340.398 16.4532 340.089 16.4529 339.821 16.3313C339.942 16.5992 339.943 16.9089 339.821 17.1773C340.09 17.0557 340.4 17.0562 340.668 17.1784Z" fill="#FFF0D7"/>
<path d="M341.165 16.3327C341.094 16.1745 341.093 15.9921 341.165 15.8339C341.007 15.9056 340.825 15.9053 340.667 15.8337C340.739 15.9915 340.739 16.1737 340.667 16.3318C340.825 16.2602 341.008 16.2608 341.165 16.3327Z" fill="#FFF0D7"/>
<path d="M341.795 15.4869C341.754 15.3974 341.754 15.2941 341.794 15.2047C341.705 15.2452 341.602 15.245 341.512 15.2044C341.553 15.2936 341.553 15.3969 341.513 15.4863C341.602 15.4461 341.705 15.4463 341.795 15.4869Z" fill="#FFF0D7"/>
<path d="M334.177 22.8228C333.908 22.9442 333.598 22.9436 333.33 22.8215C333.452 23.0899 333.453 23.3999 333.331 23.668C333.6 23.5467 333.909 23.547 334.178 23.6686C334.056 23.401 334.055 23.0912 334.177 22.8228Z" fill="#FFF0D7"/>
<path d="M333.331 23.668C333.173 23.7397 332.991 23.7391 332.833 23.6672C332.905 23.8254 332.905 24.0078 332.834 24.1659C332.992 24.0943 333.174 24.0946 333.332 24.1662C333.26 24.0086 333.26 23.8262 333.331 23.668Z" fill="#FFF0D7"/>
<path d="M332.486 24.5135C332.396 24.5541 332.293 24.5538 332.204 24.513C332.244 24.6025 332.244 24.7057 332.204 24.7952C332.293 24.7546 332.396 24.7549 332.486 24.7955C332.445 24.7063 332.445 24.603 332.486 24.5135Z" fill="#FFF0D7"/>
<path d="M340.668 22.8215C340.4 22.9434 340.09 22.9436 339.822 22.8223C339.943 23.0907 339.943 23.4007 339.821 23.6686C340.089 23.5467 340.399 23.5461 340.667 23.6675C340.546 23.3994 340.546 23.0902 340.668 22.8215Z" fill="#FFF0D7"/>
<path d="M340.667 23.6678C340.738 23.8259 340.738 24.0084 340.666 24.1662C340.824 24.0943 341.007 24.094 341.165 24.1657C341.093 24.0076 341.094 23.8256 341.165 23.6675C341.007 23.7391 340.825 23.7394 340.667 23.6678Z" fill="#FFF0D7"/>
<path d="M341.513 24.5133C341.553 24.6027 341.553 24.706 341.512 24.7955C341.601 24.7549 341.705 24.7547 341.794 24.7952C341.754 24.7057 341.754 24.6027 341.794 24.5133C341.705 24.5535 341.602 24.5538 341.513 24.5133Z" fill="#FFF0D7"/>
<path d="M333.331 16.3321C333.452 16.6005 333.452 16.9097 333.33 17.1784C333.598 17.0565 333.908 17.0562 334.176 17.1776C334.055 16.9092 334.056 16.5992 334.178 16.3313C333.909 16.4532 333.599 16.4537 333.331 16.3321Z" fill="#FFF0D7"/>
<path d="M333.331 16.3321C333.259 16.174 333.26 15.9915 333.331 15.8337C333.173 15.9056 332.991 15.9058 332.833 15.8342C332.904 15.9923 332.904 16.1743 332.833 16.3324C332.99 16.2608 333.173 16.2608 333.331 16.3321Z" fill="#FFF0D7"/>
<path d="M332.204 15.2049C332.244 15.2944 332.244 15.3974 332.204 15.4869C332.293 15.4463 332.396 15.4461 332.486 15.4866C332.445 15.3971 332.445 15.2939 332.486 15.2044C332.397 15.2452 332.293 15.2452 332.204 15.2049Z" fill="#FFF0D7"/>
<path d="M224.728 24.8009V25.6689H237.286V24.8009H224.728ZM224.798 15.7149V16.5829H237.202V15.7149H224.798ZM225.764 22.7569V23.5969H236.39V22.7569H225.764ZM230.412 14.3009V25.2209H231.462V14.3009H230.412ZM235.284 13.3069C233.072 13.7129 229.11 13.9649 225.848 14.0489C225.946 14.2729 226.072 14.6369 226.072 14.8889C229.348 14.8189 233.338 14.5809 235.844 14.1189L235.284 13.3069ZM227.234 19.9429H234.808V21.0209H227.234V19.9429ZM227.234 18.1789H234.808V19.2429H227.234V18.1789ZM226.212 17.4229V21.7769H235.872V17.4229H226.212ZM238.63 20.8809V21.7629H251.37V20.8809H238.63ZM238.966 13.8389V14.7629H251.02V13.8389H238.966ZM243.488 19.4109C242.62 20.7829 241.318 22.6589 240.422 23.7929L241.416 24.1289C242.312 22.9809 243.6 21.1469 244.51 19.6909L243.488 19.4109ZM247.688 21.1889C246.568 23.9189 243.824 24.9129 238.826 25.1789C238.994 25.4169 239.162 25.7949 239.232 26.1029C244.482 25.7109 247.464 24.5629 248.696 21.4829L247.688 21.1889ZM241.178 23.6529C244.734 24.3109 248.164 25.2629 250.306 26.1449L250.936 25.2909C248.766 24.4369 245.168 23.4989 241.71 22.8829L241.178 23.6529ZM242.788 14.1889V19.0749H243.782V14.1889H242.788ZM246.05 14.1889V19.0749H247.044V14.1889H246.05ZM240.646 16.8209H249.382V18.7249H240.646V16.8209ZM239.666 15.9669V19.5929H250.432V15.9669H239.666ZM261.016 19.8309V25.4309H262.052V19.8309H261.016ZM257.936 19.4529V20.3769H265.174V19.4529H257.936ZM257.334 24.8009V25.7389H265.482V24.8009H257.334ZM258.272 22.0569V22.9669H264.852V22.0569H258.272ZM259.448 14.7209H263.662V17.3109H259.448V14.7209ZM258.468 13.8109V18.2209H264.684V13.8109H258.468ZM254.968 14.3849V26.0749H255.99V14.3849H254.968ZM252.672 17.1709V18.1649H257.754V17.1709H252.672ZM255.024 17.5489C254.52 19.2849 253.4 21.4689 252.392 22.5889C252.574 22.8269 252.826 23.2609 252.924 23.5549C254.002 22.2529 255.122 19.8029 255.682 17.8289L255.024 17.5489ZM257.04 13.4329C256.018 13.9089 254.17 14.3009 252.588 14.5669C252.714 14.8049 252.854 15.1409 252.91 15.3789C254.534 15.1549 256.494 14.7629 257.782 14.2449L257.04 13.4329ZM255.948 18.9769L255.458 19.3969C255.892 19.8869 256.942 21.2169 257.278 21.7909L257.894 20.9649C257.614 20.6149 256.298 19.2849 255.948 18.9769ZM269.15 17.1569V18.0249H279.104V17.1569H269.15ZM269.346 21.2449V22.1129H277.354V21.2449H269.346ZM271.404 15.9389V20.3489H276.836V15.9389H275.814V19.5089H272.398V15.9389H271.404ZM277.074 21.2449V21.3989C275.8 23.7929 272.342 24.8849 268.8 25.2209C268.968 25.4589 269.164 25.8509 269.248 26.1169C273.014 25.6409 276.598 24.4649 278.138 21.5529L277.48 21.1889L277.284 21.2449H277.074ZM271.838 21.9729L270.928 22.3089C272.454 24.4929 275.366 25.6829 278.838 26.1309C278.964 25.8649 279.23 25.4589 279.454 25.2349C276.066 24.8849 273.168 23.8349 271.838 21.9729ZM272.86 13.2369V15.1409H273.938V13.2369H272.86ZM268.198 14.6229V15.5749H279.202V14.6229H268.198ZM267.68 14.6229V18.6549C267.68 20.6989 267.582 23.5409 266.434 25.5429C266.672 25.6549 267.12 25.9489 267.302 26.1309C268.506 24.0029 268.688 20.8389 268.688 18.6549V14.6229H267.68Z" fill="#FFF0D7" fill-opacity="0.8"/>
<rect x="420.5" y="0.5" width="189" height="252" rx="9.5" fill="#1A2541" stroke="#9B9B9B" stroke-dasharray="4 4"/>
<path d="M516.005 204.732C516.005 204.271 515.631 203.897 515.17 203.897C514.708 203.897 514.335 204.271 514.335 204.732V224.063C514.335 224.526 514.71 224.898 515.17 224.898C515.631 224.898 516.005 224.523 516.005 224.063V204.732Z" fill="#FFF0D7" fill-opacity="0.1"/>
<path d="M517.313 199.947C517.8 198.772 517.242 197.424 516.067 196.937C514.891 196.45 513.544 197.008 513.057 198.184C512.57 199.359 513.128 200.707 514.304 201.194C515.479 201.681 516.826 201.123 517.313 199.947Z" fill="#FFF0D7" fill-opacity="0.1"/>
<path d="M515.17 105.527C515.631 105.527 516.005 105.152 516.005 104.692V85.3601C516.005 84.8999 515.631 84.525 515.17 84.525C514.708 84.525 514.335 84.8999 514.335 85.3601V104.692C514.335 105.154 514.708 105.527 515.17 105.527Z" fill="#FFF0D7" fill-opacity="0.1"/>
<path d="M515.17 112.654C516.442 112.654 517.474 111.622 517.474 110.35C517.474 109.078 516.442 108.046 515.17 108.046C513.898 108.046 512.867 109.078 512.867 110.35C512.867 111.622 513.898 112.654 515.17 112.654Z" fill="#FFF0D7" fill-opacity="0.1"/>
<path d="M445.835 155.549H465.162C465.622 155.549 465.997 155.174 465.997 154.714C465.997 154.251 465.622 153.879 465.162 153.879H445.835C445.372 153.879 445 154.254 445 154.714C445 155.174 445.372 155.549 445.835 155.549Z" fill="#FFF0D7" fill-opacity="0.1"/>
<path d="M472.958 155.584C473.445 154.408 472.887 153.061 471.711 152.574C470.536 152.087 469.189 152.645 468.702 153.821C468.215 154.996 468.773 156.344 469.948 156.831C471.124 157.318 472.471 156.759 472.958 155.584Z" fill="#FFF0D7" fill-opacity="0.1"/>
<path d="M584.506 153.877H565.179C564.717 153.877 564.344 154.251 564.344 154.712C564.344 155.172 564.719 155.547 565.179 155.547H584.506C584.966 155.547 585.341 155.172 585.341 154.712C585.341 154.251 584.966 153.877 584.506 153.877Z" fill="#FFF0D7" fill-opacity="0.1"/>
<path d="M559.901 156.976C561.157 156.772 562.009 155.589 561.806 154.333C561.602 153.077 560.419 152.224 559.163 152.428C557.908 152.632 557.055 153.815 557.259 155.071C557.462 156.327 558.645 157.18 559.901 156.976Z" fill="#FFF0D7" fill-opacity="0.1"/>
<path d="M515.417 188.02C522.611 188.02 529.436 185.692 535.154 181.289L537.28 179.652L534.602 179.792C534.255 179.811 533.907 179.818 533.565 179.818C519.964 179.818 508.899 168.555 508.899 154.709C508.899 142.467 517.55 132.246 528.952 130.04V149.084C528.952 149.089 528.954 149.093 528.954 149.098C528.629 149.793 528.233 150.448 527.775 151.053C526.746 150.911 525.731 150.624 524.765 150.185C525.204 151.148 525.491 152.161 525.633 153.193C524.803 153.82 523.883 154.334 522.891 154.709C523.883 155.079 524.803 155.594 525.633 156.221C525.491 157.246 525.206 158.254 524.772 159.212C525.731 158.778 526.741 158.493 527.766 158.351C528.392 159.179 528.907 160.097 529.279 161.084C529.651 160.097 530.166 159.179 530.792 158.353C531.824 158.498 532.839 158.785 533.805 159.227C533.366 158.263 533.079 157.248 532.934 156.218C533.764 155.592 534.685 155.079 535.676 154.709C534.685 154.337 533.762 153.822 532.932 153.196C533.074 152.168 533.359 151.155 533.793 150.194C532.83 150.631 531.817 150.916 530.79 151.058C530.335 150.455 529.941 149.805 529.616 149.115C529.616 149.105 529.618 149.096 529.618 149.086V129.923C530.904 129.712 532.22 129.601 533.563 129.601C533.957 129.601 534.284 129.608 534.595 129.624L537.277 129.767L535.147 128.13C529.431 123.731 522.609 121.406 515.417 121.406C497.362 121.406 482.672 136.348 482.672 154.714C482.672 173.08 497.362 188.02 515.417 188.02ZM515.417 123.076C521.378 123.076 527.075 124.763 532.038 127.976C518.223 128.782 507.227 140.467 507.227 154.714C507.227 168.961 518.223 180.643 532.04 181.448C527.078 184.663 521.38 186.349 515.417 186.349C498.282 186.349 484.342 172.157 484.342 154.714C484.342 137.269 498.284 123.076 515.417 123.076Z" fill="#FFF0D7" fill-opacity="0.1"/>
<path d="M461.179 133.238L479.01 140.702C479.083 140.733 479.161 140.749 479.237 140.756C477.603 145.093 476.706 149.798 476.706 154.712C476.706 159.739 477.643 164.548 479.351 168.968L461.611 176.242C461.184 176.418 460.98 176.904 461.156 177.331C461.289 177.654 461.599 177.851 461.929 177.851C462.033 177.851 462.142 177.83 462.244 177.789L479.987 170.515C481.801 174.681 484.311 178.468 487.364 181.718L474.033 195.052C473.706 195.379 473.706 195.908 474.033 196.233C474.197 196.397 474.41 196.478 474.624 196.478C474.837 196.478 475.051 196.397 475.214 196.233L488.536 182.909C491.688 185.991 495.353 188.535 499.387 190.387L492.124 207.745C491.946 208.17 492.146 208.661 492.573 208.839C492.677 208.884 492.786 208.903 492.895 208.903C493.223 208.903 493.533 208.711 493.666 208.39L500.922 191.049C505.332 192.845 510.142 193.835 515.175 193.835C520.083 193.835 524.779 192.893 529.099 191.182L536.115 208.302C536.248 208.625 536.559 208.822 536.888 208.822C536.993 208.822 537.102 208.801 537.206 208.76C537.633 208.585 537.837 208.098 537.662 207.671L530.638 190.535C534.882 188.632 538.724 185.972 542.002 182.724L555.136 195.861C555.3 196.025 555.513 196.105 555.727 196.105C555.94 196.105 556.154 196.025 556.317 195.861C556.645 195.534 556.645 195.004 556.317 194.679L543.165 181.524C546.127 178.326 548.566 174.624 550.345 170.558L567.473 177.728C567.577 177.773 567.686 177.792 567.795 177.792C568.123 177.792 568.433 177.6 568.566 177.279C568.744 176.855 568.543 176.363 568.118 176.185L550.983 169.013C552.7 164.581 553.644 159.756 553.644 154.712C553.644 149.993 552.819 145.464 551.305 141.271L568.858 134.073C569.285 133.897 569.489 133.411 569.314 132.984C569.138 132.557 568.649 132.353 568.225 132.529L550.705 139.713C548.938 135.397 546.429 131.47 543.345 128.094L556.692 114.744C557.02 114.417 557.02 113.888 556.692 113.562C556.365 113.235 555.836 113.235 555.511 113.562L542.192 126.884C538.976 123.655 535.207 120.996 531.044 119.069L538.15 102.082C538.328 101.657 538.127 101.166 537.702 100.988C537.277 100.81 536.786 101.012 536.609 101.436L529.509 118.402C525.078 116.587 520.242 115.584 515.178 115.584C510.189 115.584 505.422 116.554 501.043 118.319L493.96 101.035C493.785 100.608 493.298 100.404 492.872 100.58C492.445 100.756 492.241 101.242 492.416 101.669L499.511 118.979C495.35 120.875 491.581 123.501 488.358 126.694L474.852 113.185C474.524 112.858 473.998 112.858 473.67 113.185C473.343 113.513 473.343 114.042 473.67 114.367L487.195 127.895C484.136 131.198 481.635 135.036 479.845 139.259C479.79 139.219 479.733 139.181 479.667 139.155L461.836 131.691C461.412 131.513 460.921 131.712 460.743 132.139C460.553 132.571 460.755 133.06 461.179 133.238ZM515.168 117.259C520.156 117.259 524.917 118.277 529.26 120.115C529.346 120.22 529.452 120.308 529.585 120.365C529.69 120.41 529.799 120.429 529.908 120.429C529.929 120.429 529.948 120.426 529.969 120.424C542.911 126.234 551.967 139.416 551.967 154.712C551.967 175.365 535.461 192.167 515.171 192.167C494.883 192.167 478.376 175.365 478.376 154.712C478.376 134.059 494.881 117.259 515.168 117.259Z" fill="#FFF0D7" fill-opacity="0.1"/>
<path d="M503 12L501.043 18.0431L495 20.0001L501.043 21.957L503 28.0001L504.957 21.957L511 20.0001L504.957 18.0431L503 12ZM503.095 19.77V12.9117L504.773 18.0923L503.095 19.77ZM502.905 19.77L502.113 18.9789L501.227 18.0926L502.905 12.912V19.77H502.905ZM502.77 19.9049H495.912L501.092 18.2272L502.77 19.9049ZM502.77 20.0952L501.092 21.773L495.912 20.0952H502.77ZM502.113 21.021L502.905 20.2298V27.0881L501.227 21.9076L502.113 21.021ZM503.095 20.2298L504.773 21.9076L503.095 27.0881V20.2298ZM503.23 20.0952H510.088L504.907 21.773L503.23 20.0952ZM503.23 19.9049L504.907 18.2272L510.088 19.9049H503.23Z" fill="#FFF0D7"/>
<path d="M506.669 17.1784C506.547 16.91 506.546 16.6 506.668 16.3318C506.399 16.4532 506.09 16.4529 505.821 16.3313C505.943 16.5992 505.943 16.9089 505.822 17.1773C506.091 17.0557 506.401 17.0562 506.669 17.1784Z" fill="#FFF0D7"/>
<path d="M507.166 16.3327C507.094 16.1745 507.094 15.9921 507.166 15.8339C507.008 15.9056 506.826 15.9053 506.667 15.8337C506.739 15.9915 506.739 16.1737 506.668 16.3318C506.826 16.2602 507.008 16.2608 507.166 16.3327Z" fill="#FFF0D7"/>
<path d="M507.795 15.4869C507.755 15.3974 507.755 15.2941 507.795 15.2047C507.706 15.2452 507.603 15.245 507.513 15.2044C507.554 15.2936 507.554 15.3969 507.513 15.4863C507.603 15.4461 507.706 15.4463 507.795 15.4869Z" fill="#FFF0D7"/>
<path d="M500.178 22.8228C499.909 22.9442 499.599 22.9436 499.331 22.8215C499.453 23.0899 499.454 23.3999 499.332 23.668C499.601 23.5467 499.91 23.547 500.178 23.6686C500.056 23.401 500.056 23.0912 500.178 22.8228Z" fill="#FFF0D7"/>
<path d="M499.332 23.668C499.174 23.7397 498.992 23.7391 498.834 23.6672C498.906 23.8254 498.906 24.0078 498.834 24.1659C498.992 24.0943 499.174 24.0946 499.332 24.1662C499.261 24.0086 499.261 23.8262 499.332 23.668Z" fill="#FFF0D7"/>
<path d="M498.487 24.5135C498.397 24.5541 498.294 24.5538 498.204 24.513C498.245 24.6025 498.245 24.7057 498.205 24.7952C498.294 24.7546 498.397 24.7549 498.487 24.7955C498.446 24.7063 498.446 24.603 498.487 24.5135Z" fill="#FFF0D7"/>
<path d="M506.669 22.8215C506.401 22.9434 506.091 22.9436 505.823 22.8223C505.944 23.0907 505.943 23.4007 505.821 23.6686C506.09 23.5467 506.4 23.5461 506.668 23.6675C506.547 23.3994 506.547 23.0902 506.669 22.8215Z" fill="#FFF0D7"/>
<path d="M506.668 23.6678C506.739 23.8259 506.739 24.0084 506.667 24.1662C506.825 24.0943 507.008 24.094 507.166 24.1657C507.094 24.0076 507.094 23.8256 507.166 23.6675C507.008 23.7391 506.826 23.7394 506.668 23.6678Z" fill="#FFF0D7"/>
<path d="M507.513 24.5133C507.554 24.6027 507.554 24.706 507.513 24.7955C507.602 24.7549 507.705 24.7547 507.795 24.7952C507.754 24.7057 507.755 24.6027 507.795 24.5133C507.706 24.5535 507.603 24.5538 507.513 24.5133Z" fill="#FFF0D7"/>
<path d="M499.332 16.3321C499.453 16.6005 499.453 16.9097 499.331 17.1784C499.599 17.0565 499.909 17.0562 500.177 17.1776C500.056 16.9092 500.056 16.5992 500.178 16.3313C499.91 16.4532 499.6 16.4537 499.332 16.3321Z" fill="#FFF0D7"/>
<path d="M499.331 16.3321C499.26 16.174 499.26 15.9915 499.332 15.8337C499.174 15.9056 498.992 15.9058 498.834 15.8342C498.905 15.9923 498.905 16.1743 498.833 16.3324C498.991 16.2608 499.174 16.2608 499.331 16.3321Z" fill="#FFF0D7"/>
<path d="M498.205 15.2049C498.245 15.2944 498.245 15.3974 498.204 15.4869C498.294 15.4463 498.397 15.4461 498.486 15.4866C498.446 15.3971 498.446 15.2939 498.487 15.2044C498.397 15.2452 498.294 15.2452 498.205 15.2049Z" fill="#FFF0D7"/>
<path d="M523.999 12L522.042 18.0431L516 20.0001L522.042 21.957L523.999 28.0001L525.956 21.957L531.999 20.0001L525.956 18.0431L523.999 12ZM524.094 19.77V12.9117L525.772 18.0923L524.094 19.77ZM523.904 19.77L523.113 18.9789L522.227 18.0926L523.904 12.912V19.77H523.904ZM523.77 19.9049H516.911L522.092 18.2272L523.77 19.9049ZM523.77 20.0952L522.092 21.773L516.911 20.0952H523.77ZM523.113 21.021L523.904 20.2298V27.0881L522.226 21.9076L523.113 21.021ZM524.094 20.2298L525.772 21.9076L524.094 27.0881V20.2298ZM524.229 20.0952H531.087L525.907 21.773L524.229 20.0952ZM524.229 19.9049L525.907 18.2272L531.087 19.9049H524.229Z" fill="#FFF0D7"/>
<path d="M527.668 17.1784C527.546 16.91 527.546 16.5999 527.667 16.3318C527.399 16.4532 527.089 16.4529 526.821 16.3313C526.943 16.5991 526.943 16.9089 526.822 17.1773C527.09 17.0557 527.4 17.0562 527.668 17.1784Z" fill="#FFF0D7"/>
<path d="M528.166 16.3326C528.094 16.1745 528.094 15.992 528.165 15.8339C528.007 15.9055 527.825 15.9053 527.667 15.8336C527.739 15.9915 527.739 16.1737 527.668 16.3318C527.825 16.2602 528.008 16.2607 528.166 16.3326Z" fill="#FFF0D7"/>
<path d="M528.795 15.4868C528.754 15.3974 528.754 15.2941 528.795 15.2046C528.705 15.2452 528.602 15.2449 528.513 15.2044C528.553 15.2936 528.554 15.3968 528.513 15.4863C528.602 15.446 528.706 15.4463 528.795 15.4868Z" fill="#FFF0D7"/>
<path d="M521.177 22.8228C520.909 22.9442 520.599 22.9436 520.331 22.8215C520.452 23.0899 520.453 23.3999 520.332 23.668C520.6 23.5467 520.909 23.547 521.178 23.6686C521.056 23.401 521.056 23.0912 521.177 22.8228Z" fill="#FFF0D7"/>
<path d="M520.332 23.668C520.174 23.7397 519.991 23.7391 519.833 23.6672C519.905 23.8254 519.906 24.0078 519.834 24.1659C519.992 24.0943 520.174 24.0946 520.332 24.1662C520.261 24.0086 520.26 23.8262 520.332 23.668Z" fill="#FFF0D7"/>
<path d="M519.486 24.5135C519.397 24.5541 519.294 24.5538 519.204 24.513C519.245 24.6025 519.245 24.7057 519.204 24.7952C519.294 24.7546 519.397 24.7549 519.486 24.7955C519.446 24.7063 519.446 24.603 519.486 24.5135Z" fill="#FFF0D7"/>
<path d="M527.668 22.8214C527.4 22.9433 527.091 22.9436 526.822 22.8222C526.944 23.0906 526.943 23.4006 526.821 23.6685C527.089 23.5466 527.399 23.546 527.667 23.6674C527.546 23.3993 527.547 23.0901 527.668 22.8214Z" fill="#FFF0D7"/>
<path d="M527.667 23.6677C527.739 23.8258 527.738 24.0082 527.667 24.1661C527.825 24.0942 528.007 24.0939 528.165 24.1656C528.094 24.0074 528.094 23.8255 528.165 23.6674C528.008 23.739 527.825 23.7393 527.667 23.6677Z" fill="#FFF0D7"/>
<path d="M528.513 24.5132C528.553 24.6026 528.553 24.7059 528.512 24.7953C528.602 24.7548 528.705 24.7545 528.794 24.7951C528.754 24.7056 528.754 24.6026 528.795 24.5132C528.705 24.5534 528.602 24.5537 528.513 24.5132Z" fill="#FFF0D7"/>
<path d="M520.331 16.3321C520.452 16.6005 520.452 16.9097 520.331 17.1784C520.598 17.0565 520.908 17.0562 521.177 17.1776C521.055 16.9092 521.056 16.5992 521.178 16.3313C520.91 16.4532 520.6 16.4537 520.331 16.3321Z" fill="#FFF0D7"/>
<path d="M520.331 16.3321C520.26 16.174 520.26 15.9915 520.332 15.8337C520.174 15.9056 519.991 15.9058 519.833 15.8342C519.905 15.9923 519.905 16.1743 519.833 16.3324C519.991 16.2608 520.173 16.2608 520.331 16.3321Z" fill="#FFF0D7"/>
<path d="M519.204 15.2049C519.245 15.2944 519.245 15.3974 519.204 15.4869C519.293 15.4463 519.397 15.4461 519.486 15.4866C519.445 15.3971 519.446 15.2939 519.487 15.2044C519.397 15.2452 519.294 15.2452 519.204 15.2049Z" fill="#FFF0D7"/>
<path d="M432.728 24.8009V25.6689H445.286V24.8009H432.728ZM432.798 15.7149V16.5829H445.202V15.7149H432.798ZM433.764 22.7569V23.5969H444.39V22.7569H433.764ZM438.412 14.3009V25.2209H439.462V14.3009H438.412ZM443.284 13.3069C441.072 13.7129 437.11 13.9649 433.848 14.0489C433.946 14.2729 434.072 14.6369 434.072 14.8889C437.348 14.8189 441.338 14.5809 443.844 14.1189L443.284 13.3069ZM435.234 19.9429H442.808V21.0209H435.234V19.9429ZM435.234 18.1789H442.808V19.2429H435.234V18.1789ZM434.212 17.4229V21.7769H443.872V17.4229H434.212ZM446.63 20.8809V21.7629H459.37V20.8809H446.63ZM446.966 13.8389V14.7629H459.02V13.8389H446.966ZM451.488 19.4109C450.62 20.7829 449.318 22.6589 448.422 23.7929L449.416 24.1289C450.312 22.9809 451.6 21.1469 452.51 19.6909L451.488 19.4109ZM455.688 21.1889C454.568 23.9189 451.824 24.9129 446.826 25.1789C446.994 25.4169 447.162 25.7949 447.232 26.1029C452.482 25.7109 455.464 24.5629 456.696 21.4829L455.688 21.1889ZM449.178 23.6529C452.734 24.3109 456.164 25.2629 458.306 26.1449L458.936 25.2909C456.766 24.4369 453.168 23.4989 449.71 22.8829L449.178 23.6529ZM450.788 14.1889V19.0749H451.782V14.1889H450.788ZM454.05 14.1889V19.0749H455.044V14.1889H454.05ZM448.646 16.8209H457.382V18.7249H448.646V16.8209ZM447.666 15.9669V19.5929H458.432V15.9669H447.666ZM469.016 19.8309V25.4309H470.052V19.8309H469.016ZM465.936 19.4529V20.3769H473.174V19.4529H465.936ZM465.334 24.8009V25.7389H473.482V24.8009H465.334ZM466.272 22.0569V22.9669H472.852V22.0569H466.272ZM467.448 14.7209H471.662V17.3109H467.448V14.7209ZM466.468 13.8109V18.2209H472.684V13.8109H466.468ZM462.968 14.3849V26.0749H463.99V14.3849H462.968ZM460.672 17.1709V18.1649H465.754V17.1709H460.672ZM463.024 17.5489C462.52 19.2849 461.4 21.4689 460.392 22.5889C460.574 22.8269 460.826 23.2609 460.924 23.5549C462.002 22.2529 463.122 19.8029 463.682 17.8289L463.024 17.5489ZM465.04 13.4329C464.018 13.9089 462.17 14.3009 460.588 14.5669C460.714 14.8049 460.854 15.1409 460.91 15.3789C462.534 15.1549 464.494 14.7629 465.782 14.2449L465.04 13.4329ZM463.948 18.9769L463.458 19.3969C463.892 19.8869 464.942 21.2169 465.278 21.7909L465.894 20.9649C465.614 20.6149 464.298 19.2849 463.948 18.9769ZM477.15 17.1569V18.0249H487.104V17.1569H477.15ZM477.346 21.2449V22.1129H485.354V21.2449H477.346ZM479.404 15.9389V20.3489H484.836V15.9389H483.814V19.5089H480.398V15.9389H479.404ZM485.074 21.2449V21.3989C483.8 23.7929 480.342 24.8849 476.8 25.2209C476.968 25.4589 477.164 25.8509 477.248 26.1169C481.014 25.6409 484.598 24.4649 486.138 21.5529L485.48 21.1889L485.284 21.2449H485.074ZM479.838 21.9729L478.928 22.3089C480.454 24.4929 483.366 25.6829 486.838 26.1309C486.964 25.8649 487.23 25.4589 487.454 25.2349C484.066 24.8849 481.168 23.8349 479.838 21.9729ZM480.86 13.2369V15.1409H481.938V13.2369H480.86ZM476.198 14.6229V15.5749H487.202V14.6229H476.198ZM475.68 14.6229V18.6549C475.68 20.6989 475.582 23.5409 474.434 25.5429C474.672 25.6549 475.12 25.9489 475.302 26.1309C476.506 24.0029 476.688 20.8389 476.688 18.6549V14.6229H475.68Z" fill="#FFF0D7" fill-opacity="0.8"/>
<rect x="630.5" y="0.5" width="189" height="252" rx="9.5" fill="#1A2541" stroke="#9B9B9B" stroke-dasharray="4 4"/>
<path d="M726.005 204.732C726.005 204.271 725.631 203.897 725.17 203.897C724.708 203.897 724.335 204.271 724.335 204.732V224.063C724.335 224.526 724.71 224.898 725.17 224.898C725.631 224.898 726.005 224.523 726.005 224.063V204.732Z" fill="#FFF0D7" fill-opacity="0.1"/>
<path d="M727.313 199.947C727.8 198.772 727.242 197.424 726.067 196.937C724.891 196.45 723.544 197.008 723.057 198.184C722.57 199.359 723.128 200.707 724.304 201.194C725.479 201.681 726.826 201.123 727.313 199.947Z" fill="#FFF0D7" fill-opacity="0.1"/>
<path d="M725.17 105.527C725.631 105.527 726.005 105.152 726.005 104.692V85.3601C726.005 84.8999 725.631 84.525 725.17 84.525C724.708 84.525 724.335 84.8999 724.335 85.3601V104.692C724.335 105.154 724.708 105.527 725.17 105.527Z" fill="#FFF0D7" fill-opacity="0.1"/>
<path d="M725.17 112.654C726.442 112.654 727.474 111.622 727.474 110.35C727.474 109.078 726.442 108.046 725.17 108.046C723.898 108.046 722.867 109.078 722.867 110.35C722.867 111.622 723.898 112.654 725.17 112.654Z" fill="#FFF0D7" fill-opacity="0.1"/>
<path d="M655.835 155.549H675.162C675.622 155.549 675.997 155.174 675.997 154.714C675.997 154.251 675.622 153.879 675.162 153.879H655.835C655.372 153.879 655 154.254 655 154.714C655 155.174 655.372 155.549 655.835 155.549Z" fill="#FFF0D7" fill-opacity="0.1"/>
<path d="M682.958 155.584C683.444 154.408 682.886 153.061 681.711 152.574C680.536 152.087 679.189 152.645 678.702 153.821C678.215 154.996 678.773 156.344 679.948 156.831C681.123 157.318 682.471 156.759 682.958 155.584Z" fill="#FFF0D7" fill-opacity="0.1"/>
<path d="M794.506 153.877H775.179C774.717 153.877 774.344 154.251 774.344 154.712C774.344 155.172 774.719 155.547 775.179 155.547H794.506C794.966 155.547 795.341 155.172 795.341 154.712C795.341 154.251 794.966 153.877 794.506 153.877Z" fill="#FFF0D7" fill-opacity="0.1"/>
<path d="M769.901 156.976C771.157 156.772 772.009 155.589 771.806 154.333C771.602 153.077 770.419 152.224 769.163 152.428C767.908 152.632 767.055 153.815 767.259 155.071C767.462 156.327 768.645 157.18 769.901 156.976Z" fill="#FFF0D7" fill-opacity="0.1"/>
<path d="M725.417 188.02C732.611 188.02 739.436 185.692 745.154 181.289L747.28 179.652L744.602 179.792C744.255 179.811 743.907 179.818 743.565 179.818C729.964 179.818 718.899 168.555 718.899 154.709C718.899 142.467 727.55 132.246 738.952 130.04V149.084C738.952 149.089 738.954 149.093 738.954 149.098C738.629 149.793 738.233 150.448 737.775 151.053C736.746 150.911 735.731 150.624 734.765 150.185C735.204 151.148 735.491 152.161 735.633 153.193C734.803 153.82 733.883 154.334 732.891 154.709C733.883 155.079 734.803 155.594 735.633 156.221C735.491 157.246 735.206 158.254 734.772 159.212C735.731 158.778 736.741 158.493 737.766 158.351C738.392 159.179 738.907 160.097 739.279 161.084C739.651 160.097 740.166 159.179 740.792 158.353C741.824 158.498 742.839 158.785 743.805 159.227C743.366 158.263 743.079 157.248 742.934 156.218C743.764 155.592 744.685 155.079 745.676 154.709C744.685 154.337 743.762 153.822 742.932 153.196C743.074 152.168 743.359 151.155 743.793 150.194C742.83 150.631 741.817 150.916 740.79 151.058C740.335 150.455 739.941 149.805 739.616 149.115C739.616 149.105 739.618 149.096 739.618 149.086V129.923C740.904 129.712 742.22 129.601 743.563 129.601C743.957 129.601 744.284 129.608 744.595 129.624L747.277 129.767L745.147 128.13C739.431 123.731 732.609 121.406 725.417 121.406C707.362 121.406 692.672 136.348 692.672 154.714C692.672 173.08 707.362 188.02 725.417 188.02ZM725.417 123.076C731.378 123.076 737.075 124.763 742.038 127.976C728.223 128.782 717.227 140.467 717.227 154.714C717.227 168.961 728.223 180.643 742.04 181.448C737.078 184.663 731.38 186.349 725.417 186.349C708.282 186.349 694.342 172.157 694.342 154.714C694.342 137.269 708.284 123.076 725.417 123.076Z" fill="#FFF0D7" fill-opacity="0.1"/>
<path d="M671.179 133.238L689.01 140.702C689.083 140.733 689.161 140.749 689.237 140.756C687.603 145.093 686.706 149.798 686.706 154.712C686.706 159.739 687.643 164.548 689.351 168.968L671.611 176.242C671.184 176.418 670.98 176.904 671.156 177.331C671.289 177.654 671.599 177.851 671.929 177.851C672.033 177.851 672.142 177.83 672.244 177.789L689.987 170.515C691.801 174.681 694.311 178.468 697.364 181.718L684.033 195.052C683.706 195.379 683.706 195.908 684.033 196.233C684.197 196.397 684.41 196.478 684.624 196.478C684.837 196.478 685.051 196.397 685.214 196.233L698.536 182.909C701.688 185.991 705.353 188.535 709.387 190.387L702.124 207.745C701.946 208.17 702.146 208.661 702.573 208.839C702.677 208.884 702.786 208.903 702.895 208.903C703.223 208.903 703.533 208.711 703.666 208.39L710.922 191.049C715.332 192.845 720.142 193.835 725.175 193.835C730.083 193.835 734.779 192.893 739.099 191.182L746.115 208.302C746.248 208.625 746.559 208.822 746.888 208.822C746.993 208.822 747.102 208.801 747.206 208.76C747.633 208.585 747.837 208.098 747.662 207.671L740.638 190.535C744.882 188.632 748.724 185.972 752.002 182.724L765.136 195.861C765.3 196.025 765.513 196.105 765.727 196.105C765.94 196.105 766.154 196.025 766.317 195.861C766.645 195.534 766.645 195.004 766.317 194.679L753.165 181.524C756.127 178.326 758.566 174.624 760.345 170.558L777.473 177.728C777.577 177.773 777.686 177.792 777.795 177.792C778.123 177.792 778.433 177.6 778.566 177.279C778.744 176.855 778.543 176.363 778.118 176.185L760.983 169.013C762.7 164.581 763.644 159.756 763.644 154.712C763.644 149.993 762.819 145.464 761.305 141.271L778.858 134.073C779.285 133.897 779.489 133.411 779.314 132.984C779.138 132.557 778.649 132.353 778.225 132.529L760.705 139.713C758.938 135.397 756.429 131.47 753.345 128.094L766.692 114.744C767.02 114.417 767.02 113.888 766.692 113.562C766.365 113.235 765.836 113.235 765.511 113.562L752.192 126.884C748.976 123.655 745.207 120.996 741.044 119.069L748.15 102.082C748.328 101.657 748.127 101.166 747.702 100.988C747.277 100.81 746.786 101.012 746.609 101.436L739.509 118.402C735.078 116.587 730.242 115.584 725.178 115.584C720.189 115.584 715.422 116.554 711.043 118.319L703.96 101.035C703.785 100.608 703.298 100.404 702.872 100.58C702.445 100.756 702.241 101.242 702.416 101.669L709.511 118.979C705.35 120.875 701.581 123.501 698.358 126.694L684.852 113.185C684.524 112.858 683.998 112.858 683.67 113.185C683.343 113.513 683.343 114.042 683.67 114.367L697.195 127.895C694.136 131.198 691.635 135.036 689.845 139.259C689.79 139.219 689.733 139.181 689.667 139.155L671.836 131.691C671.412 131.513 670.921 131.712 670.743 132.139C670.553 132.571 670.755 133.06 671.179 133.238ZM725.168 117.259C730.156 117.259 734.917 118.277 739.26 120.115C739.346 120.22 739.452 120.308 739.585 120.365C739.69 120.41 739.799 120.429 739.908 120.429C739.929 120.429 739.948 120.426 739.969 120.424C752.911 126.234 761.967 139.416 761.967 154.712C761.967 175.365 745.461 192.167 725.171 192.167C704.883 192.167 688.376 175.365 688.376 154.712C688.376 134.059 704.881 117.259 725.168 117.259Z" fill="#FFF0D7" fill-opacity="0.1"/>
<path d="M713 12L711.043 18.0431L705 20.0001L711.043 21.957L713 28.0001L714.957 21.957L721 20.0001L714.957 18.0431L713 12ZM713.095 19.77V12.9117L714.773 18.0923L713.095 19.77ZM712.905 19.77L712.113 18.9789L711.227 18.0926L712.905 12.912V19.77H712.905ZM712.77 19.9049H705.912L711.092 18.2272L712.77 19.9049ZM712.77 20.0952L711.092 21.773L705.912 20.0952H712.77ZM712.113 21.021L712.905 20.2298V27.0881L711.227 21.9076L712.113 21.021ZM713.095 20.2298L714.773 21.9076L713.095 27.0881V20.2298ZM713.23 20.0952H720.088L714.907 21.773L713.23 20.0952ZM713.23 19.9049L714.907 18.2272L720.088 19.9049H713.23Z" fill="#FFF0D7"/>
<path d="M716.669 17.1784C716.547 16.91 716.546 16.6 716.668 16.3318C716.399 16.4532 716.09 16.4529 715.821 16.3313C715.943 16.5992 715.943 16.9089 715.822 17.1773C716.091 17.0557 716.401 17.0562 716.669 17.1784Z" fill="#FFF0D7"/>
<path d="M717.166 16.3327C717.094 16.1745 717.094 15.9921 717.166 15.8339C717.008 15.9056 716.826 15.9053 716.667 15.8337C716.739 15.9915 716.739 16.1737 716.668 16.3318C716.826 16.2602 717.008 16.2608 717.166 16.3327Z" fill="#FFF0D7"/>
<path d="M717.795 15.4869C717.755 15.3974 717.755 15.2941 717.795 15.2047C717.706 15.2452 717.603 15.245 717.513 15.2044C717.554 15.2936 717.554 15.3969 717.513 15.4863C717.603 15.4461 717.706 15.4463 717.795 15.4869Z" fill="#FFF0D7"/>
<path d="M710.178 22.8228C709.909 22.9442 709.599 22.9436 709.331 22.8215C709.453 23.0899 709.454 23.3999 709.332 23.668C709.601 23.5467 709.91 23.547 710.178 23.6686C710.056 23.401 710.056 23.0912 710.178 22.8228Z" fill="#FFF0D7"/>
<path d="M709.332 23.668C709.174 23.7397 708.991 23.7391 708.833 23.6672C708.905 23.8254 708.906 24.0078 708.834 24.1659C708.992 24.0943 709.174 24.0946 709.332 24.1662C709.261 24.0086 709.26 23.8262 709.332 23.668Z" fill="#FFF0D7"/>
<path d="M708.487 24.5135C708.397 24.5541 708.294 24.5538 708.205 24.513C708.245 24.6025 708.245 24.7057 708.205 24.7952C708.294 24.7546 708.397 24.7549 708.487 24.7955C708.446 24.7063 708.446 24.603 708.487 24.5135Z" fill="#FFF0D7"/>
<path d="M716.669 22.8215C716.401 22.9434 716.091 22.9436 715.823 22.8223C715.944 23.0907 715.943 23.4007 715.821 23.6686C716.09 23.5467 716.4 23.5461 716.668 23.6675C716.547 23.3994 716.547 23.0902 716.669 22.8215Z" fill="#FFF0D7"/>
<path d="M716.668 23.6678C716.739 23.8259 716.739 24.0084 716.667 24.1662C716.825 24.0943 717.008 24.094 717.166 24.1657C717.094 24.0076 717.094 23.8256 717.166 23.6675C717.008 23.7391 716.826 23.7394 716.668 23.6678Z" fill="#FFF0D7"/>
<path d="M717.513 24.5133C717.554 24.6027 717.554 24.706 717.513 24.7955C717.602 24.7549 717.705 24.7547 717.795 24.7952C717.754 24.7057 717.755 24.6027 717.795 24.5133C717.706 24.5535 717.603 24.5538 717.513 24.5133Z" fill="#FFF0D7"/>
<path d="M709.332 16.3321C709.453 16.6005 709.453 16.9097 709.331 17.1784C709.599 17.0565 709.909 17.0562 710.177 17.1776C710.056 16.9092 710.056 16.5992 710.178 16.3313C709.91 16.4532 709.6 16.4537 709.332 16.3321Z" fill="#FFF0D7"/>
<path d="M709.332 16.3321C709.26 16.174 709.261 15.9915 709.332 15.8337C709.174 15.9056 708.992 15.9058 708.834 15.8342C708.905 15.9923 708.905 16.1743 708.833 16.3324C708.991 16.2608 709.174 16.2608 709.332 16.3321Z" fill="#FFF0D7"/>
<path d="M708.205 15.2049C708.245 15.2944 708.245 15.3974 708.205 15.4869C708.294 15.4463 708.397 15.4461 708.487 15.4866C708.446 15.3971 708.446 15.2939 708.487 15.2044C708.398 15.2452 708.294 15.2452 708.205 15.2049Z" fill="#FFF0D7"/>
<path d="M642.728 24.8009V25.6689H655.286V24.8009H642.728ZM642.798 15.7149V16.5829H655.202V15.7149H642.798ZM643.764 22.7569V23.5969H654.39V22.7569H643.764ZM648.412 14.3009V25.2209H649.462V14.3009H648.412ZM653.284 13.3069C651.072 13.7129 647.11 13.9649 643.848 14.0489C643.946 14.2729 644.072 14.6369 644.072 14.8889C647.348 14.8189 651.338 14.5809 653.844 14.1189L653.284 13.3069ZM645.234 19.9429H652.808V21.0209H645.234V19.9429ZM645.234 18.1789H652.808V19.2429H645.234V18.1789ZM644.212 17.4229V21.7769H653.872V17.4229H644.212ZM656.63 20.8809V21.7629H669.37V20.8809H656.63ZM656.966 13.8389V14.7629H669.02V13.8389H656.966ZM661.488 19.4109C660.62 20.7829 659.318 22.6589 658.422 23.7929L659.416 24.1289C660.312 22.9809 661.6 21.1469 662.51 19.6909L661.488 19.4109ZM665.688 21.1889C664.568 23.9189 661.824 24.9129 656.826 25.1789C656.994 25.4169 657.162 25.7949 657.232 26.1029C662.482 25.7109 665.464 24.5629 666.696 21.4829L665.688 21.1889ZM659.178 23.6529C662.734 24.3109 666.164 25.2629 668.306 26.1449L668.936 25.2909C666.766 24.4369 663.168 23.4989 659.71 22.8829L659.178 23.6529ZM660.788 14.1889V19.0749H661.782V14.1889H660.788ZM664.05 14.1889V19.0749H665.044V14.1889H664.05ZM658.646 16.8209H667.382V18.7249H658.646V16.8209ZM657.666 15.9669V19.5929H668.432V15.9669H657.666ZM679.016 19.8309V25.4309H680.052V19.8309H679.016ZM675.936 19.4529V20.3769H683.174V19.4529H675.936ZM675.334 24.8009V25.7389H683.482V24.8009H675.334ZM676.272 22.0569V22.9669H682.852V22.0569H676.272ZM677.448 14.7209H681.662V17.3109H677.448V14.7209ZM676.468 13.8109V18.2209H682.684V13.8109H676.468ZM672.968 14.3849V26.0749H673.99V14.3849H672.968ZM670.672 17.1709V18.1649H675.754V17.1709H670.672ZM673.024 17.5489C672.52 19.2849 671.4 21.4689 670.392 22.5889C670.574 22.8269 670.826 23.2609 670.924 23.5549C672.002 22.2529 673.122 19.8029 673.682 17.8289L673.024 17.5489ZM675.04 13.4329C674.018 13.9089 672.17 14.3009 670.588 14.5669C670.714 14.8049 670.854 15.1409 670.91 15.3789C672.534 15.1549 674.494 14.7629 675.782 14.2449L675.04 13.4329ZM673.948 18.9769L673.458 19.3969C673.892 19.8869 674.942 21.2169 675.278 21.7909L675.894 20.9649C675.614 20.6149 674.298 19.2849 673.948 18.9769ZM687.15 17.1569V18.0249H697.104V17.1569H687.15ZM687.346 21.2449V22.1129H695.354V21.2449H687.346ZM689.404 15.9389V20.3489H694.836V15.9389H693.814V19.5089H690.398V15.9389H689.404ZM695.074 21.2449V21.3989C693.8 23.7929 690.342 24.8849 686.8 25.2209C686.968 25.4589 687.164 25.8509 687.248 26.1169C691.014 25.6409 694.598 24.4649 696.138 21.5529L695.48 21.1889L695.284 21.2449H695.074ZM689.838 21.9729L688.928 22.3089C690.454 24.4929 693.366 25.6829 696.838 26.1309C696.964 25.8649 697.23 25.4589 697.454 25.2349C694.066 24.8849 691.168 23.8349 689.838 21.9729ZM690.86 13.2369V15.1409H691.938V13.2369H690.86ZM686.198 14.6229V15.5749H697.202V14.6229H686.198ZM685.68 14.6229V18.6549C685.68 20.6989 685.582 23.5409 684.434 25.5429C684.672 25.6549 685.12 25.9489 685.302 26.1309C686.506 24.0029 686.688 20.8389 686.688 18.6549V14.6229H685.68Z" fill="#FFF0D7" fill-opacity="0.8"/>
</svg>
