<svg width="16" height="16" viewBox="0 0 16 16" fill="none" xmlns="http://www.w3.org/2000/svg">
<path d="M7.9998 0L6.04283 6.0431L0 8.00007L6.04283 9.95704L7.9998 16.0001L9.95677 9.95704L15.9996 8.00007L9.95677 6.0431L7.9998 0ZM8.09494 7.77004V0.911721L9.7727 6.09229L8.09494 7.77004ZM7.90465 7.77004L7.11349 6.97887L6.22717 6.09256L7.90492 0.911992V7.77004H7.90465ZM7.77004 7.90492H0.911721L6.09229 6.22717L7.77004 7.90492ZM7.77004 8.09521L6.09229 9.77297L0.911721 8.09521H7.77004ZM7.11349 9.02099L7.90465 8.22982V15.0881L6.2269 9.90758L7.11349 9.02099ZM8.09494 8.22982L9.7727 9.90758L8.09494 15.0881V8.22982ZM8.22955 8.09521H15.0879L9.90731 9.77297L8.22955 8.09521ZM8.22955 7.90492L9.90731 6.22717L15.0879 7.90492H8.22955Z" fill="#FFF0D7"/>
<path d="M11.6687 5.17842C11.5468 4.91001 11.5462 4.59998 11.6676 4.33184C11.3992 4.4532 11.09 4.45293 10.8213 4.3313C10.9432 4.59917 10.9435 4.90893 10.8221 5.17734C11.0908 5.0557 11.4005 5.05625 11.6687 5.17842Z" fill="#FFF0D7"/>
<path d="M12.1662 4.33259C12.0943 4.17447 12.094 3.99201 12.1656 3.83389C12.0075 3.90552 11.8256 3.90525 11.6675 3.83362C11.7394 3.99147 11.7394 4.17365 11.668 4.33178C11.8256 4.26015 12.0083 4.26069 12.1662 4.33259Z" fill="#FFF0D7"/>
<path d="M12.7954 3.48693C12.7548 3.39746 12.7546 3.29421 12.7951 3.20474C12.7056 3.24528 12.6027 3.24501 12.5132 3.20447C12.5537 3.29367 12.554 3.39692 12.5135 3.48639C12.6029 3.44611 12.7062 3.44638 12.7954 3.48693Z" fill="#FFF0D7"/>
<path d="M5.17764 10.8228C4.90923 10.9441 4.59919 10.9436 4.33105 10.8214C4.45296 11.0898 4.4535 11.3998 4.33214 11.668C4.60054 11.5466 4.90977 11.5469 5.17844 11.6685C5.05627 11.4009 5.056 11.0912 5.17764 10.8228Z" fill="#FFF0D7"/>
<path d="M4.33193 11.668C4.17381 11.7397 3.99135 11.7391 3.8335 11.6672C3.9054 11.8254 3.90567 12.0078 3.83404 12.1659C3.99216 12.0943 4.17408 12.0946 4.3322 12.1662C4.26057 12.0086 4.2603 11.8262 4.33193 11.668Z" fill="#FFF0D7"/>
<path d="M3.48678 12.5136C3.39731 12.5541 3.29406 12.5539 3.20459 12.5131C3.24513 12.6025 3.2454 12.7058 3.20486 12.7953C3.29433 12.7547 3.39731 12.755 3.48678 12.7955C3.44624 12.7063 3.44624 12.6031 3.48678 12.5136Z" fill="#FFF0D7"/>
<path d="M11.6687 10.8214C11.4008 10.9433 11.091 10.9436 10.8226 10.8222C10.944 11.0906 10.9435 11.4007 10.8213 11.6685C11.0897 11.5466 11.3997 11.5461 11.6679 11.6674C11.5468 11.3993 11.547 11.0901 11.6687 10.8214Z" fill="#FFF0D7"/>
<path d="M11.6678 11.6678C11.7392 11.8259 11.7389 12.0083 11.667 12.1662C11.8251 12.0943 12.0076 12.094 12.1657 12.1656C12.0941 12.0075 12.0943 11.8256 12.166 11.6675C12.0081 11.7391 11.8259 11.7394 11.6678 11.6678Z" fill="#FFF0D7"/>
<path d="M12.5132 12.5133C12.5538 12.6028 12.5535 12.706 12.5127 12.7955C12.6022 12.755 12.7054 12.7547 12.7949 12.7952C12.7543 12.7058 12.7546 12.6028 12.7952 12.5133C12.706 12.5536 12.6027 12.5539 12.5132 12.5133Z" fill="#FFF0D7"/>
<path d="M4.3316 4.33211C4.45296 4.60052 4.45269 4.90974 4.33105 5.17842C4.59892 5.05652 4.90869 5.05624 5.17709 5.17761C5.05573 4.9092 5.05627 4.59917 5.17844 4.3313C4.91004 4.4532 4.6 4.45375 4.3316 4.33211Z" fill="#FFF0D7"/>
<path d="M4.33166 4.33205C4.26003 4.17392 4.26057 3.99147 4.33247 3.83362C4.17435 3.90552 3.99189 3.90579 3.83377 3.83416C3.9054 3.99228 3.90513 4.17419 3.8335 4.33232C3.99135 4.26069 4.17381 4.26069 4.33166 4.33205Z" fill="#FFF0D7"/>
<path d="M3.20486 3.20501C3.2454 3.29448 3.24513 3.39746 3.20459 3.48693C3.29379 3.44638 3.39704 3.44611 3.48651 3.48666C3.44597 3.39719 3.44624 3.29394 3.48705 3.20447C3.39758 3.24528 3.29433 3.24528 3.20486 3.20501Z" fill="#FFF0D7"/>
</svg>
