<svg width="138" height="137" viewBox="0 0 138 137" fill="none" xmlns="http://www.w3.org/2000/svg">
<path d="M42.226 1.00003H94.774C94.774 24.5253 113.232 43.5977 136 43.5977L136 93.4057C113.232 93.4057 94.774 112.475 94.774 136H42.226C42.226 112.475 23.7677 93.4057 1 93.4057L1.00006 43.5977C23.7678 43.5977 42.226 24.5253 42.226 1.00003Z" stroke="#D7B676" stroke-width="2" stroke-miterlimit="10"/>
<path d="M1 37.5205L1 1.00014L36.3444 1.00014" stroke="#D7B676" stroke-width="2" stroke-miterlimit="10"/>
<path d="M25.9919 27.3672L1 1.54377" stroke="#D7B676" stroke-width="2" stroke-miterlimit="10"/>
<path d="M13.9963 35.9131L1.59399 2.19119" stroke="#D7B676" stroke-width="2" stroke-miterlimit="10"/>
<path d="M33.6747 16.23L2.03613 1.54377" stroke="#D7B676" stroke-width="2" stroke-miterlimit="10"/>
<path d="M36.3444 136H1L1 99.0002" stroke="#D7B676" stroke-width="2" stroke-miterlimit="10"/>
<path d="M26.518 109.837L1.52612 136" stroke="#D7B676" stroke-width="2" stroke-miterlimit="10"/>
<path d="M34.7884 122.393L2.15234 135.378" stroke="#D7B676" stroke-width="2" stroke-miterlimit="10"/>
<path d="M15.7362 101.794L1.52612 134.912" stroke="#D7B676" stroke-width="2" stroke-miterlimit="10"/>
<path d="M101 1.00014L136.344 1.00014V37.5205" stroke="#D7B676" stroke-width="2" stroke-miterlimit="10"/>
<path d="M110.826 26.8237L135.818 1.00029" stroke="#D7B676" stroke-width="2" stroke-miterlimit="10"/>
<path d="M102.553 14.4287L135.192 1.61373" stroke="#D7B676" stroke-width="2" stroke-miterlimit="10"/>
<path d="M121.605 34.7656L135.818 2.0744" stroke="#D7B676" stroke-width="2" stroke-miterlimit="10"/>
<path d="M136.344 99.4796V136H101" stroke="#D7B676" stroke-width="2" stroke-miterlimit="10"/>
<path d="M111.353 109.633L136.344 135.457" stroke="#D7B676" stroke-width="2" stroke-miterlimit="10"/>
<path d="M123.345 101.084L135.751 134.81" stroke="#D7B676" stroke-width="2" stroke-miterlimit="10"/>
<path d="M103.667 120.77L135.305 135.457" stroke="#D7B676" stroke-width="2" stroke-miterlimit="10"/>
</svg>
