<svg width="486" height="332" viewBox="0 0 486 332" fill="none" xmlns="http://www.w3.org/2000/svg">
<rect width="486" height="332" fill="#1A2541"/>
<path d="M243.684 236.45C243.684 235.798 243.152 235.266 242.5 235.266C241.844 235.266 241.316 235.798 241.316 236.45V263.862C241.316 264.518 241.847 265.046 242.5 265.046C243.152 265.046 243.684 264.514 243.684 263.862V236.45Z" fill="#FFF0D7" fill-opacity="0.05"/>
<path d="M245.538 229.666C246.228 227.999 245.437 226.088 243.771 225.398C242.104 224.707 240.194 225.499 239.504 227.166C238.813 228.832 239.605 230.743 241.271 231.434C242.937 232.124 244.848 231.333 245.538 229.666Z" fill="#FFF0D7" fill-opacity="0.05"/>
<path d="M242.5 95.7798C243.152 95.7798 243.684 95.2483 243.684 94.5956V67.1842C243.684 66.5315 243.152 66 242.5 66C241.844 66 241.316 66.5315 241.316 67.1842V94.5956C241.316 95.2517 241.844 95.7798 242.5 95.7798Z" fill="#FFF0D7" fill-opacity="0.05"/>
<path d="M242.5 105.886C244.304 105.886 245.766 104.423 245.766 102.619C245.766 100.815 244.304 99.3525 242.5 99.3525C240.696 99.3525 239.234 100.815 239.234 102.619C239.234 104.423 240.696 105.886 242.5 105.886Z" fill="#FFF0D7" fill-opacity="0.05"/>
<path d="M144.184 166.711H171.589C172.242 166.711 172.773 166.179 172.773 165.526C172.773 164.87 172.242 164.342 171.589 164.342H144.184C143.528 164.342 143 164.874 143 165.526C143 166.179 143.528 166.711 144.184 166.711Z" fill="#FFF0D7" fill-opacity="0.05"/>
<path d="M182.643 166.76C183.334 165.093 182.542 163.182 180.876 162.491C179.209 161.801 177.299 162.592 176.609 164.259C175.918 165.926 176.71 167.837 178.376 168.527C180.043 169.218 181.953 168.426 182.643 166.76Z" fill="#FFF0D7" fill-opacity="0.05"/>
<path d="M340.816 164.339H313.411C312.755 164.339 312.227 164.87 312.227 165.523C312.227 166.176 312.758 166.707 313.411 166.707H340.816C341.469 166.707 342 166.176 342 165.523C342 164.87 341.469 164.339 340.816 164.339Z" fill="#FFF0D7" fill-opacity="0.05"/>
<path d="M305.927 168.734C307.708 168.445 308.917 166.767 308.628 164.986C308.339 163.205 306.661 161.996 304.881 162.285C303.1 162.574 301.891 164.252 302.18 166.033C302.469 167.813 304.147 169.023 305.927 168.734Z" fill="#FFF0D7" fill-opacity="0.05"/>
<path d="M242.85 212.753C253.051 212.753 262.727 209.453 270.837 203.209L273.85 200.887L270.053 201.086C269.562 201.113 269.068 201.123 268.583 201.123C249.297 201.123 233.607 185.153 233.607 165.52C233.607 148.16 245.873 133.667 262.041 130.539V157.543C262.041 157.55 262.045 157.557 262.045 157.563C261.584 158.549 261.022 159.477 260.373 160.335C258.913 160.133 257.474 159.726 256.105 159.104C256.727 160.47 257.134 161.906 257.336 163.37C256.159 164.258 254.854 164.988 253.448 165.52C254.854 166.044 256.159 166.774 257.336 167.663C257.134 169.116 256.731 170.546 256.115 171.905C257.474 171.289 258.907 170.885 260.36 170.684C261.248 171.858 261.977 173.16 262.505 174.559C263.034 173.16 263.763 171.858 264.651 170.687C266.114 170.892 267.554 171.299 268.923 171.925C268.301 170.559 267.894 169.119 267.688 167.659C268.866 166.771 270.171 166.044 271.577 165.52C270.171 164.991 268.862 164.261 267.685 163.373C267.887 161.917 268.291 160.48 268.906 159.117C267.541 159.736 266.104 160.14 264.648 160.342C264.002 159.488 263.444 158.566 262.983 157.587C262.983 157.573 262.986 157.56 262.986 157.546V130.374C264.809 130.074 266.676 129.916 268.58 129.916C269.138 129.916 269.602 129.926 270.043 129.95L273.847 130.152L270.827 127.831C262.721 121.593 253.048 118.296 242.85 118.296C217.247 118.296 196.418 139.484 196.418 165.526C196.418 191.569 217.247 212.753 242.85 212.753ZM242.85 120.665C251.302 120.665 259.381 123.057 266.417 127.612C246.829 128.756 231.236 145.324 231.236 165.526C231.236 185.728 246.829 202.294 266.42 203.434C259.384 207.992 251.305 210.384 242.85 210.384C218.552 210.384 198.786 190.26 198.786 165.526C198.786 140.789 218.556 120.665 242.85 120.665Z" fill="#FFF0D7" fill-opacity="0.05"/>
<path d="M165.942 135.074L191.225 145.657C191.329 145.701 191.44 145.725 191.548 145.735C189.23 151.885 187.959 158.556 187.959 165.523C187.959 172.652 189.287 179.471 191.709 185.738L166.554 196.053C165.949 196.302 165.659 196.992 165.908 197.597C166.097 198.055 166.537 198.334 167.005 198.334C167.153 198.334 167.307 198.304 167.452 198.247L192.61 187.932C195.183 193.839 198.742 199.209 203.071 203.818L184.168 222.724C183.704 223.189 183.704 223.939 184.168 224.4C184.4 224.632 184.703 224.746 185.006 224.746C185.308 224.746 185.611 224.632 185.843 224.4L204.732 205.506C209.202 209.877 214.399 213.483 220.12 216.11L209.821 240.723C209.569 241.325 209.851 242.021 210.457 242.274C210.605 242.338 210.759 242.365 210.914 242.365C211.378 242.365 211.819 242.092 212.007 241.638L222.296 217.049C228.548 219.596 235.369 220.999 242.507 220.999C249.466 220.999 256.125 219.663 262.25 217.237L272.199 241.513C272.387 241.971 272.828 242.25 273.295 242.25C273.443 242.25 273.598 242.22 273.746 242.163C274.351 241.914 274.641 241.224 274.392 240.619L264.433 216.319C270.45 213.621 275.899 209.85 280.547 205.244L299.17 223.872C299.402 224.104 299.705 224.218 300.008 224.218C300.31 224.218 300.613 224.104 300.845 223.872C301.309 223.407 301.309 222.657 300.845 222.196L282.195 203.542C286.396 199.007 289.853 193.759 292.376 187.992L316.663 198.159C316.811 198.223 316.966 198.25 317.121 198.25C317.585 198.25 318.025 197.977 318.214 197.523C318.466 196.921 318.18 196.225 317.578 195.972L293.281 185.802C295.716 179.518 297.055 172.675 297.055 165.523C297.055 158.832 295.884 152.409 293.738 146.465L318.628 136.258C319.233 136.009 319.522 135.319 319.273 134.714C319.024 134.108 318.331 133.819 317.729 134.068L292.887 144.255C290.382 138.135 286.823 132.567 282.451 127.78L301.377 108.85C301.841 108.386 301.841 107.635 301.377 107.174C300.912 106.71 300.162 106.71 299.702 107.174L280.816 126.064C276.255 121.486 270.911 117.714 265.008 114.983L275.085 90.8951C275.337 90.2929 275.051 89.5965 274.449 89.3442C273.847 89.0919 273.151 89.3779 272.898 89.9801L262.832 114.037C256.549 111.464 249.691 110.041 242.51 110.041C235.437 110.041 228.676 111.417 222.467 113.92L212.424 89.4115C212.175 88.806 211.486 88.5166 210.88 88.7656C210.275 89.0145 209.986 89.7042 210.235 90.3098L220.295 114.855C214.395 117.543 209.051 121.267 204.48 125.795L185.329 106.64C184.864 106.175 184.118 106.175 183.654 106.64C183.189 107.104 183.189 107.854 183.654 108.315L202.832 127.498C198.493 132.18 194.948 137.624 192.409 143.612C192.331 143.555 192.251 143.501 192.156 143.464L166.873 132.88C166.271 132.628 165.575 132.911 165.323 133.516C165.054 134.128 165.34 134.821 165.942 135.074ZM242.497 112.416C249.57 112.416 256.32 113.859 262.479 116.466C262.6 116.614 262.751 116.739 262.939 116.82C263.087 116.884 263.242 116.91 263.397 116.91C263.427 116.91 263.454 116.907 263.484 116.904C281.835 125.143 294.677 143.834 294.677 165.523C294.677 194.808 271.271 218.634 242.5 218.634C213.733 218.634 190.327 194.808 190.327 165.523C190.327 136.238 213.729 112.416 242.497 112.416Z" fill="#FFF0D7" fill-opacity="0.05"/>
</svg>
