<svg width="156" height="155" viewBox="0 0 156 155" fill="none" xmlns="http://www.w3.org/2000/svg">
<g clip-path="url(#clip0_21147_4188)">
<path d="M154.88 77.14C154.88 81.44 154.52 85.66 153.84 89.77C147.78 126.12 115.98 153.84 77.6697 153.84C35.0197 153.84 0.449707 119.5 0.449707 77.14C0.449707 34.78 35.0197 0.429993 77.6697 0.429993C116.69 0.429993 148.95 29.18 154.15 66.53C154.63 70 154.88 73.54 154.88 77.14Z" fill="#00022B"/>
<path d="M77.6598 154.28C56.9198 154.28 37.4198 146.26 22.7498 131.69C8.07977 117.12 0.00976562 97.75 0.00976562 77.14C0.00976562 56.53 8.08977 37.16 22.7498 22.59C37.4198 8.02 56.9198 0 77.6598 0C96.5198 0 114.71 6.8 128.87 19.15C142.9 31.39 152.03 48.19 154.58 66.47C155.07 69.97 155.32 73.56 155.32 77.14C155.32 81.4 154.97 85.67 154.27 89.84C151.3 107.65 142.02 123.96 128.13 135.77C114.09 147.71 96.1698 154.28 77.6598 154.28ZM77.6598 0.87C57.1498 0.87 37.8698 8.8 23.3698 23.21C8.86977 37.61 0.889766 56.77 0.889766 77.14C0.889766 97.51 8.87976 116.66 23.3798 131.07C37.8798 145.48 57.1598 153.41 77.6698 153.41C95.9598 153.41 113.68 146.91 127.56 135.11C141.29 123.44 150.47 107.31 153.4 89.7C154.09 85.57 154.44 81.35 154.44 77.14C154.44 73.6 154.2 70.05 153.71 66.59C151.19 48.52 142.17 31.91 128.3 19.81C114.3 7.59 96.3098 0.87 77.6598 0.87Z" fill="url(#paint0_linear_21147_4188)"/>
<path d="M77.66 148.86C58.37 148.86 40.24 141.4 26.61 127.85C12.97 114.3 5.45996 96.29 5.45996 77.13C5.45996 57.97 12.97 39.96 26.61 26.41C40.25 12.86 58.38 5.40002 77.66 5.40002C96.94 5.40002 115.08 12.86 128.71 26.41C142.35 39.96 149.86 57.97 149.86 77.13C149.86 96.29 142.35 114.3 128.71 127.85C115.08 141.4 96.95 148.86 77.66 148.86V148.86ZM77.66 6.29002C58.61 6.29002 40.7 13.66 27.23 27.04C13.76 40.42 6.33996 58.21 6.33996 77.14C6.33996 96.07 13.76 113.86 27.23 127.24C40.7 140.62 58.61 147.99 77.66 147.99C96.71 147.99 114.62 140.62 128.09 127.24C141.56 113.86 148.98 96.07 148.98 77.14C148.98 58.21 141.56 40.42 128.09 27.04C114.62 13.66 96.71 6.29002 77.66 6.29002V6.29002Z" fill="url(#paint1_linear_21147_4188)"/>
<path d="M76.4298 153.5L5.83984 83.11L6.45984 82.5L77.0499 152.89L76.4298 153.5Z" fill="url(#paint2_linear_21147_4188)"/>
<path d="M77.0497 153.51L76.4297 152.88L148.87 82.49L149.48 83.12L77.0497 153.51Z" fill="url(#paint3_linear_21147_4188)"/>
<path d="M78.3799 153.45C74.0499 153.45 69.7999 153.09 65.6599 152.41L70.5499 151.19L65.6499 146.48L72.2099 148.34L70.3399 141.82L75.0799 146.69L76.7299 140.12L78.3899 146.69L83.1299 141.82L81.2599 148.34L87.8199 146.48L82.9199 151.19L89.0599 152.71C85.5699 153.21 81.9999 153.45 78.3799 153.45V153.45Z" fill="#00022B"/>
<path d="M78.38 153.89C74.1 153.89 69.79 153.54 65.59 152.85L63.5 152.51L69.68 150.98L64.09 145.6L71.58 147.72L69.44 140.28L74.85 145.84L76.74 138.34L78.63 145.84L84.04 140.28L81.9 147.72L89.39 145.6L83.79 150.98L91.36 152.86L89.11 153.17C85.59 153.64 81.98 153.89 78.38 153.89V153.89ZM67.9 152.31C74.1 153.15 80.46 153.24 86.66 152.58L82.05 151.43L86.26 147.38L80.63 148.98L82.24 143.38L78.17 147.56L76.75 141.92L75.33 147.56L71.26 143.38L72.87 148.98L67.24 147.38L71.45 151.43L67.9 152.31Z" fill="url(#paint4_linear_21147_4188)"/>
<path d="M148.86 71.78L78.27 1.38997L78.9 0.779968L149.48 71.16L148.86 71.78Z" fill="url(#paint5_linear_21147_4188)"/>
<path d="M6.45984 71.78L5.83984 71.16L78.2798 0.769958L78.8898 1.39996L6.45984 71.78Z" fill="url(#paint6_linear_21147_4188)"/>
<path d="M76.9498 0.820007C81.2798 0.820007 85.5298 1.18001 89.6698 1.86001L84.7798 3.08001L89.6798 7.79001L83.1198 5.93001L84.9898 12.45L80.2498 7.58001L78.5898 14.15L76.9298 7.57001L72.1898 12.44L74.0598 5.92001L67.4998 7.78001L72.3998 3.07001L66.2598 1.55001C69.7498 1.07001 73.3198 0.820007 76.9498 0.820007V0.820007Z" fill="#00022B"/>
<path d="M78.58 15.94L76.69 8.43998L71.28 14L73.42 6.55998L65.93 8.68998L71.53 3.30998L63.96 1.42998L66.21 1.11998C73.93 0.0599848 82.01 0.159985 89.74 1.42998L91.83 1.76998L85.65 3.29998L91.24 8.67999L83.75 6.55998L85.89 14L80.48 8.43998L78.58 15.94V15.94ZM77.16 6.70998L78.58 12.35L80 6.70998L84.07 10.89L82.46 5.28998L88.09 6.88998L83.88 2.83998L87.41 1.95998C81.21 1.11998 74.85 1.02998 68.65 1.68998L73.26 2.83998L69.05 6.88998L74.68 5.28998L73.07 10.89L77.16 6.70998V6.70998Z" fill="url(#paint7_linear_21147_4188)"/>
<path d="M77.66 154.28C56.92 154.28 37.42 146.26 22.75 131.69C8.08 117.12 0 97.75 0 77.14C0 56.53 8.08 37.16 22.75 22.59C37.42 8.02 56.92 0 77.66 0C96.16 0 114.08 6.57 128.12 18.5C142 30.3 151.29 46.61 154.26 64.42C154.37 65.07 154.47 65.74 154.58 66.47C155.06 69.93 155.31 73.48 155.32 77.01V77.14C155.32 81.39 154.97 85.65 154.27 89.81V89.85C151.29 107.66 142 123.97 128.12 135.78C114.09 147.71 96.17 154.28 77.66 154.28V154.28ZM77.66 0.87C57.15 0.87 37.87 8.8 23.37 23.21C8.87 37.62 0.88 56.77 0.88 77.14C0.88 97.51 8.87 116.66 23.37 131.07C37.87 145.48 57.15 153.41 77.66 153.41C95.95 153.41 113.67 146.91 127.55 135.11C141.27 123.45 150.44 107.34 153.39 89.74V89.7C154.09 85.58 154.44 81.35 154.44 77.14V77.01C154.44 73.52 154.19 70.01 153.71 66.59C153.61 65.87 153.51 65.21 153.4 64.56C150.46 46.95 141.28 30.83 127.55 19.16C113.67 7.37 95.96 0.87 77.66 0.87Z" fill="url(#paint8_linear_21147_4188)"/>
<path d="M149.17 82.81C152.323 82.81 154.88 80.2714 154.88 77.14C154.88 74.0085 152.323 71.47 149.17 71.47C146.016 71.47 143.46 74.0085 143.46 77.14C143.46 80.2714 146.016 82.81 149.17 82.81Z" fill="#00022B"/>
<path d="M149.17 83.24C145.78 83.24 143.02 80.5 143.02 77.14C143.02 73.78 145.78 71.04 149.17 71.04C152.56 71.04 155.32 73.78 155.32 77.14C155.32 80.5 152.56 83.24 149.17 83.24ZM149.17 71.91C146.27 71.91 143.9 74.26 143.9 77.14C143.9 80.02 146.26 82.37 149.17 82.37C152.08 82.37 154.44 80.02 154.44 77.14C154.44 74.25 152.08 71.91 149.17 71.91Z" fill="url(#paint9_linear_21147_4188)"/>
<path d="M6.14994 82.81C9.30349 82.81 11.8599 80.2714 11.8599 77.14C11.8599 74.0085 9.30349 71.47 6.14994 71.47C2.9964 71.47 0.439941 74.0085 0.439941 77.14C0.439941 80.2714 2.9964 82.81 6.14994 82.81Z" fill="#00022B"/>
<path d="M6.15 83.24C2.76 83.24 0 80.5 0 77.14C0 73.78 2.76 71.04 6.15 71.04C9.54 71.04 12.3 73.78 12.3 77.14C12.3 80.5 9.54 83.24 6.15 83.24ZM6.15 71.91C3.25 71.91 0.88 74.26 0.88 77.14C0.88 80.02 3.24 82.37 6.15 82.37C9.06 82.37 11.42 80.02 11.42 77.14C11.42 74.26 9.06 71.91 6.15 71.91Z" fill="url(#paint10_linear_21147_4188)"/>
<path d="M77.6602 138.9C43.3802 138.9 15.4902 111.19 15.4902 77.14C15.4902 43.09 43.3802 15.38 77.6602 15.38C111.94 15.38 139.83 43.09 139.83 77.14C139.83 111.19 111.94 138.9 77.6602 138.9V138.9ZM77.6602 16.25C43.8602 16.25 16.3702 43.56 16.3702 77.14C16.3702 110.72 43.8702 138.03 77.6602 138.03C111.45 138.03 138.95 110.72 138.95 77.14C138.95 43.56 111.46 16.25 77.6602 16.25Z" fill="url(#paint11_linear_21147_4188)"/>
<path d="M28.48 35.64C28.48 33.59 30.15 31.93 32.21 31.93C34.27 31.93 35.94 33.59 35.94 35.64C35.94 37.69 34.27 39.35 32.21 39.35C30.15 39.35 28.48 37.69 28.48 35.64Z" fill="url(#paint12_linear_21147_4188)"/>
<path d="M32.2101 39.93C29.8301 39.93 27.8901 38.01 27.8901 35.64C27.8901 33.27 29.8301 31.35 32.2101 31.35C34.5901 31.35 36.5301 33.27 36.5301 35.64C36.5301 38.01 34.5901 39.93 32.2101 39.93ZM32.2101 32.52C30.4801 32.52 29.0601 33.92 29.0601 35.65C29.0601 37.38 30.4701 38.78 32.2101 38.78C33.9501 38.78 35.3601 37.38 35.3601 35.65C35.3601 33.92 33.9501 32.52 32.2101 32.52Z" fill="#00022B"/>
<path d="M126.84 118.63C126.84 120.68 125.17 122.34 123.11 122.34C121.05 122.34 119.38 120.68 119.38 118.63C119.38 116.58 121.05 114.92 123.11 114.92C125.17 114.93 126.84 116.59 126.84 118.63Z" fill="url(#paint13_linear_21147_4188)"/>
<path d="M123.11 122.92C120.73 122.92 118.79 121 118.79 118.63C118.79 116.26 120.73 114.34 123.11 114.34C125.49 114.34 127.43 116.26 127.43 118.63C127.43 121 125.49 122.92 123.11 122.92V122.92ZM123.11 115.51C121.38 115.51 119.96 116.91 119.96 118.64C119.96 120.37 121.37 121.77 123.11 121.77C124.85 121.77 126.26 120.37 126.26 118.64C126.26 116.91 124.85 115.51 123.11 115.51Z" fill="#00022B"/>
<path d="M121.11 38.0201C121 38.0201 120.89 37.9801 120.8 37.8901C120.63 37.7201 120.63 37.4401 120.8 37.2701L122.07 36.0001C122.24 35.8301 122.52 35.8301 122.69 36.0001C122.86 36.1701 122.86 36.4501 122.69 36.6201L121.42 37.8901C121.34 37.9801 121.23 38.0201 121.11 38.0201Z" fill="url(#paint14_linear_21147_4188)"/>
<path d="M123.79 35.36C123.68 35.36 123.57 35.32 123.48 35.23C123.31 35.06 123.31 34.78 123.48 34.61L124.75 33.35C124.92 33.18 125.2 33.18 125.37 33.35C125.54 33.52 125.54 33.8 125.37 33.97L124.1 35.23C124.02 35.32 123.91 35.36 123.79 35.36Z" fill="url(#paint15_linear_21147_4188)"/>
<path d="M122.37 35.38C122.26 35.38 122.15 35.34 122.06 35.25L120.81 34.01C120.64 33.84 120.64 33.56 120.81 33.39C120.98 33.22 121.26 33.22 121.43 33.39L122.68 34.63C122.85 34.8 122.85 35.08 122.68 35.25C122.59 35.34 122.48 35.38 122.37 35.38Z" fill="url(#paint16_linear_21147_4188)"/>
<path d="M125.07 38.06C124.96 38.06 124.85 38.02 124.76 37.93L123.46 36.64C123.29 36.47 123.29 36.19 123.46 36.02C123.63 35.85 123.91 35.85 124.08 36.02L125.38 37.31C125.55 37.48 125.55 37.76 125.38 37.93C125.29 38.02 125.18 38.06 125.07 38.06Z" fill="url(#paint17_linear_21147_4188)"/>
<path d="M127.64 36.08H124.47C124.23 36.08 124.03 35.88 124.03 35.64C124.03 35.4 124.23 35.2 124.47 35.2H127.64C127.88 35.2 128.08 35.4 128.08 35.64C128.08 35.88 127.88 36.08 127.64 36.08V36.08Z" fill="url(#paint18_linear_21147_4188)"/>
<path d="M121.71 36.08H118.59C118.35 36.08 118.15 35.88 118.15 35.64C118.15 35.4 118.35 35.2 118.59 35.2H121.71C121.95 35.2 122.15 35.4 122.15 35.64C122.15 35.88 121.95 36.08 121.71 36.08Z" fill="url(#paint19_linear_21147_4188)"/>
<path d="M123.11 40.58C122.87 40.58 122.67 40.38 122.67 40.14V36.99C122.67 36.75 122.87 36.55 123.11 36.55C123.35 36.55 123.55 36.75 123.55 36.99V40.14C123.55 40.38 123.36 40.58 123.11 40.58Z" fill="url(#paint20_linear_21147_4188)"/>
<path d="M123.11 34.68C122.87 34.68 122.67 34.48 122.67 34.24V31.14C122.67 30.9 122.87 30.7 123.11 30.7C123.35 30.7 123.55 30.9 123.55 31.14V34.24C123.55 34.49 123.36 34.68 123.11 34.68Z" fill="url(#paint21_linear_21147_4188)"/>
<path d="M124.81 35.31L123.4 33.91C123.23 33.74 122.95 33.74 122.78 33.91L121.37 35.31C121.2 35.48 121.2 35.76 121.37 35.93L122.78 37.33C122.87 37.42 122.98 37.46 123.09 37.46C123.2 37.46 123.31 37.42 123.4 37.33L124.81 35.93C124.98 35.76 124.98 35.48 124.81 35.31Z" fill="url(#paint22_linear_21147_4188)"/>
<path d="M30.21 121.01C30.1 121.01 29.99 120.97 29.9 120.88C29.73 120.71 29.73 120.43 29.9 120.26L31.17 118.99C31.34 118.82 31.62 118.82 31.79 118.99C31.96 119.16 31.96 119.44 31.79 119.61L30.52 120.88C30.44 120.97 30.32 121.01 30.21 121.01V121.01Z" fill="url(#paint23_linear_21147_4188)"/>
<path d="M32.8901 118.35C32.7801 118.35 32.6701 118.31 32.5801 118.22C32.4101 118.05 32.4101 117.77 32.5801 117.6L33.8501 116.34C34.0201 116.17 34.3001 116.17 34.4701 116.34C34.6401 116.51 34.6401 116.79 34.4701 116.96L33.2001 118.22C33.1201 118.31 33.0001 118.35 32.8901 118.35V118.35Z" fill="url(#paint24_linear_21147_4188)"/>
<path d="M31.46 118.37C31.35 118.37 31.24 118.33 31.15 118.24L29.9 117C29.73 116.83 29.73 116.55 29.9 116.38C30.07 116.21 30.35 116.21 30.52 116.38L31.77 117.62C31.94 117.79 31.94 118.07 31.77 118.24C31.69 118.33 31.58 118.37 31.46 118.37V118.37Z" fill="url(#paint25_linear_21147_4188)"/>
<path d="M34.1701 121.05C34.0601 121.05 33.9501 121.01 33.8601 120.92L32.5601 119.63C32.3901 119.46 32.3901 119.18 32.5601 119.01C32.7301 118.84 33.0101 118.84 33.1801 119.01L34.4801 120.3C34.6501 120.47 34.6501 120.75 34.4801 120.92C34.3901 121.01 34.2801 121.05 34.1701 121.05V121.05Z" fill="url(#paint26_linear_21147_4188)"/>
<path d="M36.7399 119.07H33.5699C33.3299 119.07 33.1299 118.87 33.1299 118.63C33.1299 118.39 33.3299 118.19 33.5699 118.19H36.7399C36.9799 118.19 37.1799 118.39 37.1799 118.63C37.1799 118.87 36.9799 119.07 36.7399 119.07Z" fill="url(#paint27_linear_21147_4188)"/>
<path d="M30.81 119.07H27.69C27.45 119.07 27.25 118.87 27.25 118.63C27.25 118.39 27.45 118.19 27.69 118.19H30.81C31.05 118.19 31.25 118.39 31.25 118.63C31.25 118.87 31.05 119.07 30.81 119.07Z" fill="url(#paint28_linear_21147_4188)"/>
<path d="M32.21 123.57C31.97 123.57 31.77 123.37 31.77 123.13V119.98C31.77 119.74 31.97 119.54 32.21 119.54C32.45 119.54 32.65 119.74 32.65 119.98V123.13C32.65 123.37 32.45 123.57 32.21 123.57Z" fill="url(#paint29_linear_21147_4188)"/>
<path d="M32.21 117.67C31.97 117.67 31.77 117.47 31.77 117.23V114.13C31.77 113.89 31.97 113.69 32.21 113.69C32.45 113.69 32.65 113.89 32.65 114.13V117.23C32.65 117.48 32.45 117.67 32.21 117.67Z" fill="url(#paint30_linear_21147_4188)"/>
<path d="M33.9098 118.3L32.4998 116.9C32.4198 116.82 32.3098 116.77 32.1898 116.77C32.0698 116.77 31.9598 116.82 31.8798 116.9L30.4698 118.3C30.2998 118.47 30.2998 118.75 30.4698 118.92L31.8798 120.32C31.9698 120.41 32.0798 120.45 32.1898 120.45C32.2998 120.45 32.4098 120.41 32.4998 120.32L33.9098 118.92C33.9898 118.84 34.0398 118.73 34.0398 118.61C34.0298 118.5 33.9898 118.38 33.9098 118.3Z" fill="url(#paint31_linear_21147_4188)"/>
<mask id="mask0_21147_4188" style="mask-type:alpha" maskUnits="userSpaceOnUse" x="16" y="14" width="124" height="124">
<path d="M139.548 76.1447C139.548 42.1525 111.992 14.5696 77.9999 14.5365C44.0077 14.5034 16.4517 42.0326 16.4517 76.0248C16.4517 110.017 44.0077 137.6 77.9999 137.633C111.992 137.666 139.548 110.137 139.548 76.1447Z" fill="#00022B"/>
</mask>
<g mask="url(#mask0_21147_4188)">
<path d="M126.935 91.4489C125.832 88.4081 123.246 86.3007 120.479 85.5179C122.835 82.3567 122.173 77.078 119.546 74.2178C116.909 71.3577 112.859 70.7355 109.38 71.8796C111.074 68.4474 111.726 64.102 110.262 60.5394C109.27 58.1308 105.28 56.9968 101.851 57.047C101.791 57.1474 101.73 57.2377 101.67 57.338C101.61 57.2477 101.54 57.1574 101.48 57.057C99.9859 57.1172 98.6224 57.4083 97.7 57.9301C97.6298 56.1839 97.6599 54.4076 97.7602 52.6113C94.0205 48.9985 89.2984 46.4996 84.2955 45.5864C77.3276 44.3119 69.8884 46.1283 64.1637 50.5038L61.8478 49.7913C60.4441 52.812 59.4115 56.0133 59.7624 57.1172C57.4665 56.1538 51.5312 56.0334 50.0975 58.3215C48.6538 60.6096 48.6939 63.9916 50.1878 66.2295C46.6587 66.641 43.3702 69.2402 41.7661 72.8932C40.162 76.5561 40.2823 81.1524 42.0769 84.695C37.7858 83.2097 32.9434 86.0699 30.6976 90.5558C28.4618 95.0417 28.532 100.712 30.0359 105.599C30.0359 105.599 34.8082 105.679 42.2072 105.79C42.4478 103.672 42.909 101.575 43.5807 99.5577C44.2625 101.655 44.9342 103.753 45.616 105.84C62.5696 106.081 89.6192 106.402 107.355 106.292C107.676 103.722 108.307 101.193 109.25 98.7849C109.942 101.254 110.523 103.742 111.004 106.261C112.488 106.241 113.892 106.221 115.185 106.201C115.576 103.893 116.208 101.625 117.08 99.4473C118.333 101.434 119.055 103.753 119.165 106.101C122.584 105.99 124.699 105.82 124.99 105.599C127.346 103.732 128.048 94.5098 126.945 91.459L126.935 91.4489Z" fill="#00022B"/>
<path d="M99.3238 106.723C82.7311 106.723 61.5365 106.472 45.5955 106.251H45.2847L43.5703 100.953C43.1191 102.538 42.7983 104.164 42.6179 105.82L42.5777 106.211H42.1867C36.2114 106.121 30.0355 106.021 29.9753 106.011L29.6946 105.98L29.6144 105.709C27.9301 100.21 28.1807 94.6101 30.3062 90.345C32.6021 85.7387 37.1939 83.1495 41.2944 84.0226C39.8307 80.5202 39.8407 76.1748 41.3646 72.7125C42.9287 69.1499 46.0667 66.5407 49.4855 65.8884C48.2523 63.54 48.3225 60.2985 49.7261 58.0706C51.1999 55.7424 56.5036 55.6721 59.2607 56.475C59.3008 54.8091 60.3936 51.8687 61.4563 49.6006L61.6167 49.2594L64.0831 50.0121C69.8379 45.6968 77.4074 43.8804 84.3753 45.1549C89.3782 46.0681 94.2306 48.6071 98.0605 52.2902L98.2009 52.4307V52.6213C98.1006 54.2872 98.0705 55.8126 98.1106 57.2477C99.0029 56.8864 100.166 56.6657 101.469 56.6155H101.71H101.85C105.319 56.5854 109.57 57.7194 110.663 60.3688C111.946 63.4999 111.756 67.494 110.162 71.2072C113.781 70.3441 117.511 71.3577 119.857 73.9168C122.594 76.8974 123.135 82.0356 121.16 85.267C124.037 86.2606 126.323 88.4684 127.346 91.2884C128.519 94.5299 127.767 103.903 125.25 105.91C125.06 106.061 124.729 106.322 119.175 106.512H118.754L118.734 106.101C118.633 104.104 118.092 102.147 117.15 100.411C116.448 102.297 115.926 104.264 115.596 106.251L115.535 106.603H115.185C113.891 106.633 112.488 106.653 111.004 106.673H110.643L110.573 106.322C110.182 104.234 109.71 102.177 109.179 100.18C108.507 102.167 108.036 104.224 107.765 106.322L107.715 106.693H107.344C104.838 106.713 102.151 106.723 99.3338 106.723H99.3238ZM45.9163 105.398C64.4039 105.659 89.8193 105.95 106.963 105.85C107.304 103.361 107.936 100.923 108.838 98.6143L109.299 97.4201L109.65 98.6545C110.302 100.973 110.873 103.371 111.345 105.81C112.568 105.8 113.721 105.78 114.814 105.76C115.215 103.542 115.836 101.354 116.678 99.2666L116.989 98.4939L117.44 99.2064C118.664 101.133 119.395 103.351 119.566 105.649C123.787 105.499 124.599 105.308 124.749 105.238C126.915 103.512 127.586 94.4998 126.544 91.5995C125.571 88.8999 123.205 86.7322 120.378 85.9394L119.776 85.7688L120.147 85.267C122.293 82.3969 121.862 77.369 119.235 74.5189C116.909 71.99 113.099 71.1169 109.52 72.3011L108.547 72.6222L108.999 71.709C110.843 67.9757 111.164 63.8712 109.871 60.72C108.999 58.5825 105.339 57.4986 102.091 57.4886L101.67 58.1409L101.259 57.5187C99.8752 57.599 98.6921 57.88 97.9101 58.3215L97.2985 58.6627L97.2685 57.9603C97.2083 56.3546 97.2284 54.6686 97.3186 52.802C93.6291 49.2996 88.9872 46.891 84.2149 46.0179C77.4074 44.7735 70.0083 46.5799 64.424 50.845L64.2535 50.9755L62.0879 50.3131C60.7044 53.3539 59.9023 56.1338 60.173 56.9868L60.4537 57.8699L59.6016 57.5187C57.446 56.6155 51.7413 56.5252 50.458 58.5524C49.1045 60.6899 49.1446 63.8913 50.5382 65.9987L50.9292 66.5808L50.2375 66.6611C46.8688 67.0525 43.7006 69.5614 42.1567 73.0738C40.6027 76.6063 40.723 81.0922 42.4574 84.5043L42.9387 85.4477L41.9361 85.0964C38.0361 83.7416 33.364 86.1702 31.0882 90.7465C29.1231 94.6804 28.8625 100.049 30.3563 105.178C31.4992 105.198 35.7502 105.268 41.8258 105.358C42.0765 103.331 42.5276 101.334 43.1793 99.4172L43.5904 98.1828L45.9264 105.408L45.9163 105.398Z" fill="url(#paint32_linear_21147_4188)"/>
<path d="M60.0328 76.9074C59.4614 73.124 58.8999 69.3406 58.3284 65.5672C57.8572 62.4562 57.3961 59.2649 58.0477 56.184C59.2809 50.3232 64.4642 45.8774 70.1789 44.0911C75.8936 42.3048 82.0595 42.7664 87.9647 43.78C90.4511 44.2015 93.0277 44.7735 94.9828 46.3591C97.2085 48.1555 98.3113 51.0056 98.8427 53.8156C100.577 63.0583 97.0581 72.4115 93.1681 80.9718C83.7438 82.0557 74.2294 82.3366 64.765 81.8248L60.0328 76.9074V76.9074Z" fill="#00022B"/>
<path d="M51.6115 106.974C57.0154 105.338 60.354 98.805 58.5192 93.4661C58.3388 92.9342 58.1182 92.312 58.429 91.8403C58.6496 91.4991 59.0807 91.3686 59.4617 91.2382C64.665 89.4217 66.9008 82.0255 63.5622 77.6299C73.4577 75.101 84.0048 75.1712 93.8702 77.8307C91.444 79.2256 89.9301 82.0657 90.1306 84.8556C90.3311 87.6454 92.236 90.2446 94.8327 91.2783C92.0355 93.2453 91.7347 97.5004 93.2486 100.571C94.7625 103.642 97.6098 105.8 100.347 107.847C85.9498 110.005 65.9183 109.322 51.5312 107.124L51.6014 106.964L51.6115 106.974Z" fill="#00022B"/>
<path d="M108.006 113.527C102.282 109.694 95.3638 108.158 88.6164 106.793C88.2054 106.713 87.7743 106.623 87.4434 106.362C86.872 105.92 88.1653 94.7908 87.4434 88.2677L77.8086 89.1709L68.1739 88.2677C67.452 94.7908 68.7453 105.92 68.1739 106.362C67.843 106.623 67.4119 106.713 67.0008 106.793C60.2435 108.148 53.3357 109.684 47.611 113.527C41.8862 117.361 37.5551 138.927 38.4674 145.761C44.2122 145.731 60.2535 130.959 76.5053 131.18V131.22C76.9364 131.22 77.3775 131.21 77.8086 131.2C78.2398 131.2 78.6809 131.21 79.112 131.22V131.18C95.3638 130.969 111.405 145.741 117.15 145.761C118.072 138.927 113.731 117.361 108.006 113.527V113.527Z" fill="#00022B"/>
<path d="M55.3413 88.067C59.1411 85.6183 59.3015 84.4442 59.492 85.6183C60.3943 91.3988 69.5178 105.318 77.8091 105.318C88.5467 105.318 94.7728 87.1839 95.7753 82.6077C83.3634 84.384 70.8011 86.1603 58.3591 84.665C58.6999 84.9861 59.0408 85.3072 59.3817 85.6284L55.3413 88.067Z" fill="#00022B"/>
<path d="M63.502 84.6448C63.502 84.6448 63.522 84.7251 63.532 84.7652C64.4344 88.8597 65.8881 92.9543 68.6051 96.1456C71.3321 99.3369 75.5229 101.495 79.6736 100.923C83.6939 100.381 87.0626 97.39 89.0176 93.8374C90.9726 90.2848 91.7346 86.2003 92.276 82.1861" fill="#00022B"/>
<path d="M78.3501 101.444C74.7408 101.444 70.9911 99.5978 68.2842 96.4266C65.878 93.6066 64.2338 89.9336 63.1209 84.8656L63.0908 84.7351L63.933 84.5645L63.9631 84.6749C65.0559 89.6024 66.64 93.165 68.9459 95.8646C71.8233 99.2265 75.9138 101.003 79.6334 100.501C83.1825 100.019 86.5612 97.4502 88.6666 93.6367C90.4813 90.345 91.2633 86.662 91.8749 82.1359L92.7271 82.2563C92.1857 86.2605 91.4037 90.4554 89.4186 94.0582C87.1828 98.1125 83.5635 100.842 79.7537 101.364C79.3025 101.424 78.8313 101.454 78.3701 101.454L78.3501 101.444Z" fill="url(#paint33_linear_21147_4188)"/>
<path d="M91.9351 79.2859C92.1457 77.7404 94.0004 76.777 95.4943 77.2286C96.9781 77.6802 97.9606 79.2256 98.0709 80.7812C98.1812 82.3367 97.5496 83.8621 96.6673 85.1366C95.1835 87.2641 92.5768 88.92 90.0703 88.2577C90.4713 85.0663 91.0428 81.8951 91.7847 78.764L91.9451 79.2758L91.9351 79.2859Z" fill="#00022B"/>
<path d="M63.7323 79.2859C63.5217 77.7404 61.667 76.777 60.1731 77.2286C58.6893 77.6802 57.7068 79.2256 57.5965 80.7812C57.4862 82.3367 58.1178 83.8621 59.0001 85.1366C60.4839 87.2641 63.0906 88.92 65.5971 88.2577C65.196 85.0663 64.6246 81.8951 63.8827 78.764L63.7223 79.2758L63.7323 79.2859Z" fill="#00022B"/>
<path d="M93.0178 84.123C93.098 83.9724 93.1782 83.8219 93.2685 83.6814C93.3086 83.6112 93.3487 83.5509 93.3988 83.4907C93.4289 83.4506 93.4489 83.4104 93.479 83.3803C93.479 83.3803 93.5592 83.2699 93.5191 83.3201C93.479 83.3703 93.5592 83.2699 93.5693 83.2599C93.5993 83.2198 93.6294 83.1897 93.6595 83.1495C93.7096 83.0893 93.7597 83.0291 93.8099 82.9789C93.9302 82.8585 94.0505 82.7381 94.1708 82.6176C94.231 82.5675 94.2911 82.5173 94.3513 82.4671C94.3513 82.4671 94.4816 82.3667 94.3914 82.437C94.4214 82.4169 94.4515 82.3868 94.4816 82.3667C94.6119 82.2664 94.7523 82.1761 94.8826 82.0958C95.033 82.0055 95.1734 81.9252 95.3338 81.8549C95.404 81.8248 95.4742 81.7847 95.5443 81.7546C95.4441 81.7947 95.5844 81.7445 95.5945 81.7345C95.6346 81.7144 95.6847 81.7044 95.7248 81.6843C95.9754 81.594 96.176 81.323 96.0857 81.042C96.0055 80.7912 95.7248 80.5804 95.4441 80.6808C94.0204 81.2026 92.8073 82.2363 92.1055 83.5911C91.9852 83.8319 92.0353 84.1631 92.296 84.3036C92.5366 84.4341 92.8775 84.3739 93.0078 84.1129L93.0178 84.123Z" fill="white"/>
<path d="M93.8501 82.8284C93.9303 82.8987 94.0005 82.9689 94.0606 83.0492C94.0305 83.0191 94.0105 82.9789 93.9804 82.9488C94.0606 83.0492 94.1208 83.1696 94.1809 83.28C94.1609 83.2399 94.1508 83.1997 94.1308 83.1596C94.1909 83.29 94.221 83.4305 94.2411 83.5811C94.2411 83.5309 94.2311 83.4908 94.221 83.4406C94.2411 83.571 94.2411 83.7015 94.221 83.832L94.2411 83.6915C94.2411 83.6915 94.2411 83.7316 94.2311 83.7517C94.211 83.8922 94.211 84.0226 94.2812 84.1531C94.3413 84.2635 94.4717 84.3639 94.592 84.394C94.7223 84.4241 94.8727 84.414 94.993 84.3438C95.1033 84.2735 95.2036 84.1631 95.2336 84.0327C95.2938 83.6814 95.2838 83.3202 95.1635 82.9789C95.0431 82.6478 94.8627 82.3367 94.592 82.1058C94.4817 82.0155 94.3714 81.9553 94.221 81.9553C94.0907 81.9553 93.9403 82.0155 93.8501 82.1058C93.7598 82.2062 93.6897 82.3367 93.6997 82.4772C93.6997 82.6076 93.7498 82.7582 93.8501 82.8485V82.8284Z" fill="white"/>
<path d="M71.182 77.088C71.182 78.1719 70.3799 79.045 69.3974 79.045C68.4149 79.045 67.6128 78.1719 67.6128 77.088C67.6128 76.0042 68.4149 75.1311 69.3974 75.1311C70.3799 75.1311 71.182 76.0042 71.182 77.088Z" fill="white"/>
<path d="M88.8675 77.088C88.8675 78.1719 88.0655 79.045 87.0829 79.045C86.1004 79.045 85.2983 78.1719 85.2983 77.088C85.2983 76.0042 86.1004 75.1311 87.0829 75.1311C88.0655 75.1311 88.8675 76.0042 88.8675 77.088Z" fill="white"/>
<path d="M59.6014 81.0922C60.5839 82.0055 61.3359 83.1395 61.777 84.3839C61.8672 84.6448 62.1279 84.8255 62.4186 84.7452C62.6793 84.6749 62.8698 84.3739 62.7796 84.1029C62.2783 82.6778 61.4461 81.3833 60.3433 80.3596C60.1428 80.1689 59.8119 80.1589 59.6114 80.3596C59.4209 80.5503 59.4009 80.9015 59.6114 81.0922H59.6014Z" fill="white"/>
<path d="M60.1527 83.3904C60.1527 83.3904 60.2329 83.3904 60.2629 83.4004C60.2128 83.4004 60.1727 83.3904 60.1226 83.3804C60.3231 83.4105 60.5136 83.4607 60.6941 83.5309C60.654 83.5108 60.6139 83.5008 60.5738 83.4807C60.7542 83.561 60.9247 83.6614 61.0851 83.7818C61.055 83.7517 61.0149 83.7316 60.9848 83.7015C61.065 83.7617 61.1352 83.832 61.2054 83.9022C61.3959 84.0929 61.7468 84.1029 61.9373 83.9022C62.1277 83.6915 62.1378 83.3703 61.9373 83.1696C61.456 82.6879 60.8244 82.4069 60.1527 82.3567C60.0223 82.3467 59.8719 82.427 59.7817 82.5073C59.6915 82.5976 59.6213 82.7481 59.6313 82.8786C59.6313 83.0091 59.6815 83.1496 59.7817 83.2499C59.892 83.3503 60.0023 83.3904 60.1527 83.4004V83.3904Z" fill="white"/>
<path d="M72.7959 67.2431C73.0264 67.3937 72.9061 67.7951 72.6555 67.9055C72.4048 68.0159 72.1141 67.9456 71.8434 67.8754C69.738 67.3836 67.4321 67.8051 65.6475 69.0094C66.4194 67.6345 67.7729 66.5908 69.2969 66.1794C70.5601 65.8482 72.1442 66.069 72.7959 67.203V67.2331V67.2431Z" fill="white"/>
<path d="M83.7343 71.3979C83.5038 71.5484 83.6241 71.9499 83.8747 72.0603C84.1254 72.1707 84.4161 72.1004 84.6868 72.0302C86.7922 71.5384 89.0981 71.9599 90.8827 73.1642C90.1108 71.7893 88.7573 70.7456 87.2333 70.3341C85.9701 70.003 84.386 70.2238 83.7343 71.3578V71.3879V71.3979Z" fill="white"/>
<path d="M71.272 60.3587C73.1568 61.0813 75.563 60.8605 76.8463 59.295C78.9718 62.5866 84.2955 63.1085 87.0225 60.2985C87.7343 62.9278 90.5416 64.8045 93.2385 64.4733C93.5794 64.4332 93.9403 64.3429 94.1408 64.0719C94.3012 63.8511 94.3213 63.5501 94.3413 63.2791C94.4717 60.2483 94.4015 57.2176 94.1508 54.1969" fill="#00022B"/>
<path d="M92.6074 64.9451C90.151 64.9451 87.7549 63.3394 86.8225 61.0613C85.469 62.1652 83.5942 62.7071 81.6592 62.5165C79.6841 62.3258 77.9095 61.3824 76.7967 59.9775C75.2527 61.4126 72.8365 61.4226 71.1221 60.7703L71.4228 59.9674C73.0069 60.5696 75.2728 60.5395 76.5059 59.0341L76.8769 58.5825L77.1977 59.0743C78.1301 60.5093 79.8245 61.4828 81.7394 61.6735C83.6643 61.8641 85.5091 61.2419 86.7022 60.0176L87.2235 59.4757L87.424 60.1982C88.0857 62.6369 90.6724 64.363 93.1688 64.0619C93.4896 64.0218 93.6901 63.9415 93.7804 63.8311C93.8706 63.7107 93.8806 63.51 93.8907 63.2691C94.011 60.2685 93.9508 57.2277 93.7002 54.2371L94.5524 54.1669C94.803 57.1976 94.8732 60.2685 94.7428 63.3093C94.7328 63.5903 94.7128 64.0017 94.4621 64.3429C94.1513 64.7644 93.63 64.8748 93.2691 64.915C93.0485 64.9451 92.8179 64.9551 92.5973 64.9551L92.6074 64.9451Z" fill="url(#paint34_linear_21147_4188)"/>
<path d="M60.7651 71.5283L62.3091 75.8035Z" fill="#00022B"/>
<path d="M61.1745 71.3926L60.373 71.6827L61.9175 75.9579L62.7189 75.6678L61.1745 71.3926Z" fill="url(#paint35_linear_21147_4188)"/>
<path d="M77.1168 81.4937C77.6181 80.9116 78.1795 80.3798 78.8111 79.9382C79.3325 79.5769 80.0844 78.9948 80.7361 79.2257C81.1471 79.3762 81.4279 79.8479 81.5382 80.2995C81.6785 80.8715 81.5081 81.4235 81.1973 81.9252C80.7662 82.6277 80.1045 83.1596 79.4829 83.6815C79.2723 83.8621 79.2924 84.2334 79.4829 84.4141C79.6934 84.6248 80.0042 84.5947 80.2148 84.4141C81.488 83.3402 82.9017 81.9854 82.5608 80.159C82.4305 79.4565 82.0094 78.754 81.3878 78.3927C80.5356 77.901 79.6032 78.2121 78.8212 78.6837C77.9088 79.2457 77.0767 79.9482 76.3749 80.7611C76.1944 80.9719 76.1643 81.283 76.3749 81.4937C76.5654 81.6844 76.9263 81.7044 77.1068 81.4937H77.1168Z" fill="white"/>
<path d="M74.2697 86.3408C75.6934 87.7558 78.1397 87.9866 79.7739 86.7924C80.0045 86.6318 80.1147 86.3408 79.9644 86.0799C79.834 85.8591 79.4831 85.7286 79.2525 85.8892C77.9893 86.8125 76.1345 86.7121 75.0016 85.5982C74.5304 85.1265 73.7985 85.8591 74.2697 86.3308V86.3408Z" fill="white"/>
<path d="M108.688 113.417C105.189 111.079 101.259 109.573 97.1884 108.459C96.2761 110.105 95.1031 111.59 93.6293 112.835C90.3107 115.645 85.9495 116.929 81.6485 117.521C72.2743 118.816 61.6971 116.608 55.7318 109.372C52.7441 110.376 49.8767 111.661 47.25 113.417C41.425 117.321 37.0236 138.997 37.956 145.952C43.8011 145.922 60.1131 131.15 76.6456 131.37V131.411C77.0867 131.411 77.5279 131.401 77.969 131.391C78.4101 131.391 78.8513 131.401 79.2924 131.411V131.37C95.8249 131.15 112.137 145.922 117.982 145.952C118.914 138.997 114.503 117.321 108.688 113.417V113.417Z" fill="#00022B"/>
<path d="M44.7031 116.638L47.6908 116.869L49.5857 114.531L50.2875 117.461L53.0947 118.535L50.5381 120.111L50.3777 123.111L48.0918 121.164L45.1944 121.947L46.3373 119.157L44.7031 116.638Z" fill="url(#paint36_linear_21147_4188)"/>
<path d="M67.8631 124.406L64.8754 124.697L63.4217 127.326L62.2186 124.566L59.271 123.994L61.5168 121.997L61.1458 119.017L63.7425 120.542L66.4595 119.268L65.8178 122.208L67.8631 124.406Z" fill="url(#paint37_linear_21147_4188)"/>
<path d="M55.2807 127.908L55.01 130.899L57.316 132.826L54.3784 133.488L53.2656 136.278L51.7316 133.699L48.7339 133.498L50.719 131.24L49.9771 128.32L52.7442 129.504L55.2807 127.908Z" fill="url(#paint38_linear_21147_4188)"/>
<path d="M79.5032 127.306L80.8366 129.996L83.8043 130.427L81.6588 132.535L82.1601 135.495L79.5032 134.1L76.8464 135.495L77.3577 132.535L75.2021 130.427L78.1798 129.996L79.5032 127.306Z" fill="white"/>
<path d="M92.9381 117.722L93.1988 120.723L95.8156 122.208L93.0484 123.382L92.4569 126.333L90.4818 124.065L87.4941 124.406L89.0381 121.817L87.7949 119.087L90.7224 119.759L92.9381 117.722Z" fill="url(#paint39_linear_21147_4188)"/>
<path d="M105.169 108.65L106.493 111.349L109.471 111.781L107.315 113.878L107.826 116.849L105.169 115.444L102.503 116.849L103.014 113.878L100.858 111.781L103.836 111.349L105.169 108.65Z" fill="url(#paint40_linear_21147_4188)"/>
<path d="M103.224 125.73L105.309 127.898L108.277 127.416L106.853 130.066L108.237 132.735L105.279 132.213L103.164 134.351L102.753 131.37L100.066 130.016L102.773 128.711L103.224 125.73Z" fill="url(#paint41_linear_21147_4188)"/>
<path d="M61.336 58.3817C62.9903 59.9171 64.7649 61.3322 66.6196 62.6167C66.8502 62.7773 67.1911 61.6232 67.3315 61.3924C67.4819 61.1314 67.3716 61.8841 67.141 61.7235C65.3564 60.4892 63.662 59.1243 62.0679 57.6491C61.5767 57.1975 60.8448 57.9301 61.336 58.3817V58.3817Z" fill="url(#paint42_linear_21147_4188)"/>
<path d="M63.0505 56.8363C64.7047 58.1208 66.369 59.3953 68.0233 60.6799C68.2438 60.8505 68.6048 60.71 68.7351 60.4892C68.8955 60.2182 68.7752 58.9136 68.5446 58.743C66.8903 57.4585 65.2261 57.2176 63.5718 55.9431C63.3512 55.7725 62.9903 55.913 62.86 56.1338C62.6996 56.4047 62.8199 56.6757 63.0505 56.8463V56.8363Z" fill="url(#paint43_linear_21147_4188)"/>
<path d="M62.9701 86.9229C62.9701 87.495 62.5089 87.9566 61.9374 87.9566C61.366 87.9566 60.9048 87.495 60.9048 86.9229C60.9048 86.3509 61.366 85.8893 61.9374 85.8893C62.5089 85.8893 62.9701 86.3509 62.9701 86.9229Z" fill="url(#paint44_linear_21147_4188)"/>
<path d="M64.2239 93.155H59.6422C59.1409 93.155 58.8401 92.6131 59.1008 92.1816L61.928 87.6154L64.7553 92.1816C65.016 92.6031 64.7152 93.155 64.2139 93.155H64.2239Z" fill="url(#paint45_linear_21147_4188)"/>
<path d="M94.0805 86.9229C94.0805 87.495 93.6193 87.9566 93.0478 87.9566C92.4763 87.9566 92.0151 87.495 92.0151 86.9229C92.0151 86.3509 92.4763 85.8893 93.0478 85.8893C93.6193 85.8893 94.0805 86.3509 94.0805 86.9229Z" fill="url(#paint46_linear_21147_4188)"/>
<path d="M95.3343 93.155H90.7525C90.2512 93.155 89.9504 92.6131 90.2111 92.1816L93.0384 87.6154L95.8657 92.1816C96.1263 92.6031 95.8256 93.155 95.3243 93.155H95.3343Z" fill="url(#paint47_linear_21147_4188)"/>
<path d="M103.184 58.8734C105.801 58.6326 108.478 59.5257 110.363 61.3823C112.248 63.2389 113.21 65.8883 113.03 68.5076C113.01 68.7886 113.28 69.0194 113.551 69.0294C116.338 69.0997 119.035 70.3642 120.86 72.4817C122.725 74.6293 123.517 77.5697 123.156 80.3696C123.116 80.6506 123.416 80.8814 123.677 80.8915C123.988 80.8915 124.158 80.6506 124.198 80.3696C124.84 75.4823 122.033 70.7054 117.501 68.8287C116.248 68.3069 114.914 68.0259 113.561 67.9958L114.082 68.5176C114.283 65.6274 113.19 62.6869 111.115 60.6497C109.049 58.6225 106.082 57.5788 103.204 57.8398C102.543 57.9 102.543 58.9336 103.204 58.8734H103.184Z" fill="url(#paint48_linear_21147_4188)"/>
<path d="M47.9817 67.1027C43.3899 68.2969 39.9411 72.5419 39.3094 77.1884C39.129 78.5231 39.1791 79.8579 39.4799 81.1725C39.6503 80.9517 39.8107 80.731 39.9812 80.5202C35.4595 80.7209 31.2487 83.5911 29.2235 87.6154C28.652 88.7494 28.251 89.9637 28.0705 91.2181C27.9703 91.8704 28.9728 92.1514 29.0731 91.4891C29.6847 87.3645 32.6824 83.7617 36.5523 82.2764C37.6552 81.855 38.8081 81.6041 39.9812 81.5539C40.322 81.5338 40.5627 81.2327 40.4824 80.9016C39.52 76.7067 41.5051 72.1104 44.964 69.6517C45.9666 68.9392 47.0694 68.4173 48.2524 68.1163C48.8941 67.9457 48.6234 66.9521 47.9817 67.1127V67.1027Z" fill="url(#paint49_linear_21147_4188)"/>
<path d="M97.1886 108.459C96.2763 110.105 95.1032 111.59 93.6294 112.835C90.3109 115.645 85.9497 116.929 81.6486 117.521C72.2745 118.816 61.6973 116.608 55.7319 109.372" fill="#00022B"/>
<path d="M76.6258 118.294C69.1164 118.294 60.6647 116.056 55.3911 109.653L56.0528 109.112C62.349 116.739 73.3674 118.244 81.5885 117.1C86.6917 116.397 90.5416 114.892 93.3588 112.504C94.7424 111.339 95.9054 109.904 96.8277 108.248L97.5797 108.67C96.6072 110.416 95.384 111.932 93.9203 113.166C90.9727 115.655 86.9824 117.22 81.7189 117.953C80.1147 118.174 78.4103 118.294 76.6458 118.294H76.6258Z" fill="url(#paint50_linear_21147_4188)"/>
<path d="M107.766 113.888C102.251 110.195 95.7948 108.68 88.5261 107.225C88.115 107.145 87.5937 107.034 87.1726 106.713C86.7616 106.392 86.8418 105.81 86.9921 104.656C87.1927 103.12 87.5335 100.561 87.1024 96.5972L87.9546 96.5068C88.4058 100.571 88.0549 103.201 87.8443 104.766C87.7641 105.338 87.6839 105.94 87.7441 106.081C87.9546 106.231 88.3356 106.312 88.6965 106.382C95.7747 107.807 102.602 109.403 108.247 113.176L107.766 113.888V113.888Z" fill="url(#paint51_linear_21147_4188)"/>
<path d="M76.0737 131.651V131.21L76.5048 131.2L76.4948 130.788L77.7982 130.768L79.1115 130.788V131.2L79.5427 131.18V131.611L79.1015 131.641L77.7982 131.621L76.0737 131.651Z" fill="url(#paint52_linear_21147_4188)"/>
<path d="M48.8743 113.567L48.3931 112.855C54.2582 108.921 60.404 107.686 66.9007 106.382C67.2616 106.312 67.6326 106.231 67.8932 106.031C67.9233 105.92 67.8632 105.268 67.803 104.646C67.6426 103.08 67.3819 100.471 67.8231 96.5068L68.6752 96.5972C68.2441 100.471 68.5048 103.03 68.6552 104.555C68.7755 105.81 68.8357 106.382 68.4246 106.703C68.0135 107.024 67.4922 107.134 67.0711 107.215C60.6546 108.509 54.589 109.724 48.8643 113.557L48.8743 113.567Z" fill="url(#paint53_linear_21147_4188)"/>
<path d="M53.6568 110.055C54.3185 117.511 54.9902 124.968 55.6519 132.424C53.7871 132.685 51.9324 132.946 50.0676 133.207C49.5863 126.543 49.1151 119.88 48.6339 113.206C48.6138 112.925 48.5938 112.624 48.7442 112.383C48.8745 112.162 49.1251 112.032 49.3557 111.911C50.629 111.259 51.9123 110.607 53.1856 109.945L53.6568 110.045V110.055Z" fill="white"/>
<path d="M98.8928 108.449C98.7524 115.936 98.612 123.412 98.4717 130.899C100.316 131.039 102.161 131.17 104.006 131.31C104.016 124.627 104.026 117.943 104.036 111.259C104.036 110.978 104.036 110.677 103.876 110.446C103.725 110.226 103.485 110.115 103.244 110.015C101.951 109.453 100.647 108.881 99.354 108.319L98.9028 108.449H98.8928Z" fill="white"/>
<path d="M53.4261 128.962C69.708 127.627 87.7644 128.189 104.046 129.624C104.437 132.826 103.355 138.616 103.545 138.716C87.7143 138.225 66.3092 138.827 50.4785 139.309L53.4261 128.962Z" fill="white"/>
<path d="M56.5839 131.762H96.5567C97.2284 131.762 97.2284 130.728 96.5567 130.728H56.5839C55.9121 130.728 55.9121 131.762 56.5839 131.762Z" fill="url(#paint54_linear_21147_4188)"/>
<path d="M54.0074 129.303C54.0074 130.066 53.3858 130.688 52.6238 130.688C51.8618 130.688 51.2402 130.066 51.2402 129.303C51.2402 128.54 51.8618 127.918 52.6238 127.918C53.3858 127.918 54.0074 128.54 54.0074 129.303Z" fill="url(#paint55_linear_21147_4188)"/>
<path d="M102.903 129.474C102.903 130.236 102.282 130.859 101.52 130.859C100.758 130.859 100.136 130.236 100.136 129.474C100.136 128.711 100.758 128.089 101.52 128.089C102.282 128.089 102.903 128.711 102.903 129.474Z" fill="url(#paint56_linear_21147_4188)"/>
</g>
<path d="M54.2181 71.137C50.1978 72.9835 48.5235 78.493 50.7793 82.2865C50.8795 82.0356 50.9898 81.7747 51.0901 81.5238C47.17 82.156 44.3728 86.1602 44.9041 90.044C44.9944 90.7063 45.997 90.4253 45.9067 89.773C45.4455 86.4111 48.0623 83.0592 51.3608 82.5273C51.6916 82.4772 51.8219 82.0256 51.6716 81.7646C49.6864 78.4228 51.2204 73.6458 54.7395 72.0301C55.341 71.7491 54.8197 70.856 54.2181 71.137V71.137Z" fill="url(#paint57_linear_21147_4188)"/>
<path d="M102.492 74.3283C104.708 76.6767 105.55 80.1389 104.668 83.2399C104.558 83.6213 104.928 83.9826 105.309 83.8822C107.776 83.1898 110.573 83.8521 112.418 85.6485C114.263 87.4448 115.014 90.2247 114.393 92.7135C114.232 93.3658 115.225 93.6368 115.395 92.9845C115.957 90.7766 115.576 88.3681 114.373 86.4312C113.16 84.4743 111.124 83.1195 108.859 82.7081C107.585 82.4772 106.282 82.5174 105.039 82.8686C105.249 83.0794 105.46 83.2901 105.68 83.5109C106.663 80.0486 105.71 76.195 103.234 73.5857C102.773 73.104 102.041 73.8366 102.502 74.3183L102.492 74.3283Z" fill="url(#paint58_linear_21147_4188)"/>
<path d="M101.089 90.8769C103.646 89.9035 106.784 92.1013 106.694 94.851C106.673 95.5234 107.706 95.5134 107.726 94.851C107.836 91.469 103.987 88.6591 100.808 89.8734C100.548 89.9737 100.367 90.2246 100.447 90.5157C100.518 90.7665 100.818 90.9773 101.089 90.8769V90.8769Z" fill="url(#paint59_linear_21147_4188)"/>
<path d="M58.4791 57.599L57.627 57.5187C58.3388 49.9519 64.5147 45.4057 70.0589 43.6796C76.295 41.7327 82.9421 42.4854 88.0352 43.3585C90.4414 43.7699 93.1784 44.352 95.2538 46.028C97.4093 47.7641 99.6952 52.4005 99.6952 57.5689H98.843C98.843 52.6715 96.7175 48.3161 94.7224 46.7003C92.8075 45.1549 90.1907 44.6029 87.8948 44.2115C82.892 43.3585 76.3752 42.6159 70.3096 44.5126C65.036 46.1584 59.1509 50.4737 58.4791 57.619V57.599Z" fill="url(#paint60_linear_21147_4188)"/>
</g>
<defs>
<linearGradient id="paint0_linear_21147_4188" x1="0.00976562" y1="77.14" x2="155.32" y2="77.14" gradientUnits="userSpaceOnUse">
<stop stop-color="#A18B62"/>
<stop offset="0.07" stop-color="#A89268"/>
<stop offset="0.51" stop-color="#D2BE88"/>
<stop offset="1" stop-color="#A18B62"/>
</linearGradient>
<linearGradient id="paint1_linear_21147_4188" x1="149.895" y1="77.09" x2="5.48976" y2="77.09" gradientUnits="userSpaceOnUse">
<stop stop-color="#CCB479"/>
<stop offset="0.54" stop-color="#00022B"/>
<stop offset="1" stop-color="#BBA471"/>
</linearGradient>
<linearGradient id="paint2_linear_21147_4188" x1="5.83984" y1="118" x2="77.0499" y2="118" gradientUnits="userSpaceOnUse">
<stop/>
<stop offset="0.04" stop-color="#221F18"/>
<stop offset="0.13" stop-color="#524934"/>
<stop offset="0.22" stop-color="#7E6F4C"/>
<stop offset="0.3" stop-color="#9F8C5F"/>
<stop offset="0.38" stop-color="#B8A26D"/>
<stop offset="0.45" stop-color="#C7AE76"/>
<stop offset="0.5" stop-color="#CCB479"/>
<stop offset="0.58" stop-color="#C8B077"/>
<stop offset="0.66" stop-color="#BDA672"/>
<stop offset="0.74" stop-color="#AA9768"/>
<stop offset="0.82" stop-color="#90805C"/>
<stop offset="0.9" stop-color="#70654C"/>
<stop offset="0.97" stop-color="#494439"/>
<stop offset="1" stop-color="#393631"/>
</linearGradient>
<linearGradient id="paint3_linear_21147_4188" x1="76.4297" y1="118" x2="149.48" y2="118" gradientUnits="userSpaceOnUse">
<stop/>
<stop offset="0.04" stop-color="#221F18"/>
<stop offset="0.13" stop-color="#524934"/>
<stop offset="0.22" stop-color="#7E6F4C"/>
<stop offset="0.3" stop-color="#9F8C5F"/>
<stop offset="0.38" stop-color="#B8A26D"/>
<stop offset="0.45" stop-color="#C7AE76"/>
<stop offset="0.5" stop-color="#CCB479"/>
<stop offset="0.58" stop-color="#C8B077"/>
<stop offset="0.66" stop-color="#BDA672"/>
<stop offset="0.74" stop-color="#AA9768"/>
<stop offset="0.82" stop-color="#90805C"/>
<stop offset="0.9" stop-color="#70654C"/>
<stop offset="0.97" stop-color="#494439"/>
<stop offset="1" stop-color="#393631"/>
</linearGradient>
<linearGradient id="paint4_linear_21147_4188" x1="68.54" y1="141.15" x2="85.8" y2="158.42" gradientUnits="userSpaceOnUse">
<stop stop-color="#A18B62"/>
<stop offset="0.07" stop-color="#A89268"/>
<stop offset="0.51" stop-color="#D2BE88"/>
<stop offset="1" stop-color="#A18B62"/>
</linearGradient>
<linearGradient id="paint5_linear_21147_4188" x1="149.48" y1="36.28" x2="78.27" y2="36.28" gradientUnits="userSpaceOnUse">
<stop/>
<stop offset="0.04" stop-color="#221F18"/>
<stop offset="0.13" stop-color="#524934"/>
<stop offset="0.22" stop-color="#7E6F4C"/>
<stop offset="0.3" stop-color="#9F8C5F"/>
<stop offset="0.38" stop-color="#B8A26D"/>
<stop offset="0.45" stop-color="#C7AE76"/>
<stop offset="0.5" stop-color="#CCB479"/>
<stop offset="0.58" stop-color="#C8B077"/>
<stop offset="0.66" stop-color="#BDA672"/>
<stop offset="0.74" stop-color="#AA9768"/>
<stop offset="0.82" stop-color="#90805C"/>
<stop offset="0.9" stop-color="#70654C"/>
<stop offset="0.97" stop-color="#494439"/>
<stop offset="1" stop-color="#393631"/>
</linearGradient>
<linearGradient id="paint6_linear_21147_4188" x1="78.8898" y1="36.28" x2="5.83984" y2="36.28" gradientUnits="userSpaceOnUse">
<stop/>
<stop offset="0.04" stop-color="#221F18"/>
<stop offset="0.13" stop-color="#524934"/>
<stop offset="0.22" stop-color="#7E6F4C"/>
<stop offset="0.3" stop-color="#9F8C5F"/>
<stop offset="0.38" stop-color="#B8A26D"/>
<stop offset="0.45" stop-color="#C7AE76"/>
<stop offset="0.5" stop-color="#CCB479"/>
<stop offset="0.58" stop-color="#C8B077"/>
<stop offset="0.66" stop-color="#BDA672"/>
<stop offset="0.74" stop-color="#AA9768"/>
<stop offset="0.82" stop-color="#90805C"/>
<stop offset="0.9" stop-color="#70654C"/>
<stop offset="0.97" stop-color="#494439"/>
<stop offset="1" stop-color="#393631"/>
</linearGradient>
<linearGradient id="paint7_linear_21147_4188" x1="86.78" y1="13.14" x2="69.52" y2="-4.13002" gradientUnits="userSpaceOnUse">
<stop stop-color="#A18B62"/>
<stop offset="0.07" stop-color="#A89268"/>
<stop offset="0.51" stop-color="#D2BE88"/>
<stop offset="1" stop-color="#A18B62"/>
</linearGradient>
<linearGradient id="paint8_linear_21147_4188" x1="0" y1="-466.78" x2="155.32" y2="-466.78" gradientUnits="userSpaceOnUse">
<stop stop-color="#A18B62"/>
<stop offset="0.07" stop-color="#A89268"/>
<stop offset="0.51" stop-color="#D2BE88"/>
<stop offset="1" stop-color="#A18B62"/>
</linearGradient>
<linearGradient id="paint9_linear_21147_4188" x1="144.84" y1="81.46" x2="153.5" y2="72.81" gradientUnits="userSpaceOnUse">
<stop stop-color="#A18B62"/>
<stop offset="0.07" stop-color="#A89268"/>
<stop offset="0.51" stop-color="#D2BE88"/>
<stop offset="1" stop-color="#A18B62"/>
</linearGradient>
<linearGradient id="paint10_linear_21147_4188" x1="1.82" y1="81.46" x2="10.48" y2="72.81" gradientUnits="userSpaceOnUse">
<stop stop-color="#A18B62"/>
<stop offset="0.07" stop-color="#A89268"/>
<stop offset="0.51" stop-color="#D2BE88"/>
<stop offset="1" stop-color="#A18B62"/>
</linearGradient>
<linearGradient id="paint11_linear_21147_4188" x1="121.45" y1="120.93" x2="33.8702" y2="33.34" gradientUnits="userSpaceOnUse">
<stop stop-color="#CCB479"/>
<stop offset="0.54" stop-color="#00022B"/>
<stop offset="1" stop-color="#BBA471"/>
</linearGradient>
<linearGradient id="paint12_linear_21147_4188" x1="32.21" y1="39.35" x2="32.21" y2="31.93" gradientUnits="userSpaceOnUse">
<stop stop-color="#A18B62"/>
<stop offset="0.07" stop-color="#A89268"/>
<stop offset="0.51" stop-color="#D2BE88"/>
<stop offset="1" stop-color="#A18B62"/>
</linearGradient>
<linearGradient id="paint13_linear_21147_4188" x1="123.11" y1="114.92" x2="123.11" y2="122.34" gradientUnits="userSpaceOnUse">
<stop stop-color="#A18B62"/>
<stop offset="0.07" stop-color="#A89268"/>
<stop offset="0.51" stop-color="#D2BE88"/>
<stop offset="1" stop-color="#A18B62"/>
</linearGradient>
<linearGradient id="paint14_linear_21147_4188" x1="121.093" y1="38.0541" x2="122.395" y2="35.8055" gradientUnits="userSpaceOnUse">
<stop stop-color="#A18B62"/>
<stop offset="0.07" stop-color="#A89268"/>
<stop offset="0.51" stop-color="#D2BE88"/>
<stop offset="1" stop-color="#A18B62"/>
</linearGradient>
<linearGradient id="paint15_linear_21147_4188" x1="123.774" y1="35.4024" x2="125.082" y2="33.1467" gradientUnits="userSpaceOnUse">
<stop stop-color="#A18B62"/>
<stop offset="0.07" stop-color="#A89268"/>
<stop offset="0.51" stop-color="#D2BE88"/>
<stop offset="1" stop-color="#A18B62"/>
</linearGradient>
<linearGradient id="paint16_linear_21147_4188" x1="121.411" y1="34.8791" x2="122.076" y2="33.7336" gradientUnits="userSpaceOnUse">
<stop stop-color="#A18B62"/>
<stop offset="0.07" stop-color="#A89268"/>
<stop offset="0.51" stop-color="#D2BE88"/>
<stop offset="1" stop-color="#A18B62"/>
</linearGradient>
<linearGradient id="paint17_linear_21147_4188" x1="124.078" y1="37.5449" x2="124.756" y2="36.3853" gradientUnits="userSpaceOnUse">
<stop stop-color="#A18B62"/>
<stop offset="0.07" stop-color="#A89268"/>
<stop offset="0.51" stop-color="#D2BE88"/>
<stop offset="1" stop-color="#A18B62"/>
</linearGradient>
<linearGradient id="paint18_linear_21147_4188" x1="126.27" y1="36.46" x2="125.84" y2="34.82" gradientUnits="userSpaceOnUse">
<stop stop-color="#A18B62"/>
<stop offset="0.07" stop-color="#A89268"/>
<stop offset="0.51" stop-color="#D2BE88"/>
<stop offset="1" stop-color="#A18B62"/>
</linearGradient>
<linearGradient id="paint19_linear_21147_4188" x1="120.37" y1="36.45" x2="119.93" y2="34.83" gradientUnits="userSpaceOnUse">
<stop stop-color="#A18B62"/>
<stop offset="0.07" stop-color="#A89268"/>
<stop offset="0.51" stop-color="#D2BE88"/>
<stop offset="1" stop-color="#A18B62"/>
</linearGradient>
<linearGradient id="paint20_linear_21147_4188" x1="123.62" y1="40.46" x2="122.6" y2="36.67" gradientUnits="userSpaceOnUse">
<stop stop-color="#A18B62"/>
<stop offset="0.07" stop-color="#A89268"/>
<stop offset="0.51" stop-color="#D2BE88"/>
<stop offset="1" stop-color="#A18B62"/>
</linearGradient>
<linearGradient id="paint21_linear_21147_4188" x1="123.61" y1="34.56" x2="122.61" y2="30.82" gradientUnits="userSpaceOnUse">
<stop stop-color="#A18B62"/>
<stop offset="0.07" stop-color="#A89268"/>
<stop offset="0.51" stop-color="#D2BE88"/>
<stop offset="1" stop-color="#A18B62"/>
</linearGradient>
<linearGradient id="paint22_linear_21147_4188" x1="123.7" y1="37.9" x2="122.48" y2="33.33" gradientUnits="userSpaceOnUse">
<stop stop-color="#A18B62"/>
<stop offset="0.07" stop-color="#A89268"/>
<stop offset="0.51" stop-color="#D2BE88"/>
<stop offset="1" stop-color="#A18B62"/>
</linearGradient>
<linearGradient id="paint23_linear_21147_4188" x1="30.195" y1="121.047" x2="31.4961" y2="118.799" gradientUnits="userSpaceOnUse">
<stop stop-color="#A18B62"/>
<stop offset="0.07" stop-color="#A89268"/>
<stop offset="0.51" stop-color="#D2BE88"/>
<stop offset="1" stop-color="#A18B62"/>
</linearGradient>
<linearGradient id="paint24_linear_21147_4188" x1="32.8751" y1="118.396" x2="34.1762" y2="116.133" gradientUnits="userSpaceOnUse">
<stop stop-color="#A18B62"/>
<stop offset="0.07" stop-color="#A89268"/>
<stop offset="0.51" stop-color="#D2BE88"/>
<stop offset="1" stop-color="#A18B62"/>
</linearGradient>
<linearGradient id="paint25_linear_21147_4188" x1="30.5061" y1="117.865" x2="31.1708" y2="116.72" gradientUnits="userSpaceOnUse">
<stop stop-color="#A18B62"/>
<stop offset="0.07" stop-color="#A89268"/>
<stop offset="0.51" stop-color="#D2BE88"/>
<stop offset="1" stop-color="#A18B62"/>
</linearGradient>
<linearGradient id="paint26_linear_21147_4188" x1="33.1791" y1="120.538" x2="33.8509" y2="119.371" gradientUnits="userSpaceOnUse">
<stop stop-color="#A18B62"/>
<stop offset="0.07" stop-color="#A89268"/>
<stop offset="0.51" stop-color="#D2BE88"/>
<stop offset="1" stop-color="#A18B62"/>
</linearGradient>
<linearGradient id="paint27_linear_21147_4188" x1="35.3699" y1="119.45" x2="34.9399" y2="117.81" gradientUnits="userSpaceOnUse">
<stop stop-color="#A18B62"/>
<stop offset="0.07" stop-color="#A89268"/>
<stop offset="0.51" stop-color="#D2BE88"/>
<stop offset="1" stop-color="#A18B62"/>
</linearGradient>
<linearGradient id="paint28_linear_21147_4188" x1="29.47" y1="119.44" x2="29.03" y2="117.82" gradientUnits="userSpaceOnUse">
<stop stop-color="#A18B62"/>
<stop offset="0.07" stop-color="#A89268"/>
<stop offset="0.51" stop-color="#D2BE88"/>
<stop offset="1" stop-color="#A18B62"/>
</linearGradient>
<linearGradient id="paint29_linear_21147_4188" x1="32.72" y1="123.44" x2="31.7" y2="119.66" gradientUnits="userSpaceOnUse">
<stop stop-color="#A18B62"/>
<stop offset="0.07" stop-color="#A89268"/>
<stop offset="0.51" stop-color="#D2BE88"/>
<stop offset="1" stop-color="#A18B62"/>
</linearGradient>
<linearGradient id="paint30_linear_21147_4188" x1="32.71" y1="117.55" x2="31.71" y2="113.81" gradientUnits="userSpaceOnUse">
<stop stop-color="#A18B62"/>
<stop offset="0.07" stop-color="#A89268"/>
<stop offset="0.51" stop-color="#D2BE88"/>
<stop offset="1" stop-color="#A18B62"/>
</linearGradient>
<linearGradient id="paint31_linear_21147_4188" x1="32.6498" y1="120.33" x2="31.7298" y2="116.88" gradientUnits="userSpaceOnUse">
<stop stop-color="#A18B62"/>
<stop offset="0.07" stop-color="#A89268"/>
<stop offset="0.51" stop-color="#D2BE88"/>
<stop offset="1" stop-color="#A18B62"/>
</linearGradient>
<linearGradient id="paint32_linear_21147_4188" x1="28.5116" y1="75.7433" x2="127.877" y2="75.7433" gradientUnits="userSpaceOnUse">
<stop stop-color="#AB8D60"/>
<stop offset="0.07" stop-color="#B19465"/>
<stop offset="0.51" stop-color="#DBC087"/>
<stop offset="1" stop-color="#AB8D60"/>
</linearGradient>
<linearGradient id="paint33_linear_21147_4188" x1="63.0808" y1="91.7801" x2="92.707" y2="91.7801" gradientUnits="userSpaceOnUse">
<stop stop-color="#AB8D60"/>
<stop offset="0.07" stop-color="#B19465"/>
<stop offset="0.51" stop-color="#DBC087"/>
<stop offset="1" stop-color="#AB8D60"/>
</linearGradient>
<linearGradient id="paint34_linear_21147_4188" x1="71.112" y1="59.556" x2="94.813" y2="59.556" gradientUnits="userSpaceOnUse">
<stop stop-color="#AB8D60"/>
<stop offset="0.07" stop-color="#B19465"/>
<stop offset="0.51" stop-color="#DBC087"/>
<stop offset="1" stop-color="#AB8D60"/>
</linearGradient>
<linearGradient id="paint35_linear_21147_4188" x1="60.3668" y1="73.667" x2="62.7128" y2="73.667" gradientUnits="userSpaceOnUse">
<stop stop-color="#AB8D60"/>
<stop offset="0.07" stop-color="#B19465"/>
<stop offset="0.51" stop-color="#DBC087"/>
<stop offset="1" stop-color="#AB8D60"/>
</linearGradient>
<linearGradient id="paint36_linear_21147_4188" x1="44.7031" y1="118.826" x2="53.0947" y2="118.826" gradientUnits="userSpaceOnUse">
<stop stop-color="#AB8D60"/>
<stop offset="0.07" stop-color="#B19465"/>
<stop offset="0.51" stop-color="#DBC087"/>
<stop offset="1" stop-color="#AB8D60"/>
</linearGradient>
<linearGradient id="paint37_linear_21147_4188" x1="59.271" y1="123.171" x2="67.8631" y2="123.171" gradientUnits="userSpaceOnUse">
<stop stop-color="#AB8D60"/>
<stop offset="0.07" stop-color="#B19465"/>
<stop offset="0.51" stop-color="#DBC087"/>
<stop offset="1" stop-color="#AB8D60"/>
</linearGradient>
<linearGradient id="paint38_linear_21147_4188" x1="48.7339" y1="132.093" x2="57.316" y2="132.093" gradientUnits="userSpaceOnUse">
<stop stop-color="#AB8D60"/>
<stop offset="0.07" stop-color="#B19465"/>
<stop offset="0.51" stop-color="#DBC087"/>
<stop offset="1" stop-color="#AB8D60"/>
</linearGradient>
<linearGradient id="paint39_linear_21147_4188" x1="87.4941" y1="122.027" x2="95.8156" y2="122.027" gradientUnits="userSpaceOnUse">
<stop stop-color="#AB8D60"/>
<stop offset="0.07" stop-color="#B19465"/>
<stop offset="0.51" stop-color="#DBC087"/>
<stop offset="1" stop-color="#AB8D60"/>
</linearGradient>
<linearGradient id="paint40_linear_21147_4188" x1="100.858" y1="112.744" x2="109.471" y2="112.744" gradientUnits="userSpaceOnUse">
<stop stop-color="#AB8D60"/>
<stop offset="0.07" stop-color="#B19465"/>
<stop offset="0.51" stop-color="#DBC087"/>
<stop offset="1" stop-color="#AB8D60"/>
</linearGradient>
<linearGradient id="paint41_linear_21147_4188" x1="100.066" y1="130.046" x2="108.277" y2="130.046" gradientUnits="userSpaceOnUse">
<stop stop-color="#AB8D60"/>
<stop offset="0.07" stop-color="#B19465"/>
<stop offset="0.51" stop-color="#DBC087"/>
<stop offset="1" stop-color="#AB8D60"/>
</linearGradient>
<linearGradient id="paint42_linear_21147_4188" x1="61.1656" y1="60.0677" x2="67.3916" y2="60.0677" gradientUnits="userSpaceOnUse">
<stop stop-color="#AB8D60"/>
<stop offset="0.07" stop-color="#B19465"/>
<stop offset="0.51" stop-color="#DBC087"/>
<stop offset="1" stop-color="#AB8D60"/>
</linearGradient>
<linearGradient id="paint43_linear_21147_4188" x1="62.7898" y1="58.3115" x2="68.8053" y2="58.3115" gradientUnits="userSpaceOnUse">
<stop stop-color="#AB8D60"/>
<stop offset="0.07" stop-color="#B19465"/>
<stop offset="0.51" stop-color="#DBC087"/>
<stop offset="1" stop-color="#AB8D60"/>
</linearGradient>
<linearGradient id="paint44_linear_21147_4188" x1="60.9048" y1="86.9229" x2="62.9701" y2="86.9229" gradientUnits="userSpaceOnUse">
<stop stop-color="#AB8D60"/>
<stop offset="0.07" stop-color="#B19465"/>
<stop offset="0.51" stop-color="#DBC087"/>
<stop offset="1" stop-color="#AB8D60"/>
</linearGradient>
<linearGradient id="paint45_linear_21147_4188" x1="59.0105" y1="90.3852" x2="64.8656" y2="90.3852" gradientUnits="userSpaceOnUse">
<stop stop-color="#AB8D60"/>
<stop offset="0.07" stop-color="#B19465"/>
<stop offset="0.51" stop-color="#DBC087"/>
<stop offset="1" stop-color="#AB8D60"/>
</linearGradient>
<linearGradient id="paint46_linear_21147_4188" x1="92.0051" y1="86.9229" x2="94.0805" y2="86.9229" gradientUnits="userSpaceOnUse">
<stop stop-color="#AB8D60"/>
<stop offset="0.07" stop-color="#B19465"/>
<stop offset="0.51" stop-color="#DBC087"/>
<stop offset="1" stop-color="#AB8D60"/>
</linearGradient>
<linearGradient id="paint47_linear_21147_4188" x1="90.1109" y1="90.3852" x2="95.9659" y2="90.3852" gradientUnits="userSpaceOnUse">
<stop stop-color="#AB8D60"/>
<stop offset="0.07" stop-color="#B19465"/>
<stop offset="0.51" stop-color="#DBC087"/>
<stop offset="1" stop-color="#AB8D60"/>
</linearGradient>
<linearGradient id="paint48_linear_21147_4188" x1="102.683" y1="69.3405" x2="124.268" y2="69.3405" gradientUnits="userSpaceOnUse">
<stop stop-color="#AB8D60"/>
<stop offset="0.07" stop-color="#B19465"/>
<stop offset="0.51" stop-color="#DBC087"/>
<stop offset="1" stop-color="#AB8D60"/>
</linearGradient>
<linearGradient id="paint49_linear_21147_4188" x1="28.0605" y1="79.4765" x2="48.6234" y2="79.4765" gradientUnits="userSpaceOnUse">
<stop stop-color="#AB8D60"/>
<stop offset="0.07" stop-color="#B19465"/>
<stop offset="0.51" stop-color="#DBC087"/>
<stop offset="1" stop-color="#AB8D60"/>
</linearGradient>
<linearGradient id="paint50_linear_21147_4188" x1="55.3911" y1="113.276" x2="97.5596" y2="113.276" gradientUnits="userSpaceOnUse">
<stop stop-color="#AB8D60"/>
<stop offset="0.07" stop-color="#B19465"/>
<stop offset="0.51" stop-color="#DBC087"/>
<stop offset="1" stop-color="#AB8D60"/>
</linearGradient>
<linearGradient id="paint51_linear_21147_4188" x1="86.8718" y1="105.198" x2="108.247" y2="105.198" gradientUnits="userSpaceOnUse">
<stop stop-color="#AB8D60"/>
<stop offset="0.07" stop-color="#B19465"/>
<stop offset="0.51" stop-color="#DBC087"/>
<stop offset="1" stop-color="#AB8D60"/>
</linearGradient>
<linearGradient id="paint52_linear_21147_4188" x1="76.0737" y1="131.21" x2="79.5427" y2="131.21" gradientUnits="userSpaceOnUse">
<stop stop-color="#AB8D60"/>
<stop offset="0.07" stop-color="#B19465"/>
<stop offset="0.51" stop-color="#DBC087"/>
<stop offset="1" stop-color="#AB8D60"/>
</linearGradient>
<linearGradient id="paint53_linear_21147_4188" x1="48.4031" y1="105.037" x2="68.7555" y2="105.037" gradientUnits="userSpaceOnUse">
<stop stop-color="#AB8D60"/>
<stop offset="0.07" stop-color="#B19465"/>
<stop offset="0.51" stop-color="#DBC087"/>
<stop offset="1" stop-color="#AB8D60"/>
</linearGradient>
<linearGradient id="paint54_linear_21147_4188" x1="56.0826" y1="131.24" x2="97.058" y2="131.24" gradientUnits="userSpaceOnUse">
<stop stop-color="#AB8D60"/>
<stop offset="0.07" stop-color="#B19465"/>
<stop offset="0.51" stop-color="#DBC087"/>
<stop offset="1" stop-color="#AB8D60"/>
</linearGradient>
<linearGradient id="paint55_linear_21147_4188" x1="51.2402" y1="129.303" x2="54.0074" y2="129.303" gradientUnits="userSpaceOnUse">
<stop stop-color="#AB8D60"/>
<stop offset="0.07" stop-color="#B19465"/>
<stop offset="0.51" stop-color="#DBC087"/>
<stop offset="1" stop-color="#AB8D60"/>
</linearGradient>
<linearGradient id="paint56_linear_21147_4188" x1="100.136" y1="129.474" x2="102.903" y2="129.474" gradientUnits="userSpaceOnUse">
<stop stop-color="#AB8D60"/>
<stop offset="0.07" stop-color="#B19465"/>
<stop offset="0.51" stop-color="#DBC087"/>
<stop offset="1" stop-color="#AB8D60"/>
</linearGradient>
<linearGradient id="paint57_linear_21147_4188" x1="44.834" y1="80.751" x2="55.0102" y2="80.751" gradientUnits="userSpaceOnUse">
<stop stop-color="#AB8D60"/>
<stop offset="0.07" stop-color="#B19465"/>
<stop offset="0.51" stop-color="#DBC087"/>
<stop offset="1" stop-color="#AB8D60"/>
</linearGradient>
<linearGradient id="paint58_linear_21147_4188" x1="102.352" y1="83.4005" x2="115.646" y2="83.4005" gradientUnits="userSpaceOnUse">
<stop stop-color="#AB8D60"/>
<stop offset="0.07" stop-color="#B19465"/>
<stop offset="0.51" stop-color="#DBC087"/>
<stop offset="1" stop-color="#AB8D60"/>
</linearGradient>
<linearGradient id="paint59_linear_21147_4188" x1="100.427" y1="92.4726" x2="107.736" y2="92.4726" gradientUnits="userSpaceOnUse">
<stop stop-color="#AB8D60"/>
<stop offset="0.07" stop-color="#B19465"/>
<stop offset="0.51" stop-color="#DBC087"/>
<stop offset="1" stop-color="#AB8D60"/>
</linearGradient>
<linearGradient id="paint60_linear_21147_4188" x1="57.627" y1="50.0221" x2="99.6952" y2="50.0221" gradientUnits="userSpaceOnUse">
<stop stop-color="#AB8D60"/>
<stop offset="0.07" stop-color="#B19465"/>
<stop offset="0.51" stop-color="#DBC087"/>
<stop offset="1" stop-color="#AB8D60"/>
</linearGradient>
<clipPath id="clip0_21147_4188">
<rect width="155.32" height="154.28" fill="white"/>
</clipPath>
</defs>
</svg>
